<svg xmlns="http://www.w3.org/2000/svg" width="1024" height="1024" viewBox="0 0 1024 1024"><path fill="#282523" d="M0 0h1024v1024H0z"/><path fill="#090909" d="M705.013 203.888c3.227-7.381 7.193-19.72 9.99-27.647l18.519-53.106c1.969-5.719 4.342-13.495 6.499-19.37.349-.951 2.319-.693 3.601-.74l1.607.247 2.937.234c8.624-.225 24.492 2.892 32.917 4.857-.023 27.882-.636 58.426.14 86.043.007 7.635 1.116 51.563-.033 54.626.12 3.071.65 8.199-.436 10.887 1.4 2.282.797 23.869.789 28.481l.056 54.105c4.95-7.467 9.619-14.473 14.848-21.804.332 7.016-.177 14.66.459 21.556.733-8.998-.276-20.019-.353-29.143-.112-13.376-.077-26.766-.081-40.143l-.219-159.516c7.116 2.328 14.336 5.33 21.227 8.29 1.611.68 7.242 3.355 8.417 4.422 3.046 1.453 5.399 3.09 8.294 4.639 1.665 1.019 3.388 2.043 5.024 3.097 1.916.501 5.973 4.219 7.756 5.63 13.285 10.513 25.883 22.632 35.915 36.385 13.591 16.689 10.742 16.681 10.727 37.249l.009 43.639c.017 6.971-.269 16.549.248 23.204 4.853-7.316 10.193-15.067 14.781-22.497a152 152 0 0 0 7.46-11.682c1.124 3.03 4.202 12.376 3.523 15.282l-.293.393c3.181 6.091 2.164 68.474 2.163 79.618l.058 82.504c.012 4.874.625 43.95-.669 45.881.841 1.754 1.14 12.881.007 14.524 1.537 2.54.559 53.913.65 62.147l.027 148.64c.18 4.891-.258 12.353.235 16.754.1 3.211.238 17.875-.346 20.492 1.219 5.289-.854 26.473-1.999 32.052a184.4 184.4 0 0 1-31.237 77.825 185.16 185.16 0 0 1-120.397 76.351c-19.144 3.387-37.425 3.121-56.836 3.073l-46.51-.084-154.887.069-154.833.005-50.971-.046c-14.532-.139-28.248-.043-42.639-2.344-83.647-13.372-141.428-72.333-156.001-154.84-1.667-3.769-2.221-28.097-1.984-32.73q.251-10.177.116-20.354c-.423-1.906-.098-15.429.121-17.81.753-15.074.082-35.741.055-51.11l-.022-95.721c.396-21.397-.209-43.538-.168-64.994-.568-2.27-.303-12.199-.082-14.781.735-4.782.288-24.083.287-29.796l-.015-64.718-.013-66.125c.006-10.769-.599-36.204 1.864-45.151-.71-2.231 1.885-12.91 2.562-15.945 3.027 4.364 5.968 8.61 8.9 13.047 3.563 5.889 10.075 16.159 14.437 21.533 3.059 5.007 6.768 10.116 10.142 14.956l15.074 22.992c.297-8.772.021-19.362.007-28.267a5663 5663 0 0 1-.039-63.053l.094-42.745c-4.135-4.719-7.164-7.678-11.722-11.843 9.534-12.878 28.438-28.365 41.316-37.519 1.254-1.46 3.297-2.403 5.016-3.37l.655-.371a78 78 0 0 1 5.713-3.107c1.129-.879 5.945-3.463 7.331-4.061 7.294-3.979 17.316-7.652 25.214-10.436 4.754-.909 10.771-3.409 16.39-4.562 11.771-2.265 19.605-3.417 31.539-4.586 1.67.095 1.487-.076 2.963.546l.783-.831 3.592-.159c.779.162 1.425.146 1.872.55 1.089-.511 1.323-.382 2.624-.485 2.149.052 8.428-.046 9.956.778 1.948-.755 9.089-.484 11.765-.505 5.887 13.769 11.062 27.697 16.466 41.659 3.871 10.005 8.499 20.031 12.31 29.999-6.192 5.2-9.377 8.254-13.585 15.06.003 2.158.116 5.813-.423 7.785 1.257 4.483 4.853 9.316 7.874 12.772-1.39.877-2.394 1.427-3.889 2.103l-.828 1.028c-1.086 1.117-2.061 1.392-3.473 2.08l-1.732-.294c5.846 11.593 8.816 12.588 1.378 25.411-.236.123-.392.361-.57.575 3.155 6.435-8.149-.275-9.148-.726.805 12.146.249 30.411.247 42.903l-.065 79.241a416 416 0 0 0 7.901 13.387c.434 26.397.125 52.621.209 79.003l-.013 169.577-.049 80.205c.011 15.339-.421 35.481.612 50.615l.281.694c.687 1.644.511 6.312.593 8.257l-.67.917c2.991 1.814 4.923 1.96 4.988 5.509l-.536 1.268c1.416 1.505 1.11 18.045 1.14 21.384l.282 1.439c1.418 1.248 1.517 1.963.607 3.566.074.772.17.473-.081.939 1.136.838 1.848 1.035 1.97 2.682.427 5.744.26 11.933.241 17.709l-.096 34.919c11.37-.246 23.391-1.831 34.964-2.302l-1.176-.458-.345-.982c3.889-19.229 8.9-38.648 12.335-57.962 8.743-49.158 19.883-98.122 25.115-147.822-10.097-2.947-20.704-7.716-29.297-13.798 1.435-19.635 6.413-46.037 10.213-65.739 5.167-26.797 11.232-54.894 17.332-81.499 3.496-15.249 9.436-33.65 13.993-48.676-7.37-7.229-4.923-12.357-2.191-21.31-6.013-4.01-15.226-13.761-11.144-21.06 5.897-10.545 25.435-16.704 35.96-20.294-30.033-18.408-30.7-41.246-6.184-65.568 5.622-5.577 6.746-8.783 6.406-16.375-3.875-5.569-10.169-10.266-15.435-14.671 22.692-21.207 41.472-21.384 69.901-13.851 11.401-.308 51.73 22.938 60.617 32.132 3.283 3.396 4.848 6.077 4.569 11.051-1.433 25.611-17.826 56.967-35.936 74.73-2.684 2.632-7.809 7.638-10.766 9.143-.394-.058-.986-.114-1.336-.239l-1.107-.029c2.625 7.325 4.309 12.882 5.34 20.665.863 3.553 3.255 6.429 4.963 9.609 4.966 9.244 6.915 13.515 17.374 17.007 13.102-4.21 26.191-9.262 39.149-13.442l1.231.329c.739 1.703.371 1.95.174 4.097 2.578-2.787 11.653-10.473 14.691-12.9 4.569-3.652 27.262-27.17 31.066-27.328 4.462.996 13.247 5.64 17.246 8.241 1.036.478 3.516 1.381 3.716 2.509.706 3.98-.033 9.111-.646 12.901l.255 1.247c2.318 1.281 12.587 3.217 16.013 4.289 14.893 4.656 30.478 13.576 41.867 24.135 3.429 4.125 6.739 9.862 9.462 14.559.281-3.011.104-8.663.099-11.865.631-10.101.104-26.122.065-36.629l-.412-65.467c-.558-34.221.125-69.187-.101-103.482-2.123.374-2.786.418-4.718 1.265l.053-1.268c-2.175 1.357-3.031 1.687-5.327 2.712-4.6-4.08-4.775-9.966-4.112-15.583l1.324-2.159c.415-.646.729-1.053 1.027-1.751-.179-2.302-.139-2.62.442-4.858-.13-.1-2.578-1.652-2.252-2.111 1.962-2.764 4.182-6.907 6.609-9.14l-.313-.183.288-.931z"/><path fill="#282523" d="m539.229 556.611 1.419-1.105c32.07 38.136 92.137 52.071 136.494 28.062 7.518-4.069 14.38-8.86 20.908-14.366a159 159 0 0 0 3.834-3.322c.653 4.018.39 13.497.411 18.02l.12 35.853c.081 45.23-.562 92.011.156 137.091-.059 2.686-.128 5.287-.068 7.975l1.266.613c-2.553 1.075-6.066 3.104-6.085 6.189l.004 1.228c-.535.827-1.077 19.88-.745 20.965-.412.298-.445.43-.486.961l-.024.261c-1.053 1.895-1.323 1.585-1.442 3.776.001.465-.036.862-.069 1.326l-1.071 1.2c-.584 13.853-.379 42.404-.396 54.991-5.748-.556-12.363-.827-18.165-1.03-35.787-1.252-72.16-4.365-107.901-4.944-1.842-1.089-4.821.323-7.831-.991 5.149-1.946 9.528-3.678 14.317-6.405a15153 15153 0 0 0-34.646-286.348"/><path fill="#fbdfbe" d="M578.159 427.746c2.578-2.787 11.653-10.473 14.691-12.9 4.569-3.652 27.262-27.17 31.066-27.328 4.462.996 13.247 5.64 17.246 8.241 1.036.478 3.516 1.381 3.716 2.509.706 3.98-.033 9.111-.646 12.901l.255 1.247c2.318 1.281 12.587 3.217 16.013 4.289 14.893 4.656 30.478 13.576 41.867 24.135 3.429 4.125 6.739 9.862 9.462 14.559.797 7.188.12 22.212.116 30.093l.129 61.018c-3.448 5.07-8.968 12.47-9.908 18.358-.097.609-.052.385-.282 1.012a159 159 0 0 1-3.834 3.322c-6.528 5.506-13.39 10.297-20.908 14.366-44.357 24.009-104.424 10.074-136.494-28.062l-1.419 1.105a32 32 0 0 1-.481-2.782c-.54-1.101-.673-6.169-.736-7.657 7.006 3.134 20.476 9.508 27.781 10.457l.982-.452c1.468 2.192 4.313 1.579 6.492.634 2.205-2.093 2.083-5.252 3.341-8.309-.505-1.219-.7-1.51-1.371-2.66 6.064-30.727 10.03-56.497 10.432-88.013-.419-.97-.476-1.188-.767-2.252-.995 1.233-7.006 8.887-7.675 9.181-.235-.099-.407-.42-.563-.64.791-9.141.843-23.757 1.645-33.321l.82-.884a27 27 0 0 0-.97-2.167"/><path fill="#b5895c" d="m644.232 411.169.255 1.247c2.318 1.281 12.587 3.217 16.013 4.289 14.893 4.656 30.478 13.576 41.867 24.135 3.429 4.125 6.739 9.862 9.462 14.559.797 7.188.12 22.212.116 30.093l.129 61.018c-3.448 5.07-8.968 12.47-9.908 18.358-.097.609-.052.385-.282 1.012a159 159 0 0 1-3.834 3.322c-6.528 5.506-13.39 10.297-20.908 14.366-44.357 24.009-104.424 10.074-136.494-28.062l-1.419 1.105a32 32 0 0 1-.481-2.782c-.54-1.101-.673-6.169-.736-7.657 7.006 3.134 20.476 9.508 27.781 10.457l.982-.452c1.468 2.192 4.313 1.579 6.492.634 2.205-2.093 2.083-5.252 3.341-8.309 8.712 8.98 15.941 13.611 27.902 17.967a73.06 73.06 0 0 0 56.329-2.53c4.948-2.323 9.139-4.9 13.46-8.333 46.814-37.196 30.28-112.88-29.006-125.029-3.499-.717-5.72-1.335-9.106.333 1.553-4.45.911-4.817.699-9.162.228-.112.645-.215.734-.481-.053-.146-.004-.056-.197-.275 1.127-.793 2.64-.098 4.046-1.932a1.426 1.426 0 0 1 1.052-2.205l.866-3.769c.741-.579.548-1.07.845-1.917"/><path fill="#fbdfbe" d="M642.521 416.855a1.424 1.424 0 0 1 .72 2.718 1.425 1.425 0 1 1-.72-2.718"/><path fill="#3f261a" d="M538.748 553.829c.21-.271.231-.417.486-.478.721.466.994 1.336 1.414 2.155l-1.419 1.105a32 32 0 0 1-.481-2.782"/><path fill="#090909" d="M617.513 465.569c4.397-.229 7.969.276 12.237.389 6.969.157 13.941.119 20.907-.114 1.278 4.302 2.807 8.414 4.527 12.558 8.542 20.575 15.363 44.723-6.454 59.681-9.716-.372-19.959.299-29.723-.159-3.872-2.802-8.373-6.191-10.687-10.49-11.46-21.298 4.202-42.219 9.193-61.865"/><path fill="#fffdfa" d="M624.701 474.93c6.911.071 13.081.359 20.041.296 1.879 6.257 3.646 14.142 4.344 20.662 1.264 12.23 1.418 16.785.178 29.005-8.562.176-20.732.342-29.184-.126-2.465-9.303-2.165-20.132-.279-29.548.617-2.643 1.026-5.322 1.605-7.974l.205-.989a100 100 0 0 1 3.09-11.326"/><path fill="#cc9c6b" d="M624.701 474.93c6.911.071 13.081.359 20.041.296 1.879 6.257 3.646 14.142 4.344 20.662-2.4-.712-4.343-2.058-6.831-2.918-9.409-3.253-14.203-1.437-22.454 2.249.617-2.643 1.026-5.322 1.605-7.974l.205-.989a100 100 0 0 1 3.09-11.326"/><path fill="#fffdfa" d="M616.06 496.919c-1.222 10.23-1.449 17.759.816 27.77-2.929.099-5.032.122-7.975.006-2.479-7.773-1.587-8.267-2.144-15.646 2.485-4.33 5.025-9.324 9.303-12.13"/><path fill="#fffdfa" d="M652.826 498.817c1.891-.724 3.946 4.001 5.271 5.72 1.243-.753 1.265-.731 2.671-1.125.577 4.254 1.056 6.321.337 10.663-.461 4.217-1.397 6.949-2.94 10.894-5.671-.082-6.177 1.124-5.211-3.969 1.315-6.931.429-15.159-.128-22.183"/><path fill="#d9b58d" d="M658.097 504.537c1.243-.753 1.265-.731 2.671-1.125.577 4.254 1.056 6.321.337 10.663-.315-5.724-.28-4.17-3.008-9.538"/><path fill="#cc9c6b" d="M606.757 509.049c.184-10.087 5.068-23.616 9.819-32.532.409-.767 2.88-2.495 3.768-1.709.079.26-3.881 19.78-4.284 22.111-4.278 2.806-6.818 7.8-9.303 12.13"/><path fill="#cc9c6b" d="M652.826 498.817c-.423-.98-.646-3.829-.868-5.059-.833-4.781-1.881-9.517-2.963-14.246-.095-.72-1.09-3.17-.63-3.836.431-.623 2.539-.302 2.973.444 4.783 8.222 7.718 17.967 9.43 27.292-1.406.394-1.428.372-2.671 1.125-1.325-1.719-3.38-6.444-5.271-5.72"/><path fill="#090909" d="M578.159 427.746c2.578-2.787 11.653-10.473 14.691-12.9 4.569-3.652 27.262-27.17 31.066-27.328 4.462.996 13.247 5.64 17.246 8.241 1.036.478 3.516 1.381 3.716 2.509.706 3.98-.033 9.111-.646 12.901-.297.847-.104 1.338-.845 1.917l-.866 3.769a1.424 1.424 0 0 0-1.052 2.205c-1.406 1.834-2.919 1.139-4.046 1.932.193.219.144.129.197.275-.089.266-.506.369-.734.481-.815.081-3.588-.078-3.568 1 .551.811 1.428.176 1.938.893.758 1.065.299 5.381-.579 6.107-3.165.524-2.967-6.632-3.174-7.743l-.192-.989c-5.757 3.898 2.522 9.453.466 10.465-3.595-1.43-12.29.999-16.042 1.938-4.579 1.145-9.734 2.887-13.803 5.326-2.471 1.477-2.067 1.452-3.855-.401a805 805 0 0 0-13.175 17.233c-.995 1.233-7.006 8.887-7.675 9.181-.235-.099-.407-.42-.563-.64.791-9.141.843-23.757 1.645-33.321l.82-.884a27 27 0 0 0-.97-2.167"/><path fill="#fbdfbe" d="M578.159 427.746c2.578-2.787 11.653-10.473 14.691-12.9 4.569-3.652 27.262-27.17 31.066-27.328l.647 1.197c-5.015 12.181-33.461 34.401-45.434 41.198a27 27 0 0 0-.97-2.167"/><path fill="#cc9c6b" d="M608.904 427.795c8.598-1.364 14.341-3.991 22.407-6.779-5.757 3.898 2.522 9.453.466 10.465-3.595-1.43-12.29.999-16.042 1.938-4.579 1.145-9.734 2.887-13.803 5.326-2.471 1.477-2.067 1.452-3.855-.401.763-1.086 4.15-5.773 5.054-6.528 2.904-.486 3.479-1.943 5.773-4.021"/><path fill="#d9b58d" d="M627.664 418.899c3.664 1.477 5.879 2.062 9.759 2.093.193.219.144.129.197.275-.089.266-.506.369-.734.481-.815.081-3.588-.078-3.568 1 .551.811 1.428.176 1.938.893.758 1.065.299 5.381-.579 6.107-3.165.524-2.967-6.632-3.174-7.743l-.192-.989c-8.066 2.788-13.809 5.415-22.407 6.779-2.294 2.078-2.869 3.535-5.773 4.021 1.607-2.186 3.028-3.677 4.607-5.726 8.253-.728 13.077-2.366 19.926-7.191"/><path fill="#d9b58d" d="M641.162 395.759c1.036.478 3.516 1.381 3.716 2.509.706 3.98-.033 9.111-.646 12.901-.297.847-.104 1.338-.845 1.917-.733-1.743-.694-1.822-2.391-2.587l.527-.577c2.481-.619 1.813-3.873 1.749-3.922-3.904-2.973-13.574-8.019-17.223-11.06q1.228.626 2.469 1.232c4.358 2.08 10.463 5.84 15.017 8.341.34-4.985 1.53-5.507-2.7-7.913z"/><path fill="#d9b58d" d="M623.916 387.518c4.462.996 13.247 5.64 17.246 8.241l-.327.841c-5.779-2.519-10.26-5.915-16.272-7.885z"/><path fill="#a08c78" d="M640.996 410.499c-3.863-1.555-7.421-3.81-11.271-5.407-.267-.111-2.927-1.075-2.219-1.889 1.22-.328 12.127 5.66 14.017 6.719z"/><path fill="#a08c78" d="M630.701 412.429c1.123.389 9.448 3.689 9.545 4.395-1.486.575-8.832-3.103-10.269-3.951z"/><path fill="#a08c78" d="M628.135 412.21c-1.545-1.136-1.386-1.922.311-1.118l.754.337z"/><path fill="#322b27" d="M629.2 411.429a58 58 0 0 1 1.501 1l-.724.444a55 55 0 0 0-1.842-.663z"/><path fill="#090909" d="M619.007 537.924c9.764.458 20.007-.213 29.723.159.016.691.091 1.066.194 1.782.965 2.143 1.521 4.085 2.44 6.083-.151.931-.549 1.016-1.306 1.555 1.604 0 5.553-.214 7.032.339.245.143.498.612.513.867.145 2.467.418 3.351-2.097 3.356-14.521.03-28.99.077-43.507-.033-.85-.006-2.242.243-2.528-.98-.133-.723-.121-2.033.274-2.702.443-.751 1.47-.778 2.24-.875l.505-.148c1.736-.494 2.117-1.199 3.749-1.617 1.31-2.268 1.371-3.21 2.147-5.771.241-.719.432-1.276.621-2.015"/><path fill="#090909" d="M619.007 537.924c9.764.458 20.007-.213 29.723.159.016.691.091 1.066.194 1.782.965 2.143 1.521 4.085 2.44 6.083-4.123.264-32.237.46-35.125-.238 1.31-2.268 1.371-3.21 2.147-5.771.241-.719.432-1.276.621-2.015"/><path fill="#d9b58d" d="M619.007 537.924c9.764.458 20.007-.213 29.723.159.016.691.091 1.066.194 1.782l-30.538.074c.241-.719.432-1.276.621-2.015"/><path fill="#d9b58d" d="m611.985 547.475.505-.148c1.736-.494 2.117-1.199 3.749-1.617 2.888.698 31.002.502 35.125.238-.151.931-.549 1.016-1.306 1.555-11.435.478-26.414.066-38.073-.028"/><path fill="#090909" d="m631.311 421.016.192.989c.207 1.111.009 8.267 3.174 7.743.878-.726 1.337-5.042.579-6.107-.51-.717-1.387-.082-1.938-.893-.02-1.078 2.753-.919 3.568-1 .212 4.345.854 4.712-.699 9.162.094.884.734.947 1.533 1.368 5.455 2.845 6.585 12.815.463 15.527-1.232.546-1.053 2.366-.413 2.773 1.62 1.03 5.86-.477 7.484 1.36 1.588 1.797 3.166 4.829 3.362 7.268l.328 1.366c-7.973.344-21.51.789-29.48.062l-.376-1.067c3.736-10.228 3.616-8.003 13.967-9.123-1.222-1.335-2.38-2.406-3.635-3.68-3.93-3.989-2.629-11.737 1.699-14.804l.658-.479c2.056-1.012-6.223-6.567-.466-10.465"/><path fill="#a08c78" d="M619.088 459.567c11.506.377 18.224-.024 29.528-.361l.328 1.366c-7.973.344-21.51.789-29.48.062z"/><path fill="#fbdfbe" d="M632.543 433.295c8.636 1.624 11.272 8.099 4.445 13.683-2.441-.781-4.771.065-6.273-1.334-3.664-3.416-1.581-8.774 1.209-11.682z"/><path fill="#fbdfbe" d="M634.058 448.843a1.144 1.144 0 1 1 1.51 1.718 1.144 1.144 0 0 1-1.51-1.718"/><path fill="#090909" d="M648.944 460.572c1.284-.028 7.975-.456 9.249.427.618.428.876 2.838-.673 3.119-1.995.362-4.191.279-6.371.373l-.492 1.353c-6.966.233-13.938.271-20.907.114-4.268-.113-7.84-.618-12.237-.389l-.587-1.064c-1.196.017-10.794 1.728-7.765-3.71.163-.292 8.439-.258 10.303-.161 7.97.727 21.507.282 29.48-.062"/><path fill="#99704f" d="M616.926 464.505c7.941-.466 26.335-.636 34.223-.014l-.492 1.353c-6.966.233-13.938.271-20.907.114-4.268-.113-7.84-.618-12.237-.389z"/><path fill="#b5895c" d="m558.266 849.052 1.292.312c3.01 1.314 5.989-.098 7.831.991 35.741.579 72.114 3.692 107.901 4.944 5.802.203 12.417.474 18.165 1.03 3.177.066 9.74.015 12.649.386 3.181.527 8.695.838 11.903.736 1.62.036 2.366.013 3.981-.126l.596-.725c.556 1.008.393 1.227 1.276 1.323 6.025.657 14.793.697 20.636 1.232 20.789 1.904 74.502 2.299 91.556 9.464-13.869 7.975-46.243 10.264-62.52 12.21a2342 2342 0 0 1-195.241 13.546c-38.11.895-76.714.041-114.844.104-26.922.044-54.413-2.144-81.109-2.441-.298-.069-2.397-.397-2.541-.745.321-.273 1.381-.637 1.749-.802 4.058.122 16.525-1.405 20.908-1.852l40.162-3.981 73.706-7.21c8.604-.856 51.392-3.937 54.849-9.046l-.397-1.203c-4.639-3.726-34.204-6.602-40.094-5.963l1.193-1.354c2.919.17 22.489-3.799 25.898-4.725.864-1.328.653-3.007.683-4.68z"/><path fill="#3f261a" d="m558.266 849.052 1.292.312c3.01 1.314 5.989-.098 7.831.991-2.887.143-5.875-.012-8.935.122z"/><path fill="#fbdfbe" d="M521.473 537.804c4.143 2.496 11.946 6.104 16.539 8.368.063 1.488.196 6.556.736 7.657.138 1 .26 1.785.481 2.782a15153 15153 0 0 1 34.646 286.348c-4.789 2.727-9.168 4.459-14.317 6.405l-1.292-.312a6795 6795 0 0 0-11.055-105.402l-4.447-38.178c-.825-7.255-2.189-18.345-2.237-25.46-.77-1.365-.548-1.315-1.495-.708-.07 42.292-1.482 81.528-9.205 123.392-.751-.989-.896-1.003-1.123-2.103 3.592-34.241 2.777-72.018 2.061-106.34l-1.779-97.829-1.312-.948c-6.085 29.384-10.088 42.502-21.292 70.953l-.926-.802c13.32-42.671 16.551-83.551 16.017-127.823"/><path fill="#a08c78" d="M539.032 679.304c-.102-1.139-.152-9.4.332-10.018l-.018.039.295.156c.374 2.056.935 8.373.886 10.531-.77-1.365-.548-1.315-1.495-.708"/><path fill="#211e1d" d="m528.001 592.331 1.184.113c-.166 1.524-.186 2.425-.199 3.98l-1.312-.948c.107-1.05.248-2.093.327-3.145"/><path fill="#785842" d="M528.001 592.331c.14-.557.333-1.696.706-2.146l.038-.002c.242.243.406 2.041.44 2.261z"/><path fill="#594232" d="M230.022 327.08c4.38 8.581 10.963 24.418 15.642 31.939l-.004.525-.173 61.738c-.029 7.407-.533 24.185.057 30.713-.281 2.76-.931 9.138.148 11.553-.873 2.005-.318 20.096-.274 23.876-.507 6.644-.296 15.858-.304 22.667l.018 40.589-.076 37.467c-.014 5.738-.279 14.881.104 20.387-.139 2.208-.818 8.364.465 9.904-.754 2.333-.438 14.301-.433 17.361l.047 53.755c-.016 3.851.144 19.219-.409 22.467-2.049-.818-6.796-3.531-8.671-4.768l.279-1.402c-4.042-2.043-7.96-4.177-12.048-6.233 2.141-2.678 4.929-6.94 5.181-10.426-.271-3.576-.005-9.749.013-13.594l.032-24.773.15-83.843z"/><path fill="#fbdfbe" d="m229.94 682.52 1.196-1.048.126.575c1.96 8.72 4.729 14.31 5.176 23.804-4.042-2.043-7.96-4.177-12.048-6.233 2.141-2.678 4.929-6.94 5.181-10.426.494-2.627.487-3.926.369-6.672"/><path fill="#d9b58d" d="M229.94 682.52c.017-.414-.032-2.786.359-2.977.475.319.692 1.426.837 1.929z"/><path fill="#594232" d="M796.447 320.701c.332 7.016-.177 14.66.459 21.556l.111 231.573.088 69.832c.007 7.684.535 26.687-.171 33.198-1.73 2.622-2.588 6.827-3.294 9.911a147 147 0 0 0-1.746 8.721c-.511 3.081-1.305 6.924-.719 9.973l1.487.549c-3.3 2.229-6.985 3.925-10.345 6.106-.832-7.509-.352-23.989-.355-32.481l-.137-62.596c.481-2.017.189-5.594.039-7.735l-.304-64.224-.031-55.851c-.003-6.121.4-21.957-.272-27.437.802-1.932.292-6.604.069-8.791.513-5.683.107-20.121.107-26.568l.072-54.163a1539 1539 0 0 1 .094-29.769c4.95-7.467 9.619-14.473 14.848-21.804"/><path fill="#211e1d" d="M882.886 175.918c13.591 16.689 10.742 16.681 10.727 37.249l.009 43.639c.017 6.971-.269 16.549.248 23.204a540 540 0 0 1-12.768 18.944c-3.847 6.106-10.955 17.215-15.353 22.94-2.868 4.335-5.903 9.124-8.926 13.306-1.834-3.196-1.039-24.235-1.015-29.708l.102-47.206c.058-5.8.57-22.19-.283-27.27 2.146.097 7.343-.339 9.669-.474-.237-8.231-.674-27.491.041-35.558 3.465-5.329 9.815-11.798 14.117-16.858.978-1.134 2.03-1.468 3.432-2.208"/><path fill="#131212" d="M882.886 175.918c13.591 16.689 10.742 16.681 10.727 37.249l.009 43.639c.017 6.971-.269 16.549.248 23.204a540 540 0 0 1-12.768 18.944c-2.182-1.677-1.206-26.6-1.22-30.647a4947 4947 0 0 1-.027-61.639c.039-4.295 1.036-26.138-.401-28.542.978-1.134 2.03-1.468 3.432-2.208"/><path fill="#131212" d="M865.337 194.984c.581 10.354.185 24.299.179 34.991v60.661c-.008 5.561-.542 27.491.233 31.258-2.868 4.335-5.903 9.124-8.926 13.306-1.834-3.196-1.039-24.235-1.015-29.708l.102-47.206c.058-5.8.57-22.19-.283-27.27 2.146.097 7.343-.339 9.669-.474-.237-8.231-.674-27.491.041-35.558"/><path fill="#131212" d="M103.442 546.402c3.716-.079 9.116-.369 12.656.102 5.127 3.564 10.61 8.109 15.723 11.314-.236 9.219.264 18.066.144 27.076.025 12.487.205 26.49-.27 38.909-.785 22.898.193 46.252-.198 69.196-.08 4.692-.151 10.074.139 14.746-5.474-2.656-11.144-5.603-16.618-8.36-4.226-2.097-7.493-3.857-11.609-6.152.753-15.074.082-35.741.055-51.11z"/><path fill="#322b27" d="M115.566 619.127c.22-1.701.189-3.726 1.098-4.891 3.418 1.619 11.569 7.209 15.031 9.567-.785 22.898.193 46.252-.198 69.196-.08 4.692-.151 10.074.139 14.746-5.474-2.656-11.144-5.603-16.618-8.36.85-2.686.505-22.418.5-26.512a4863 4863 0 0 1 .048-53.746"/><path fill="#282523" d="M116.098 546.504c5.127 3.564 10.61 8.109 15.723 11.314-.236 9.219.264 18.066.144 27.076.025 12.487.205 26.49-.27 38.909-3.462-2.358-11.613-7.948-15.031-9.567-.909 1.165-.878 3.19-1.098 4.891-.172-3.165-.048-7.192.081-10.407.831-20.542-.642-41.75.451-62.216"/><path fill="#322b27" d="M909.859 547.07c1.428-.763 9.115-.721 11.691-.89l.027 148.64c-3.442 1.318-8.026 3.841-11.392 5.579-1.781 1.044-13.368 6.555-15.662 7.6.47-25.356-.273-51.619-.027-77.111l.424-36.069c.054-6.395.327-15.653-.35-21.91.151-4.231.036-8.965.027-13.235 3.315-3.717 11.079-9.43 15.262-12.604"/><path fill="#131212" d="M909.859 547.07c1.428-.763 9.115-.721 11.691-.89l.027 148.64c-3.442 1.318-8.026 3.841-11.392 5.579-.557-14.285-.158-31.349-.096-45.805q.229-34.136.068-68.272c.005-12.267.383-27.24-.298-39.252"/><path fill="#282523" d="M131.965 584.894c3.477.014 4.83.153 8.219-.645 4.126 2.406 11.229 7.312 14.654 10.602l.122 23.202c2.526-.014 7.304.104 9.547-.382-.308 2.532-.174 19.969-.044 22.835l.033 56.644c.003 4.113.34 24.43-.566 27.252l-9.353-4.744-7.117-3.573c-2.539-1.567-5.491-2.673-7.991-4.221a118 118 0 0 1-7.833-4.119c-.29-4.672-.219-10.054-.139-14.746.391-22.944-.587-46.298.198-69.196.475-12.419.295-26.422.27-38.909"/><path fill="#131212" d="M131.965 584.894c3.477.014 4.83.153 8.219-.645-.769 7.071-.229 24.573-.254 32.667l-.087 70.226c.009 4.047.584 21.982-.374 24.722a118 118 0 0 1-7.833-4.119c-.29-4.672-.219-10.054-.139-14.746.391-22.944-.587-46.298.198-69.196.475-12.419.295-26.422.27-38.909"/><path fill="#131212" d="M154.96 618.053c2.526-.014 7.304.104 9.547-.382-.308 2.532-.174 19.969-.044 22.835l.033 56.644c.003 4.113.34 24.43-.566 27.252l-9.353-4.744q.663-50.8.383-101.605"/><path fill="#211e1d" d="M230.015 112.648c4.754-.909 10.771-3.409 16.39-4.562l.251 97.101-.168 31.544c.003 3.653-.16 11.982.344 15.371-.806 2.951-1.115 8.294-.102 11.416-3.289 5.684 1.932 81.442-1.066 95.501-4.679-7.521-11.262-23.358-15.642-31.939q-.263-79.409.35-158.816c.015-9.614-.05-19.741-.17-29.334-.077-6.151.893-21.141-.187-26.282"/><path fill="#211e1d" d="m263.658 198.151 9.195 10.581c-.187 6.367.289 13.637-.024 19.58 2.458-.793 3.225-.625 5.882-.572l9.052 10.536c8.043-.986 7.946 2.533 12.769 8.042l-.032 82.797c-.028 7.105.5 27.024-.677 32.33-9.054-18.79-18.983-37.48-27.761-56.336-.755-1.39-1.578-3.227-2.285-4.684-1.607-5.026-5.608-11.76-7.541-16.845 1.99-1.955 1.315-18.854 1.311-22.708l-.197-43.846c-.022-4.296-.283-15.255.308-18.875"/><path fill="#131212" d="M103.464 372.113c5.332-.299 7.164-.232 12.335-.023 2.192 2.142 7.55 7.192 9.169 9.424 3.502 1.851 9.715.792 11.186 1.957-.845 9.659-.254 26.527-.228 36.711q.04 29.168-.271 58.335c-.011 3.443.567 18.411-.317 20.461-3.307-3.121-7.251-7.331-10.497-10.627-3.666-3.613-7.093-7.001-10.586-10.801l-11.063-10.923c.735-4.782.288-24.083.287-29.796z"/><path fill="#131212" d="M103.464 372.113c5.332-.299 7.164-.232 12.335-.023-1.059 4.262-.73 9.912-.599 14.365.505 17.179-.314 34.311-.273 51.493a1007 1007 0 0 1-.147 28.768c-.068 2.557-.1 8.487-.525 10.834l-11.063-10.923c.735-4.782.288-24.083.287-29.796z"/><path fill="#211e1d" d="M115.799 372.09c2.192 2.142 7.55 7.192 9.169 9.424l.016 72.644c.001 7.187.532 27.734-.143 34.193-3.666-3.613-7.093-7.001-10.586-10.801.425-2.347.457-8.277.525-10.834a1007 1007 0 0 0 .147-28.768c-.041-17.182.778-34.314.273-51.493-.131-4.453-.46-10.103.599-14.365"/><path fill="#322b27" d="M316.061 362.99a416 416 0 0 0 7.901 13.387c.434 26.397.125 52.621.209 79.003l-.013 169.577-.049 80.205c.011 15.339-.421 35.481.612 50.615-2.847-3.553-4.986-7.582-6.977-11.678-.561-1.262-.826-1.515-1.69-2.599-.293-3.684-.076-10.166-.075-14.039l-.026-27.43-.074-93.153.084-161.81c.029-27.027-.446-55.185.098-82.078"/><path fill="#090909" d="M287.154 103.606c1.089-.511 1.323-.382 2.624-.485 2.149.052 8.428-.046 9.956.778 1.948-.755 9.089-.484 11.765-.505 5.887 13.769 11.062 27.697 16.466 41.659 3.871 10.005 8.499 20.031 12.31 29.999-6.192 5.2-9.377 8.254-13.585 15.06.003 2.158.116 5.813-.423 7.785 1.257 4.483 4.853 9.316 7.874 12.772-1.39.877-2.394 1.427-3.889 2.103l-.828 1.028c-1.086 1.117-2.061 1.392-3.473 2.08l-1.732-.294c-1.131-1.33-1.771-2.481-3.049-3.93l.993-.285c-1.022-1.482-1.011-1.361-1.607-3.01-.944-1.049-1.663-1.81-2.541-2.926-1.212 1.214-1.478 1.46-2.861 2.458-.272-6.312-4.399-16.031-6.587-22.445l-19.789-58.837c-2.132-6.318-6.607-16.548-7.871-22.565l.783-.831 3.592-.159c.779.162 1.425.146 1.872.55"/><path fill="#b5895c" d="M299.734 103.899c1.948-.755 9.089-.484 11.765-.505 5.887 13.769 11.062 27.697 16.466 41.659 3.871 10.005 8.499 20.031 12.31 29.999-6.192 5.2-9.377 8.254-13.585 15.06-1.71-8.632-4.922-17.36-7.416-25.803-5.995-20.297-13.617-40.133-19.54-60.41"/><path fill="#090909" d="M289.778 103.121c2.149.052 8.428-.046 9.956.778 5.923 20.277 13.545 40.113 19.54 60.41 2.494 8.443 5.706 17.171 7.416 25.803.003 2.158.116 5.813-.423 7.785-1.417.7-2.299 1.343-3.615 2.195l-.455-.43c-.328-3.553-8.242-26.231-9.764-30.582-7.558-21.618-14.627-44.616-22.655-65.959"/><path fill="#b5895c" d="m281.69 103.215 3.592-.159c1.8 6.808 7.335 21.052 9.876 28.433a2459 2459 0 0 1 19.22 57.256c1.328 4.03 4.636 10.517 4.449 13.953-.882 1.425-.282 1.085-1.618 1.419-2.864-4.21-5.887-15.92-7.79-21.388a1998 1998 0 0 1-15.198-44.272c-3.8-11.295-7.927-24.358-12.531-35.242"/><path fill="#b5895c" d="M287.154 103.606c1.089-.511 1.323-.382 2.624-.485 8.028 21.343 15.097 44.341 22.655 65.959 1.522 4.351 9.436 27.029 9.764 30.582l-1.815.456c-4.494-10.83-9.662-28.13-13.478-39.609a2835 2835 0 0 0-19.75-56.903"/><path fill="#b5895c" d="M326.267 197.897c1.257 4.483 4.853 9.316 7.874 12.772-1.39.877-2.394 1.427-3.889 2.103-3.459-4.075-4.858-7.256-8.989-10.768-.34-.924-.387-1.059-.881-1.886l1.815-.456.455.43c1.316-.852 2.198-1.495 3.615-2.195"/><path fill="#99704f" d="m320.382 200.118 1.815-.456.455.43a33 33 0 0 0-1.389 1.912c-.34-.924-.387-1.059-.881-1.886"/><path fill="#b5895c" d="m318.015 205.435.625-.409c5.039-3.428 6.135 4.376 10.784 8.774-1.086 1.117-2.061 1.392-3.473 2.08l-1.732-.294c-1.131-1.33-1.771-2.481-3.049-3.93l.993-.285c-1.022-1.482-1.011-1.361-1.607-3.01-.944-1.049-1.663-1.81-2.541-2.926"/><path fill="#3f261a" d="M322.163 211.371c1.626 1.683 2.042 3.019 3.788 4.509l-1.732-.294c-1.131-1.33-1.771-2.481-3.049-3.93z"/><path fill="#131212" d="M245.66 359.544c.979 3.538.513 22.317.463 27.297 4.514-.909 14.991-1.833 19.647-1.69l9.764 9.619.017 6.01c.535 5.677.229 14.44.319 20.456 1.558.016 3.855.181 5.277-.183-.413 8.835.786 76.597-.734 78.436-.147.176-.34.308-.51.463-1.527-2.02-2.998-4.301-4.422-6.411-3.742-4.916-7.923-10.16-11.262-15.315-1.463-1.858-3.394-4.791-4.797-6.798l-10.03-14.065-3.848-5.368c-.59-6.528-.086-23.306-.057-30.713z"/><path fill="#282523" d="m265.77 385.151 9.764 9.619.017 6.01c.535 5.677.229 14.44.319 20.456 1.558.016 3.855.181 5.277-.183-.413 8.835.786 76.597-.734 78.436-.147.176-.34.308-.51.463-1.527-2.02-2.998-4.301-4.422-6.411-3.742-4.916-7.923-10.16-11.262-15.315.645-.657 1.118-1.097 1.115-2.207-.023-7.088-.263-14.697-.208-21.729l.435-39.273c.036-9.533-.232-20.446.209-29.866"/><path fill="#131212" d="M275.551 400.78c.535 5.677.229 14.44.319 20.456 1.558.016 3.855.181 5.277-.183-.413 8.835.786 76.597-.734 78.436-.147.176-.34.308-.51.463-1.527-2.02-2.998-4.301-4.422-6.411q-.315-27.074-.053-54.149c-.003-12.198-.387-26.561.123-38.612"/><path fill="#322b27" d="M250.369 390.297q4.566 4.502 9.075 9.06c.162 16.657.546 33.188.186 49.861-.156 7.256.23 15.035-.208 22.21l-10.03-14.065c1.429-3.398.362-58.443.977-67.066"/><path fill="#090909" d="M509.928 389.481c-3.396-6.569-20.151-30.078-17.697-35.824 5.265-12.331 18.927-24.882 29.058-33.839 7.854-6.621 40.799-37.62 34.62-7.593-6.118 29.729-21.561 57.797-44.874 77.285z"/><path fill="#131212" d="M894.57 572.909c.677 6.257.404 15.515.35 21.91l-.424 36.069c-.246 25.492.497 51.755.027 77.111-2.366 1.143-4.336 2.142-6.811 3.14l-.142.175-15.015 7.788c-.525-26.598.037-54.766-.045-81.578l-.014-20.567-.083-22.456c5.095-3.136 9.813-7.041 15.001-9.886 2.949.19 4.137-.127 6.972-.667-.037-3.859-.061-7.196.184-11.039"/><path fill="#322b27" d="m887.522 626.936-.066 57.192c-.004 5.357-.343 22.799.256 27.011l-.142.175-15.015 7.788c-.525-26.598.037-54.766-.045-81.578 2.803-1.091 12.315-8.404 15.012-10.588"/><path fill="#211e1d" d="M872.413 594.501c5.095-3.136 9.813-7.041 15.001-9.886q.344 21.16.108 42.321c-2.697 2.184-12.209 9.497-15.012 10.588l-.014-20.567z"/><path fill="#211e1d" d="M912.248 342.033c1.225-.881 7.323-.837 9.256-.909l.058 82.504c.012 4.874.625 43.95-.669 45.881-2.237 2.326-4.94 5.287-7.272 7.418-3.28 3.774-7.654 7.949-11.284 11.496-.718-5.727-.248-17.099-.369-23.465-.513-26.911-.316-53.946-.409-80.881-.006-10.151-.303-22.364.473-32.295 2.937-3.07 7.073-6.765 10.216-9.749"/><path fill="#131212" d="M912.248 342.033c1.225-.881 7.323-.837 9.256-.909l.058 82.504c.012 4.874.625 43.95-.669 45.881-2.237 2.326-4.94 5.287-7.272 7.418-.779-.788-1.157-.887-1.189-2.178-.232-9.224-.034-19.201.003-28.394l.166-67.444c.035-8.485.58-29.36-.353-36.878"/><path fill="#b5895c" d="M103.172 731.397c14.324 6.619 29.635 12.081 43.98 18.767 1.068 3.747 2.081 7.3 3.326 10.99 18.462 6.134 36.478 13.88 54.454 19.838.105 17.781.721 36.759.498 54.397l-1.197 1.815c-2.482-14.953-8.603-25.368-20.204-34.821.507-6.21.432-11.934.422-18.153-10.23-4.223-20.815-7.662-30.894-12.251l3.262 13.031c-16.824-7.06-34.662-14.016-51.663-20.883-1.667-3.769-2.221-28.097-1.984-32.73"/><path fill="#fbdfbe" d="M151.481 764.451c2.859.491 10.985 3.918 14.016 5.184 11.817 4.938 24.779 9.867 36.329 15.276.174 6.331.24 14.848-.142 21.14-2.585-.206-2.125-17.064-2.128-19.702-11.865-6.377-24.971-10.521-37.316-15.853-2.57-1.111-9.579-3.034-10.442-5.3z"/><path fill="#282523" d="M901.559 384.077c.093 26.935-.104 53.97.409 80.881.121 6.366-.349 17.738.369 23.465a797 797 0 0 0-10.21 10.434c-3.813 4.304-8.527 8.506-12.73 12.523-.722-3.997-.417-21.757-.424-26.889l.085-62.58-.022-26.13c3.637-3.879 7.906-7.644 11.842-11.261l.158-.19c1.821-.769 8.149-.323 10.523-.253"/><path fill="#131212" d="M901.559 384.077c.093 26.935-.104 53.97.409 80.881.121 6.366-.349 17.738.369 23.465a797 797 0 0 0-10.21 10.434c-2.527-4.357.121-95.506-.77-106.635-.161-2.012.171-5.054-.479-7.702l.158-.19c1.821-.769 8.149-.323 10.523-.253"/><path fill="#b5895c" d="M921.466 732.066c1.219 5.289-.854 26.473-1.999 32.052a1368 1368 0 0 1-47.483 19.779c2.365-5.315 3.894-8.434 6.963-13.369l-23.887 8.95c-3.481 1.292-10.028 3.459-13.13 5 .024 5.575.198 12.095.003 17.6-12.07 11.132-19.431 24.396-20.13 41.102l-.015.456c-.526.673-.449.804-.342 1.631-1.352-2.758-.59-55.682-.535-63.35 6.324-1.981 19.402-7.704 25.926-10.364 11.818-4.82 27.05-10.366 38.18-16.131l2.907-8.736c7.454-4.065 25.216-11.066 33.542-14.62"/><path fill="#fbdfbe" d="M826.919 783.857c17.291-6.62 34.49-14.67 51.585-21.849 1.224-.514 2.209-.668 3.496-.511-.737 1.856-3.815 3.503-5.657 4.092-15.702 5.019-33.821 15.595-49.406 19.736z"/><path fill="#fbdfbe" d="m826.919 783.857.018 1.468c-.523 1.263-.59 12.478-.863 15.579-.176.519-.628 2.509-1.258 2.688-.483-.298-.337-2.111-.347-2.536.015-5.248-.344-10.546-.111-15.767.027-.614 2.146-1.256 2.561-1.432"/><path fill="#211e1d" d="M156.398 226.1c2.987-.22 9.868-1.228 11.86.404 4.236 4.183 7.756 7.702 11.664 12.241.02 7.294.165 14.949.047 22.212l-.473 61.312c-.063 6.291.365 23.028-.534 28.356-3.905-5.357-8.258-12.024-11.791-17.627a404 404 0 0 1-10.741-15.578c.297-8.772.021-19.362.007-28.267a5663 5663 0 0 1-.039-63.053"/><path fill="#131212" d="M156.398 226.1c2.987-.22 9.868-1.228 11.86.404-.976 13.796 1.304 102.222-1.087 106.494a404 404 0 0 1-10.741-15.578c.297-8.772.021-19.362.007-28.267a5663 5663 0 0 1-.039-63.053"/><path fill="#131212" d="m872.496 616.957.014 20.567c.082 26.812-.48 54.98.045 81.578l-8.413 4.226-15.17 7.298-.007-81.197c.14-5.549.094-11.755.017-17.312-.003-.522-.073-3.778.058-3.901 3.455-3.246 10.9-8.537 14.825-10.906 1.519-.262 6.73-.267 8.631-.353"/><path fill="#322b27" d="M848.965 649.429c3.968-1.984 11.245-6.718 14.589-9.573l.042 59.719c.014 3.66-.219 21.307.546 23.753l-15.17 7.298z"/><path fill="#211e1d" d="m863.865 617.31-.088.831c-.695 5.756-.054 15.51-.223 21.715-3.344 2.855-10.621 7.589-14.589 9.573.14-5.549.094-11.755.017-17.312-.003-.522-.073-3.778.058-3.901 3.455-3.246 10.9-8.537 14.825-10.906"/><path fill="#282523" d="M751.47 418.744c3.786-1.178 9.933-3.635 13.534-5.276 0 7.679-.584 58.224.774 61.201-3.975 6.146-9.122 12.859-13.519 18.792-1.499 2.438-4.15 6.418-5.964 8.621-3.142 4.971-7.458 10.705-10.971 15.482-.683-3.928-.285-16.301-.377-20.876-.341-16.895.584-34.931-.298-51.753-.191-5.975-.101-12.517-.136-18.536 2.772-3.601 6.899-7.374 10.403-10.27 2.571-.131 4.009.135 6.534.466q.003 1.074.02 2.149"/><path fill="#322b27" d="M751.47 418.744c3.786-1.178 9.933-3.635 13.534-5.276 0 7.679-.584 58.224.774 61.201-3.975 6.146-9.122 12.859-13.519 18.792.323-11.285-.24-25.053-.488-36.484a1812 1812 0 0 1-.301-38.233"/><path fill="#131212" d="M751.45 416.595q.003 1.074.02 2.149-.051 19.118.301 38.233c.248 11.431.811 25.199.488 36.484-1.499 2.438-4.15 6.418-5.964 8.621-2.472-5.514.316-44.768-.812-52.687-1.054-7.404 1.556-26.168-.567-33.266 2.571-.131 4.009.135 6.534.466"/><path fill="#282523" d="m879.058 421.911-.085 62.58c.007 5.132-.298 22.892.424 26.889l-6.702 6.605c-3.866 4.189-8.384 8.423-12.491 12.425l-1.368 1.49-3.69 3.527c-1.3-2.83-.746-45.152-.744-51.151.389-8.073-.188-21.06-.294-29.461 2.247-.918 3.556-1.366 5.894-2.018-.007-6.711-.056-13.364.2-20.073 3.499-4.581 6.504-6.761 11.161-10.153 1.612-.724 5.666-.596 7.695-.66"/><path fill="#131212" d="m879.058 421.911-.085 62.58c.007 5.132-.298 22.892.424 26.889l-6.702 6.605c-1.874-4.387-.267-82.542-1.332-95.414 1.612-.724 5.666-.596 7.695-.66"/><path fill="#131212" d="m860.002 452.797-.079 51.881c.002 5.339-.329 21.019.281 25.732l-1.368 1.49-3.69 3.527c-1.3-2.83-.746-45.152-.744-51.151.389-8.073-.188-21.06-.294-29.461 2.247-.918 3.556-1.366 5.894-2.018"/><path fill="#211e1d" d="m136.154 383.471 12.337 11.751-.079 5.596c.284 7.058.188 14.384.183 21.47 2.762-.303 6.061-1.203 8.038.317-2.117 5.33.289 30.187-.603 36.901-1.123 8.454 1.832 54.169-.694 59.418l-7.53-7.448c-4.233-4.125-8.448-8.162-12.468-12.498.884-2.05.306-17.018.317-20.461q.311-29.167.271-58.335c-.026-10.184-.617-27.052.228-36.711"/><path fill="#131212" d="M147.806 511.476c.494-8.942.126-20.794.151-29.95l.227-52.411c.005-8.554-.347-19.96.228-28.297.284 7.058.188 14.384.183 21.47 2.762-.303 6.061-1.203 8.038.317-2.117 5.33.289 30.187-.603 36.901-1.123 8.454 1.832 54.169-.694 59.418z"/><path fill="#594232" d="M712.074 546.51q.574 34.102.353 68.207l.027 92.046c-.014 6.602.714 44.997-.565 49.274 1.013 1.693 2.533 2.372 1.541 3.935l.897.461c-.67.397-1.199.75-1.841 1.18-3.126 1.162-5.716 2.498-8.717 3.819l-1.266-.613c-.06-2.688.009-5.289.068-7.975-.718-45.08-.075-91.861-.156-137.091l-.12-35.853c-.021-4.523.242-14.002-.411-18.02.23-.627.185-.403.282-1.012.94-5.888 6.46-13.288 9.908-18.358"/><path fill="#fbdfbe" d="M702.571 756.844c2.58-4.573 4.565-7.809 6.967-12.676.174 4.67-.083 7.794 2.351 11.869 1.013 1.693 2.533 2.372 1.541 3.935l.897.461c-.67.397-1.199.75-1.841 1.18-3.126 1.162-5.716 2.498-8.717 3.819l-1.266-.613c-.06-2.688.009-5.289.068-7.975"/><path fill="#594232" d="m713.43 759.972.897.461c-.67.397-1.199.75-1.841 1.18-3.126 1.162-5.716 2.498-8.717 3.819l-1.266-.613c3.678-1.452 7.365-3.534 10.927-4.847"/><path fill="#b5895c" d="M107.877 244.892c3.027 4.364 5.968 8.61 8.9 13.047 3.563 5.889 10.075 16.159 14.437 21.533 3.059 5.007 6.768 10.116 10.142 14.956l15.074 22.992a404 404 0 0 0 10.741 15.578c3.533 5.603 7.886 12.27 11.791 17.627a424 424 0 0 0 7.279 11.257c3.124 5.377 9.61 15.143 13.466 20.072 2.489 4.583 13.306 19.893 16.943 25.368q.2 7.866-.026 15.73c-9.474-14.032-19.495-27.94-29.167-41.885l-50.639-73.646c-10.556-15.422-21.503-30.931-31.503-46.684-.71-2.231 1.885-12.91 2.562-15.945"/><path fill="#211e1d" d="M179.969 260.957c2.474.009 5.355-.177 7.659.523 4.442 4.179 7.617 8.051 11.7 12.062l.281 73.766c.015 9.242-.618 26.105.098 34.646-3.856-4.929-10.342-14.695-13.466-20.072a424 424 0 0 1-7.279-11.257c.899-5.328.471-22.065.534-28.356z"/><path fill="#131212" d="M179.969 260.957c2.474.009 5.355-.177 7.659.523-.78 4.48-.357 17.799-.327 22.786l.051 50.254c-.015 5.26.561 23.912-1.111 27.362a424 424 0 0 1-7.279-11.257c.899-5.328.471-22.065.534-28.356z"/><path fill="#211e1d" d="M843.427 244.872c1.03-3.155 9.332-11.964 12.2-13.856.853 5.08.341 21.47.283 27.27l-.102 47.206c-.024 5.473-.819 26.512 1.015 29.708a1019 1019 0 0 1-12.712 19.107c-1.701 2.584-3.651 5.731-5.416 8.207l-.749-.595c-2.501-6.065.085-87.105-1.191-100.564l6.286-.369c-.049-4.484-.242-11.885.386-16.114"/><path fill="#131212" d="M843.427 244.872c1.112 35.62-.999 73.827.684 109.435-1.701 2.584-3.651 5.731-5.416 8.207l-.749-.595c-2.501-6.065.085-87.105-1.191-100.564l6.286-.369c-.049-4.484-.242-11.885.386-16.114"/><path fill="#282523" d="m281.147 421.053 5.813 5.363c2.063-.453 7.607-1.646 9.292-.481 1.903 2.259 3.894 4.703 5.849 6.891l.293 62.746c.074 11.48.569 25.716.132 36.996a555 555 0 0 1-8.172-12.112l-5.012-7.11a640 640 0 0 1-9.439-13.394c.17-.155.363-.287.51-.463 1.52-1.839.321-69.601.734-78.436"/><path fill="#211e1d" d="m281.147 421.053 5.813 5.363c1.822 1.547 2.98 1.816 3.002 4.055.1 10.243 1.312 77.535-.62 82.875a640 640 0 0 1-9.439-13.394c.17-.155.363-.287.51-.463 1.52-1.839.321-69.601.734-78.436"/><path fill="#131212" d="M286.96 426.416c2.063-.453 7.607-1.646 9.292-.481-.611 5.906-.598 12.112-.533 18.08.269 24.918.371 49.848-.387 74.758-.023.767-.453 1.236-.978 1.683l-5.012-7.11c1.932-5.34.72-72.632.62-82.875-.022-2.239-1.18-2.508-3.002-4.055"/><path fill="#322b27" d="M180.931 633.406c1.79.272 3.58.567 5.381.749-.195 2.436-.412 19.123.029 20.724.056 8.194.746 77.667-.484 80.549l-5.233-2.619c-5.118-2.425-11.865-5.642-16.694-8.407.906-2.822.569-23.139.566-27.252l-.033-56.644c1.482.389 13.901 8.09 16.23 9.372.354-5.152-.211-11.757.238-16.472"/><path fill="#131212" d="M180.931 633.406c1.79.272 3.58.567 5.381.749-.195 2.436-.412 19.123.029 20.724.056 8.194.746 77.667-.484 80.549l-5.233-2.619c-.166-3.765-.144-7.815-.112-11.591.203-23.741-.281-47.612.181-71.34.354-5.152-.211-11.757.238-16.472"/><path fill="#fbdfbe" d="m887.924 746.686-2.907 8.736c-11.13 5.765-26.362 11.311-38.18 16.131-6.524 2.66-19.602 8.383-25.926 10.364-.055 7.668-.817 60.592.535 63.35-.107-.827-.184-.958.342-1.631l.015-.456c.699-16.706 8.06-29.97 20.13-41.102.195-5.505.021-12.025-.003-17.6 3.102-1.541 9.649-3.708 13.13-5l23.887-8.95c-3.069 4.935-4.598 8.054-6.963 13.369a779 779 0 0 1-22.851 9.474c.418 3.477.403 8.291.49 11.902a193 193 0 0 0-4.538 3.986c-15.049 13.808-18.176 28.003-19.037 47.264l-11.556-.454c-.312-26.08-.041-52.68-.03-78.8 22.752-10.382 50.085-21.093 73.462-30.583"/><path fill="#d9b58d" d="M821.446 845.267c-.107-.827-.184-.958.342-1.631.204.929.372.958-.342 1.631"/><path fill="#fbdfbe" d="M493.887 262.693c11.401-.308 51.73 22.938 60.617 32.132 3.283 3.396 4.848 6.077 4.569 11.051-1.433 25.611-17.826 56.967-35.936 74.73-2.684 2.632-7.809 7.638-10.766 9.143-.394-.058-.986-.114-1.336-.239 23.313-19.488 38.756-47.556 44.874-77.285 6.179-30.027-26.766.972-34.62 7.593-10.131 8.957-23.793 21.508-29.058 33.839-2.454 5.746 14.301 29.255 17.697 35.824 2.625 7.325 4.309 12.882 5.34 20.665l-.57.711c-1.354-.451-9.112-7.197-11.728-8.899a258 258 0 0 0-25.481-17.918l.725-.958c15.692 6.585 19.166 10.112 32.38 19.132-4.16-18.49-17.594-25.972-23.345-40.812-6.137-15.838 30.017-39.552 35.815-52.447 2.289-5.093 2.036-8.014.311-13.41-3.19-9.984-20.64-28.814-29.488-32.852"/><path fill="#99704f" d="M458.429 389.723c12.797 1.857 24.503 4.754 36.487 9.687 2.174.895 5.817 2.507 8.054 2.548 2.616 1.702 10.374 8.448 11.728 8.899l.57-.711c.863 3.553 3.255 6.429 4.963 9.609 4.966 9.244 6.915 13.515 17.374 17.007 13.102-4.21 26.191-9.262 39.149-13.442-.115.721-.455 3.197-.646 3.749-1.51.588-5.082 7.115-7.84 9.63-8.651 7.887-17.309 15.247-27.581 20.938 4.292-6.187 9.937-13.291 14.528-19.439-14.508 7.569-27.416 15.48-41.448 23.976 5.23-8.028 11.997-14.615 18.818-21.266-23.16-.084-36.683 3.602-57.828 12.528 16.266-10.631 25.108-13.139 42.872-19.836-9.702-6.553-20.763-7.871-32.227-8.968l-.411-1.76c9.926-2.267 14.42-2.715 24.466-3.15-12.337-6.201-24.567-7.365-38.062-7.087-2.011-.473-3.097.585-4.446-.487l-.604-.471c11.9-4.105 18.422-4.437 30.635-4.11-16.211-7.167-21.44-11.766-40.427-16.721a36 36 0 0 1 1.876-1.123"/><path fill="#fbdfbe" d="M776.329 764.111a507 507 0 0 0 17.57-9.228q-.187 52.503.17 105.006c-4.921-.4-13.269-1.326-17.942-1.37-.909-5.91.516-37.22-.702-39.34-.159-.878-.255-1.993-.361-2.899L775 802.886l-.07-2.771c.069-1.652.245-3.406.384-5.065 1.158-.636.689-14.487.427-16.272l-.709-.108c.022-4.368.025-8.483-.148-12.859.389-.353 1.083-1.258 1.445-1.7"/><path fill="#3f261a" d="M774.884 765.811c.389-.353 1.083-1.258 1.445-1.7q.25 31.17.058 62.341c-.021 8.711.464 23.89-.26 32.067-.909-5.91.516-37.22-.702-39.34-.159-.878-.255-1.993-.361-2.899L775 802.886l-.07-2.771c.069-1.652.245-3.406.384-5.065 1.158-.636.689-14.487.427-16.272l-.709-.108c.022-4.368.025-8.483-.148-12.859"/><path fill="#131212" d="M781.223 194.406c.007 7.635 1.116 51.563-.033 54.626-2.62 4.501-5.028 9.453-7.398 14.115-2.252 5.818-6.259 13.68-9.06 19.402l-4.45 9.474-.609-.137c-.772-.469-1.115-.929-1.166-1.882-.189-3.512.059-10.528-.124-13.732-.599-10.45.648-77.115-1.435-81.584.899-.57 21.044-.165 24.275-.282"/><path fill="#211e1d" d="M764.475 204.371c2.312-3.417 5.416-6.543 8.36-9.402-.151 2.286-.148 12.515.072 14.511.898 8.158-1.691 49.535.885 53.667-2.252 5.818-6.259 13.68-9.06 19.402-.617-3.157-.394-20.327-.393-24.55q-.086-26.814.136-53.628"/><path fill="#fbdfbe" d="M147.152 750.164c20.896 8.792 43.779 18.898 64.579 27.163l.061 79.167c-3.967-.053-8.175-.034-12.119-.187-.521-22.367-5.868-36.269-22.769-51.071l.129-11.261c-2.683-1.272-19.277-8.092-20.214-8.965l-3.262-13.031c10.079 4.589 20.664 8.028 30.894 12.251.01 6.219.085 11.943-.422 18.153 11.601 9.453 17.722 19.868 20.204 34.821l1.197-1.815c.223-17.638-.393-36.616-.498-54.397-17.976-5.958-35.992-13.704-54.454-19.838-1.245-3.69-2.258-7.243-3.326-10.99"/><path fill="#b5895c" d="m204.233 837.204 1.197-1.815c.064 1.379.456 12.415-.592 12.683-.146-.112-.149-.334-.228-.658l.016-.002c-.23-3.4-.121-6.809-.393-10.208"/><path fill="#322b27" d="M842.466 633.125c1.575-.456 4.845-.8 6.516-1.008.077 5.557.123 11.763-.017 17.312l.007 81.197-6.486 3.286a383 383 0 0 1-14.409 7.21l.048-6.334c.812-2.798.521-20.673.518-24.455l-.031-49.582c4.561-2.599 9.002-5.081 13.404-7.957.405-6.451.096-13.115.45-19.669"/><path fill="#131212" d="M842.466 633.125c1.575-.456 4.845-.8 6.516-1.008.077 5.557.123 11.763-.017 17.312l.007 81.197-6.486 3.286c-1.437-3.401-.524-71.765-.47-81.118.405-6.451.096-13.115.45-19.669"/><path fill="#b5895c" d="M916.111 245.831c1.124 3.03 4.202 12.376 3.523 15.282l-.293.393c-20.244 30.999-41.001 61.429-62.055 91.874-1.637 2.366-9.32 14.368-11.001 15.786-1.152-.802-2.273 1.071-3.125 1.98-6.32 5.938-11.068 11.048-16.914 17.438-2.503 2.735-9.311 10.385-12.084 12.142 1.828-3.997 9.018-14.764 11.782-19.095 3.944-5.631 9.375-13.221 12.751-19.117 1.765-2.476 3.715-5.623 5.416-8.207a1019 1019 0 0 0 12.712-19.107c3.023-4.182 6.058-8.971 8.926-13.306 4.398-5.725 11.506-16.834 15.353-22.94a540 540 0 0 0 12.768-18.944c4.853-7.316 10.193-15.067 14.781-22.497a152 152 0 0 0 7.46-11.682"/><path fill="#b5895c" d="M305.544 857.485c1.503-.246 2.216-.422 3.649-.811.535-3.048.124-7.13.24-10.33.312-8.642-.582-20.813.48-29.086.267 12.945.04 26.529-.005 39.525 3.242-.309 7.989-.918 11.122-1.033 2.974.114 9.531-.355 12.41-.69 11.37-.246 23.391-1.831 34.964-2.302 12.773 2.592 26.357 4.863 38.901 7.53l-153.846 8.022-36.425 1.664c-11.801.512-32.525 1.49-43.742-1.018 8.842-3.438 34.385-4.58 45.233-5.367a4447 4447 0 0 1 62.977-4.264c4.015-.267 21.293-1.209 24.042-1.84"/><path fill="#131212" d="M761.993 582.884c.098 6.967-.704 40.171.676 43.722-1.726 1.825-7.205 6.534-9.311 8.358l-4.196 4.005c-2.864 2.843-6.843 6.282-9.885 8.969-1.701 1.527-3.433 3.124-5.159 4.612-1.792-1.924-1.105-13.028-1.105-16.136l.013-29.435-.092-21.975c1.811-.646 11.159 1.167 13.455 1.597l1.507-.872c2.582-.343 2.999-.204 5.639.181.037 1.871-.054 3.667-.054 5.537 1.047-4.424 4.544-5.906 8.512-8.563"/><path fill="#322b27" d="M761.993 582.884c.098 6.967-.704 40.171.676 43.722-1.726 1.825-7.205 6.534-9.311 8.358l-4.196 4.005q-.102-.175-.205-.347c-1.813-2.98-.917-31.105-.997-36.72l-.064-16.173c2.582-.343 2.999-.204 5.639.181.037 1.871-.054 3.667-.054 5.537 1.047-4.424 4.544-5.906 8.512-8.563"/><path fill="#131212" d="M753.535 585.91c.037 1.871-.054 3.667-.054 5.537.325 5.807.035 13.716.04 19.705.007 7.44.284 16.478-.163 23.812l-4.196 4.005q-.102-.175-.205-.347c-1.813-2.98-.917-31.105-.997-36.72l-.064-16.173c2.582-.343 2.999-.204 5.639.181"/><path fill="#282523" d="M739.265 608.098c1.648-1.241 7.014-5.974 8.695-6.196.08 5.615-.816 33.74.997 36.72q.103.172.205.347c-2.864 2.843-6.843 6.282-9.885 8.969-.627-12.683-.237-27.091-.012-39.84"/><path fill="#211e1d" d="m747.896 585.729.064 16.173c-1.681.222-7.047 4.955-8.695 6.196.2-5.068.17-10.255.264-15.341 2.09-1.866 5.014-4.095 6.86-6.156z"/><path fill="#131212" d="m781.505 372.274-.072 54.163c0 6.447.406 20.885-.107 26.568-5.373 7.109-10.269 14.491-15.548 21.664-1.358-2.977-.774-53.522-.774-61.201.204-12.965-.031-26.343-.068-39.323 4.611-.369 9.879.419 14.55-.206 1.4-.188 1.24-.494 2.019-1.665"/><path fill="#fbdfbe" d="M717.642 814.857a2101 2101 0 0 0 57.672-19.807c-.139 1.659-.315 3.413-.384 5.065l.07 2.771.064 13.394c.106.906.202 2.021.361 2.899-11.173 2.185-31.429 6.128-41.937 9.492-.215 3.39-.367 7.254-.687 10.596-7.553 5.8-8.123 8.019-10.217 17.333l-.596.725c-1.615.139-2.361.162-3.981.126z"/><path fill="#b5895c" d="m775 802.886.064 13.394c-11.717 1.619-34.13 7.517-45.95 10.455l.001 10.148c-4.282 3.818-5.891 6.822-9.014 11.709.029-2.842-.033-6.955.212-9.663 4.267-4.638 2.953-12.072 2.935-18.813 12.376-2.741 25.417-8.41 37.443-12.486 3.789-1.284 10.617-4.147 14.309-4.744"/><path fill="#d9b58d" d="M720.495 817.883c16.905-4.457 37.727-12.245 54.435-17.768l.07 2.771c-3.692.597-10.52 3.46-14.309 4.744-12.026 4.076-25.067 9.745-37.443 12.486.018 6.741 1.332 14.175-2.935 18.813-.176-6.565-.187-14.538.182-21.046"/><path fill="#131212" d="M245.418 487.424c.481 5.971.252 14.33.246 20.526l-.023 38.176c6.506.996 12.206.361 18.652.86.239.019 1.145 1.166 1.322 1.447-1.138 2.426-.721 20.735-.643 24.5.009 6.905.691 49.08-.679 52.645l-4.71-4.31c-2.998-2.811-6.145-5.616-9.187-8.394l-5.236-4.34c-.383-5.506-.118-14.649-.104-20.387l.076-37.467-.018-40.589c.008-6.809-.203-16.023.304-22.667"/><path fill="#282523" d="M251.984 547.411c3.246 3.115 3.877 3.716 7.742 6.149.389 11.182.078 22.486-.02 33.69-.096 11.033.582 23.075-.123 34.018-2.998-2.811-6.145-5.616-9.187-8.394 1.861-3.997.763-55.085 1.588-65.463"/><path fill="#fbdfbe" d="M252.222 800.682c.083-1.139.148-3.604.534-4.515 16.71 5.402 33.224 11.735 49.82 17.5 2.234.776 5.048 1.387 7.087 2.474l.25 1.117c-1.062 8.273-.168 20.444-.48 29.086-.116 3.2.295 7.282-.24 10.33-1.433.389-2.146.565-3.649.811-2.166-9.952-2.981-13.889-11.47-20.661l-.131-8.157c-13.251-3.72-29.323-5.874-41.632-9.583.366-2.883-.063-13.075-.139-16.403z"/><path fill="#b5895c" d="M252.172 802.681c3.023 1.589 9.979 3.684 13.541 4.869a2444 2444 0 0 1 25.104 8.509c3.83 1.314 10.328 3.353 13.825 4.974-.071 4.267-.439 11.436 1.107 15.202l.827.934.01.439c-.287 2.857.094 5.318-.415 8.079-2.567-4.874-4.764-6.673-8.649-10.576l-.073-7.74c-5.767-1.667-40.715-11.532-44.269-10.555l-.869 2.268c.366-2.883-.063-13.075-.139-16.403"/><path fill="#fbdfbe" d="m252.172 802.681 1.313-.471c12.451 4.298 41.428 13.002 52.551 17.732.039 3.31.355 13.543-.287 16.293-1.546-3.766-1.178-10.935-1.107-15.202-3.497-1.621-9.995-3.66-13.825-4.974a2444 2444 0 0 0-25.104-8.509c-3.562-1.185-10.518-3.28-13.541-4.869"/><path fill="#b5895c" d="M252.222 800.682c7.933 2.485 16.212 5.429 24.133 8.117 9.447 3.207 21.678 6.705 30.554 10.699-.005 4.412.219 13.611-.333 17.671l-.827-.934c.642-2.75.326-12.983.287-16.293-11.123-4.73-40.1-13.434-52.551-17.732l-1.313.471z"/><path fill="#b5895c" d="M306.586 837.608c.385 1.626.796 8.737.23 9.933l-.07.041-.038-.048.017-.145-.119.027a13 13 0 0 1-.435-1.729c.509-2.761.128-5.222.415-8.079"/><path fill="#282523" d="M264.972 572.933c3.123 2.442 6.43 5.944 10.045 7.469-.295-2.436-.626-3.918-.549-6.353l.512 1.713c2.373 1.265 2.8-.547 4.935.769l.749 1.02c1.849 1.85 4.369 4.59 6.463 5.995 1.758 6.511 1.101 33.873 1.025 41.429-.053 5.362.109 16.764-.039 22.319a1067 1067 0 0 1-8.733-7.871l-4.62-4.207a230 230 0 0 1-10.467-9.638c1.37-3.565.688-45.74.679-52.645"/><path fill="#322b27" d="M264.972 572.933c3.123 2.442 6.43 5.944 10.045 7.469q.162 17.768.068 35.535c-.015 5.302.224 14.463-.325 19.279a230 230 0 0 1-10.467-9.638c1.37-3.565.688-45.74.679-52.645"/><path fill="#131212" d="m274.468 574.049.512 1.713c2.373 1.265 2.8-.547 4.935.769l.749 1.02c-1.106 2.726-.575 10.09-.724 13.029-.374 7.4.985 45.141-.56 48.843l-4.62-4.207c.549-4.816.31-13.977.325-19.279q.094-17.768-.068-35.535c-.295-2.436-.626-3.918-.549-6.353"/><path fill="#282523" d="M775.65 544.681c1.875.627 3.907.43 5.91.403l.304 64.224c-1.646 1.537-3.47 3.327-5.193 4.737l-10.537 9.594c-1.038.895-2.416 2.154-3.465 2.967-1.38-3.551-.578-36.755-.676-43.722.074-4.222.267-21.411-.503-24.374 1.967.411 2.628.589 4.607.609l-.019-6.4a58.2 58.2 0 0 1 9.572-8.038"/><path fill="#131212" d="M775.65 544.681c1.875.627 3.907.43 5.91.403l.304 64.224c-1.646 1.537-3.47 3.327-5.193 4.737-1.845-3.619-.958-15.838-.879-20.734q.135-14.221.075-28.443c.027-6.061.322-14.339-.217-20.187"/><path fill="#131212" d="M761.49 558.51c1.967.411 2.628.589 4.607.609-.11 19.323-.809 45.408.037 64.52-1.038.895-2.416 2.154-3.465 2.967-1.38-3.551-.578-36.755-.676-43.722.074-4.222.267-21.411-.503-24.374"/><path fill="#fbdfbe" d="M887.57 711.314c1.989 2.052.143 13.891-.27 16.979-16.151 8.131-34.064 15.839-50.429 23.95-7.499 3.718-22.966 11.268-30.35 13.769.027-4.265-.065-9.269.219-13.466 6.95-4.043 14.195-7.717 21.337-11.424a383 383 0 0 0 14.409-7.21l6.486-3.286 15.17-7.298 8.413-4.226z"/><path fill="#211e1d" d="m744.564 228.375.149 65.839.184 18.749c.018 3.117-.448 6.035.128 9.017l.902.441-.442 2.085c-4.556 7.409-8.417 16.922-12.446 24.753-.913-3.897-.521-25.091-.527-30.5l-.008-74.734c2.108-3.421 9.261-12.083 12.06-15.65"/><path fill="#282523" d="M756.561 703.119c.102 4.414-.31 11.541.367 15.521.046 16.837.757 38.937-.065 55.383l-5.407 2.39c-3.77 1.839-7.295 3.383-11.154 5.036.57-6.86.189-18.539.197-25.721q.082-22.27.506-44.537c3.005-3.256 5.688-5.172 9.297-7.667 1.555-.419 4.538-.366 6.259-.405"/><path fill="#131212" d="M756.561 703.119c.102 4.414-.31 11.541.367 15.521.046 16.837.757 38.937-.065 55.383l-5.407 2.39c-1.934-1.922-1.206-23.133-1.182-27.638q.212-22.625.028-45.251c1.555-.419 4.538-.366 6.259-.405"/><path fill="#211e1d" d="M836.755 261.355c1.276 13.459-1.31 94.499 1.191 100.564l.749.595c-3.376 5.896-8.807 13.486-12.751 19.117l.26-107.985c2.387-3.455 7.293-10.132 10.551-12.291"/><path fill="#fbdfbe" d="M147.493 732.136c-.062-3.063-.837-14.166-.033-16.051l7.117 3.573 9.353 4.744c4.829 2.765 11.576 5.982 16.694 8.407l5.233 2.619c4.082 2.333 8.676 4.471 12.924 6.549a1032 1032 0 0 1 21.149 10.783c-.005 4.795-.209 9.041-.474 13.811-23.619-11.791-48.139-22.566-71.963-34.435"/><path fill="#322b27" d="M184.003 468.273c1.251.02 5.365-.125 6.17.644-.422 5.024-.365 13.303-.224 18.486 2.848 2.774 5.371 4.8 8.476 7.306l-.019 43.214c-.002 7.081.269 16.58-.144 23.511-2.59-2.236-6.509-6.384-9.059-8.911l-5.417-5.434c-.453-20.635.121-43.244.237-64.038z"/><path fill="#131212" d="M184.003 468.273c1.251.02 5.365-.125 6.17.644-.422 5.024-.365 13.303-.224 18.486l-.234 43.53c-.02 4.206.129 18.342-.512 21.59l-5.417-5.434c-.453-20.635.121-43.244.237-64.038z"/><path fill="#211e1d" d="M756.948 194.688c2.083 4.469.836 71.134 1.435 81.584.183 3.204-.065 10.22.124 13.732.051.953.394 1.413 1.166 1.882l.609.137c-3.432 7.917-7.04 15.161-10.824 22.911-.263-3.519-.301-8.048-.304-11.58-.03-32.94-1.366-66.435-.538-99.324 2.761-3.302 5.221-6.333 8.332-9.342"/><path fill="#322b27" d="M186.341 654.879c1.379-.645 10.16 5.539 12.754 6.771-.106 25.581.609 55.053-.314 80.327-4.248-2.078-8.842-4.216-12.924-6.549 1.23-2.882.54-72.355.484-80.549"/><path fill="#211e1d" d="M156.633 422.605c2.986 2.662 6.405 5.871 9.457 8.374l.067 67.335c.009 5.995-.407 27.301.726 32.047a440 440 0 0 1-11.547-11.437c2.526-5.249-.429-50.964.694-59.418.892-6.714-1.514-31.571.603-36.901"/><path fill="#b5895c" d="m103.192 466.627 11.063 10.923c3.493 3.8 6.92 7.188 10.586 10.801 3.246 3.296 7.19 7.506 10.497 10.627 4.02 4.336 8.235 8.373 12.468 12.498l7.53 7.448a440 440 0 0 0 11.547 11.437l4.415 4.487.077.407c-.737 2.914-.507 9.002-.564 12.363-16.843-15.598-33.012-32.171-49.524-48.122a647 647 0 0 1-18.013-18.088c-.568-2.27-.303-12.199-.082-14.781"/><path fill="#282523" d="M734.649 444.935c.882 16.822-.043 34.858.298 51.753.092 4.575-.306 16.948.377 20.876-1.049 1.515-2.454 3.691-3.567 5.079-2.692 4.18-5.828 8.259-8.799 12.261.63-26.717.254-57.506-.021-84.24 1.851-1.188 5.06-3.792 6.922-5.223.958-.258 3.656-.412 4.79-.506"/><path fill="#131212" d="M734.649 444.935c.882 16.822-.043 34.858.298 51.753.092 4.575-.306 16.948.377 20.876-1.049 1.515-2.454 3.691-3.567 5.079-2.357-2.203-1.642-22.713-1.675-26.891l-.223-50.311c.958-.258 3.656-.412 4.79-.506"/><path fill="#322b27" d="M838.898 467.678c-.351 18.717.231 37.687.074 56.446-.032 3.775-.16 23.155.335 25.126l1.315.606c-3.653 4.138-8.526 8.812-12.516 12.735-.179-28.734.264-56.644.448-85.282 3.237-3.185 6.988-6.518 10.344-9.631"/><path fill="#b5895c" d="M920.893 469.509c.841 1.754 1.14 12.881.007 14.524-20.665 17.461-41.217 41.988-61.367 59.745a389 389 0 0 1-.697-11.878l1.368-1.49c4.107-4.002 8.625-8.236 12.491-12.425l6.702-6.605c4.203-4.017 8.917-8.219 12.73-12.523a797 797 0 0 1 10.21-10.434c3.63-3.547 8.004-7.722 11.284-11.496 2.332-2.131 5.035-5.092 7.272-7.418"/><path fill="#b5895c" d="M103.409 693.233c4.116 2.295 7.383 4.055 11.609 6.152 5.474 2.757 11.144 5.704 16.618 8.36a118 118 0 0 0 7.833 4.119c2.5 1.548 5.452 2.654 7.991 4.221-.804 1.885-.029 12.988.033 16.051a1054 1054 0 0 1-44.205-21.093c-.423-1.906-.098-15.429.121-17.81"/><path fill="#090909" d="M584.902 455.577c.291 1.064.348 1.282.767 2.252-.402 31.516-4.368 57.286-10.432 88.013.671 1.15.866 1.441 1.371 2.66-1.258 3.057-1.136 6.216-3.341 8.309l-.296-1.044c-1.358-.835-1.954-1.071-2.911-2.373.046-6.323.879-14.262 1.389-20.67l2.72-33.985c.368-4.664 1.805-27.303 2.669-29.898-.265-1.631-.943-3.432-.174-4.723.156.22.328.541.563.64.669-.294 6.68-7.948 7.675-9.181"/><path fill="#d9b58d" d="M584.902 455.577c.291 1.064.348 1.282.767 2.252-2.886 3.472-5.883 7.72-8.831 11.012-.265-1.631-.943-3.432-.174-4.723.156.22.328.541.563.64.669-.294 6.68-7.948 7.675-9.181"/><path fill="#d9b58d" d="M572.971 555.767c.727-1.877 1.868-7.751 2.266-9.925.671 1.15.866 1.441 1.371 2.66-1.258 3.057-1.136 6.216-3.341 8.309z"/><path fill="#fbdfbe" d="M694.991 798.812c3.988-1.526 6.212-3.011 10.477-4.135.913 2.61.59 54.301.636 62.038-2.909-.371-9.472-.32-12.649-.386.017-12.587-.188-41.138.396-54.991l1.071-1.2c.033-.464.07-.861.069-1.326"/><path fill="#131212" d="M694.991 798.812c3.988-1.526 6.212-3.011 10.477-4.135-2.308 2.206-7.531 4.574-10.546 5.461.033-.464.07-.861.069-1.326"/><path fill="#fbdfbe" d="M774.884 765.811c.173 4.376.17 8.491.148 12.859-20.564 8.451-41.736 17.242-62.395 25.389l-.983-9.819 11.832-5.343c3.31-1.397 6.914-2.831 10.076-4.482l6.74-2.966c3.859-1.653 7.384-3.197 11.154-5.036l5.407-2.39c4.097-1.826 8.061-3.553 12.043-5.634z"/><path fill="#fbdfbe" d="M320.85 795.299c4.011 2.079 6.172 2.907 10.475 4.451 1.136.838 1.848 1.035 1.97 2.682.427 5.744.26 11.933.241 17.709l-.096 34.919c-2.879.335-9.436.804-12.41.69q.126-30.227-.18-60.451"/><path fill="#282523" d="m172.912 475.874 1.841 1.117c2.539 1.562 6.8 4.971 9.27 6.06-.116 20.794-.69 43.403-.237 64.038a453 453 0 0 0-12.411-11.834l-.077-.407.917-.683c.557-4.593.254-16.582.268-21.64q.078-18.327.429-36.651"/><path fill="#fbdfbe" d="m245.544 451.995 3.848 5.368 10.03 14.065c1.403 2.007 3.334 4.94 4.797 6.798 3.339 5.155 7.52 10.399 11.262 15.315 1.424 2.11 2.895 4.391 4.422 6.411a640 640 0 0 0 9.439 13.394l5.012 7.11a555 555 0 0 0 8.172 12.112c1.754 2.946 1.03 8.778.898 12.512a9992 9992 0 0 1-57.732-81.532c-1.079-2.415-.429-8.793-.148-11.553"/><path fill="#131212" d="M254.461 197.551c2.408-.335 7.689-1.674 9.197.6-.591 3.62-.33 14.579-.308 18.875l.197 43.846c.004 3.854.679 20.753-1.311 22.708-2.645-5.676-5.768-12.229-8.569-17.814 3.904-6.811.971-42.597 2.112-52.157.391-3.274.612-13.401-1.318-16.058"/><path fill="#322b27" d="M844.005 483.763c3.012-2.496 6.78-5.246 9.924-7.671-.014 3.091-.112 5.107.473 8.184-.002 5.999-.556 48.321.744 51.151l-11.376 11.33.125-3.439c.561-2.099.338-12.63.362-15.595.114-14.616-.657-29.347-.252-43.96"/><path fill="#322b27" d="M756.928 718.64c.024-.447.136-4.32.215-4.43 1.578-2.18 7.657-6.701 9.941-7.948-.011 6.815-.559 59.388.533 61.624l1.289.503c-3.982 2.081-7.946 3.808-12.043 5.634.822-16.446.111-38.546.065-55.383"/><path fill="#fbdfbe" d="M858.836 531.9q.258 5.944.697 11.878a2327 2327 0 0 1-28.82 28.165c-6.285 6.126-13.845 13.829-20.473 19.353-.141-3.722-.276-7.255-.244-10.98a1904 1904 0 0 1 18.11-17.725c3.99-3.923 8.863-8.597 12.516-12.735l3.148-3.099 11.376-11.33z"/><path fill="#fbdfbe" d="M171.375 535.255a453 453 0 0 1 12.411 11.834l5.417 5.434c2.55 2.527 6.469 6.675 9.059 8.911l.533.712a685 685 0 0 1 17.84 18.24l-.134 11.517c-14.346-14.772-30.967-29.191-45.69-44.285.057-3.361-.173-9.449.564-12.363"/><path fill="#fbdfbe" d="M231.519 710.825c4.792 2.456 8.517 4.279 13.459 6.504 1.085.772 2.31 1.291 3.507 1.96-.009 3.86.314 30.424-.402 31.82l.142 1.041c-4.655-1.79-12.414-4.882-16.698-7.095.102-.775.135-.857.047-1.631-.838-8.493-.272-23.78-.055-32.599"/><path fill="#131212" d="M231.574 743.424c2.679.97 14.049 6.271 16.509 7.685l.142 1.041c-4.655-1.79-12.414-4.882-16.698-7.095.102-.775.135-.857.047-1.631"/><path fill="#b5895c" d="M921.577 694.82c.18 4.891-.258 12.353.235 16.754-8.155 4.743-25.216 12.219-34.512 16.719.413-3.088 2.259-14.927.27-16.979l.142-.175c2.475-.998 4.445-1.997 6.811-3.14 2.294-1.045 13.881-6.556 15.662-7.6 3.366-1.738 7.95-4.261 11.392-5.579"/><path fill="#fbdfbe" d="M781.326 453.005c.223 2.187.733 6.859-.069 8.791-19.118 26.428-39.668 56.078-58.057 83.115-.282-2.503-1.254-7.969-.242-10.007 2.971-4.002 6.107-8.081 8.799-12.261 1.113-1.388 2.518-3.564 3.567-5.079 3.513-4.777 7.829-10.511 10.971-15.482 1.814-2.203 4.465-6.183 5.964-8.621 4.397-5.933 9.544-12.646 13.519-18.792 5.279-7.173 10.175-14.555 15.548-21.664"/><path fill="#322b27" d="M732.077 724.718c-.031 4.643-.309 20.637.449 24.348.128 10.676-.217 22.949.144 33.726.02.584.502 1.19.892 1.623-3.162 1.651-6.766 3.085-10.076 4.482.343-17.813-.043-36.884-.079-54.798.116-1.342-.089-3.578.852-4.243 2.491-1.763 5.257-3.487 7.818-5.138"/><path fill="#fbdfbe" d="m245.16 608.534 5.236 4.34c3.042 2.778 6.189 5.583 9.187 8.394l4.71 4.31q5.085 4.981 10.467 9.638l4.62 4.207q4.345 3.96 8.733 7.871l5.081 4.773a311 311 0 0 0 8.82 8.086l4.914 4.327c-.048 1.843.103 3.514-.751 5.111-2.369-1.074-13.871-11.108-16.289-13.158l-44.263-37.995c-1.283-1.54-.604-7.696-.465-9.904"/><path fill="#211e1d" d="M764.936 374.145c.037 12.98.272 26.358.068 39.323-3.601 1.641-9.748 4.098-13.534 5.276q-.017-1.075-.02-2.149c.094-10.433-.089-20.935.085-31.351 3.911-3.321 9.391-8.243 13.401-11.099"/><path fill="#211e1d" d="m248.02 191.763 6.441 5.788c1.93 2.657 1.709 12.784 1.318 16.058-1.141 9.56 1.792 45.346-2.112 52.157-.951-1.647-5.829-11.511-6.609-13.262.345-.073.874-.338 1.223-.49.353-6.473-.132-15.79-.175-22.514z"/><path fill="#fbdfbe" d="M264.154 300.04c2.975-.022 2.902.132 5.623.385.707 1.457 1.53 3.294 2.285 4.684 8.778 18.856 18.707 37.546 27.761 56.336 6.603 14.141 9.29 14.71 8.639 30.364-3.907-10.255-10.825-22.828-15.758-32.945a6199 6199 0 0 0-28.55-58.824"/><path fill="#fbdfbe" d="M781.864 609.308c.15 2.141.442 5.718-.039 7.735a2411 2411 0 0 0-39.698 35.17c-3.42 3.049-17.084 16.554-20.954 16.392-1.506-2.952 1.922-5.942 3.865-7.697l.816-.828c2.727-2.401 5.746-4.951 8.264-7.53 1.726-1.488 3.458-3.085 5.159-4.612 3.042-2.687 7.021-6.126 9.885-8.969l4.196-4.005c2.106-1.824 7.585-6.533 9.311-8.358 1.049-.813 2.427-2.072 3.465-2.967l10.537-9.594c1.723-1.41 3.547-3.2 5.193-4.737"/><path fill="#b5895c" d="M186.086 133.993c1.254-1.46 3.297-2.403 5.016-3.37 1.494 2.732 2.727 5.273 4.122 8.049 1.223 3.328 7.075 14.976 8.813 18.147 3.709 7.948 9.167 15.906 11.866 24.087 1.045 3.168.568 10.853.478 14.506-9.134-19.047-22.423-42.531-30.295-61.419"/><path fill="#131212" d="M287.127 583.546c3.095-.257 4.021-.215 7.088.043-.339 7.126-.248 17.394-.245 24.702.008 6.742.599 38.862-.776 43.776l-5.081-4.773c.148-5.555-.014-16.957.039-22.319.076-7.556.733-34.918-1.025-41.429"/><path fill="#322b27" d="M293.97 608.291c.171-.428.534-1.515.811-1.825-.007.001 6.704 4.67 7.305 5.077l-.072 48.61a311 311 0 0 1-8.82-8.086c1.375-4.914.784-37.034.776-43.776"/><path fill="#fbdfbe" d="m576.754 423.32 1.231.329c.739 1.703.371 1.95.174 4.097a27 27 0 0 1 .97 2.167l-.82.884c-.802 9.564-.854 24.18-1.645 33.321-.769 1.291-.091 3.092.174 4.723-.864 2.595-2.301 25.234-2.669 29.898l-2.72 33.985c-.51 6.408-1.343 14.347-1.389 20.67.957 1.302 1.553 1.538 2.911 2.373l.296 1.044c-2.179.945-5.024 1.558-6.492-.634a5708 5708 0 0 0 9.333-129.108c.191-.552.531-3.028.646-3.749"/><path fill="#fbdfbe" d="M745.485 324.506c3.954-3.367 7.044-10.185 10.579-13.603l.598.194c-12.074 27.227-26.14 54.269-39.051 81.212-.005-1.392-.07-8.38.188-9.157 3.514-10.606 10.464-23.861 15.24-33.893 4.029-7.831 7.89-17.344 12.446-24.753"/><path fill="#211e1d" d="M817.48 121.745c1.611.68 7.242 3.355 8.417 4.422 3.046 1.453 5.399 3.09 8.294 4.639-2.459 5.235-4.321 10.353-7.343 15.396-.542 1.626-7.745 15.874-8.886 17.9-.674-3.431-.44-12.4-.454-16.352q-.136-13.002-.028-26.005"/><path fill="#131212" d="M826.848 146.202c-1.443-2.426-1.788-17.86-.951-20.035 3.046 1.453 5.399 3.09 8.294 4.639-2.459 5.235-4.321 10.353-7.343 15.396"/><path fill="#b5895c" d="M834.191 130.806c1.665 1.019 3.388 2.043 5.024 3.097-8.97 20.562-20.236 40.942-29.691 61.459-.068-20.091 1.131-14.581 8.438-31.26 1.141-2.026 8.344-16.274 8.886-17.9 3.022-5.043 4.884-10.161 7.343-15.396"/><path fill="#211e1d" d="M164.507 617.671c4.313 2.206 8.225 6.12 12.291 8.787 4.725 3.099 4.229 1.566 4.133 6.948-.449 4.715.116 11.32-.238 16.472-2.329-1.282-14.748-8.983-16.23-9.372-.13-2.866-.264-20.303.044-22.835"/><path fill="#b5895c" d="m745.229 103.272 2.937.234c-7.915 27.092-19.481 54.22-27.794 81.277-2.254 7.337-6.203 16.96-8.749 24.423-.372 1.091-1.04 1.331-1.856 1.743-1.506-.828-1.003-.249-1.705-1.653 2.273-4.093 2.287-6.389 3.822-10.476 11.822-31.477 21.648-64.097 33.345-95.548"/><path fill="#b5895c" d="M277.944 103.5c1.67.095 1.487-.076 2.963.546 1.264 6.017 5.739 16.247 7.871 22.565l19.789 58.837c2.188 6.414 6.315 16.133 6.587 22.445 1.383-.998 1.649-1.244 2.861-2.458.878 1.116 1.597 1.877 2.541 2.926-2.81 2.003-3.45 2.71-5.769 5.203-2.287-7.786-6.534-19.056-9.263-27.065l-15.232-45.86c-4.025-11.931-8.856-25.174-12.348-37.139"/><path fill="#282523" d="M725.551 612.731c2.701-2.021 4.489-3.82 7.475-5.752l-.013 29.435c0 3.108-.687 14.212 1.105 16.136-2.518 2.579-5.537 5.129-8.264 7.53-.55-4.88-.209-14.505-.213-19.838-.007-9.005-.34-18.583-.09-27.511"/><path fill="#b5895c" d="M781.19 249.032c.12 3.071.65 8.199-.436 10.887a1428 1428 0 0 1-15.734 33.855c-1.893 4.009-6.35 14.089-8.358 17.323l-.598-.194c-3.535 3.418-6.625 10.236-10.579 13.603l.442-2.085c1.089-1.888 2.572-5.384 3.531-7.487 3.784-7.75 7.392-14.994 10.824-22.911l4.45-9.474c2.801-5.722 6.808-13.584 9.06-19.402 2.37-4.662 4.778-9.614 7.398-14.115"/><path fill="#fbdfbe" d="m843.16 371.146.143 2.299c-2.933 5.362-9.683 14.625-13.276 19.9-6.445 9.463-13.662 19.955-20.49 29.179q-.075-7.855-.061-15.709c1.39-1.793 3.506-4.257 4.686-6.089 2.773-1.757 9.581-9.407 12.084-12.142 5.846-6.39 10.594-11.5 16.914-17.438"/><path fill="#b5895c" d="M705.013 203.888c3.227-7.381 7.193-19.72 9.99-27.647l18.519-53.106c1.969-5.719 4.342-13.495 6.499-19.37.349-.951 2.319-.693 3.601-.74-2.887 8.694-34.566 100.723-35.673 101.789-1.478-.062-1.573-.258-2.936-.926"/><path fill="#fbdfbe" d="m712.486 761.613.213 1.466c-1.718 1.691-3.46 2.729-5.615 3.824.389.66.529.913.844 1.594-.135 7.41-.084 12.897.38 20.242l.282 1.342c-.423 3.852-1.92 2.335-3.122 4.596-4.265 1.124-6.489 2.609-10.477 4.135.119-2.191.389-1.881 1.442-3.776l.024-.261c.041-.531.074-.663.486-.961-.332-1.085.21-20.138.745-20.965l-.004-1.228c.019-3.085 3.532-5.114 6.085-6.189 3.001-1.321 5.591-2.657 8.717-3.819"/><path fill="#fbdfbe" d="M696.943 793.814q5.746-2.394 11.365-5.075l.282 1.342c-.423 3.852-1.92 2.335-3.122 4.596-4.265 1.124-6.489 2.609-10.477 4.135.119-2.191.389-1.881 1.442-3.776l.024-.261c.041-.531.074-.663.486-.961"/><path fill="#211e1d" d="M696.943 793.814q5.746-2.394 11.365-5.075l.282 1.342c-4.178 1.191-7.296 3.672-12.157 4.955l.024-.261c.041-.531.074-.663.486-.961"/><path fill="#fbdfbe" d="m712.486 761.613.213 1.466c-1.718 1.691-3.46 2.729-5.615 3.824-3.133 1.563-6.197 3.408-9.4 4.718.019-3.085 3.532-5.114 6.085-6.189 3.001-1.321 5.591-2.657 8.717-3.819"/><path fill="#131212" d="M697.684 771.621c3.203-1.31 6.267-3.155 9.4-4.718.389.66.529.913.844 1.594-2.365.696-6.407 3.098-10.24 4.352z"/><path fill="#282523" d="M842.466 633.125c-.354 6.554-.045 13.218-.45 19.669-4.402 2.876-8.843 5.358-13.404 7.957l.031 49.582c.003 3.782.294 21.657-.518 24.455-.464-9.901-.096-22.98-.097-33.088a2469 2469 0 0 1 .362-57.924c4.154-3.385 9.632-7.797 14.076-10.651"/><path fill="#211e1d" d="M854.108 454.815c.106 8.401.683 21.388.294 29.461-.585-3.077-.487-5.093-.473-8.184-3.144 2.425-6.912 5.175-9.924 7.671-.405 14.613.366 29.344.252 43.96-.024 2.965.199 13.496-.362 15.595-1.075-2.416-.503-73.618.125-80.032 2.574-2.648 7.163-6.202 10.088-8.471"/><path fill="#b5895c" d="m246.832 252.102.226.402c.78 1.751 5.658 11.615 6.609 13.262 2.801 5.585 5.924 12.138 8.569 17.814 1.933 5.085 5.934 11.819 7.541 16.845-2.721-.253-2.648-.407-5.623-.385-1.651-2.958-4.331-9.247-5.876-12.54-3.723-7.936-7.962-16.042-11.548-23.982-1.013-3.122-.704-8.465.102-11.416"/><path fill="#211e1d" d="M186.312 634.155c3.729 2.322 9.576 6.67 12.792 9.589a898 898 0 0 0-.009 17.906c-2.594-1.232-11.375-7.416-12.754-6.771-.441-1.601-.224-18.288-.029-20.724"/><path fill="#211e1d" d="M172.94 453.221c3.798 2.822 7.555 5.684 11.052 8.871q.028 3.09.011 6.181l.02 14.778c-2.47-1.089-6.731-4.498-9.27-6.06l-1.841-1.117a693 693 0 0 1 .028-22.653"/><path fill="#211e1d" d="M264.972 572.933c-.078-3.765-.495-22.074.643-24.5 2.839 2.766 5.904 5.196 8.961 7.716.002 5.421.21 12.613-.108 17.9-.077 2.435.254 3.917.549 6.353-3.615-1.525-6.922-5.027-10.045-7.469"/><path fill="#211e1d" d="M197.47 127.145c1.129-.879 5.945-3.463 7.331-4.061-.014 4.663.144 7.917-.085 12.667l-.056.999c-.335 6.943.259 12.947-.623 20.069-1.738-3.171-7.59-14.819-8.813-18.147-1.395-2.776-2.628-5.317-4.122-8.049l.655-.371a78 78 0 0 1 5.713-3.107"/><path fill="#090909" d="M197.47 127.145c-.06 3.214.13 9.387-2.246 11.527-1.395-2.776-2.628-5.317-4.122-8.049l.655-.371a78 78 0 0 1 5.713-3.107"/><path fill="#fbdfbe" d="M319.675 767.995a460 460 0 0 0 9.702 4.427c1.416 1.505 1.11 18.045 1.14 21.384-3.45-1.505-7.619-3.159-10.962-4.722.253-6.978.018-14.1.12-21.089"/><path fill="#211e1d" d="M767.031 685.978c.126 6.778.925 13.5.053 20.284-2.284 1.247-8.363 5.768-9.941 7.948-.079.11-.191 3.983-.215 4.43-.677-3.98-.265-11.107-.367-15.521q-.096-5.206-.037-10.413c3.7-2.072 6.954-4.425 10.507-6.728"/><path fill="#211e1d" d="M723.116 710.963a99 99 0 0 1 8.793-7.067l.681-.49.112 30.729c-.002 4.391.179 10.702-.176 14.931-.758-3.711-.48-19.705-.449-24.348-2.561 1.651-5.327 3.375-7.818 5.138-.941.665-.736 2.901-.852 4.243-.814-6.722-.288-16.161-.291-23.136"/><path fill="#282523" d="M753.488 565.726c2.225-2.173 5.511-6.011 8.002-7.216.77 2.963.577 20.152.503 24.374-3.968 2.657-7.465 4.139-8.512 8.563 0-1.87.091-3.666.054-5.537-.144-6.62-.042-13.54-.047-20.184"/><path fill="#b5895c" d="M318.725 236.721c7.4-9.818 3.118-14.82 1.944-25.237-.006-.051.072-.071.137-.092l.364.264c1.278 1.449 1.918 2.6 3.049 3.93 5.846 11.593 8.816 12.588 1.378 25.411-.236.123-.392.361-.57.575 3.155 6.435-8.149-.275-9.148-.726-.16-1.354-.485-2.238.564-3.134.966-.35 1.423-.459 2.282-.991"/><path fill="#cc9c6b" d="M316.443 237.712c.966-.35 1.423-.459 2.282-.991 2.378 1.751 4.394 2.811 6.872 4.276-.236.123-.392.361-.57.575 3.155 6.435-8.149-.275-9.148-.726-.16-1.354-.485-2.238.564-3.134"/><path fill="#131212" d="M316.443 237.712c.966-.35 1.423-.459 2.282-.991 2.378 1.751 4.394 2.811 6.872 4.276-.236.123-.392.361-.57.575-3.968-1.097-5.057-2.508-8.584-3.86"/><path fill="#282523" d="M189.949 487.403c-.141-5.183-.198-13.462.224-18.486 3.012 2.978 5.682 5.564 8.859 8.354a4634 4634 0 0 0-.063 58.952c-.005 6.706.376 19.513-.174 25.923l-.533-.712c.413-6.931.142-16.43.144-23.511l.019-43.214c-3.105-2.506-5.628-4.532-8.476-7.306"/><path fill="#211e1d" d="m732.934 585.004.092 21.975c-2.986 1.932-4.774 3.731-7.475 5.752-.25 8.928.083 18.506.09 27.511.004 5.333-.337 14.958.213 19.838l-.816.828c-.387-22.836.091-46.37-.023-69.294 2.599-2.289 5.104-4.591 7.919-6.61"/><path fill="#211e1d" d="M294.215 583.589c2.76 2.47 5.181 4.317 7.992 6.657.018 7.117-.152 14.131-.121 21.297-.601-.407-7.312-5.076-7.305-5.077-.277.31-.64 1.397-.811 1.825-.003-7.308-.094-17.576.245-24.702"/><path fill="#b5895c" d="M699.727 221.172c1.357-2.115 4.51-7.846 6.501-9.615.093-.082.186 0 .247.034.661 1.163-2.336 4.289-2.462 5.877-.334 4.193-.388 8.638.632 12.746.981 3.835 2.682 4.102 2.17 7.739-2.175 1.357-3.031 1.687-5.327 2.712-4.6-4.08-4.775-9.966-4.112-15.583l1.324-2.159c.415-.646.729-1.053 1.027-1.751"/><path fill="#fbdfbe" d="M791.175 705.465c-.586-3.049.208-6.892.719-9.973a147 147 0 0 1 1.746-8.721c.706-3.084 1.564-7.289 3.294-9.911-.083 3.739-.129 12.67.909 16.173.388 1.31 2.345 3.817 3.126 6.475.138.517.291.994.45 1.505-2.141 1.402-6.457 3.823-8.757 5.001z"/><path fill="#131212" d="M800.969 699.508c.138.517.291.994.45 1.505-2.141 1.402-6.457 3.823-8.757 5.001l-1.487-.549c3.171-2.403 6.428-3.87 9.794-5.957"/><path fill="#fbdfbe" d="M317.744 744.099c1.991 4.096 4.13 8.125 6.977 11.678l.281.694c.687 1.644.511 6.312.593 8.257l-.67.917c-2.104-.925-9.76-4.777-11.328-3.974-.27-1.025-.22-.98.017-2.052-.628-.463-.638-.932-.03-1.497 3.419-3.177 2.579-6.313 2.85-10.338.482-1.215.832-2.47 1.31-3.685"/><path fill="#131212" d="M313.614 759.619c4.211 1.706 7.9 2.996 11.981 5.109l-.67.917c-2.104-.925-9.76-4.777-11.328-3.974-.27-1.025-.22-.98.017-2.052"/><path fill="#fbdfbe" d="M231.527 745.055c4.284 2.213 12.043 5.305 16.698 7.095.839 2.386.729 7.03.79 9.731-5.679-3.537-11.874-6.863-17.79-10.039-.105-2.617-.337-4.256.302-6.787"/><path fill="#fbdfbe" d="M223.125 700.726c.507-.402.845-.62 1.265-1.108 4.088 2.056 8.006 4.19 12.048 6.233l-.279 1.402c1.875 1.237 6.622 3.95 8.671 4.768-.371 1.626-.393 1.708-.402 3.385.481.818.386.918.55 1.923-4.942-2.225-8.667-4.048-13.459-6.504a5.5 5.5 0 0 1-1.265-1.753l-.368-.76c-2.172-1.411-5.988-4.055-6.546-6.714z"/><path fill="#131212" d="M229.886 708.312c4.239 1.894 10.389 4.945 14.542 7.094.481.818.386.918.55 1.923-4.942-2.225-8.667-4.048-13.459-6.504a5.5 5.5 0 0 1-1.265-1.753z"/><path fill="#211e1d" d="M223.125 700.726c.507-.402.845-.62 1.265-1.108 4.088 2.056 8.006 4.19 12.048 6.233l-.279 1.402c-3.163-1.697-9.969-5.69-13.034-6.527"/><path fill="#fbdfbe" d="M801.419 701.013c8.43 1.061-17.236 13.733-18.382 13.836-.681-.36-.634-2.074-.72-2.729 3.36-2.181 7.045-3.877 10.345-6.106 2.3-1.178 6.616-3.599 8.757-5.001"/><path fill="#b5895c" d="M704.526 205.063c3.227 1.661 4.901 1.833 1.601 4.73-1.959 1.719-4.048 4.514-5.958 6.521-.13-.1-2.578-1.652-2.252-2.111 1.962-2.764 4.182-6.907 6.609-9.14"/><path fill="#fbdfbe" d="M313.597 761.671c1.568-.803 9.224 3.049 11.328 3.974 2.991 1.814 4.923 1.96 4.988 5.509-3.989-1.771-13.354-5.573-15.824-8.847z"/><path fill="#fbdfbe" d="M331.406 798.811c-3.461-1.735-11.278-4.034-12.455-7.394.734-1.636 9.88 2.984 11.848 3.828 1.418 1.248 1.517 1.963.607 3.566"/><path fill="#a08c78" d="M529.827 802.696c-.216 2.91-.805 5.93-1.31 8.808-.126.721-.698 6.52-1.201 6.645-.3-.454 1.118-16.813 1.388-17.556.227 1.1.372 1.114 1.123 2.103"/><path fill="#594232" d="M382.338 892.038c-2.196.023-10.949-.014-12.543-.537l.032-.16-.012-.002c.696-.36 10.497-.853 11.731-.848-.368.165-1.428.529-1.749.802.144.348 2.243.676 2.541.745"/><path fill="#785842" d="M459.96 413.728c1.336-.473 5.121-1.866 6.385-2.051l.604.471c1.349 1.072 2.435.014 4.446.487-.885.416-9.815.978-11.435 1.093"/><path fill="#594232" d="M448.964 388.645c1.295.134 8.403.833 9.465 1.078-.683.378-1.215.706-1.876 1.123-3.322-.6-4.532-1.056-7.589-2.201"/><path fill="#a08c78" d="m505.456 665.627.926.802c-.607 2.304-1.684 3.804-2.206 6.213l-.862-.34c.798-2.017 1.44-4.522 2.142-6.675"/><path fill="#a08c78" d="M477.489 384.04c-.685-.291-5.407-2.649-5.611-2.99l.062-.179c.806-.168 5.319 1.684 6.274 2.211z"/><path fill="#d9b58d" d="M843.16 371.146c.852-.909 1.973-2.782 3.125-1.98-1.026 1.667-1.801 2.709-2.982 4.279z"/><path fill="#d9b58d" d="M316.054 741.5c.864 1.084 1.129 1.337 1.69 2.599-.478 1.215-.828 2.47-1.31 3.685-.171-2.12-.22-4.163-.38-6.284"/><path fill="#785842" d="M485.402 424.632c-.48-.03-2.698.012-2.978-.441.15-.537 2.125-1.132 2.567-1.319z"/><path fill="#322b27" d="m503.314 672.302.862.34c-1.308 3.454-2.771 3.631-.862-.34"/><path fill="#d9b58d" d="M714.327 760.433c.327-.14.159-.087.502-.161.32.328.281.163.307.408-.632.832-1.667 1.565-2.437 2.399l-.213-1.466c.642-.43 1.171-.783 1.841-1.18"/><path fill="#594232" d="M530.68 861.236c-.322-.05-1.583-.125-1.824-.506l.042-.096c.721-.476 2.13-.61 2.975-.752z"/><path fill="#322b27" d="M263.87 686.479q.442.32.878.647c2.291 1.746 8.863 6.425 9.185 8.797.077 2.715.17 5.397.131 8.115 1.736.119 4.898.188 6.397.768l.155.19a295 295 0 0 1 9.5 8.155c.09 5.561.746 11.212-.04 16.523a930 930 0 0 1 .32 33.201c-.036 4.562-.466 16.172-.093 20.217a435 435 0 0 1-10.816-4.774l-5.359-2.432-10.225-4.557z"/><path fill="#322b27" d="M280.068 733.558c-.154-2.842-.14-26.266.548-28.562a295 295 0 0 1 9.5 8.155c.09 5.561.746 11.212-.04 16.523a930 930 0 0 1 .32 33.201c-.036 4.562-.466 16.172-.093 20.217a435 435 0 0 1-10.816-4.774c1.145-3.381.547-38.685.581-44.76"/><path fill="#282523" d="M280.068 733.558c-.154-2.842-.14-26.266.548-28.562a295 295 0 0 1 9.5 8.155c.09 5.561.746 11.212-.04 16.523-.06-.625-.103-3.905-.591-4.21-3.042-1.901-5.929-3.983-8.932-5.959-.171 4.546.083 9.6-.485 14.053"/><path fill="#131212" d="M273.933 695.923c.077 2.715.17 5.397.131 8.115 1.736.119 4.898.188 6.397.768l.155.19c-.688 2.296-.702 25.72-.548 28.562-.034 6.075.564 41.379-.581 44.76l-5.359-2.432c-.496-20.932.236-41.958-.288-62.902-.119-4.774-.937-12.635.093-17.061"/><path fill="#fbdfbe" d="M233.594 755.304c5.006 2.567 12.8 6.279 17.258 9.299.487 9.234-.037 23.782-.075 33.382l-.069 60.709c-5.451.526-11.502.685-16.972.807-.19-34.298-.595-69.939-.142-104.197"/><path fill="#282523" d="M296.437 702.111c3.757 2.898 6.541 5.312 10.063 8.505l.003 21.485-.02 37.664c.002 4.811.293 16.005-.202 20.52l-9.747-4.3-2.021-1.08c1.049-1.031 1.385-1.56 1.38-3.381-.024-8.753-.055-17.754-.036-26.486q-.066-26.467.58-52.927"/><path fill="#211e1d" d="M296.437 702.111c3.757 2.898 6.541 5.312 10.063 8.505l.003 21.485a654 654 0 0 1-9.366-6.674c-.325 18.783.398 42.259-.603 60.558l-2.021-1.08c1.049-1.031 1.385-1.56 1.38-3.381-.024-8.753-.055-17.754-.036-26.486q-.066-26.467.58-52.927"/><path fill="#fbdfbe" d="M252.495 766.333c3.64 1.423 7.791 3.389 11.408 4.996l10.225 4.557 5.359 2.432a435 435 0 0 0 10.816 4.774l4.21 1.813 2.021 1.08 9.747 4.3 9.249 4.21-.268 9.897a284 284 0 0 0-12.61-5.202c-16.768-6.48-33.298-13.581-50.201-19.701z"/><path fill="#fbdfbe" d="M795.175 710.445c.108.019.664.101.668.189.272 6.36.097 27.105.139 32.25a420 420 0 0 1-16.505 7.651c-.061-.006-.882-.044-.891-.166-.437-5.799-.239-26.15-.167-30.94 5.439-3.617 10.98-5.81 16.756-8.984"/><defs><linearGradient id="a" x1="483.491" x2="515.534" y1="571.043" y2="535.43" gradientUnits="userSpaceOnUse"><stop offset="0" stop-color="#77563f"/><stop offset="1" stop-color="#936b4a"/></linearGradient></defs><path fill="url(#a)" d="M508.672 529.719c2.746 1.722 5.402 3.467 8.172 5.147-8.874 13.409-15.17 25.047-25.033 38.872-1.588 2.382-2.51 3.612-4.317 5.756 8.491-17.079 14.835-31.633 21.178-49.775"/><path fill="#fbdfbe" d="M795.241 744.462c1.399 1.001.79 5.427.793 7.22-5.883 3.819-12.155 6.714-17.926 10.396-1.13-.987-.1-7.511-.024-9.415 6.859-2.992 10.491-4.431 17.157-8.201"/><path fill="#cc9c6b" d="M315.057 218.846c3.914 3.166 3.179 7.85 1.775 12.002-.229.173-.786.728-1.113.425-.332-.995-.697-11.036-.662-12.427"/><path fill="#b5895c" d="M710.361 220.382c1.141 1.164.915 9.833.286 10.34-.22.034-.069.028-.51-.025-3.235-3.691-2.321-6.203.224-10.315"/><path fill="#b5895c" d="M696.74 102.932c3.57-.117 7.448.043 11.047.123l1.453.163c1.733-.215 2.091-.316 3.875-.045l1.02.161c2.321-.557 10.673-.655 12.738.205 1.839-.653 5.999-.668 7.95-.282l.619.691c.953-1.155.356-.893 1.713-1.041.497.623.979.951.681 1.991-1.473 5.142-3.641 11.175-5.36 16.165a3254 3254 0 0 1-17.04 48.181c-3.11 8.806-7.658 24.762-11.554 32.293-.56-.175-.516-.176-1.096-.464-.784-.845-1.5-1.666-2.255-2.535-.372-3.028-.645-5.165-1.308-8.156-5.168-8.876-6.622-9.076-13.424-16-.374-.13-.103.008-.946-.716-1.524-.568-1.442-.684-2.725-1.713-.84-.174-.39.017-1.22-.81l-6.867-3.284c7.869-21.421 14.932-43.372 22.699-64.927"/><path fill="#090909" d="M735.442 103.948c.953-1.155.356-.893 1.713-1.041.497.623.979.951.681 1.991-1.473 5.142-3.641 11.175-5.36 16.165a3254 3254 0 0 1-17.04 48.181c-3.11 8.806-7.658 24.762-11.554 32.293-.56-.175-.516-.176-1.096-.464-.784-.845-1.5-1.666-2.255-2.535-.372-3.028-.645-5.165-1.308-8.156 6.141-25.153 18.893-61.732 27.65-86.843 1.839-.653 5.999-.668 7.95-.282z"/><path fill="#b5895c" d="M735.442 103.948c.953-1.155.356-.893 1.713-1.041.497.623.979.951.681 1.991-1.473 5.142-3.641 11.175-5.36 16.165a3254 3254 0 0 1-17.04 48.181c-3.11 8.806-7.658 24.762-11.554 32.293-.56-.175-.516-.176-1.096-.464.466-1.14 1.828-6.587 2.321-8.211a545 545 0 0 1 5.947-18.096c8.145-23.5 16.886-47.176 24.388-70.818"/><path fill="#b5895c" d="M696.74 102.932c3.57-.117 7.448.043 11.047.123a3838 3838 0 0 0-17.045 42.756c-2.276 5.664-8.386 19.905-9.834 25.332l-6.867-3.284c7.869-21.421 14.932-43.372 22.699-64.927"/><path fill="#b5895c" d="M709.24 103.218c1.733-.215 2.091-.316 3.875-.045-9.126 20.522-17.062 41.832-25.407 62.693-.947 2.366-2.189 5.371-2.855 7.8-1.524-.568-1.442-.684-2.725-1.713-.84-.174-.39.017-1.22-.81 1.448-5.427 7.558-19.668 9.834-25.332a3838 3838 0 0 1 17.045-42.756z"/><path fill="#090909" d="m707.787 103.055 1.453.163a3090 3090 0 0 1-18.599 47.269c-2.512 6.304-5.721 15.582-8.513 21.466-.84-.174-.39.017-1.22-.81 1.448-5.427 7.558-19.668 9.834-25.332a3838 3838 0 0 1 17.045-42.756"/><path fill="#090909" d="m713.115 103.173 1.02.161c-9.344 23.495-18.407 47.95-28.336 71.048-.374-.13-.103.008-.946-.716.666-2.429 1.908-5.434 2.855-7.8 8.345-20.861 16.281-42.171 25.407-62.693"/><path fill="#211e1d" d="M131.255 190.891c3.037-5.854 6.922-10.802 10.865-16.061.344 10.911.793 116.659-.764 119.598-3.374-4.84-7.083-9.949-10.142-14.956-4.362-5.374-10.874-15.644-14.437-21.533-2.932-4.437-5.873-8.683-8.9-13.047 1.123-5.496 7.052-21.902 9.432-27.276.945-3.345 11.779-23.443 13.946-26.725"/><path fill="#131212" d="M131.255 190.891c3.037-5.854 6.922-10.802 10.865-16.061.344 10.911.793 116.659-.764 119.598-3.374-4.84-7.083-9.949-10.142-14.956.867-11.492.269-31.202.299-43.316.031-12.814.615-32.899-.258-45.265"/><path fill="#131212" d="M117.309 217.616c.832 2.054.474 17.033.486 20.384.014 3.883.558 16.831-.839 19.578l-.179.361c-2.932-4.437-5.873-8.683-8.9-13.047 1.123-5.496 7.052-21.902 9.432-27.276"/><path fill="#322b27" d="m711.445 347.228.082 64.913c.02 7.405-.385 25.063.401 31.393.005 3.202.182 8.854-.099 11.865-2.723-4.697-6.033-10.434-9.462-14.559.546-1.686.142-13.07.135-15.971l-.015-42.575c.007-7.202-.28-18.52.476-25.351 2.648-3.37 5.603-6.536 8.482-9.715"/><path fill="#b5895c" d="m318.204 103.057 10.872-.205c5.757 15.681 10.894 31.635 16.761 47.29 1.937 5.17 4.75 12.343 5.949 17.686l-.936.904-5.733 2.528c-8.379-22.69-18.156-45.454-26.913-68.203"/><path fill="#b5895c" d="m313.53 102.935 2.193.263.964.736c7.288 20.021 20.256 49.552 27.225 68.263l-.758 1.503c-1.273.117-.658.197-1.845-.228-6.546-17.709-14.5-35.264-21.22-52.947-1.353-3.562-6.233-14.566-6.559-17.59"/><path fill="#131212" d="M908.651 257.513c-.225-.316-1.293-1.651-1.286-2.02.233-12.152-.375-24.672.136-36.79 3.042 8.413 6.89 18.374 8.61 27.128a152 152 0 0 1-7.46 11.682"/><path fill="#cc9c6b" d="M703.882 201.537c-2.046 3.811-4.357 8.073-7.167 11.383-.504.594-3.683-1.517-3.564-1.714a557 557 0 0 0 7.38-12.668c.755.869 1.471 1.69 2.255 2.535.58.288.536.289 1.096.464"/><path fill="#b5895c" d="M701.488 240.665c2.296-1.025 3.152-1.355 5.327-2.712l-.053 1.268c1.932-.847 2.595-.891 4.718-1.265-.054.345-.341 3.016-.723 3.128-5.352 1.57-7.283 7.648-9.34.876z"/><path fill="#3f261a" d="M701.488 240.665c2.296-1.025 3.152-1.355 5.327-2.712l-.053 1.268c-1.298 1.104-3.733 2.04-5.345 2.739z"/><path fill="#322b27" d="M697.376 225.082c-.171-.947-.648-6.168-.039-6.57 2.662-1.758 1.359 3.275 1.363 4.411z"/></svg>