<svg xmlns="http://www.w3.org/2000/svg" width="1024" height="1024" viewBox="0 0 1024 1024"><path fill="#221e1b" d="M0 0h1024v1024H0z"/><path fill="#fadaaf" d="M340.801 609.138c8.488.635 22.174 5.036 30.909 7.68 27.923 8.453 56.671 13.801 84.114 23.746 2.844 1.03 10.05 3.048 11.669 4.893-.075 1.04.044 1.553-1.157 2.302-2.004 1.252-6.815 1.824-8.766 2.523-6.002 2.15-12.373 12.974-13.794 18.847-1.945 8.044-1.702 20.556 2.727 27.74 1.09 1.767 1.795 2.827 3.376 4.627 1.873 2.133 6.857 4.537 7.985 6.952l-.33 3.821c5.054.601 20.919 1.97 23.694 5.444-4.293 7.054-16.87 13.29-17.424 24.106-.912 17.824 5.278 36.418 7.977 54.018.213 1.379.824 3.273 1.274 4.532 4.069 1.134 11.793 2.26 14.274 4.735.177 1.288.358 1.943-.372 3.125-4.653 7.529-111.863 27.281-125.388 28.476-3.191.282-11.181 1.393-13.889-.302.737-1.43 44.533-8.874 50.028-10.023l57.394-12.464a1583 1583 0 0 1 18.28-3.885c1.805-.39 5.702-1.481 7.241-1.666l-1.41-1.146c-6.514 1.504-14.977 2.089-21.713 2.75-8.476.787-16.93 1.8-25.352 3.039-19.646 2.86-40.554 9.946-60.4 9.371-10.455-.303-22.765-4.506-29.837-12.72-9.357-10.869-11.207-27.883-10.865-41.422 1.1-15.936 6.978-33.101 19.117-43.969 5.161-4.621 12.254-5.298 18.67-6.275 17.766-2.706 35.499-.956 53.346-.794 17.129.155 33.877.062 50.989 1.492 1.584-.327 1.793-.289 3.206-.98-8.823-3.433-17.259-2.257-25.848-3.942-25.344-4.974-49.155-4.623-74.676-4.729a627 627 0 0 1-41.596-1.308c-4.854-.272-13.988-.44-18.376-1.763 3.833-1.445 71.073.515 80.112.027 3.3-.178 19.086 1.316 23.799 1.527 3.078.138 10.064.892 13.474 1.297 6.064.718 13.079 2.406 19.206 2.042-5.448-5.271-91.01-10.232-103.493-11.051-9.549-.627-29.306.717-38.329-1.915-20.862-6.086-31.476-36.437-24.588-55.926 2.899-8.462 7.961-22.757 15.733-26.688 15.454-7.818 34.923-1.481 50.657 2.165 6.647 1.62 15.382 3.27 21.606 5.338 25.962 8.628 53.037 13.091 79.197 20.394l.936-.66c-5.601-2.283-12.493-4.516-18.411-6.154-19.766-5.471-39.534-10.473-59.145-16.571-11.929-3.71-24.083-6.115-35.831-10.656"/><path fill="#7e6a51" d="M454.188 642.519c3.136.929 6.272 2.248 9.016 4.024l-2.967-.881c-2.362-.702-4.674-1.669-6.985-2.483z"/><path fill="#3f2a15" d="M476.374 717.711c.667.187 1.314.353 1.953.618l.222.608.385-.12-.075-.133c.128 1.371-4.876.138-5.691.007 1.584-.327 1.793-.289 3.206-.98"/><path fill="#604d35" d="M479.213 807.219c.499-.067 3.038-.53 3.414-.059-.067.347-1.723 1.059-2.004 1.205z"/><path fill="#221e1b" d="M416.494 659.659c-23.077-7.004-119.971-11.367-120.797-12.238 4.284-2.65 39.775.167 46.623.714a527 527 0 0 1 74.259 10.56z"/><defs><linearGradient id="a" x1="385.309" x2="384.621" y1="779.924" y2="775.08" gradientUnits="userSpaceOnUse"><stop offset="0" stop-color="#0c0602"/><stop offset="1" stop-color="#25180c"/></linearGradient></defs><path fill="url(#a)" d="M429.484 773.514c.195.372.27.386.263.704-.27.457-1.214.101-1.589.034-16.598 1.941-33.914 2.995-50.643 4.572-10.7 1.009-29.132 4.009-39.261 3.628 16.215-5.637 72.134-8.989 91.23-8.938"/><path fill="#4a3d2e" d="M429.484 773.514c.195.372.27.386.263.704-.27.457-1.214.101-1.589.034.605-.566.524-.538 1.326-.738"/><path fill="#221e1b" d="M437.603 795.138c-3.124-.197-14.408.917-17.972 1.214a1344 1344 0 0 0-40.019 3.76c-6.343.702-19.944 2.637-25.596 2.572l-.167-.724c2.643-1.563 22.696-3.947 26.607-4.487 18.876-2.609 38.408-3.242 57.462-3.453z"/><path fill="#221e1b" d="M315.545 682.231c20.732-1.078 45.363-.393 66.23.231 9.243.276 26.514.834 35.376 2.368l-.305.706c-2.659-.072-15.209-.734-17.347-.984-9.578-1.119-81.929.047-84.174-1.339z"/><defs><linearGradient id="b" x1="394.513" x2="394.467" y1="728.473" y2="725.919" gradientUnits="userSpaceOnUse"><stop offset="0"/><stop offset="1" stop-color="#2b1e16"/></linearGradient></defs><path fill="url(#b)" d="M423.291 728.108a675 675 0 0 0-27.629-.022c-4.421.111-31.768 1.991-33.916 1.295 7.734-5.234 55.156-4.818 66.236-2.172.718.127 1.574.228 2.178.676l.111.271c-.198.781-6.233.049-6.98-.048"/><path fill="#24160b" d="M427.982 727.209c.718.127 1.574.228 2.178.676l.111.271c-.198.781-6.233.049-6.98-.048a47 47 0 0 1 1.76-.186c1.654-.128 1.528.016 2.931-.713"/><path fill="#221e1b" d="M415.393 743.928c-15.984.567-31.899-.416-47.96 1.436-4.479.517-11.068.967-15.407.837l.2-.496c12.54-5.072 57.768-3.382 73.467-3.137 1.246-.047 10.925-.592 11.115.636-.466 1.285-19.071.837-21.415.724"/><path fill="#604d35" d="M425.693 742.568c1.246-.047 10.925-.592 11.115.636-.466 1.285-19.071.837-21.415.724 3.844-.529 9.339-.594 13.339-.666l-.198-.118c-.669.086-.715.066-1.377-.136z"/><path fill="#221e1b" d="M362.8 755.715c5.297-.24 31.291-1.255 34.818.043-7.276 1.954-16.668 1.517-24.243 1.799-6.219.34-28.521 3.066-33.152 1.654 3.71-3.222 17.643-3.152 22.577-3.496"/><path fill="#221e1b" d="M343.459 668.553c-4.364.312-44.558-.196-47.336-1.705 7.083-2.861 45.159-.41 54.284.808-1.899 1.112-4.034.524-6.948.897"/><path fill="#221e1b" d="M335.963 634.232c-2.454-.447-4.985-.712-7.467-1.172l-7.492-1.181-5.008-.802-3.001-.501c-1.862-.278-13.6-1.791-14.05-3.196l.112-.154c1.963-.872 18.264 1.648 21.447 2.177l3.249.563c5.486.915 11.02 1.891 16.491 2.902-2.256.276-2.828-.3-4.281 1.364"/><path fill="#221e1b" d="M340.244 632.868c13.936 2.074 26.857 4.104 40.69 6.766l.588 1.132a106 106 0 0 0-10.519-1.89 444 444 0 0 0-22.255-2.837c-4.33-.47-8.493-1.183-12.785-1.807 1.453-1.664 2.025-1.088 4.281-1.364"/><path fill="#221e1b" d="M350.407 667.656c.726.028 6.275.156 6.344 1.043-.536.892-11.682.086-13.292-.146 2.914-.373 5.049.215 6.948-.897"/><path fill="#604d35" d="M416.579 658.695c.771.117 4.6.494 4.575 1.433-.53.445-3.89-.299-4.66-.469z"/><path fill="#4a3d2e" d="M380.934 639.634c3.994.689 6.328 2.171.588 1.132z"/><path fill="#4a3d2e" d="M437.918 794.02c.381-.087 1.666-.54 1.786.163-.294.734-1.46.797-2.101.955z"/><path fill="#fadaaf" d="M573.644 642.716c16.132-5.763 33.668-7.39 49.936-11.994 17.867-5.056 35.133-10.486 53.41-14.24 10.385-2.133 20.92-5.294 31.714-4.902a31.2 31.2 0 0 1 12.221 2.993c18.564 8.883 25.061 45.191 14.991 62.377-9.392 16.03-16.119 23.098-36.084 22.082-25.185-.027-50.196 1.98-75.202 4.428-16.733 1.686-32.443 3.074-48.995 6.286l1.981.95c17.002-2.396 34.631-4.109 51.791-4.858 7.189-.314 15.3.227 22.677.102q28.076-.697 56.159-.486c.252.304.971.768 1.197.931-27.342 3.397-56.77 2.043-84.301 2.827-8.784.25-22.092.569-30.637 2.101-13.591 2.437-29.059 2.375-42.044 5.142l1.406 1.545c12.624-1.071 31.007-.984 44.082-.88 19.003.152 63.58-4.503 78.101 8.111 20.747 18.023 24.949 63.535 6.822 84.683-14.181 17.083-43.673 13.048-62.548 8.199-23.576-6.057-46.937-6.716-70.739-10.096l-.535 1.398c9.611 2.865 21.657 4.785 31.582 6.91 27.927 5.982 55.714 12.266 83.894 16.976 5.513.922 10.911 1.471 16.373 2.741q-.747.132-1.496.247c-5.194.815-10.534.821-15.756.276-17.052-1.782-115.065-19.944-124.368-27.536-1.169-.954-1.219-1.437-1.283-2.896 2.834-5.91 10.27-2.351 13.797-6.398 2.607-2.99 10.051-47.246 9.941-52.849-.169-8.614-3.449-16.516-10.429-21.862-2.179-1.668-5.089-3.117-6.946-5.083-.791-.838-.759-1.01-.663-2.078 3.439-3.535 16.819-4.944 22.048-5.801l-.226-.014c3.549-5.844 9.24-8.567 12.988-14.567 4.747-7.598 5.058-19.37 3.114-27.934-1.427-6.289-7.201-15.997-13.263-18.568-2.693-1.142-6.94-1.666-9.639-3.281-.484-1.539-.641-1.517-.15-3.003 3.047-1.76 6.558-2.457 9.872-3.628 15.739-5.564 31.697-9.942 47.798-14.297l2.36.632c-.699.8-.94.975-1.776 1.645-6.819 2.009-14.008 3.439-20.831 5.415-7.714 2.234-15.569 4.863-23.195 7.406z"/><path fill="#7e6a51" d="m572.793 641.868.851.848c-1.686.426-9.331 3.052-10.513 2.779-.146.14-.045.08-.344.086l-.014-.222c.47-.115.997-.489 1.607-.701a244 244 0 0 1 8.413-2.79"/><path fill="#30281d" d="m575.635 709.746 1.981.95c-.738.092-5.905.957-5.707-.179.095-.544 3.238-.71 3.726-.771"/><path fill="#221e1b" d="M545.098 807.211c1.631.344 2.809.592 4.484.806l-.535 1.398c-1.618-.395-3.074-.883-4.689-1.233z"/><path fill="#604d35" d="m549.602 717.268 1.771.919c-.186.026-5.829 1.157-4.66-.061l.233.273.209-.51c.759-.284 1.659-.459 2.447-.621"/><path fill="#24160b" d="M549.602 717.268q1.433-.39 2.856-.813l1.406 1.545c-.878.034-1.616.104-2.491.187z"/><path fill="#7e6a51" d="M544.358 808.182c-.307-.166-1.985-.849-1.99-1.369.416-.355 2.307.281 2.73.398z"/><defs><linearGradient id="c" x1="667.551" x2="669.461" y1="647.659" y2="658.405" gradientUnits="userSpaceOnUse"><stop offset="0" stop-color="#080604"/><stop offset="1" stop-color="#321d0e"/></linearGradient></defs><path fill="url(#c)" d="M609.491 658.092c15.051-2.586 30.158-5.306 45.303-7.277 8.853-1.152 69.753-7.09 74.527-3.419.126.097.221.229.331.344l-.184.621c-3.258.755-12.064.752-16.015.872q-11.258.337-22.498 1.039c-27.099 1.66-55.176 4.237-81.936 8.982z"/><defs><linearGradient id="d" x1="643.124" x2="643.437" y1="779.099" y2="776.372" gradientUnits="userSpaceOnUse"><stop offset="0" stop-color="#090300"/><stop offset="1" stop-color="#24190f"/></linearGradient></defs><path fill="url(#d)" d="M607.556 773.92c12.043.392 70.242 3.516 78.212 8.528-1.503 1.354-23.383-1.856-27.222-2.25a3418 3418 0 0 0-55.982-5.356c1.955-.89 2.801-.683 4.992-.922"/><defs><linearGradient id="e" x1="632.283" x2="632.764" y1="799.868" y2="796.279" gradientUnits="userSpaceOnUse"><stop offset="0" stop-color="#010000"/><stop offset="1" stop-color="#2b1d13"/></linearGradient></defs><path fill="url(#e)" d="M600.657 794.428c11.592-.007 64.539 3.079 70.536 7.984l-.347.507c-1.997.182-21.512-2.445-25.257-2.86a1485 1485 0 0 0-49.885-4.681c.091-1.241 3.605-.823 4.953-.95"/><path fill="#221e1b" d="M596.113 742.607c14.766-.368 64.12-1.748 77.145 2.947l.011.432c-5.01.873-16.528-.7-22.436-1.088a466 466 0 0 0-27.14-.977c-11.351.583-23.639.008-35-.188-.866-.015-.977-1.248 1.055-1.164 1.956.08 4.261-.118 6.365.038"/><path fill="#3f2a15" d="M623.693 743.921c-11.351.583-23.639.008-35-.188-.866-.015-.977-1.248 1.055-1.164 1.956.08 4.261-.118 6.365.038 2.553 1.476 22.751.798 27.58 1.314"/><path fill="#221e1b" d="M652.147 682.211c6.807-.604 51.252-.778 56.366.872-2.314 1.064-40.457.575-45.509.585-5.774-.048-54.886 1.711-55.412 1.427 3.357-1.978 37.921-2.486 44.555-2.884"/><defs><linearGradient id="f" x1="630.234" x2="630.297" y1="728.366" y2="725.943" gradientUnits="userSpaceOnUse"><stop offset="0" stop-color="#070300"/><stop offset="1" stop-color="#241a12"/></linearGradient></defs><path fill="url(#f)" d="M596.532 727.242c16.228-3.006 55.626-2.624 70.966 2.407-6.554.404-17.588-.761-24.724-1.073a647 647 0 0 0-40.05-.506c-1.406.191-7.296.833-8.336.104l.02-.238c.54-.546 1.398-.664 2.124-.694"/><path fill="#4a3d2e" d="M602.724 728.07c-1.406.191-7.296.833-8.336.104l.02-.238c.54-.546 1.398-.664 2.124-.694 1.916 1.085 3.908.654 6.192.828"/><path fill="#221e1b" d="M646.171 639.354c12.984-2.726 26.455-4.554 39.615-6.545 12.418-1.879 30.739-6.299 43-5.792a502 502 0 0 1-44.66 8.271c-13.105 1.762-24.495 2.549-37.886 4.892z"/><path fill="#221e1b" d="M670.544 668.154c9.498-1.022 50.022-4.633 58.89-1.386-2.982 1.909-48.778 1.617-56.92 2.437-1.229.176-2.64.404-3.848-.051-.251-.095-.77-.503-.442-.792.513-.453 1.792-.234 2.32-.208"/><path fill="#4a3d2e" d="M672.514 669.205c-1.229.176-2.64.404-3.848-.051-.251-.095-.77-.503-.442-.792.513-.453 1.792-.234 2.32-.208-.149.277-.24.321-.205.551.351.25 1.66.382 2.175.5"/><path fill="#221e1b" d="M633.303 756.461c-.971.017-4.949.424-5.36-.682.403-1.462 10.647-.529 12.126-.352 14.359.045 34.642.002 48.517 3.655-7.445.962-18.793-.392-26.648-.977a1095 1095 0 0 0-28.635-1.644"/><path fill="#604d35" d="M633.303 756.461c-.971.017-4.949.424-5.36-.682.403-1.462 10.647-.529 12.126-.352-3.183.274-6.526.178-9.799.323 1.063.092 2.007.405 3.033.711"/><path fill="#24160b" d="M595.704 795.378c-1.634.043-9.229-.398-10.434-1.03l-.113-.224-.023-.002c1.21-1.058 13.459-.006 15.523.306-1.348.127-4.862-.291-4.953.95"/><path fill="#24160b" d="M602.564 774.842c-1.05-.053-7.301-.164-7.671-1.034.572-.868 11.153-.115 12.663.112-2.191.239-3.037.032-4.992.922"/><path fill="#4a3d2e" d="m609.491 658.092-.472 1.162c-2.659.445-5.303.623-7.994.643 3.367-.816 5.04-1.292 8.466-1.805"/><path fill="#604d35" d="M640.926 640.592c1.905-.635 3.274-.971 5.245-1.238l.069.826c-1.638.378-3.502.747-5.173.889z"/><path fill="#a38a6b" d="M641.067 641.069c-.355.124-1.07.512-1.479.222-.029-.469 1.119-.636 1.338-.699z"/><path fill="#fadaaf" d="M580.528 568.628c25.603-11.591 50.921-23.904 76.948-34.162 3.59-1.416 16.028-6.873 19.022-7.553-8.811 5.586-24.298 10.744-34.074 14.844-11.762 4.933-22.323 10.818-33.836 16.147-12.934 5.987-26.127 11.508-38.836 17.99-4.377 2.233-11.149 5.263-14.998 8.123 41.827-14.497 82.596-30.514 122.314-50.173 6.131-3.034 13.154 6.928 14.72 12.033 5.967 19.445 7.591 48.477-16.635 55.733-37.372 10.163-74.556 22.084-111.19 34.742-2.828.974-6.348 1.606-7.599 4.509-1.578.027-1.497-.044-2.943-.745-.627-2.272 4.013-4.637 5.605-6.582a36.31 36.31 0 0 0 7.448-31.404c-1.023-4.365-3.161-9.1-6.143-12.597-1.906-2.235-6.163-3.161-7.691-5.609 1.257-4.623 13.316-7.894 17.538-10.333l-.261-1.115c3.717-1.391 6.401-3.151 9.943-4.606z"/><path fill="#3f2a15" d="M569.917 572.476c3.717-1.391 6.401-3.151 9.943-4.606l.668.758c-3.212 1.529-7.224 3.377-10.35 4.963z"/><path fill="#221e1b" d="m683.421 558.574.801-.038.095.458c-2.796 1.734-12.117 4.948-15.645 5.969-27.189 7.87-52.545 17.701-78.888 27.854l-.487-.216c2.676-1.746 7.001-3.405 9.988-4.766 13.004-5.922 26.574-10.267 40.083-14.853 14.707-4.992 29.151-9.983 44.053-14.408"/><path fill="#221e1b" d="m677.192 587.204.372.024.156.706c-3.333 1.032-7.325 1.697-10.777 2.478-12.483 2.823-24.301 7.369-36.503 11.191a438 438 0 0 1-40.843 10.899l-.867-.138.152-.531c16.07-3.881 31.637-8.816 47.375-13.738 11.904-3.723 28.503-9.439 40.935-10.891"/><path fill="#221e1b" d="M678.727 546.491c4.167.072-1.969 2.481-2.43 2.658-14.036 5.399-28.573 10.664-42.877 15.297-.34.096-.966.466-1.253.098.213-1.372 41.723-16.605 46.56-18.053"/><path fill="#221e1b" d="m678.764 574.804.314.876c-13.987 4.738-28.242 8.605-42.368 12.903-3.163.963-7.466 2.53-10.663 2.702 14.841-5.937 37.029-12.367 52.717-16.481"/><path fill="#4a3d2e" d="M678.764 574.804c3.61-1.923 6.864-1.99.314.876z"/><path fill="#fadaaf" d="M472.558 585.001c-13.306-9.102-38.696-18.977-53.882-26.411-11.026-5.397-23.494-11.202-34.553-16.275-5.05-2.317-33.49-13.645-35.633-15.534 3.848-.348 83.594 35.716 92.759 40.416l1.364-.592c4.554 2.024 8.999 4.514 13.697 6.393l-.3 1.029c4.601 1.977 15.019 5.265 16.809 9.962-.979 2.068-6.904 4.152-8.585 6.348-7.754 10.616-8.167 24.577-2.748 36.29 1.597 3.453 10.341 11.815 10.388 12.727-1.699 1.42-1.805 1.455-3.907 2.242l-.614-.419.426-1.562c-1.411-1.346-13.665-5.47-16.628-6.532a1106 1106 0 0 0-66.53-21.564c-12.965-3.817-26.737-7.25-39.375-11.945-18.31-6.801-16.385-35.32-12.486-50.473 2.046-7.953 7.871-18.116 17.579-14.145 3.256 1.332 6.61 3.223 9.9 4.712l26.635 11.953a781 781 0 0 0 60.775 24.633c7.921 2.89 16.891 6.323 24.909 8.747"/><path fill="#3f2a15" d="M442.613 566.605c4.554 2.024 8.999 4.514 13.697 6.393l-.3 1.029c-3.335-1.415-11.765-5.192-14.761-6.83z"/><path fill="#221e1b" d="M338.142 557.542c11.357 2.106 23.599 7.62 34.727 11.056 21.036 6.496 40.251 13.285 60.31 22.401l-.792.642c-27.802-13.999-65.865-20.972-94.245-34.099"/><path fill="#221e1b" d="M434.637 612.817c-1.944-.795-4.855-1.462-6.974-2.016-20.317-5.314-40.221-12.048-60.325-18.09-6.51-1.957-13.115-2.861-19.396-5.737 8.468-.554 74.467 21.17 86.514 24.72z"/><path fill="#221e1b" d="M391.073 563.799c-14.506-5.997-31.833-8.945-45.74-16.69-.234-.147-.178-.737.14-.666 14.099 3.15 32.03 11.866 45.446 16.198z"/><path fill="#221e1b" d="M397.695 591.137c-3.383-.662-54.31-15.807-55.47-16.873 5.065-.591 48.609 13.61 55.856 16.333z"/><path fill="#7e6a51" d="M433.179 590.999c.431.198 2.043.729 1.954 1.349-.512.345-1.945-.39-2.381-.565l-.365-.142z"/><path fill="#604d35" d="M434.456 611.694c2.473.641 2.391 2 .181 1.123z"/><path fill="#4a3d2e" d="M390.919 562.641c2.135.736 3.927 1.899.154 1.158z"/><path fill="#604d35" d="M398.081 590.597c.196.11.765.317.885.637.019.051-.003.077-.022.122-.413.222-.865-.063-1.249-.219z"/><path fill="#fadaaf" d="M678.464 459.768c14.913 10.977 17.229 42.098 4.31 54.627-13.72 13.307-44.775 21.405-61.308 31.404-14.015 7.038-27.672 15.189-41.606 22.071-3.542 1.455-6.226 3.215-9.943 4.606l-.331-1.476c-.009.015 9.773-7.381 11.426-8.58 12.982-9.417 12.853-46.818-6.993-46.436l-.011-1.412.669-.351c15.569-4.466 36.218-17.423 50.586-25.35 7.824-4.317 16.795-9.305 24.549-13.719 10.87-6.186 15.751-12.109 28.652-15.384"/><path fill="#221e1b" d="m606.14 535.27 40.114-23.749c9.317-5.582 21.685-13.547 31.268-18.062l.408.225.869-.554-.299.362-.332-.105c-2.064 3.686-62.238 36.422-70.848 42.271z"/><path fill="#221e1b" d="m673.957 480.601.155.435c-4.189 3.036-16.543 9.247-21.642 12.135-9.868 5.59-19.846 11.19-29.535 17.204-3.576 2.22-10.122 5.691-13.145 8.148l-.392-.234c1.972-4.221 57.824-34.862 64.559-37.688"/><path fill="#221e1b" d="M677.484 469.157c-4.215 3.19-10.377 5.699-14.981 8.6-10.016 6.313-21.509 12.505-31.338 18.904l-1.17-.607c14.342-8.876 31.776-21.432 47.489-26.897"/><path fill="#221e1b" d="M674.233 510.994c.469-.087.635-.201 1.027-.042.086.123.187.324.113.361-8.658 4.333-35.168 16.214-41.975 19.781-.278.078-.398.172-.616.09-.021-.051-.117-.213-.042-.271 8.495-6.565 33.005-17.283 41.493-19.919"/><path fill="#4a3d2e" d="m629.995 496.054 1.17.607c-1.194.769-1.997 1.035-3.158 1.932l-1.533-.522a62 62 0 0 0 3.521-2.017"/><path fill="#d9b786" d="m606.14 535.27 1.18.388c-.553.549-1.251 1.198-2.096.937-.382-.667.304-.885.916-1.325"/><path fill="#a38a6b" d="M628.007 498.593c-.506.22-1.865 1.063-2.386.743-.114-.581.425-.872.853-1.265z"/><path fill="#fadaaf" d="M442.613 566.605c-6.97-3.372-13.598-7.59-20.459-11.155-19.959-10.282-40.039-20.559-60.51-29.784-10.971-4.721-19.562-8.828-24.319-20.575-5.056-12.241-3.703-26.229 2.648-37.714 2.987-6.308 8.363-9.112 14.925-5.111 31.264 19.061 61.992 37.958 95.63 52.857l-.072.225c-5.638 1.675-8.649 4.45-11.443 9.788a32.28 32.28 0 0 0-2.018 25.235c3.846 11.346 10.273 14.242 18.985 20.685.544.403.333 1.217.33 1.942-4.698-1.879-9.143-4.369-13.697-6.393"/><path fill="#221e1b" d="M352.41 495.558c9.898 5.63 20.423 12.259 30.313 18.086 9.96 5.869 31.543 17.052 39.957 24.483a1306 1306 0 0 1-71.176-41.721z"/><path fill="#221e1b" d="M402.307 510.184a786 786 0 0 0-32.382-18.735c-5.467-3.015-15.301-8.035-19.877-11.359 16.412 6.295 38.287 20.119 53.44 29.436z"/><path fill="#221e1b" d="M349.403 511.063c7.622.905 40.606 15.592 44.245 19.878-2.487-.531-4.505-1.692-6.797-2.744-11.728-5.382-23.408-10.768-35.377-15.6-.731-.295-1.501-1.022-2.071-1.534"/><path fill="#221e1b" d="M347.414 468.893c13.116 3.89 35.677 19.347 48.117 27.096l-1.188.688a824 824 0 0 0-46.929-27.784"/><path fill="#4a3d2e" d="M403.488 509.526c3.259 1.899 6.536 4.024 9.787 5.846l-.799.743c-3.46-2.163-6.794-3.896-10.169-5.931z"/><path fill="#4a3d2e" d="M395.531 495.989c3.011 1.885 4.409 2.799 7.242 4.958-3.724-1.574-4.964-2.077-8.43-4.27z"/><path fill="#7e6a51" d="M413.275 515.372c.602.325 3.199 1.795 3.058 2.472-.712.52-3.277-1.354-3.857-1.729z"/><path fill="#4a3d2e" d="M349.344 495.093c-.269-.168-3.606-2.061-2.86-2.662l.786.165-.153-.097c.779.315 1.31.661 1.974 1.16z"/><path fill="#30281d" d="M349.091 493.659a49 49 0 0 1 3.319 1.899l-.906.848a32 32 0 0 0-2.16-1.313z"/><path fill="#fadaaf" d="M566.535 466.167c27.838-13.936 55.557-30.949 83.277-45.374 10.295-5.357 22.574-18.322 27.806 1.448 1.795 6.782-.513 15.254-4.543 21.061-11.225 12.9-30.466 20.164-44.473 30-14.361 9.666-56.774 38.291-72.395 41.475 3.796-5.664 10.083-9.084 13.646-15.177 4.798-8.207 5.949-21.937-3.023-27.816-2.127-1.393-5.047-1.127-7.525-2.577l-.163-.972c1.737-3.242 11.372-8.445 15.046-10.675l.809.975c-2.994 2.111-6.082 4.237-8.995 6.446z"/><path fill="#604d35" d="m566.002 464.981.533 1.186c-.481.213-2.493 1.289-3.046.999-.02-.533 2.107-1.887 2.513-2.185"/><path fill="#221e1b" d="m664.62 442.014.533.158c-.478.748-17.873 9.024-19.929 9.959-19.761 8.987-37.711 22.138-56.883 31.938l-.405-.111.008-.482c22.221-13.278 52.418-33.173 76.676-41.462"/><path fill="#221e1b" d="M592.821 463.091c11.701-5.544 53.558-35.549 61.949-36.937-2.64 1.821-5.383 3.654-8.142 5.285-17.737 10.487-34.866 23.156-53.308 32.321z"/><path fill="#221e1b" d="M662.927 431.748c-5.026 2.818-41.606 26.349-43.643 26.513.308-.426.544-.725.991-1.029 14.48-9.862 29.281-19.567 44.768-27.776.531-.281 2.665-1.41 3.247-1.215.037.761-3.665 2.559-4.358 2.917l-.361.182c-.21.268-.29.247-.644.408"/><path fill="#a38a6b" d="M593.32 463.76c-.537.168-1.183.524-1.708.147-.051-.596.729-.671 1.209-.816z"/><path fill="#fadaaf" d="M358.843 411.218c5.227 2.227 10.203 5.51 15.145 8.37 26.628 15.405 53.839 29.997 80.978 44.49 2.56 1.367 5.855 3.069 8.614 3.748.179-1.156.367-1.144 1.013-2.254 1.481 1.121 2.162 1.426 2.891 3.142l-.373.869c-1.365.476-6.646 1.532-7.153 1.909-15.162 11.261-4.425 31.711 7.721 40.558.943.688.555 1.451.262 2.162-1.56-.11-5.964-2.387-7.666-3.125-25.76-11.177-48.96-28.826-72.706-43.73-7.255-4.554-28.112-15.795-32.966-21.277a28.6 28.6 0 0 1-7.06-20.857c.614-7.798 3.968-11.889 11.3-14.005"/><path fill="#221e1b" d="M359.121 441.492c9.619.513 70.051 34.708 79.088 43.018-3.062-1.078-10.35-6.013-13.356-7.88-18.406-11.427-37.572-21.211-57.198-30.355-2.924-1.362-5.954-2.84-8.534-4.783"/><path fill="#221e1b" d="M368.267 423.968c2.561.935 9.278 5.083 11.852 6.629a972 972 0 0 1 29.657 18.611c8.1 5.179 16.384 9.855 24.558 14.935-5.211-.673-61.248-35.516-66.067-40.175"/><path fill="#221e1b" d="M355.939 427.351c11.654 4.433 34.107 19.56 45.104 26.632l-1.197.686c-8.964-5.963-19.012-11.58-28.129-17.467-5.479-3.537-10.371-5.599-15.778-9.851"/><path fill="#4a3d2e" d="m401.043 453.983 8.191 5.381c-3.412-1.36-6.287-2.69-9.388-4.695z"/><path fill="#fadaaf" d="M383.622 186.966c5.731 9.883 11.311 19.853 17.989 29.142 7.176 9.981 14.84 19.421 22.987 28.622 1.86 2.101 9.184 9.131 9.106 11.131l-.958.569c-1.056-.304-.749-.066-1.492-.745l-.712-.495c-2.5-.325-2.223-.68-4.183.182-1.53 1.982-1.218 5.382-1.329 8.113l-.107 1.373c1.852 2.029 6.292 7.205 8.44 8.151.978 1.552 1.448 1.701 1.456 3.244-3.421 1.534-5.355-1.179-7.845 4.16-1.012 2.169-1.423 6.429-2.751 7.713l-.854.56c2.608 2.145 5.085 3.264 8.135 5.657-5.512-1.134-6.633-2.208-12.054-2.232.31-.449.575-.831.864-1.296 4.182.569.378-2.432-.761-2.995-3.835-4.172-17.377-15.074-22.27-18.363a51 51 0 0 1-2.26-1.629c-.58-.427-.658-.424-1.077-.985l-3.009-2.23c-1.742-1.288-3.839-2.745-5.479-4.092-4.841-3.278-18.571-14.273-22.967-15.134-9.013-1.765-33.253 4.348-42.523 6.088a504 504 0 0 1-17.245 2.753l.05-1.068c20.808-4.911 37.659-10.626 59.312-10.621-8.266-8.583-4.611-18.637 3.487-25.654.694-.232.932-.334 1.614-.644l-.142-.793c.945-.388 1.818-1.01 2.698-1.561 2.663-.151 4.165.176 6.586 1.39-2.845-7.271-3.099-8.172-3.271-15.869 2.508-5.88 4.677-7.897 9.711-11.533z"/><path fill="#fadaaf" d="M383.622 186.966c5.731 9.883 11.311 19.853 17.989 29.142 7.176 9.981 14.84 19.421 22.987 28.622 1.86 2.101 9.184 9.131 9.106 11.131l-.958.569c-1.056-.304-.749-.066-1.492-.745l-.712-.495c-2.5-.325-2.223-.68-4.183.182-1.53 1.982-1.218 5.382-1.329 8.113l-.107 1.373c-2.446-2.813-5.09-5.561-7.648-8.282-.291-.238-.271-.189-.45-.501-4.334-4.336-9.825-10.809-14.05-15.488-.276-.222-.278-.2-.46-.502-6.938-7.742-18.087-17.993-25.987-24.808-2.845-7.271-3.099-8.172-3.271-15.869 2.508-5.88 4.677-7.897 9.711-11.533z"/><path fill="#221e1b" d="M382.768 187.875c1.001 1.2 1.806 1.911 2.145 3.423-.25.384-.369.705-.557 1.129-5.588 7.963-6.814 10.705-4.537 20.382a3307 3307 0 0 0 24.431 26.902c7.105 7.669 14.593 15.348 20.78 23.774l-.107 1.373c-2.446-2.813-5.09-5.561-7.648-8.282-.291-.238-.271-.189-.45-.501-4.334-4.336-9.825-10.809-14.05-15.488-.276-.222-.278-.2-.46-.502-6.938-7.742-18.087-17.993-25.987-24.808-2.845-7.271-3.099-8.172-3.271-15.869 2.508-5.88 4.677-7.897 9.711-11.533"/><path fill="#221e1b" d="M383.622 186.966c5.731 9.883 11.311 19.853 17.989 29.142 7.176 9.981 14.84 19.421 22.987 28.622 1.86 2.101 9.184 9.131 9.106 11.131l-.958.569c-1.056-.304-.749-.066-1.492-.745l-.712-.495c-2.44-3.468-3.251-4.206-6.155-7.186-13.434-12.817-31.497-35.237-38.534-52.231l.705-1.55a45 45 0 0 0-1.645-2.925c-.339-1.512-1.144-2.223-2.145-3.423z"/><path fill="#d9b786" d="M383.622 186.966c5.731 9.883 11.311 19.853 17.989 29.142 7.176 9.981 14.84 19.421 22.987 28.622 1.86 2.101 9.184 9.131 9.106 11.131l-.958.569c-1.056-.304-.749-.066-1.492-.745l-.712-.495c-2.44-3.468-3.251-4.206-6.155-7.186l1.089-.177a335.5 335.5 0 0 1-38.918-53.604 45 45 0 0 0-1.645-2.925c-.339-1.512-1.144-2.223-2.145-3.423z"/><path fill="#3f2a15" d="M425.476 247.827c2.51 2.504 5.24 4.347 5.778 7.858l-.712-.495c-2.44-3.468-3.251-4.206-6.155-7.186z"/><path fill="#604d35" d="M384.913 191.298a45 45 0 0 1 1.645 2.925l-.705 1.55c-.55-1.723-.608-1.771-1.497-3.346.188-.424.307-.745.557-1.129"/><path fill="#30281d" d="M384.649 207.859c3.626 2.244 12.87 15.09 14.476 19.263-1.284-.787-12.992-16.954-14.476-19.263"/><path fill="#221e1b" d="M404.545 232.895c4.351 2.135 9.598 8.214 12.777 11.976q.323.297.641.6l-.775.649c-.856-.693-1.337-1.271-2.062-2.096l-.402-.56c-.855-.59-1.108-.726-1.697-1.587-2.911-2.889-5.66-5.981-8.482-8.982"/><path fill="#7e6a51" d="M415.126 244.024c1.022.501 1.125.528 2.196.847q.323.297.641.6l-.775.649c-.856-.693-1.337-1.271-2.062-2.096"/><path fill="#604d35" d="M413.027 241.877c1.042.347 1.044.586 1.697 1.587-.855-.59-1.108-.726-1.697-1.587"/><path fill="#30281d" d="M417.963 245.471c.941 1.099 3.782 3.856 4.128 4.85l-.182.311c-.776.077-3.96-3.722-4.721-4.512z"/><path fill="#221e1b" d="M369.742 213.887c2.663-.151 4.165.176 6.586 1.39 7.9 6.815 19.049 17.066 25.987 24.808.182.302.184.28.46.502 4.225 4.679 9.716 11.152 14.05 15.488.179.312.159.263.45.501 2.558 2.721 5.202 5.469 7.648 8.282 1.852 2.029 6.292 7.205 8.44 8.151l-1.88 1.08-.915.574-35.737-33.783c-3.19-2.997-17.495-18.498-23.037-19.003-3.803-.347-5.766 10.312-4.364 12.654 3.039 13.82 20.463 22.23 30.202 31.484 5.867 5.576 12.365 10.058 18.371 15.417 2.637 2.159 5.499 4.737 8.22 6.694l-.854.56c2.608 2.145 5.085 3.264 8.135 5.657-5.512-1.134-6.633-2.208-12.054-2.232.31-.449.575-.831.864-1.296 4.182.569.378-2.432-.761-2.995-3.835-4.172-17.377-15.074-22.27-18.363a51 51 0 0 1-2.26-1.629c-.58-.427-.658-.424-1.077-.985l-3.009-2.23c-1.742-1.288-3.839-2.745-5.479-4.092-4.841-3.278-18.571-14.273-22.967-15.134-9.013-1.765-33.253 4.348-42.523 6.088a504 504 0 0 1-17.245 2.753l.05-1.068c20.808-4.911 37.659-10.626 59.312-10.621-8.266-8.583-4.611-18.637 3.487-25.654.694-.232.932-.334 1.614-.644l-.142-.793c.945-.388 1.818-1.01 2.698-1.561"/><path fill="#fadaaf" d="M367.186 216.241c3.148-.482 2.795-1.475 6.133-.552-8.681 2.115-15.501 10.233-12.873 19.308 2.643 9.129 18.121 19.117 26.025 24.968l-1.013.556c-4.841-3.278-18.571-14.273-22.967-15.134-9.013-1.765-33.253 4.348-42.523 6.088a504 504 0 0 1-17.245 2.753l.05-1.068c20.808-4.911 37.659-10.626 59.312-10.621-8.266-8.583-4.611-18.637 3.487-25.654.694-.232.932-.334 1.614-.644"/><path fill="#d9b786" d="M369.742 213.887c2.663-.151 4.165.176 6.586 1.39 7.9 6.815 19.049 17.066 25.987 24.808.182.302.184.28.46.502 4.225 4.679 9.716 11.152 14.05 15.488.179.312.159.263.45.501 2.558 2.721 5.202 5.469 7.648 8.282 1.852 2.029 6.292 7.205 8.44 8.151l-1.88 1.08c-9.845-10.999-20.012-22.973-30.187-33.5-.296-.23-.274-.2-.467-.517-6.347-6.499-19.912-20.712-27.51-24.383-3.338-.923-2.985.07-6.133.552l-.142-.793c.945-.388 1.818-1.01 2.698-1.561"/><path fill="#d9b786" d="M396.809 268.225c1.73.626 11.12 8.23 13.054 9.85a255 255 0 0 0 7.755 6.137c2.136 1.635 3.355 2.832 5.751 4.474 2.608 2.145 5.085 3.264 8.135 5.657-5.512-1.134-6.633-2.208-12.054-2.232.31-.449.575-.831.864-1.296 4.182.569.378-2.432-.761-2.995-3.835-4.172-17.377-15.074-22.27-18.363a51 51 0 0 1-2.26-1.629z"/><path fill="#7e6a51" d="m395.023 267.828 1.786.397.474 1.232a51 51 0 0 1-2.26-1.629"/><path fill="#d9b786" d="M386.471 259.965c2.701 1.942 8.369 5.971 10.338 8.26l-1.786-.397c-.58-.427-.658-.424-1.077-.985l-3.009-2.23c-1.742-1.288-3.839-2.745-5.479-4.092z"/><path fill="#221e1b" d="M382.551 237.124c3.16 3.265 32.207 30.276 32.311 30.562-.896 1.339-4.879-3.189-5.675-3.981-4.727-4.704-10.211-8.653-14.758-13.501-.318-.171-.259-.152-.546-.45-4.23-3.612-7.517-7.368-11.364-11.255z"/><path fill="#221e1b" d="M416.532 275.843c-6.102-4.885-24.923-19.456-28.886-25.267 9.161 7.077 17.601 14.988 26.678 22.131 1.03.81 4.344 3.205 4.64 4.331.011.044.018.137-.014.186-.089.137-.481.15-.526.159-.717-.47-1.43-.803-1.892-1.54"/><path fill="#a38a6b" d="M382.519 238.499c-3.559-3.429-2.346-4.838.032-1.375z"/><path fill="#fadaaf" d="M600.08 254.768c-1.818.21-2.991.966-5.458 1.26l-.518-.52c.277-.976.747-2.058 1.475-2.789 19.071-19.171 33.377-42.168 47.673-64.951l.877.529c3.291 1.3 4.571 2.488 7.082 4.984 5.739 7.599 4.16 10.278 2.205 18.341 1.501.985 1.202.361 1.498 1.667l3.069.24-.957 2.009.537-.148c1.428.984 2.452 1.565 4.066 2.276 8.614 8.499 11.024 17.052.965 25.588l-.557.662-1.532-.765c-2.079 1.739-3.993 3.389-4.926 6.034l-.687.067c-5.535 2.472-16.191 11.425-21.458 15.473l-1.814-1.456c-8.724 7.236-20.981 16.903-28.951 24.728-1.005-3.927-2.54-10.853-7.534-11.071-1.901-.278-1.247.175-2.415-.902.496-3.18 5.218-7.469 7.605-9.982q.238-1.022.491-2.039c1.098-3.244 2.53-6.861-.736-9.235"/><path fill="#fadaaf" d="M600.08 254.768c-1.818.21-2.991.966-5.458 1.26l-.518-.52c.277-.976.747-2.058 1.475-2.789 19.071-19.171 33.377-42.168 47.673-64.951l.877.529c3.291 1.3 4.571 2.488 7.082 4.984 5.739 7.599 4.16 10.278 2.205 18.341 1.501.985 1.202.361 1.498 1.667-1.224.333-3.453.933-4.423 1.736-16.753 13.867-30.269 31.566-45.765 46.621l-.806-.493c-1.308 1.403-1.594 1.712-3.104 2.85 1.098-3.244 2.53-6.861-.736-9.235"/><path fill="#221e1b" d="M644.129 188.297c3.291 1.3 4.571 2.488 7.082 4.984 5.739 7.599 4.16 10.278 2.205 18.341 1.501.985 1.202.361 1.498 1.667-1.224.333-3.453.933-4.423 1.736-16.753 13.867-30.269 31.566-45.765 46.621l-.806-.493c12.467-16.082 26.665-29.707 39.889-45.078 6.189-7.193 6.296-17.376-1.888-23.164l-.404-.218c.6-1.711 1.577-2.903 2.612-4.396"/><path fill="#3f2a15" d="M600.08 254.768c-1.818.21-2.991.966-5.458 1.26l-.518-.52c.277-.976.747-2.058 1.475-2.789 19.071-19.171 33.377-42.168 47.673-64.951l.877.529c-1.035 1.493-2.012 2.685-2.612 4.396l.404.218c-5.737 18.87-29.637 46.823-44.035 60.46 1.161.931.882.897 2.194 1.397"/><path fill="#d9b786" d="M600.08 254.768c-1.818.21-2.991.966-5.458 1.26l-.518-.52c.277-.976.747-2.058 1.475-2.789 19.071-19.171 33.377-42.168 47.673-64.951l.877.529c-1.035 1.493-2.012 2.685-2.612 4.396-11.828 18.488-21.833 35.385-36.824 51.822-1.332 1.461-7.298 8.04-7.815 9.226l1.008-.37c1.161.931.882.897 2.194 1.397"/><path fill="#24160b" d="M641.178 206.981c.349 2.481-11.41 17.66-13.986 19.996.002-1.178 12.324-18.127 13.986-19.996"/><path fill="#4a3d2e" d="m620.505 233.624-.001 1.494c-5.705 5.456-9.114 9.788-15.803 15.802 3.566-5.418 11.149-12.311 15.804-17.296"/><path fill="#a38a6b" d="M620.505 233.624c1.711-1.534 2.48-1.08 1.07.406q-.53.55-1.071 1.088z"/><path fill="#f2cc96" d="m605.76 253.508.272.021.042.249-.362-.052-.026-.063z"/><path fill="#221e1b" d="m654.914 213.289 3.069.24-.957 2.009.537-.148c1.428.984 2.452 1.565 4.066 2.276 8.614 8.499 11.024 17.052.965 25.588l-.557.662-1.532-.765c-2.079 1.739-3.993 3.389-4.926 6.034l-.687.067c-5.535 2.472-16.191 11.425-21.458 15.473l-1.814-1.456c8.267-6.807 26.536-19.321 27.398-30.471.222-2.87-.537-8.105-2.847-10.131-.858-.752-1.613-.817-2.677-.551-6.989 1.742-47.214 44.546-58.147 52.795l-.212 2.015c-1.901-.278-1.247.175-2.415-.902.496-3.18 5.218-7.469 7.605-9.982q.238-1.022.491-2.039c1.51-1.138 1.796-1.447 3.104-2.85l.806.493c15.496-15.055 29.012-32.754 45.765-46.621.97-.803 3.199-1.403 4.423-1.736"/><path fill="#d9b786" d="m654.914 213.289 3.069.24-.957 2.009.537-.148c1.428.984 2.452 1.565 4.066 2.276 8.614 8.499 11.024 17.052.965 25.588l-.557.662-1.532-.765c3.455-3.171 6.13-5.631 6.081-10.621-.102-10.438-6.058-14.976-14.968-16.941-6.746 5.921-54.088 53.296-56.271 59.322l-.212 2.015c-1.901-.278-1.247.175-2.415-.902.496-3.18 5.218-7.469 7.605-9.982q.238-1.022.491-2.039c1.51-1.138 1.796-1.447 3.104-2.85l.806.493c15.496-15.055 29.012-32.754 45.765-46.621.97-.803 3.199-1.403 4.423-1.736"/><path fill="#3f2a15" d="m603.92 261.153.806.493c-1.551 1.765-2.589 2.917-4.401 4.396q.238-1.022.491-2.039c1.51-1.138 1.796-1.447 3.104-2.85"/><path fill="#221e1b" d="M645.999 236.039c.266.228.201.135.271.284-.475 1.932-30.668 28.655-34.206 31.142-.043-.032-.445-.259-.275-.415 5.753-5.248 30.008-28.125 34.21-31.011"/><path fill="#30281d" d="M637.439 251.382c.007.003 1.017.344.737.573-9.927 8.14-19.832 17.415-30.295 24.951l-.562-.18-.011-.178c.117-.227 27.798-23.497 30.131-25.166"/><path fill="#fadaaf" d="M580.986 404.519c4.988-1.475 9.532-4.357 14.178-6.548 17.387-8.2 33.357-18.276 48.639-29.919 3.564-2.716 8.2-5.086 11.606-7.965 3.373 2.637 6.324 4.654 8.291 8.607 4.302 8.648 3.248 21.018-1.387 29.353l-.33.602c-15.76 3.561-77.422 53.674-86.275 53.946l.094.096-.015-.786c4.315-6.301 10.146-7.421 13.483-17.136 3.753-10.925 5.133-24.48-8.78-27.997l-1.615-.41a71 71 0 0 0 2.111-1.843"/><path fill="#221e1b" d="M613.101 417.025c3.062-1.82 5.696-4.127 8.389-5.802 10.137-6.308 24.098-15.381 35.052-19.396-7.758 5.036-16.448 9.635-24.412 14.457-6.062 3.671-12.02 7.757-18.099 11.286z"/><path fill="#221e1b" d="m658.134 379.607.844.733c-4.745 2.441-39.019 25.171-39.841 25.001l-.065-.132c.822-2.427 34.897-23.354 39.062-25.602"/><path fill="#221e1b" d="M612.763 401.027c4.457-2.666 9.13-6.744 13.507-9.937 8.297-6.051 17.252-11.808 25.524-17.76l.363.924c-10.744 7.141-21.749 15.8-32.456 23.175-2.088 1.437-3.88 2.917-6.17 4.134z"/><path fill="#604d35" d="m613.101 417.025.93.545c-1.165.82-8.212 5.544-9.391 4.955l-.042-.148c.322-.67 5.656-3.486 6.901-4.303z"/><path fill="#7e6a51" d="M651.794 373.33c4.318-3.386 4.993-2.082.363.924z"/><path fill="#7e6a51" d="M613.531 401.563c-.638.426-2.874 1.844-3.413 1.814-1.901-.105 2.668-2.361 2.645-2.35z"/><path fill="#7e6a51" d="M658.134 379.607c3.266-2.118 4.951-1.802.844.733z"/><path fill="#fadaaf" d="M370.347 360.898c1.993.132 12.007 8.103 14.325 9.756 18.848 13.439 40.908 26.698 62.521 34.943-17.022 4.81-14.987 23.363-7.251 35.405 3.239 5.042 6.189 7.519 10.97 11.056-.306.6-.476.739-.899 1.268-2.42-.898-11.948-7.445-14.797-9.284-15.414-9.95-30.784-19.734-45.726-30.391-6.266-4.469-14.79-8.417-21.165-12.953-1.54-1.095-5.416-3.778-6.218-5.289-3.104-5.849-3.495-16.318-1.602-22.637 1.92-6.41 4.549-8.845 9.842-11.874"/><path fill="#221e1b" d="M414.402 419.15c-3.023-2.122-6.999-4.121-10.253-6.068l-23.432-13.838c-1.194-.698-9.574-5.231-9.596-5.928 1.999-1.495 39.75 22.545 44.128 25.068z"/><path fill="#221e1b" d="M407.449 398.6c-10.493-8.034-25.049-17.633-35.616-26.003-.273-.216.726-.381.724-.211 9.405 5.821 18.421 12.594 27.438 19.03 3.031 2.164 5.758 4.713 8.79 6.857z"/><path fill="#221e1b" d="M371.386 381.585c4.024 2.217 34.257 21.512 35.006 23.617-.058.048-.099.095-.152.067-9.539-5.091-27.16-18.042-35.739-22.876z"/><path fill="#7e6a51" d="M408.785 398.273c.911.644 7.168 4.962 6.933 5.545l-.198.107-.027-.097c-.956-.122-6.93-4.268-8.044-5.228z"/><path fill="#7e6a51" d="M415.249 418.384c1.024.531 5.589 3.528 6.085 4.349l.036.016-.124.19c-.688.093-6.004-3.188-6.844-3.789z"/><path fill="#4a3d2e" d="M370.501 382.393c-.69-.457-4.667-2.806-4.574-3.647.804-.571 4.597 2.28 5.459 2.839z"/><path fill="#fadaaf" d="M327.895 721.196c-29.142 34.528-22.553 67.223 3.064 101.095 2.383 3.151 12.092 11.404 12.53 14.105-3.63 2.987-53.86-6.561-62.559-8.093-22.316-3.93-45.378-6.386-67.762-10.222-23.27-3.987-47.034-8.377-70.362-12.414-5.404-.935-14.145-2.246-19.114-4.003-.844-1.102-.715-1.215-.904-2.634-28.683-21.467-30.051-48.349-11.252-79.371 3.176-5.242 18.082-12.765 24.213-14.863-2.192 2.225-9.191 8.107-10.147 9.49-8.853 12.816-17.697 27.59-17.533 43.487.192 18.74 11.091 26.582 23.186 38.762 28.387 4.4 56.972 10.265 85.326 15.156 10.475 1.807 21.142 2.895 31.631 4.651a2634 2634 0 0 1 85.552 16.406l1.523-1.575c-2.081-1.641-3.784-3.128-5.628-5.034-31.297-32.364-36.317-73.362-2.773-105.747z"/><path fill="#604d35" d="M335.287 831.173c2.472 1.446 4.265 2.413 6.846 3.729-2.863-.795-5.443-1.59-8.369-2.154z"/><path fill="#fadaaf" d="M888.12 705.136q2.015.813 4.01 1.675c15.92 6.946 20.969 10.311 27.293 27.136 7.977 19.928 7.236 41.119-8.596 56.937-4.717 4.712-7.039 4.544-10.466 10.52-5.31 1.759-14.6 3.457-20.181 4.527a1208 1208 0 0 1-38.772 6.678c-10.431 1.696-20.736 3.934-31.133 5.622-18.761 3.045-37.599 5.794-56.39 8.667a1893 1893 0 0 0-39.62 6.538c-5.67.948-30.459 5.712-33.663 2.93l-.036-1.27c1.629-2.628 4.537-3.709 6.794-5.986 14.542-14.67 27.551-38.009 28.733-58.692.938-16.431-8.542-36.65-18.988-48.303l1.528-.718c12.137 11.202 21.328 29.358 21.951 46.005.878 23.456-13.38 49.239-31.444 63.65l1.544 1.659 201.753-36.055c10.241-12.13 21.558-16.992 22.697-36.323.872-16.373-7.032-32.911-16.836-45.578-2.526-3.264-7.081-6.018-10.178-9.619"/><path fill="#3f2a15" d="m689.14 831.052 1.544 1.659-.615.116c-.692.124-3.578.889-4.125.5l-.004-.076c.458-.578 2.514-1.749 3.2-2.199"/><path fill="#221e1b" d="m643.252 187.768 1.242-.646c6.915 1.114 20.996 5.602 26.747 7.412a1261 1261 0 0 1 60.897 21.392c7.607 2.901 26.907 8.901 30.572 15.56a12.52 12.52 0 0 1 .852 9.907c-.47 1.447-1.807 3.765-2.641 5.123 5.596 5.744 4.591 8.875-.571 14.592 3.164 1.094 6.89 2.117 9.633 3.985 13.128 8.938 7.349 22.246-3.42 29.342 3.748-6.188 8.258-12.447 6.562-20.146-2.138-9.704-18.281-12.926-26.465-15.034l1.163-1.021q5.8 1.299 11.581 2.679c.732-1.701 1.524-3.419 2.135-5.167.551-1.578.828-3.562-.161-5.038-5.655-8.439-80.598-29.617-95.823-33.815l-.994-.014c-1.404-.045-1.768.039-2.932.787-1.614-.711-2.638-1.292-4.066-2.276l-.537.148.957-2.009-3.069-.24c-.296-1.306.003-.682-1.498-1.667 1.955-8.063 3.534-10.742-2.205-18.341-2.511-2.496-3.791-3.684-7.082-4.984z"/><path fill="#fadaaf" d="m643.252 187.768 1.242-.646c6.915 1.114 20.996 5.602 26.747 7.412a1261 1261 0 0 1 60.897 21.392c7.607 2.901 26.907 8.901 30.572 15.56a12.52 12.52 0 0 1 .852 9.907c-.47 1.447-1.807 3.765-2.641 5.123 5.596 5.744 4.591 8.875-.571 14.592 3.164 1.094 6.89 2.117 9.633 3.985 13.128 8.938 7.349 22.246-3.42 29.342 3.748-6.188 8.258-12.447 6.562-20.146-2.138-9.704-18.281-12.926-26.465-15.034l1.163-1.021q5.8 1.299 11.581 2.679c.732-1.701 1.524-3.419 2.135-5.167.551-1.578.828-3.562-.161-5.038-5.655-8.439-80.598-29.617-95.823-33.815l-.994-.014c-1.404-.045-1.768.039-2.932.787-1.614-.711-2.638-1.292-4.066-2.276l-.537.148.957-2.009c17.677 1.933 83.774 24.204 100.728 32.321.988-1.828 1.922-3.851 2.836-5.731-2.099-13.263-12.04-14.471-23.134-18.814a785 785 0 0 0-36.096-13.178c-12.925-4.503-37.742-13.715-50.373-16.044l-.733 1.198c-2.511-2.496-3.791-3.684-7.082-4.984z"/><path fill="#3f2a15" d="M657.563 215.39c2.582.444 5.441.949 7.992 1.503l-.994-.014c-1.404-.045-1.768.039-2.932.787-1.614-.711-2.638-1.292-4.066-2.276"/><path fill="#f2cc96" d="m651.211 193.281.733-1.198c4.632 5.96 7.914 13.008 1.472 19.539 1.955-8.063 3.534-10.742-2.205-18.341"/><path fill="#3f2a15" d="M666.151 203.7c-2.049-.007-2.952-5.24-2.849-5.354.64.007 1.55 1.608 1.864 2.046l1.764-1.481.63.772c1.805 2.118 1.68 7.249.248 4.759-.798-.522-.697-.471-1.657-.742"/><path fill="#d9b786" d="m666.93 198.911.63.772c1.805 2.118 1.68 7.249.248 4.759-.289-1.877-.631-3.638-.878-5.531"/><path fill="#d9b786" d="M666.151 203.7c-2.049-.007-2.952-5.24-2.849-5.354.64.007 1.55 1.608 1.864 2.046a87 87 0 0 1 .985 3.308"/><path fill="#d9b786" d="M752.025 229.808c2.431 1.372 2.868 3.941 3.384 6.559-2.242-.72-2.725-4.383-3.384-6.559"/><path fill="#f2cc96" d="M746.83 228.748c3.069.843 3.023 2.959 3.777 6.013-2.121-1.009-2.426-3.641-3.777-6.013"/><path fill="#221e1b" d="M264.78 245.806c-1.147-2.343-2.043-4.511-2.34-7.125-.392-3.448.297-6.85 2.625-9.519 7.057-8.088 103.975-40.723 118.557-42.196l-.854.909c-5.034 3.636-7.203 5.653-9.711 11.533.172 7.697.426 8.598 3.271 15.869-2.421-1.214-3.923-1.541-6.586-1.39-.88.551-1.753 1.173-2.698 1.561l.142.793c-.682.31-.92.412-1.614.644a66 66 0 0 0-3.283-.661c-12.849 3.642-93.45 26.834-97.243 33.853-1.629 3.015-.083 6.986.912 9.974a62 62 0 0 1-.881 1.667c-5.261-5.686-4.636-10.192-.297-15.912"/><path fill="#fadaaf" d="M264.78 245.806c-1.147-2.343-2.043-4.511-2.34-7.125-.392-3.448.297-6.85 2.625-9.519 7.057-8.088 103.975-40.723 118.557-42.196l-.854.909c-5.034 3.636-7.203 5.653-9.711 11.533-1.473 4.717-.955 6.139-.061 10.901-5.207-6.969-1.963-12.612 2.686-18.871-8.416 2.045-18.796 5.613-27.136 8.331a1463 1463 0 0 0-53.205 18.563c-7.681 2.858-16.213 5.637-23.541 9.22-6.635 3.245-7.614 11.868-4.344 17.913 6.106-2.785 12.735-5.225 19.172-7.511 24.491-8.701 49.345-17.481 74.64-23.521 2.559-.611 5.858-.586 8.474-.546-.88.551-1.753 1.173-2.698 1.561l.142.793c-.682.31-.92.412-1.614.644a66 66 0 0 0-3.283-.661c-12.849 3.642-93.45 26.834-97.243 33.853-1.629 3.015-.083 6.986.912 9.974a62 62 0 0 1-.881 1.667c-5.261-5.686-4.636-10.192-.297-15.912"/><path fill="#3f2a15" d="m367.044 215.448.142.793c-.682.31-.92.412-1.614.644a66 66 0 0 0-3.283-.661c1.686-.259 3.066-.447 4.755-.776"/><path fill="#3f2a15" d="M361.458 199.334c3.558-3.723.744 2.57-.385 4.163-1.116-.003-1.613.392-2.612.888-.654 2.503-2.175-3.56 1.195-5.357.609.12 1.189.209 1.802.306"/><path fill="#f2cc96" d="M358.461 204.385c-.654 2.503-2.175-3.56 1.195-5.357-.318 2.079-.648 3.299-1.195 5.357"/><path fill="#f9dfae" d="M361.458 199.334c3.558-3.723.744 2.57-.385 4.163-.101-1.797.048-2.333.385-4.163"/><path fill="#f2cc96" d="M272.548 230.756c.542.109 1.185.061 1.505.568.001.177-1.996 3.341-2.297 3.926-3.385.585-.075-3.661.792-4.494"/><path fill="#d9b786" d="M278.325 229.004c1.287.76-2.057 4.817-2.648 5.586-1.351-2.082 1.298-4.242 2.648-5.586"/><path fill="#fadaaf" d="M672.667 281.842c9.5 6.324 10.101 18.466 4.729 27.917-3.788 6.666-15.596 5.601-21.722 7.493-20.038 7.653-37.88 20.743-55.889 32.155-1.731 1.101-2.779 2.177-4.274 1.279 1.311-5.486 19.38-15.24 9.881-31.437l-.242-.354c-1.05-.008-1.213.027-2.174-.179q1.046-.699 2.108-1.37a77 77 0 0 1 2.093-.007c2.575-1.021 4.812-2.371 7.224-3.702 16.864-9.304 34.306-17.23 50.603-27.596 2.317-1.474 5.195-3.058 7.663-4.199"/><path fill="#3f2a15" d="M605.084 317.346a77 77 0 0 1 2.093-.007c-1.055.662-1.08.703-2.027 1.556-1.05-.008-1.213.027-2.174-.179q1.046-.699 2.108-1.37"/><path fill="#221e1b" d="M670.198 290.456c.432.12.291.06.489.168.356 2.748-43.715 26-48.897 28.596-.237.024-.319.071-.494-.005l.045-.201c1.701-1.837 21.261-12.394 24.961-14.489 7.691-4.355 16.201-9.532 23.896-14.069"/><path fill="#221e1b" d="M666.705 303.967c1.638-.056 1.27.525.054 1.051-14.515 6.277-28.721 13.484-42.744 20.772-.966.502-1.749.854-2.75 1.232-.114.055-.325.201-.484.177l-.051-.247c6.875-5.476 40.918-21.252 45.975-22.985"/><path fill="#fadaaf" d="M349.788 311.77c-3.423-5.88-4.653-13.936-3.513-20.664.515-3.04 4.479-10.018 8.377-8.313 5.253 2.298 10.315 5.901 15.35 8.749 16.376 9.261 33.038 18.522 49.868 26.862l.426.125.334.993c-8.96 14.79 9.145 26.494 10.023 31.31-4.606-.104-19.158-11.086-24.203-14.172-11.687-7.15-24.035-15.085-37.22-19.139-6.963-2.141-12.824-2.073-19.442-5.751"/><path fill="#30281d" d="M356.748 302.943c6.758 1.272 43.72 19.665 50.11 24.098-4.688-1.092-17.819-8.973-23.256-11.298-7.108-3.04-21.221-8.443-26.854-12.8"/><path fill="#221e1b" d="M393.357 313.655c-8.534-5.523-34.796-17.809-39.808-24.291l40.526 23.41.414.242z"/><path fill="#604d35" d="M394.489 313.016c3.801 2.139 7.594 4.337 10.95 7.092-3.997-1.801-8.451-4.009-12.082-6.453z"/><path fill="#fadaaf" d="M439.471 395.392c-15.036-9.72-29.724-21.694-45.087-31.205-5.516-3.415-11.945-9.008-17.487-11.954-6.51-3.46-14.224-2.258-15.34-12.345-.714-3.977 2.731-11.394 6.811-12.419 2.586-.65 12.484 5.818 15.091 7.272q10.648 5.879 21.364 11.634c11.789 6.326 24.992 12.371 36.448 18.817l.955-.575c1.451.732 1.534.902 2.701 2.074l1.555-.234c.573 1.074.399.546.6 1.556-3.538.836-4.692.926-6.762 4.228-4.233 6.754-2.275 15.9-.849 23.151"/><path fill="#7e6a51" d="M442.226 364.617c1.451.732 1.534.902 2.701 2.074-1.75-.502-2.064-.585-3.656-1.499z"/><path fill="#221e1b" d="M371.709 342.677c17.329 6.998 37.955 18.733 52.986 29.831l-.389.618c-20.047-13.147-31.424-19.39-53.255-29.589z"/><path fill="#221e1b" d="M373.417 336.69c11.346 4.588 22.401 10.718 33.243 16.407 2.053 1.077 4.081 2.314 6.208 3.216l-.328 1.407c-8.529-6.42-29.392-13.75-39.123-21.03"/><path fill="#4a3d2e" d="m412.868 356.313.327.372c1.962 1.067 3.875 2.223 5.821 3.31-.032-.019 2.405 1.107 2.078 1.72l-.133.069-.019-.116.03.099c-1.544-.228-6.078-2.935-7.653-3.8l-.779-.247z"/><path fill="#a38a6b" d="M424.695 372.508c.617.428 2.278 1.429 2.474 2.167-.385.747-2.527-1.255-2.863-1.549z"/><path fill="#4a3d2e" d="M371.051 343.537c-1.625-1.094-.804-1.368.658-.86z"/><path fill="#fadaaf" d="M585.181 365.173c12.961-7.089 26.03-13.449 39.169-20.163 10.022-5.122 19.648-11.206 29.694-16.294 10.557-5.686 14.724 18.273 4.341 20.427-1.982.412-9.49 3.402-10.988 4.507-12.765 9.416-26.338 17.487-39.426 26.396-7.394 5.033-14.332 10.974-21.866 15.802 2.069-7.612 4.148-16.281.051-23.648-2.66-4.784-4.173-2.86-7.098-4.129 1.477-.246 1.399-.365 2.539-1.399.877-.836 1.467-1.403 2.418-2.164z"/><path fill="#3f2a15" d="M581.597 366.672c.877-.836 1.467-1.403 2.418-2.164l1.166.665c-1.524.784-1.941.907-3.584 1.499"/><path fill="#221e1b" d="M657.824 341.972c-5.148 3.547-11.244 5.332-16.084 7.843-8.442 4.38-32.958 17.548-39.169 23.254l-.978-.538c16.334-11.805 37.09-24.221 56.231-30.559"/><path fill="#221e1b" d="M609.998 360.16c-1.17.596-3.773 2.386-4.563 2.289-.026-.053-.191-.164-.114-.235 5.534-5.098 40.364-21.776 43.822-23.586l-1.079 1.998c-11.733 5.315-22.654 11.504-34.069 17.206-.208.289-.255.248-.613.383-.986.503-1.817.974-2.769 1.533-.289.325-.231.315-.615.412"/><path fill="#4a3d2e" d="M649.143 338.628c.907-.556 2.173-1.51 3.144-1.418l.037-.056c.765.877-3.641 3.093-4.26 3.472z"/><path fill="#7e6a51" d="m601.593 372.531.978.538c-.503.418-2.51 2.115-3.2 1.978-.286-.759 1.782-2.159 2.222-2.516"/><path fill="#fadaaf" d="M327.726 600.313q.5.95.988 1.909c1.433.59 2.082.511 2.533 1.544-14.184.152-27.071 1.943-41.184 3.353-.263.843-.204.732-.78 1.477-.616.076-.755.069-1.447.089-1.699-.697-3.177-.603-5.048-.757-29.536 2.171-60.522 8.274-90.031 11.771-14.213 1.684-30.478 4.789-44.74 4.852-12.22 11.082-25.237 23.638-26.075 41.18-.405 8.493 1.675 17.455 7.696 23.669 4.314 4.453 10.557 9.836 15.742 13.246-8.884-10.949-13.824-21.639-12.004-35.936 2.158-16.949 7.088-28.878 26.093-30.698-1.642.656-5.354 2.021-6.707 2.911-14.318 9.424-20.612 32.864-14.369 48.593 2.333 5.879 6.934 10.837 9.42 16.65-5.772-2.126-11.308-3.432-16.807-6.339-22.78-12.046-19.07-43.22-4.771-60.428 7.284-8.764 15.049-14.102 25.93-17.555l.066-.852c1.321-.724 1.474-.731 2.261-1.999.344.545.357.556.621 1.12 2.534-1.397 12.681-1.869 16.133-2.191 44.903-4.199 89.589-10.144 134.591-13.434 6.791-.496 13.3-.487 20.099-.41l.292-1.024z"/><path fill="#3f2a15" d="M282.788 607.928c2.545-.487 4.67-.491 7.275-.809-.263.843-.204.732-.78 1.477-.616.076-.755.069-1.447.089-1.699-.697-3.177-.603-5.048-.757"/><path fill="#7e6a51" d="M154.492 616.993c.344.545.357.556.621 1.12-1.182.977-1.509 1.05-2.948 1.731l.066-.852c1.321-.724 1.474-.731 2.261-1.999"/><path fill="#24160b" d="M327.726 600.313q.5.95.988 1.909c-.942-.056-1.834-.111-2.778-.144l.292-1.024z"/><path fill="#fadaaf" d="M232.625 391.569c2.954-.33 16.824-6.145 21.17-7.527 23.789-7.564 47.264-15.088 71.505-21.201 11.417-2.879 34.542-9.755 45.938-9.363l.309.362.529.593c2.004 2.266 2.284 2.472 4.883 4.139l-.498 1.124c-7.701-4.721-9.497-5.699-17.933-2.168-.849-.497-.854-.741-1.746-.227-31.557 8.889-61.48 18.303-92.785 27.721l-32.429 9.83c-8.856 2.778-18.512 4.777-25.204 11.556-11.712 11.864-9.689 23.152 3.324 32.355a731 731 0 0 1 60.128-17.822c11.077-2.668 22.191-5.023 33.385-7.178 17.538-3.376 34.85-8.851 52.569-11.098 2.983-.378 9.691.544 11.293 3.49l.053.951c-1.916.678-6.102-2.065-9.683-2.754-15.735 3.635-25.167 20.343-21.094 35.785.73 2.768 4.583 7.764 6.314 10.111-.8.4-1.081.401-1.972-.045-9.644-4.826-10.415-19.449-6.877-28.239 3.039-7.549 7.216-10.869 13.114-15.015-5.872 1.248-11.494 2.905-17.295 4.367-24.704 6.227-49.677 11.005-74.4 17.206-15.129 3.795-30.774 9.743-46.049 12.313-6.152-2.904-11.786-5.647-14.355-12.504-5.937-15.843 8.166-27.677 21.826-31.719a505 505 0 0 0 15.98-5.043"/><path fill="#fadaaf" d="m665.154 350.531.968.583c-1.504.944-3.111 1.699-4.675 2.64 2.312.728 4.567 1.148 6.962 1.506 8.82 1.317 17.273 3.205 25.872 5.536a1088 1088 0 0 1 98.499 31.158l.787-1.083c.832.382 1.537.67 2.387 1.009l-.004.911c1.408.762 5.388 1.828 7.033 2.316 9.453 2.779 16.917 4.625 23.429 12.619 7.093 8.708 7.39 22.257-2.939 28.637-2.792 1.724-5.271 2.72-7.969 4.782-5.523-1.742-11.288-2.864-16.781-4.594-39.496-12.438-80.453-18.917-120.319-29.624 14.358 10.322 21.713 27.258 7.833 43.028-.754.858-.945.801-1.94.743l-.373-1.19c1.717-3.703 5.394-9.469 5.765-13.425.771-8.218-1.725-15.705-6.82-22.175-3.053-3.877-9.463-9.405-14.58-9.319-2.454.041-5.931 1.797-9.314 1.396l-.143-.73c4.462-5.267 18.345-1.531 24.255-.251 44.997 9.752 88.397 18.654 132.124 33.72 9.903-6.677 14.869-15.632 8.203-27.011-6.602-11.272-20.856-13.579-32.224-17.51-11.887-4.224-24.067-7.279-36.114-10.913-28.19-8.502-56.87-18.893-85.562-25.506-.671-.356-1.267-.472-2.022-.506l-.948-.072c-6.006-2.318-8.095-2.923-13.97-.648l.254-1.233c.923-1.256 2.074-1.752 3.434-2.549 4.436-.828 4.641.601 8.892-2.245"/><path fill="#7e6a51" d="m665.154 350.531.968.583c-1.504.944-3.111 1.699-4.675 2.64-1.208-1.12-3.411-.751-5.185-.978 4.436-.828 4.641.601 8.892-2.245"/><path fill="#3f2a15" d="m792.78 391.954.787-1.083c.832.382 1.537.67 2.387 1.009l-.004.911a84 84 0 0 1-3.17-.837"/><path fill="#fadaaf" d="M696.626 600.878a59 59 0 0 1 2.423-.121c3.153 1.666 7.968-.422 9.819 1.102 13.955.557 27.945 2.222 41.852 3.575l58.929 5.937 37.602 4.076c8.414.882 16.366.725 24.602 3.643 27.861 9.872 44.603 37.751 33.759 66.451-3.365 8.905-15.888 15.074-25.003 17.175-.676-1.042.412-1.242 1.263-1.956 4.032-3.306 11.774-9.466 14.468-13.456 16.001-23.694-2.736-48.984-19.683-62.663-3.026-.559-8.55-.774-11.962-1.1a733 733 0 0 1-24.953-2.785c-32.768-4.375-65.083-9.355-97.982-12.831-1.734.222-3.073.107-4.637.84-.632.02-.847.038-1.453-.02-.588-.876-1.039-1.276-1.78-2.042-8.406-1.341-23.053-2.324-31.628-3.06-1.243-.03-8.515.09-8.84-.441.192-.65 1.574-1.046 2.103-1.265.418-.379.716-.641 1.101-1.059"/><path fill="#d9b786" d="M695.525 601.937c1.987.068 3.851.041 5.83.002-.885 1.218-.532 1.119.907 1.704-1.243-.03-8.515.09-8.84-.441.192-.65 1.574-1.046 2.103-1.265"/><path fill="#3f2a15" d="M696.626 600.878a59 59 0 0 1 2.423-.121c3.153 1.666 7.968-.422 9.819 1.102-2.363.115-5.106.052-7.513.08-1.979.039-3.843.066-5.83-.002.418-.379.716-.641 1.101-1.059"/><path fill="#24160b" d="M733.89 606.703c2.57.325 5.335.705 7.87 1.222-1.734.222-3.073.107-4.637.84-.632.02-.847.038-1.453-.02-.588-.876-1.039-1.276-1.78-2.042"/><path fill="#fadaaf" d="M359.769 273.264c-1.506-6.716-1.351-26.439 10.518-18.373 13.913 9.454 27.934 21.648 42.242 30.359l.49.293c3.583-.643 2.512 2.161 6.534 2.277 1.139.563 4.943 3.564.761 2.995-.289.465-.554.847-.864 1.296-16.499 6.599 2.096 19.728 4.089 25.698-.761.755-.316.497-1.326.789l-.632-.758c-.664-.731-1.625-1.39-2.428-2.009-.832-1.86-1.526-3.424-3.636-4.058-1.351-1.404-1.788-1.87-3.38-2.976-17.159-12.861-35.998-23.491-52.368-35.533"/><path fill="#24160b" d="M413.019 285.543c3.583-.643 2.512 2.161 6.534 2.277 1.139.563 4.943 3.564.761 2.995-2.384-1.815-4.9-3.434-7.295-5.272"/><path fill="#221e1b" d="M397.962 291.604c-3.624-2.681-33.188-21.517-33.491-22.841l.067-.175c1.407-.606 31.245 20.397 34.817 22.678z"/><path fill="#221e1b" d="M377.108 267.656c5.929 3.734 13.377 9.675 18.809 14.128l-1.813-.109c-3.985-3.431-12.204-9.369-16.662-12.321z"/><path fill="#7e6a51" d="M370.469 264.471c-.971-.703-5.295-3.224-5.474-4.03.335-1.039 5.199 2.324 6.068 2.765z"/><path fill="#30281d" d="M373.739 265.225c1.272.852 2.177 1.438 3.369 2.431l.334 1.698c-1.184-.904-2.331-1.699-3.562-2.539z"/><path fill="#7e6a51" d="M399.355 291.266c.436.33 2.653 1.957 2.82 2.467a.24.24 0 0 1-.058.247c-.989.33-3.369-1.69-4.155-2.376z"/><path fill="#7e6a51" d="M395.917 281.784c.748.491 1.821 1.315 2.194 2.14-.406 1.272-3.504-1.785-4.007-2.249z"/><path fill="#4a3d2e" d="M371.063 263.206c.625.468 1.118.887 1.711 1.389l-.737.778a52 52 0 0 1-1.568-.902z"/><path fill="#604d35" d="m372.774 264.595.614.392.351.238.141 1.59-1.471-1.182-.372-.26z"/><path fill="#fadaaf" d="m605.163 290.822.808-.458c12.417-7.113 24.329-16.808 36.162-24.931 3.934-2.702 15.048-13 19.629-12.096 6.497 1.282 8.402 17.245 3.269 21.176-13.777 9.442-28.409 17.857-41.872 27.794-2.824 2.085-7.833 5.525-10.194 7.993-1.047.262-.57.016-1.412.765 1.344.441 1.463.287 2.905.089-2.12 1.334-7.659 4.685-9.374 6.192q-1.062.671-2.108 1.37c-.022-.013-1.169-.599-.948-.947 2.735-4.312 11.468-10.666 11.074-16.065-.394-5.398-.394-4.41-2.606-8.155-1.328-1.543-4.06-1.497-5.817-1.609.139-.293.402-.795.484-1.118"/><path fill="#221e1b" d="M661.474 268.051c1.055 1.485-11.079 8.471-12.896 9.575-8.017 4.869-15.201 10.388-22.74 15.915-.211-.102-.378-.111-.448-.293.451-.655 1.032-.888 1.699-1.434 10.405-8.523 22.495-17.507 34.385-23.763"/><path fill="#221e1b" d="M660.136 259.927c2.038.405-2.406 3.164-3.227 3.797-8.215 6.343-17.424 11.521-25.626 17.84a89 89 0 0 1-4.511 3.304l-.554-.064.361-.658-.052.091c3.211-3.421 27.99-20.341 33.609-24.31"/><path fill="#fadaaf" d="M515.771 743.173c-13.935-15.055 14.085-27.092 13.681-6.672-.067 3.38-2.532 5.74-4.752 8.033 8.822 3.734 11.478 9.682 13.964 18.677.885 3.203 1.478 3.174-1.594 4.357l-.57.07c-.746.078-1.201.335-1.83.726 1.411 4.405 2.621 8.678 3.796 13.142-1.467 1.459-1.981 1.99-3.643 3.299-4.396.725-16.957 3.656-17.818-2.792-.392-2.942.61-13.301 2.586-15.952 1.498-1.59.923-1.581.198-3.363-2.193-5.387-4.535-10.606-6.938-15.9-.456-.517-.678-.776-1.167-1.236 1.426-.934 3.09-1.59 4.087-2.389"/><path fill="#221e1b" d="M515.771 743.173c-13.935-15.055 14.085-27.092 13.681-6.672-.067 3.38-2.532 5.74-4.752 8.033 8.822 3.734 11.478 9.682 13.964 18.677.885 3.203 1.478 3.174-1.594 4.357l-.72-.958c3.283-2.227-.456-8.447-1.853-11.373-3.281-6.878-7.547-8.111-14.085-10.331l.022-.281a162 162 0 0 0-3.521-2.098z"/><path fill="#f2cc96" d="M515.771 743.173c-13.935-15.055 14.085-27.092 13.681-6.672-.067 3.38-2.532 5.74-4.752 8.033 8.822 3.734 11.478 9.682 13.964 18.677.885 3.203 1.478 3.174-1.594 4.357l-.72-.958c3.283-2.227-.456-8.447-1.853-11.373-3.281-6.878-7.547-8.111-14.085-10.331l.022-.281c3.8-1.644 7.053-3.422 7.604-7.871.547-4.413-.98-9.189-6.037-9.552-4.462-.319-8.211 2.816-8.506 7.292-.267 3.504 1.174 5.568 3.418 8.033z"/><path fill="#221e1b" d="M520.412 744.906c6.538 2.22 10.804 3.453 14.085 10.331 1.397 2.926 5.136 9.146 1.853 11.373-.815-.13-1.75-.303-2.555-.369q-.677-2.354-1.467-4.672c-.341-.986-.796-1.045-1.519-.407-1.804 1.591-5.055 2.188-7.457 3.092-2.521-5.813-4.426-11.345-7.127-17.297l-.224-.502c1.464-.572 2.94-.983 4.411-1.549"/><path fill="#30281d" d="M533.795 766.241c.805.066 1.74.239 2.555.369l.72.958-.57.07c-.746.078-1.201.335-1.83.726-.268-.741-.563-1.403-.875-2.123"/><path fill="#fadaaf" d="m829.854 480.649.226 1.788c1.473 1.077 10.792 4.17 13.303 5.354 16.523 7.789 32.658 30.294 21.778 48.298-3.78 6.255-8.87 10.049-15.494 12.094 2.946 1.185 4.323 1.791 7.137 3.36-8.364-.077-20.368-2.941-28.639-4.638-17.216-3.227-34.065-8.409-51.216-11.782-25.185-4.954-50.934-8.065-76.205-12.854-4.853-.919-10.13-.774-15.14-1.486 14.956-2.957 28.326.83 43.007 2.284 40.969 4.056 78.82 14.406 118.648 24.704 13.887-9.42 20.167-15.483 13.925-33.405-4.717-13.541-13.246-20.966-25.915-27.198-2.648-1.302-6.226-1.755-7.837-4.222.812-1.664.589-1.158 2.422-2.297"/><path fill="#fadaaf" d="M735.67 608.745c.606.058.821.04 1.453.02 5.954 4.244 11.14 8.888 15.094 15.109 11.43 17.979 15.287 45.846 2.26 64.033-3.645 5.088-9.388 10.647-14.1 14.758l-.17 2.165c29.585-2.82 61.878-1.962 91.543-1.816 11.559.058 23.345.639 34.883.363.458.35.849.708 1.279 1.084-23.564 1.856-53.018.901-77.097 1.369-19.073.371-41.696 2.581-59.688 2.381-.571-.018-5.611.202-4.817-1.164.796-.459 1.302-.454 2.213-.538 6.657-1.936 8.819-5.168 13.869-9.42 22.511-18.954 20.002-55.147 3.822-77.166-2.535-3.45-7.329-7.918-10.544-11.178"/><path fill="#3f2a15" d="m740.377 702.665-.17 2.165c-2.165.307-3.241.559-5.472.598 2.206-1.021 3.459-1.547 5.642-2.763"/><path fill="#f9dfae" d="M731.127 708.211c-.571-.018-5.611.202-4.817-1.164.796-.459 1.302-.454 2.213-.538a61 61 0 0 1 2.604 1.702"/><path fill="#fadaaf" d="M287.836 608.685c.692-.02.831-.013 1.447-.089-13.745 12.996-20.477 24.956-22.798 44.014-2.973 24.42 9.727 46.191 32.596 55.302-15.555.746-32.323-1.173-47.978-1.571a4628 4628 0 0 0-91.787-1.422 76 76 0 0 0-3.369-.991c9.949.153 21.453-.593 31.601-.797 31.163-.628 64.984-1.24 96.027 1.669.43-1.065.444-1.073 1.102-2.089-12.534-10.791-19.651-18.098-21.869-35.075-2.878-22.039 6.331-46.389 25.028-58.951"/><path fill="#3f2a15" d="m284.677 702.711.69.477c1.246.9 2.547 1.718 3.835 2.556-1.174-.168-4.522-.63-5.627-.944.43-1.065.444-1.073 1.102-2.089"/><path fill="#fadaaf" d="M175.951 548.143c23.72-6.701 49.336-12.186 73.34-18.244 11.639-2.938 25.429-3.252 37.325-5.521 15.289-1.925 37.967-7.048 52.741-3.19-3.661.368-5.877.405-9.571.368-27.8 4.15-56.365 9.137-84.061 14.077-24.841 4.43-51.964 14.857-77.29 15.753 2.428-1.082 5.043-2.323 7.516-3.243"/><path fill="#fadaaf" d="M199.411 481.031c6.946-2.41 14.379-3.612 21.508-5.45 21.983-5.667 116.225-29.861 132.95-22.495 1.185.522 1.832.896 2.354 2.116l-.769.932c-2.813-.982-9.759-3.208-12.267-2.52-7.764 2.13-15.97 3.793-23.862 5.28-22.589 4.257-45.068 8.734-67.631 13.078-17.527 3.604-32.441 9.233-50.891 10.889-.776 0-1.43.052-2.206.104q-.055-.817-.102-1.635c.426-.198.457-.209.916-.299"/><path fill="#30281d" d="M198.495 481.33c.426-.198.457-.209.916-.299l1.392 1.83c-.776 0-1.43.052-2.206.104q-.055-.817-.102-1.635"/><path fill="#fadaaf" d="M680.515 451.147c5.053-.505 19.061 1.857 24.479 2.749a1008 1008 0 0 1 104.234 23.136c3.802 1.025 12.778 2.527 15.461 4.482l-.125.716c-2.196 1.19-9.562-.648-12.457-1.195-13.702-2.743-26.962-6.454-40.53-9.376a2209 2209 0 0 0-64.672-12.614c-8.312-1.558-16.165-4.036-24.503-5.514-6.544-1.16-10.935 3.044-13.395 2.919l-.231-.477c2.863-3.322 7.581-4.085 11.739-4.826"/><path fill="#fadaaf" d="M193.472 482.192c-16.1-3.034-19.387-19.582-9.63-31.359 5.659-6.83 15.566-8.176 23.978-9.06-8.785 4.602-20.445 6.144-23.426 17.042-3.477 12.71 2.739 19.288 14.101 22.515q.047.817.102 1.635c-15.976 7.347-28.202 13.164-35.035 30.906-1.924 5.111-3.41 13.151-1.508 18.39 1.708 4.704 7.018 9.653 11.189 12.382 1.715 1.122 3.287 1.465 2.708 3.5-9.262-.566-17.199-10.11-19.075-18.767-4.712-21.747 17.11-42.138 36.649-46.251z"/><path fill="#a38a6b" d="M193.472 482.192c.593-.05 2.776-.124 3.24.119l-.042.126-.661-.245.243.476c-.971.28-1.73.341-2.727.457z"/><path fill="#fadaaf" d="M252.031 294.255c1.132-.172 4.117-.651 5.11-.035.809.501-2.282 1.159-2.239 1.15-7.931 2.664-15.503 4.95-19.554 13.486-3.368 7.097-5.229 20.672-3.137 28.384 1.143 4.211 10.349 8.8 10.555 13.185-3.649 2.559-7.813 3.974-11.393 6.706-9.16 6.99-12.506 18.53-5.55 28.341 1.955 2.757 4.802 3.844 6.802 6.097-13.843.288-16.998-15.975-12.587-26.419 3.976-9.413 10.871-11.986 19.575-15.533-4.576-3.681-11.905-7.61-12.488-13.865-.992-10.641.121-24.146 7.002-32.863 4.999-6.333 10.621-7.698 17.904-8.634"/><path fill="#f2cc96" d="M252.031 294.255c1.132-.172 4.117-.651 5.11-.035.809.501-2.282 1.159-2.239 1.15-1.317-.721-1.413-.709-2.871-1.115"/><path fill="#fadaaf" d="M767.129 294.366c7.055-.267 15.81-.235 21.18 5.16 7.532 7.567 10.369 18.224 10.433 28.64.072 11.792-3.619 15.853-13.434 21.307 13.767 4.252 26.667 14.53 21.495 30.735a18.09 18.09 0 0 1-9.162 10.825l-1.264.635-.423.212a48 48 0 0 1-2.387-1.009c10.982-9.521 13.801-18.355 4.231-30.258-3.973-4.942-12.534-7.542-14.848-10.373.9-4.529 7.863-8.064 9.447-11.097 4.564-8.741 1.24-25.592-4.142-33.557-6.444-9.534-13.733-7.325-21.126-11.22"/><path fill="#fadaaf" d="M152.231 618.992c-7.318-4.102-11.83-7.53-15.832-15.289a34.61 34.61 0 0 1-2.085-26.944c3.206-9.69 11.109-18.15 20.174-22.68 3.639-1.819 9.887-4.12 13.806-2.816-.27.816-7.263 3.194-9.279 4.276a37.9 37.9 0 0 0-18.255 22.727c-3.378 11.33-.669 20.144 6.556 29.073 2.285 2.824 5.475 6.551 7.176 9.654-.787 1.268-.94 1.275-2.261 1.999"/><path fill="#fadaaf" d="M855.614 550.628c8.793-.735 21.81 6.609 27.106 13.438 14.446 18.626 10.986 38.232-6.531 52.687-1.758.998-2.489 1.534-4.228 1.123l-.396-1.022c.792-4.715 7.099-10.908 9.704-15.269 7.517-12.584 2.502-29.738-7.147-39.707-4.649-4.803-12.59-7.877-18.508-11.25"/><path fill="#fadaaf" d="M783.918 712.432c6.411-.703 20.203-.501 26.735-.266-2.503.569-5.201 1.276-7.764 1.207-19.773 1.903-37.155 2.075-56.925 2.258-14.351.132-29.878 1.558-44.294 2.292-3.012.37-4.849-.336-6.276 1.283-.778-.095-1.47-.442-2.254-.468a71 71 0 0 1-3.961-1.122c-.987-.164-.481.012-1.478-.635l.459-.61c3.177-1.534 14.276-1.804 18.217-2.137 25.809-2.175 51.636-2.618 77.541-1.802"/><path fill="#d9b786" d="M783.918 712.432c6.411-.703 20.203-.501 26.735-.266-2.503.569-5.201 1.276-7.764 1.207-2.341-1.305-14.426-.379-18.971-.941"/><path fill="#3f2a15" d="M689.179 717.616c3.985-.126 8.554-.207 12.491.307-3.012.37-4.849-.336-6.276 1.283-.778-.095-1.47-.442-2.254-.468a71 71 0 0 1-3.961-1.122"/><path fill="#fadaaf" d="M223.577 713.338c-.58-.018-5.755-.122-5.364-1.018.678-.438 34.34-.338 37.165-.165 19.752-.306 38.875-.005 58.537 1.761 7.648.687 18.172.496 25.294 2.774-2.446.342-4.821.741-7.289.809l-1.716 1.485c-.769.782-1.442 1.542-2.309 2.212l-1.009-.804 1.128-1.537c-.754-1.732-3.567.277-5.382-1.199-13.151-.29-27.137-1.898-40.284-1.984-20.564-.134-38.234.064-58.771-2.334"/><path fill="#d9b786" d="M223.577 713.338c-.58-.018-5.755-.122-5.364-1.018.678-.438 34.34-.338 37.165-.165-2.346 1.654-27.242-.948-31.801 1.183"/><path fill="#3f2a15" d="M322.632 717.656c2.932-.171 6.317-.111 9.288-.157l-1.716 1.485c-.769.782-1.442 1.542-2.309 2.212l-1.009-.804 1.128-1.537c-.754-1.732-3.567.277-5.382-1.199"/><path fill="#a38a6b" d="m328.014 718.855 2.19.129c-.769.782-1.442 1.542-2.309 2.212l-1.009-.804z"/><path fill="#fadaaf" d="M657.685 319.002c33.745.758 87.24 17.442 120.122 27.153l-1.18 1.155c-4.917-.779-9.82-1.912-14.598-3.289-19.765-5.699-39.465-11.054-59.677-14.97-12.821-2.484-25.506-5.76-38.428-7.897l-.809 1.242c-1.564-.591-1.667-.655-3.253-.925l-.131-.379c-2.465-.111-2.894.363-5.159 1.505l-.769-.811z"/><path fill="#3f2a15" d="M659.731 321.092c1.396-.521 2.696-.295 4.193.062l-.809 1.242c-1.564-.591-1.667-.655-3.253-.925z"/><path fill="#fadaaf" d="M247.139 346.247c5.046-1.896 14.957-4.137 20.781-5.98 20.828-6.592 41.398-12.167 62.871-16.262 14.23-2.713 20.403-4.461 35.146-4.291l-.839 1.298c-11.092.892-19.878 3.361-30.673 5.686-15.201 3.275-30.544 5.85-45.517 10.19-12.833 3.562-26.676 8.077-39.688 10.341z"/><path fill="#f2cc96" d="M511.684 745.562c.489.46.711.719 1.167 1.236-6.39 6.438-11.356 9.701-11.078 20.292.107 4.043.864 8.515 2.446 12.245l.488-.214c.768-1.643.903-1.872 2.239-3.088.866-9.502-.095-10.18 4.062-18.633-2.221 9.249-4.29 22.178-.034 31.048-3.44 6.742-6.712 9.3-12.538 14.091 1.371 2.914 2.533 5.513 5.189 7.527l.328-.522c-.404-1.487-.793-2.699-.944-4.242 2.036-3.457 7.714-4.061 10.749-6.235 2.225-1.594 6.319-7.379 8.65-8.505 2.348 2.148.334 18.244 1.086 22.636 1.405.447 1.407.37 2.907.308.634-.926.829-1.252.909-2.357l.078-.817c.552-2.35 2.809-5.893 3.43-8.948 1.254-6.165 1.734-12.511 3.432-18.527a53.35 53.35 0 0 1-5.712 27.499q1.488.291 2.973.599c1.781.355 2.09.253 3.581 1.404l-.082.675c-2.285 1.984-9.573 3.173-12.203 1.552-1.427-3.787-.655-17.113-.682-22.308-5.794 7.779-9.305 9.57-18.255 12.811 1.145 2.272 2.591 4.158 1.668 6.656l-1.048.184c-4.604-2.143-6.104-5.083-7.959-9.396 4.718-3.915 10.529-8.36 13.16-13.955l-.518-1.055c-.802-2.696-2.849-3.33-4.398-5.099-3.625-4.142-4.443-11.333-4.496-16.713.023-9.783 5.11-13.988 11.405-20.149"/><path fill="#3f2a15" d="M527.388 810.332c.62.322 5.304 2.328 5.228 2.221.005.735-4.801.562-6.215.953.634-.926.829-1.252.909-2.357z"/><path fill="#7e6a51" d="m504.219 779.335.488-.214c.691.563.981 1.198 1.803.857l1.201 1.364.054.579c.323 2.987-3.495-2.513-3.546-2.586"/><path fill="#3f2a15" d="m506.51 779.978.212-.731c.741-3.072 1.858-.638.989 2.095z"/><path fill="#fadaaf" d="M887.791 717.94c15.405 19.427 26.789 49.694 3.487 68.539-3.664 2.964-7.103 4.786-11.682 5.981 11.017-10.056 19.862-17.097 20.577-33.38.575-13.108-6.162-29.666-13.326-40.344z"/><path fill="#fadaaf" d="M137.802 715.978c.688 1.127-2.365 4.708-3.177 6.127-11.136 19.449-18.245 44.685.005 62.346 2.24 2.167 4.663 3.892 6.924 6.092l.009.749-1.55-.205c-32.153-14.922-22.368-54.089-2.211-75.109"/><path fill="#fadaaf" d="M326.228 601.054c-6.261-5.67-10.268-6.015-14.278-14.875-8.602-19.001-3.023-39.949 10.403-55.141 1.329-1.49 3.618-4.292 5.513-4.829l.429.581c-1.038 2.389-6.001 8.794-7.928 12.148-8.615 15-11.318 28.543-5.353 45.038 3.96 10.95 9.453 10.832 12.712 16.337z"/><path fill="#fadaaf" d="M695.332 524.957c24.037 14.78 31.76 61.898 3.717 75.8q-1.214.036-2.423.121l.407-.459c2.573-2.861 5.5-5.111 7.823-7.811 6.341-7.369 8.773-18.309 8.303-27.845-.736-14.95-8.987-28.286-17.827-39.806"/><path fill="#fadaaf" d="M340.591 277.138c-2.192.481-4.574 1.256-6.739 1.903-17.821 5.322-36.601 6.635-54.719 11.012-5.07 1.225-12.363 3.339-17.404 3.039l.341-.571c4.571-2.014 11.317-3.357 16.27-4.62 12.848-3.276 26.065-6.015 39.112-8.45 8.073-1.507 19.019-4.467 26.887-5.203l1.972.666-.029.566-1.917.771c.529 1.256-.784 1.344-1.95 1.984a19 19 0 0 0-1.824-1.097"/><path fill="#3f2a15" d="M344.365 276.251c.529 1.256-.784 1.344-1.95 1.984a19 19 0 0 0-1.824-1.097 38 38 0 0 1 3.774-.887"/><path fill="#fadaaf" d="M878.193 703.361c-1.016-1.665.572-3.362 1.813-5.282 4.845-7.5 9.637-18.889 8.355-28.165-1.256-9.082-6.151-23.177-13.973-29.047-3.099-2.326-6.133-2.966-7.665-4.223l.661-.362c16.35 1.619 22.106 16.541 23.769 30.755 1.455 12.442-3.128 23.247-10.238 33.313l.957.41c-.851.714-1.939.914-1.263 1.956-.91.422-1.415.451-2.416.645"/><path fill="#604d35" d="m880.915 700.35.957.41c-.851.714-1.939.914-1.263 1.956-.91.422-1.415.451-2.416.645.972-1.105 1.668-1.962 2.722-3.011"/><path fill="#fadaaf" d="M820.548 443.248c-.541-.195-1.598-.468-1.854-1.069.375-.746 3.139-.174 3.745-.062 6.657 1.334 15.96 3.087 19.514 9.377 8.891 15.736 6.019 24.809-10.9 30.493-.279.074-.722.322-.973.45l-.226-1.788.486-.385c9.854-2.96 13.437-13.51 9.754-22.772-3.482-8.755-11.568-10.665-19.546-14.244"/><path fill="#f2cc96" d="M820.548 443.248c-.541-.195-1.598-.468-1.854-1.069.375-.746 3.139-.174 3.745-.062-.976.405-.984.472-1.891 1.131"/><path fill="#f2cc96" d="m829.854 480.649.486-.385c.246.58.487 1.135.713 1.723-.279.074-.722.322-.973.45z"/><path fill="#fadaaf" d="M675.483 274.153c10.24-1.17 82.205 15.562 92.168 20.077-4.737-.368-11.111-1.713-15.783-2.937-19.929-5.217-40.481-6.962-60.297-12.474a411 411 0 0 0-9.915-2.603c-1.564-1.455-4.058-1.7-6.173-2.063"/><path fill="#fadaaf" d="M231.605 599.241c22.683-6.301 47.414-6.896 70.737-4.613 1.018.001 2.316.034 3.161.672-.084 1.148-6.248.701-7.232.658-14.828.774-29.76 1.59-44.577 2.429-5.015.285-15.355.997-20.196 1.809z"/><path fill="#7e6a51" d="M302.342 594.628c1.018.001 2.316.034 3.161.672-.084 1.148-6.248.701-7.232.658 1.28-.257 3.905-.08 4.071-1.33"/><path fill="#fadaaf" d="M723.544 594.708c18.263-2.919 51.286-.797 69.349 4.498-1.374.728-1.488.682-3.032 1.025-17.185-2.376-44.202-3.228-62.211-4.274-.474.011-7.826.459-6.914-.591.296-.341 2.276-.626 2.808-.658"/><path fill="#d9b786" d="M727.65 595.957c-.474.011-7.826.459-6.914-.591.296-.341 2.276-.626 2.808-.658 1.568 1.005 2.3.815 4.106 1.249"/><path fill="#f2cc96" d="M365.937 319.714c5.403 1.371 11.054 4.421 16.109 6.751 16.939 7.809 32.362 17.502 47.995 27.581 4.773 3.078 13.901 8.222 17.71 12.124l.205 1.007-.874.836c-.201-1.01-.027-.482-.6-1.556l-1.555.234c-1.167-1.172-1.25-1.342-2.701-2.074-16.864-12.16-55.827-37.315-75.033-43.083-10.381 6.809-14.007 17.93-7.166 28.679l-.772.432c-3.739-1.764-4.432-7.841-4.397-11.489.076-8.091 4.956-12.802 10.24-18.144z"/><path fill="#d9b786" d="M344.339 274.248c2.246-.187 5.698-.568 7.697.367 11.524 5.398 22.884 13.125 33.754 19.784 8.401 5.147 17.358 9.853 25.399 14.963l.948-.565c1.592 1.106 2.029 1.572 3.38 2.976 2.11.634 2.804 2.198 3.636 4.058-9.787-5.413-63.216-40.96-70.265-39.578-3.055.599-5.837 3.744-7.55 6.139-3.848 5.382-5.394 13.621-4.08 20.108 1.505 7.429 6.618 11.692 12.608 15.627-10.94-4.418-15.906-11.778-14.997-23.896.486-6.487 2.483-11.691 7.546-15.996 1.166-.64 2.479-.728 1.95-1.984l1.917-.771.029-.566z"/><path fill="#604d35" d="M412.137 308.797c1.592 1.106 2.029 1.572 3.38 2.976-2.314-.88-2.297-.917-4.328-2.411z"/><path fill="#d9b786" d="M612.965 310.3c3.112-1.069 12.115-7.073 15.358-9.077a997 997 0 0 1 25.789-15.374c5.171-2.981 15.932-9.773 21.371-11.696 2.115.363 4.609.608 6.173 2.063 13.679 12.34 13.663 33.705-4.753 41.581l-.593.258-.358.149c2.77-2.143 7.305-5.38 9.241-8.099 6.051-8.498 4.548-21.691-1.876-29.625-2.414-2.98-4.042-3.548-7.357-4.947-7.029 3.018-15.439 8.04-22.208 11.934a1128 1128 0 0 0-39.294 23.687c-1.442.198-1.561.352-2.905-.089.842-.749.365-.503 1.412-.765"/><path fill="#f2cc96" d="M572.528 513.224a1311 1311 0 0 1 69.999-42.909c7.809-4.497 14.612-8.99 22.644-13.212l.537.325c-3.563 5.71-87.769 50.242-91.031 56.793l-.669.351.011 1.412c-5.039 1.17-4.565-1.561-1.491-2.76"/><path fill="#f9dfae" d="M574.019 515.984c-5.039 1.17-4.565-1.561-1.491-2.76.959.506.922.432 1.48 1.348z"/><path fill="#fadaaf" d="M662.594 243.254c11.94-3.615 47.481 7.114 60.775 9.889l-.457 1.126c-18.791-1.933-40.776-9.29-58.536-9.653-.445.138-.527.215-.928.44-1.917 1.094-6.002 3.582-7.869 4.129.933-2.645 2.847-4.295 4.926-6.034l1.532.765z"/><path fill="#f2cc96" d="M357.208 455.499c8.688 3.771 96.884 57.153 98.498 60.068-1.501 1.658-3.485.518-5.25-.219l.072-.225c.015-.913.192-1.491-.746-2.138-22.484-15.505-46.701-28.421-69.929-42.742-6.953-4.286-16.577-9.541-22.645-14.744"/><path fill="#d9b786" d="M654.892 249.252c-.635 1.794-.802 1.625-2.594 3.033l-47.343 37.4c-.426.295-.771.593-1.167.918-2.435 2.483-5.419 2.799-8.805 3.596l.37-.3c2.985-2.465 4.029-2.995 7.421-4.874l-.105-1.028c7.97-7.825 20.227-17.492 28.951-24.728l1.814 1.456c5.267-4.048 15.923-13.001 21.458-15.473"/><path fill="#24160b" d="m631.62 263.269 1.814 1.456c-3.68 2.785-9.293 6.942-12.762 9.936-6.222 5.37-10.569 9.996-17.898 14.364l-.105-1.028c7.97-7.825 20.227-17.492 28.951-24.728"/><defs><linearGradient id="g" x1="280.004" x2="250.957" y1="275.918" y2="271.193" gradientUnits="userSpaceOnUse"><stop offset="0" stop-color="#e7bf89"/><stop offset="1" stop-color="#ffe1b2"/></linearGradient></defs><path fill="url(#g)" d="M265.958 260.051c.033.14.176.877.336.859 5.165-.594 12.421-2.72 17.485-3.666l-.836 1.515c-4.701.806-9.467 2.475-14.018 3.667-14.157 3.709-20.084 13.458-11.52 26.483.044.37 2.563 2.493 1.898 2.906-1.521.946-2.736.709-3.938-.504-6.036-6.086-8.398-17.639-1.714-24.156 2.536-2.473 7.919-4.729 11.426-5.437.316-.576.584-1.086.881-1.667"/><path fill="#f2cc96" d="m652.828 355.325-.254 1.233c-23.798 17.413-47.403 30.673-71.811 47.066l.223.895a71 71 0 0 1-2.111 1.843c-.48-.077-.938-.136-1.409-.258-.655-.03-1.105-.209-1.757-.384l-.303-.925c1.007-1.773 11.6-7.408 14.013-8.981 21.026-13.701 42.811-26.111 63.409-40.489"/><path fill="#3f2a15" d="m580.763 403.624.223.895a71 71 0 0 1-2.111 1.843c-.48-.077-.938-.136-1.409-.258a67 67 0 0 1 3.297-2.48"/><path fill="#f2cc96" d="M866.719 560.42c9.035 10.584 13.695 23.74 7.74 36.823-1.398 3.071-6.901 14.121-11.472 12.136-.289-.685 1.647-2.215 2.257-2.908 3.847-4.522 6.912-11.201 8.197-16.976 2.384-10.704-2.033-20.017-7.901-28.55z"/><path fill="#f2cc96" d="m376.959 358.572 56.736 35.483c2.461 1.521 16.497 9.339 17.206 10.798-.945 1.254-.335.879-1.908 1.136-1.893-.79-6.092-3.918-8.151-5.272l-17.967-11.726c-4.536-2.939-9.124-5.777-13.813-8.464-11.199-6.418-21.85-13.7-32.601-20.831z"/><path fill="#d9b786" d="M367.939 408.979c7.311 2.977 20.693 9.999 27.579 13.802a618 618 0 0 1 39.73 23.572c9.91 6.349 19.198 12.845 29.345 19.219-.646 1.11-.834 1.098-1.013 2.254-1.933-2.142-10.141-7.433-12.963-9.41-18.522-12.976-36.629-24.796-56.744-35.189-6.673-3.448-21.217-9.845-25.934-14.248"/><path fill="#fadaaf" d="M157.033 563.507c-7.945 15.543-9.359 30.374 3.412 44.522.482.534.833.747 1.278 1.296l-.014.393.135-.089-.049.072c-6.545 1.205-13.95-16.332-14.241-21.952-.465-8.958 3.042-18.22 8.523-25.126z"/><path fill="#f2cc96" d="M579.058 368.071c-.954-.779-.659-.289-.917-1.451 3.695-4.102 15.545-11.294 20.748-14.335 11.068-6.47 22.35-13.594 33.556-19.784 6.735-3.721 14.459-6.94 21.358-10.715l.769.811c-4.323 2.433-8.575 4.495-12.948 6.785-19.698 10.316-39.694 21.995-57.609 35.126-.951.761-1.541 1.328-2.418 2.164-1.14 1.034-1.062 1.153-2.539 1.399"/><path fill="#fadaaf" d="M694.925 459.798c5.126 4.579 8.679 8.682 10.735 15.348 4.323 14.008 1.49 33.576-13.138 40.195 3.882-3.297 5.676-4.963 7.977-9.638 6.511-13.224 5.766-34.389-5.954-44.662z"/><path fill="#fadaaf" d="M680.864 398.209c13.535-1.126 27.109 3.065 39.59 7.986.711.28 5.997 2.159 5.648 3.089l-.345.131c-1.678-.424-3.332-.889-5.018-1.282l-.983-.221-1.511-.35-2.252-.469c-1.668-.329-3.327-.705-4.998-1.019a139 139 0 0 1-5.989-1.203c-1.091-.232-2.179-.491-3.265-.737l-4.248-.993-8.501-2.014c-1.061-.246-8.551-1.782-8.723-2.363.07-.272.346-.38.595-.555"/><defs><linearGradient id="h" x1="329.42" x2="318.489" y1="487.001" y2="486.967" gradientUnits="userSpaceOnUse"><stop offset="0" stop-color="#dfbd85"/><stop offset="1" stop-color="#ffdeae"/></linearGradient></defs><path fill="url(#h)" d="m329.622 460.648.415 1.438a54 54 0 0 0-1.834 1.888c-10.867 11.694-9.989 36.825 1.211 48.246.808.824.904.541 1.485 1.77-7.769 1.487-13.248-21.17-12.937-27.44.638-12.813 2.944-17.113 11.66-25.902"/><path fill="#fadaaf" d="M301.043 407.492c2.188-.451 4.738-1.714 6.944-2.417 7.271-2.316 14.436-4.972 22.009-6.184 6.351-1.201 10.764-1.108 17.148-.699-3.257.943-5.811 1.663-9.137 2.398l-2.249.518-2.25.53-4.237 1.006q-2.129.536-4.265 1.034c-3.093.739-6.14 1.556-9.262 2.184l-8.739 1.713-2.5.51c-.76.15-1.654.46-2.405.7z"/><path fill="#f2cc96" d="M616.235 626.77c13.897-3.335 27.721-7.405 41.498-11.144 7.377-2.002 19.003-6.069 26.262-7.07-9.828 5.069-32.252 10.246-43.584 13.769-4.648 1.444-19.162 5.767-23.592 6.722.836-.67 1.077-.845 1.776-1.645z"/><path fill="#fadaaf" d="M847.541 501.795c3.76 6.28 8.221 11.341 9.059 18.952 1.359 12.339-3.334 16.808-13.408 21.963 3.73-4.212 7.63-7.272 9.18-12.983 2.596-9.565-.47-17.802-5.124-26.173l-.283-.521z"/><path fill="#d9b786" d="M574.188 457.56c10.29-7.27 72.771-46.163 83.459-47.874l.117.088c-1.56 1.407-12.01 6.75-14.555 8.102a1941 1941 0 0 0-29.736 16.027c-13.044 7.317-26.103 16.206-38.476 24.632z"/><defs><linearGradient id="i" x1="182.61" x2="167.776" y1="519.386" y2="524.315" gradientUnits="userSpaceOnUse"><stop offset="0" stop-color="#eac584"/><stop offset="1" stop-color="#ffdcb6"/></linearGradient></defs><path fill="url(#i)" d="m177.163 501.957.609 1.219c-3.896 5.63-7.043 14.486-6.74 21.325.368 8.327 5.032 12.446 10.285 17.558-19.541-7.138-14.893-27.061-4.154-40.102"/><path fill="#f2cc96" d="m666.544 357.206.948.072c.755.034 1.351.15 2.022.506 1.919 2.655 3.874 4.494 5.398 7.505 4.042 7.992 4.156 18.47 1.296 26.859-.407 1.192-3.186 7.366-5.071 6.64.004.01 13.323-25.072-4.593-41.582"/><path fill="#f2cc96" d="M356.782 357.301c.892-.514.897-.27 1.746.227-1.58 2.121-3.137 3.907-4.41 6.272-5.312 9.876-5.98 21.955-.546 31.926.284.521.99 1.606.775 2.26-.153.466-.942.12-1.183-.099-8.932-10.559-6.679-28.151 2.028-38.207.95-1.096 1.22-1.091 1.59-2.379"/><path fill="#f2cc96" d="M659.862 321.471c1.586.27 1.689.334 3.253.925 6.313 6.562 11.996 20.668 3.962 27.872l-.955.846-.968-.583c7.569-7.807 3.177-22.445-4.655-28.353z"/><path fill="#f2cc96" d="M679.841 347.616c5.609-.053 27.091 4.103 30.356 8.09-4.283.105-18.174-4.327-23.19-5.786l-4.525-1.342c-1.294-.379-1.385-.388-2.641-.962"/><path fill="#f2cc96" d="M308.211 464.935c1.426 1.439-4.401 5.162-5.943 6.618-6.363 6.007-8.242 11.52-11.521 19.08-1.069-1.022-.749-1.532-.443-2.921 2.078-9.414 9.806-17.908 17.907-22.777"/><path fill="#f2cc96" d="M681.409 335.69c1.106.278 2.228.471 3.341.719a71 71 0 0 1 11.696 3.41c3.84 1.471 11.237 3.949 12.904 7.687-9.214-3.809-18.218-7.729-27.657-10.994-.221-.076-.268-.688-.284-.822"/><path fill="#f2cc96" d="M716.27 465.421c2.284.489 3.717 1.737 5.617 3.058 7.355 5.111 12.609 13.144 13.125 22.174-1.571-1.201-3.12-7.499-5.167-10.837-4.572-7.453-8.166-8.752-13.575-14.395"/><path fill="#3f2a15" d="M764.556 271.905c3.199-1.486 3.266 14.439.478 14.027-.708-.318-1.381-.649-2.079-.988-.403-.055-.92-.055-1.26-.3-.152-.475.275-7.209.462-7.433.291.02.792.661.873.743 2.722-1.541 1.421-2.761 1.526-6.049"/><path fill="#f2cc96" d="M764.556 271.905c3.199-1.486 3.266 14.439.478 14.027-.479-4.612.618-8.753-.478-14.027"/><path fill="#fadaaf" d="M762.955 284.944c-.403-.055-.92-.055-1.26-.3-.152-.475.275-7.209.462-7.433.291.02.792.661.873.743.8 2.416.552 4.561-.075 6.99"/><path fill="#f2cc96" d="M700.276 395.721c7.647-.619 24.918 3.71 31.473 7.746-4.069.017-15.752-3.908-20.508-4.881l-2.249-.474c-2.468-.53-6.528-1.335-8.716-2.391"/><path fill="#fadaaf" d="m259.152 273.101 2.081.105c-.245 1.804-.245 2.621-.22 4.466 1.075.119 1.317.271 2.376.645l.316-.448c.927-.055 1.01 6.03.056 7.417-.882-.194-1.817-.416-2.701-.571-.265.334-.67.742-.959.041-1.624-3.94-2.384-7.535-.949-11.655"/><path fill="#3f2a15" d="m263.389 278.317.316-.448c.927-.055 1.01 6.03.056 7.417-.882-.194-1.817-.416-2.701-.571.404-2.153-.048-4.734-.047-7.043 1.075.119 1.317.271 2.376.645"/><path fill="#f2cc96" d="m263.389 278.317.316-.448c.927-.055 1.01 6.03.056 7.417-1.652-2.958-1.379-3.754-.372-6.969"/><path fill="#fadaaf" d="M192.738 452.375c.66 4.371-3.526 10.444 1.44 16.804 1.266 1.621 3.247 4.243 4.564 5.941-.075.284-.345.494-.543.7-8.368-5.102-11.576-15.352-5.461-23.445"/><path fill="#f2cc96" d="m323.536 395.318.242.362c-.642.428-3.06 1.114-3.778 1.296l-.927.227c-8.638 2.253-16.987 4.641-25.569 7.083l-.185-.033-.035-.052c.85-2.016 15.971-6.332 18.723-7.106 3.462-.972 7.941-1.511 11.529-1.777"/><path fill="#fadaaf" d="m230.743 366.399 1.169 1.256c-.274 10.6 2.049 11.852 9.332 18.701-8.984-3.81-14.624-9.61-10.501-19.957"/><path fill="#fadaaf" d="M488.094 296.258a3.861 3.861 0 1 1 3.183 7.022 3.862 3.862 0 0 1-3.183-7.022"/><path fill="#d9b786" d="M341.375 348.225c1.057-.165 2.068-.053 3.13.037-1.31.353-2.539.785-3.764 1.114l-1.999.524c-6.881 1.732-13.62 3.936-20.567 5.526-.588.086-1.802.468-2.307.236l-.015-.209c2.486-3.085 21.157-6.73 25.522-7.228"/><path fill="#fadaaf" d="M793.596 363.26c1.688 5.388 3.193 8.591.59 14.337-1.279 2.822-3.408 5.827-6.395 6.977-.665.255-1.516-.069-1.114-.41 5.531-4.686 8.154-12.381 6.134-19.39z"/><path fill="#f2cc96" d="m344.029 335.238.147.41c-8.234 4.18-18.333 7.012-27.121 11.316-.69-.721-.236-.836.507-1.353 6.949-4.832 18.252-8.799 26.467-10.373"/><path fill="#f2cc96" d="M832.645 452.877c4.172 3.414 3.373 14.374-.219 18.107-2.271 2.359-2.246 2.583-5.144 4.437-.271.008-.859.153-1.024-.145.062-.212.272-.411.432-.547 7.094-6.028 7.518-13.192 5.955-21.852"/><path fill="#f2cc96" d="M663.448 245.056c.401-.225.483-.302.928-.44 7.03 5.945 8.762 9.553 11.264 17.963-.393 1.479-2.635 9.184-3.838 9.602-.123-1.01.196-1.257.51-2.269 1.687-5.432 1.119-11.076-1.515-16.096-2.061-3.925-4.373-5.816-7.349-8.76"/><path fill="#fadaaf" d="M523.682 493.653a3.708 3.708 0 1 1 3.384 6.598 3.708 3.708 0 0 1-3.384-6.598"/><path fill="#fadaaf" d="M481.915 539.242a3.68 3.68 0 0 1 4.533 4.565 3.682 3.682 0 1 1-4.533-4.565"/><path fill="#f2cc96" d="M361.053 246.712c.395.165.784.206 1.01.559l-.046.039c-.126.332-.229.376-.5.578-4.81 3.579-7.961 9.085-8.133 15.112-.122 4.304.728 5.768 1.961 9.637l.137.442c-7.757-7.036-2.953-19.718 4.227-25.336z"/><path fill="#fadaaf" d="M543.501 669.149a3.532 3.532 0 0 1 4.757 3.941 3.53 3.53 0 1 1-4.757-3.941"/><path fill="#f2cc96" d="M745.117 474.076c7.188 2.01 14.685 11.025 14.865 18.513-3.894-6.363-6.426-11.67-12.977-16.339-1.344-.959-1.537-.836-1.888-2.174"/><path fill="#f2cc96" d="M152.178 464.742a3.506 3.506 0 1 1 2.316 6.619 3.506 3.506 0 0 1-2.316-6.619"/><path fill="#fadaaf" d="M105.596 543.729a3.502 3.502 0 0 1 5.007 3.684 3.504 3.504 0 1 1-5.007-3.684"/><path fill="#f2cc96" d="M780.911 305.455c6.028 4.43 7.994 17.211 6.851 24.198-2.028-.375-1.219-11.342-2.913-14.646-.972-1.897-3.443-7.868-3.938-9.552"/><path fill="#fadaaf" d="M541.86 427.832a3.477 3.477 0 1 1 3.704 5.887 3.477 3.477 0 0 1-3.704-5.887"/><path fill="#fadaaf" d="M193.454 338.337a3.45 3.45 0 1 1 3.842 5.73 3.45 3.45 0 0 1-3.842-5.73"/><path fill="#fadaaf" d="M467.099 258.854a3.446 3.446 0 1 1 3.272 6.065 3.446 3.446 0 0 1-3.272-6.065"/><path fill="#f2cc96" d="M483.115 357.223a3.433 3.433 0 1 1 .897 6.808 3.433 3.433 0 0 1-.897-6.808"/><path fill="#f2cc96" d="M925.013 582.829a3.405 3.405 0 1 1 3.468 5.856 3.404 3.404 0 0 1-3.468-5.856"/><path fill="#f2cc96" d="M279.423 474.03c1.213 1.487-3.443 3.507-4.955 4.911-4.409 4.094-6.367 7.843-8.896 13.136-.979-1.073-.458-1.962.005-3.314 1.934-5.641 6.549-11.17 11.924-13.801z"/><path fill="#fadaaf" d="M860.507 432.744a3.385 3.385 0 1 1 3.637 5.71 3.385 3.385 0 0 1-3.637-5.71"/><path fill="#f2cc96" d="M243.841 305.443c.751.843.289 1.605-.231 2.563-3.854 7.094-4.744 13.791-5.168 21.743-.551-.43-.983-.714-1.026-1.481-.511-9.065 1.49-15.563 6.425-22.825"/><path fill="#f2cc96" d="M515.893 595.181c.224.093 1.734.641 1.499 1.152-1.663 3.604-4.726 8.224-7.108 11.442-.298-.096-1.869-.552-1.658-1.111 1.287-3.43 4.923-8.889 7.267-11.483"/><path fill="#fadaaf" d="M203.669 289.768a3.285 3.285 0 0 1 4.975 2.976 3.283 3.283 0 1 1-4.975-2.976"/><path fill="#fadaaf" d="M100.868 623.269a3.134 3.134 0 1 1 1.768 6.014 3.134 3.134 0 0 1-1.768-6.014"/><path fill="#f2cc96" d="M880.641 679.285c2.117 4.887-2.761 14.221-6.707 17.479-.182-.786-.262-1.223.404-1.869 4.547-4.413 3.742-10.54 6.303-15.61"/><path fill="#fadaaf" d="M449.281 196.757a2.875 2.875 0 1 1 2.546 5.157 2.875 2.875 0 0 1-2.546-5.157"/><path fill="#f2cc96" d="M550.833 543.798a2.866 2.866 0 1 1 1.718 5.472 2.866 2.866 0 0 1-1.718-5.472"/><path fill="#f2cc96" d="M142.988 679.708c2.614 1.776 2.189 9.443 4.858 12.399.754.836 2.518 3.51 3.065 4.553-5.451-1.716-7.897-11.853-7.923-16.952"/><path fill="#f2cc96" d="M500.796 466.704a2.797 2.797 0 0 1 4.012 2.94 2.797 2.797 0 0 1-5.352.632 2.8 2.8 0 0 1 1.34-3.572"/><path fill="#f2cc96" d="M940.007 689.208a2.78 2.78 0 0 1 2.749.536 2.77 2.77 0 1 1-4.464 2.947 2.77 2.77 0 0 1 1.715-3.483"/><path fill="#fadaaf" d="M526.663 353.33a2.747 2.747 0 1 1 2.589 4.846 2.747 2.747 0 0 1-2.589-4.846"/><path fill="#f2cc96" d="M182.317 366.763a2.68 2.68 0 0 1 2.854.191 2.682 2.682 0 0 1-.875 4.761 2.684 2.684 0 0 1-1.979-4.952"/><path fill="#f2cc96" d="M848.573 368.212a2.657 2.657 0 1 1 2.213 4.831 2.657 2.657 0 0 1-2.213-4.831"/><path fill="#fadaaf" d="M207.588 418.751c.431.841.794 1.794.727 2.742-.336 4.79 3.091 8.127 2.32 12.153-3.151-3.057-4.454-10.628-3.047-14.895"/><path fill="#fadaaf" d="M81.441 715.257a2.53 2.53 0 1 1 2.799 4.213 2.531 2.531 0 0 1-2.799-4.213"/><path fill="#fadaaf" d="M814.166 282.702a2.53 2.53 0 1 1 2.02 4.64 2.53 2.53 0 0 1-2.02-4.64"/><path fill="#f2cc96" d="M926.631 672.802a2.472 2.472 0 1 1 2.444 4.299 2.472 2.472 0 0 1-2.444-4.299"/><path fill="#f2cc96" d="M816.38 418.748c3.451 3.799.713 9.901-1.403 13.652-1.341.063-1.102-.782-.576-1.896 2.216-4.692 2.192-6.717 1.979-11.756"/><path fill="#f2cc96" d="M504.273 205.758a2.458 2.458 0 1 1 1.942 4.515 2.458 2.458 0 0 1-1.942-4.515"/><path fill="#f2cc96" d="M90.696 688.777a2.454 2.454 0 1 1 2.085 4.444 2.454 2.454 0 0 1-2.085-4.444"/><path fill="#f2cc96" d="M878.099 480.614a2.396 2.396 0 1 1 .81 4.724 2.396 2.396 0 0 1-.81-4.724"/><path fill="#fadaaf" d="M791.089 253.725a2.386 2.386 0 1 1 2.4 4.123 2.386 2.386 0 0 1-2.4-4.123"/><path fill="#f2cc96" d="M558.032 308.317a2.369 2.369 0 1 1 2.398 4.086 2.369 2.369 0 0 1-2.398-4.086"/><path fill="#f2cc96" d="M171.657 425.811a2.369 2.369 0 0 1 2.711 3.883 2.367 2.367 0 1 1-2.711-3.883"/><path fill="#f2cc96" d="M528.682 378.17a2.36 2.36 0 1 1 1.082 4.596 2.36 2.36 0 0 1-1.082-4.596"/><path fill="#fadaaf" d="M497.549 692.794a2.347 2.347 0 1 1 1.882 4.3 2.347 2.347 0 0 1-1.882-4.3"/><path fill="#f2cc96" d="M544.99 270.74a2.327 2.327 0 1 1 2.536 3.898 2.327 2.327 0 0 1-2.536-3.898"/><path fill="#f2cc96" d="M828.236 329.79a2.291 2.291 0 1 1 2.166 4.038 2.291 2.291 0 0 1-2.166-4.038"/><path fill="#f2cc96" d="M483.23 441.738a2.268 2.268 0 1 1 2.092 4.026 2.268 2.268 0 0 1-2.092-4.026"/><path fill="#f2cc96" d="M505.045 556.716a2.239 2.239 0 1 1 2.01 4.001 2.239 2.239 0 0 1-2.01-4.001"/><path fill="#f2cc96" d="M498.924 658.22a2.225 2.225 0 0 1 2.361 3.766 2.223 2.223 0 1 1-2.361-3.766"/><path fill="#f2cc96" d="M466.71 670.278a2.194 2.194 0 1 1 1.002 4.273 2.194 2.194 0 0 1-1.002-4.273"/><path fill="#f2cc96" d="M544.929 693.718a2.162 2.162 0 0 1 3.437 1.591 2.16 2.16 0 1 1-3.437-1.591"/><path fill="#f2cc96" d="M531.074 466.291a2.132 2.132 0 0 1 3.142 2.189 2.132 2.132 0 0 1-4.069.52 2.133 2.133 0 0 1 .927-2.709"/><path fill="#f2cc96" d="M849.562 394.313a2.13 2.13 0 1 1 2.757 3.25 2.13 2.13 0 0 1-2.757-3.25"/><path fill="#f2cc96" d="M556.87 247.714a2.129 2.129 0 1 1 2.073 3.719 2.129 2.129 0 0 1-2.073-3.719"/><path fill="#f2cc96" d="M907.93 525.639a2.113 2.113 0 0 1 1.898 3.768 2.11 2.11 0 0 1-3.147-1.992 2.11 2.11 0 0 1 1.249-1.776"/><path fill="#fadaaf" d="M500.384 513.7a2.107 2.107 0 1 1 2.25 3.562 2.107 2.107 0 0 1-2.25-3.562"/><path fill="#fadaaf" d="M812.163 419.355c2.858 2.161 1.553 5.912.518 8.79-.249.055-.745.222-1.045.147-.206-.326.443-8.103.527-8.937"/><path fill="#d9b786" d="M319.322 285.929c.572.683.483.716.056 1.768-1.313 3.236-1.589 6.887-2.168 10.339-2.195-1.494.316-9.465 1.568-11.255z"/><path fill="#f2cc96" d="M925.946 623.273a2.099 2.099 0 1 1 2.06 3.657 2.099 2.099 0 0 1-2.06-3.657"/><path fill="#f2cc96" d="M212.051 419.311c.656.751 1.797 8.705 1.516 9.526-2.966-3.254-3.142-5.53-1.516-9.526"/><path fill="#f2cc96" d="M706.555 286.891c2.813 2.4 3.409 8.459 3.354 11.9-1.18-.593-1.317-.363-1.378-1.771-.147-3.405-1.042-6.861-1.976-10.129"/><path fill="#fadaaf" d="M494.573 415.769a2.082 2.082 0 1 1 2.81 3.074 2.082 2.082 0 0 1-2.81-3.074"/><path fill="#f2cc96" d="M452.272 334.301a2.075 2.075 0 0 1 1.952 3.663 2.076 2.076 0 1 1-1.952-3.663"/><path fill="#f2cc96" d="M477.675 766.726a2.06 2.06 0 1 1 2.404 3.348 2.06 2.06 0 0 1-2.404-3.348"/><path fill="#fadaaf" d="M424.425 219.213a2.055 2.055 0 0 1 3.28 1.687 2.053 2.053 0 1 1-3.28-1.687"/><path fill="#f2cc96" d="M97.1 573.784a2.052 2.052 0 1 1 1.56 3.797 2.052 2.052 0 0 1-1.56-3.797"/><path fill="#d9b786" d="M873.741 685.361c.504 2.424-2.894 8.067-4.232 10.299-1.189-2.98 2.518-7.637 4.232-10.299"/><path fill="#f2cc96" d="M512.604 629.235a2.022 2.022 0 1 1 1.764 3.64 2.022 2.022 0 0 1-1.764-3.64"/><path fill="#f2cc96" d="M498.649 407.289a2.025 2.025 0 1 1 2.344 3.302 2.025 2.025 0 0 1-2.344-3.302"/><path fill="#f2cc96" d="M312.111 289.284c.882 2.178-.901 8.275-1.476 10.812-1.178-3.15-.376-8.068 1.476-10.812"/><path fill="#f2cc96" d="M234.117 257.238a2.01 2.01 0 1 1 .454 3.996 2.01 2.01 0 0 1-.454-3.996"/><path fill="#f2cc96" d="M576.984 218.299a2.005 2.005 0 0 1 3.202 1.51 2.004 2.004 0 1 1-3.202-1.51"/><path fill="#f2cc96" d="M137.363 495.727a1.948 1.948 0 1 1 2.558 2.938 1.948 1.948 0 0 1-2.558-2.938"/><path fill="#fadaaf" d="M538.477 616.69a1.925 1.925 0 1 1 1.751 3.429 1.925 1.925 0 0 1-1.751-3.429"/><path fill="#d9b786" d="M150.303 686.334c1.138.907 4.804 7.274 5.236 8.668-2.983-.689-4.825-5.878-5.236-8.668"/><path fill="#a38a6b" d="M746.66 259.255c-1.238-.116-10.413-1.923-10.299-2.933l.274-.032c.865.483 9.588 1.631 11.188 1.944z"/><path fill="#f2cc96" d="M714.152 290.319c2.541 1.88 2.06 6.571 1.88 9.42-1.537-1.157-1.22-4.149-1.492-6.244z"/><path fill="#a38a6b" d="M283.779 257.244c1.379-.439 7.238-1.782 8.44-1.439l-.035-.005.104.162c-1.918 1.131-6.908 2.036-9.345 2.797z"/><path fill="#d9b786" d="m792.893 599.206.736.175c2.113.462 4.179 1.186 6.241 1.834-3.352-.204-6.686-.458-10.009-.984 1.544-.343 1.658-.297 3.032-1.025"/><path fill="#d9b786" d="M234.092 359.754c-.681 2.771-1.521 5.121-2.18 7.901l-1.169-1.256c.624-1.715 1.228-2.825 2.116-4.401q.624-1.119 1.233-2.244"/><path fill="#a38a6b" d="M723.369 253.143c2.935.395 5.014 1.107 7.851 1.986-2.157-.119-6.238-.275-8.308-.86z"/><path fill="#d9b786" d="M693.14 718.738c.784.026 1.476.373 2.254.468 1.128.737 2.145 1.402 3.239 2.191l-1.528.718c-.94-.782-3.3-2.613-3.965-3.377"/><path fill="#d9b786" d="M161.8 556.749c-1.444 2.157-3.18 4.688-4.767 6.758l-.956-.884c2.059-2.692 3.23-3.596 5.723-5.874"/><path fill="#d9b786" d="M678.679 259.238c2.124 1.426 1.449 3.184.956 5.568-1.745-1.355-.67-2.928-.956-5.568"/><path fill="#a38a6b" d="M233.498 600.196c-.664.11-5.454.82-5.819.694-1.906-.659 2.955-1.472 3.038-1.486l.888-.163z"/><path fill="#d9b786" d="M346.088 259.775c1.614 1.293.882 3.036.484 4.963-1.775-1.493-1.06-2.78-.484-4.963"/><path fill="#a38a6b" d="M302.723 254.228c-1.048.209-3.329.708-4.358.734l.051-.026s-.929-.004-.645-.396c.23-.288.616-.401.955-.501 1.329-.394 2.7-.567 4.047-.879z"/><path fill="#d9b786" d="M843.085 496.18q1.014 1.175 1.991 2.38c.931 1.164 1.618 1.993 2.465 3.235l-.576 1.238c-1.572-2.253-2.64-4.42-3.88-6.853"/><path fill="#d9b786" d="M177.163 501.957c1.077-1.616 2.573-2.916 3.92-4.301l-.297.527c-1.039 1.869-1.691 3.21-3.014 4.993z"/><path fill="#a38a6b" d="M159.316 704.919c-1.254.048-4.545.36-5.519-.319-.068-.138-.073-.112-.037-.248.399-.379 1.687-.385 2.187-.424 1.167.318 2.217.621 3.369.991"/><path fill="#d9b786" d="M866.633 703.377c2.753-.81 5.93.795 1.279 1.084-.43-.376-.821-.734-1.279-1.084"/><path fill="#a38a6b" d="M329.622 460.648c.536-.478 1.453-1.396 2.292-1.469.228-.02.443.202.352.435-.385.987-1.492 1.799-2.229 2.472z"/><path fill="#d9b786" d="M865.54 560.945c-.371-.441-2.622-2.671-2.074-3.168.786.022 2.697 2.091 3.253 2.643z"/><path fill="#a38a6b" d="M694.545 461.041c-.382-.316-2.949-2.253-2.759-2.829.619-.357 1.855.691 2.316 1.019l.823.567z"/><path fill="#d9b786" d="M777.807 346.155c.644.195 1.963.413 2.34 1.08-.017.757-3.14.167-3.52.075z"/><path fill="#f2cc96" d="m259.152 273.101.438-.794c1.777-3.304 2.002-2.046 1.643.899z"/><path fill="#d9b786" d="M886.847 718.736c-.331-.467-1.8-2.301-1.461-2.855.738-.204 1.956 1.545 2.405 2.059z"/><path fill="#d9b786" d="M249.22 347.229c-.346.05-4.049.747-3.884-.105.549-.525 1.068-.648 1.803-.877z"/><path fill="#d9b786" d="M302.1 408.785c-.449.071-2.873.585-3.214-.023.274-.572 1.653-1.036 2.157-1.27z"/><path fill="#a38a6b" d="M792.811 364.774c-.126-.552-1.091-3.26-.588-3.497.452.14 1.163 1.61 1.373 1.983z"/><path fill="#a38a6b" d="M708.243 705.454c.301.017 2.349.017 2.329.642-.214.344-.792.259-1.132.289-.226-.163-.945-.627-1.197-.931"/><path fill="#604d35" d="M603.788 290.603c.396-.325.741-.623 1.167-.918.094.261.169.88.208 1.137-.082.323-.345.825-.484 1.118-.516-.624-.61-.649-.891-1.337"/><path fill="#f9dfae" d="M420.296 318.529c.452-.254.815-.466 1.285-.689l.632.758-1.583.924z"/></svg>