<svg xmlns="http://www.w3.org/2000/svg" width="1024" height="1024" viewBox="0 0 1024 1024"><path fill="#272220" d="M0 0h1024v1024H0z"/><path d="M475.133 295.587c-.029-15.986 1.317-32.089 13.216-44.106a37.3 37.3 0 0 1 26.652-11.065c9.852-.039 19.118 3.379 26.117 10.382 13.373 13.379 13.131 32.927 13.411 50.447-.221 2.837-.494 5.695-.682 8.525-.716 4.246-2.332 10.163-4.119 14.073-.224.553-.479 1.395-.962 1.774l-.425-.217c-1.903 4.629-4.595 9.053-7.339 13.233 1.638-.155 1.917-.179 3.559-.02 6.434 2.24 14.791 4.851 18.556 11.096 3.421 5.673-6.363 13.354-6.706 16.176 2.29.554 14.052 6.137 12.115 8.853 1.769.529 15.192 10.491 16.474 13.498 2.388 5.596 3.481 12.19 4.729 18.196l6.876 31.815c1.786 8.41 3.95 22.229 7.304 29.691.816 1.817 9.614 12.197 11.787 15.143.328 4.643.069 8.971.29 13.494l5.922-.14 12.158 15.013c1.811 2.218 6.552 7.049 6.397 9.634.21 5.603-.701 10.097-.805 15.595 3.48 5.734 22.979 28.874 23.159 32.642 1.911 4.043 3.067 21.081 1.226 24.887l-.813.288c-2.771-1.959-4.479-10.15-5.4-13.576-3.023 2.321-1.749-.769-2.329 4.597.013 1.557.22 10.109-.101 10.487-3.295 3.876-4.074-9.467-4.928-10.501-.423-.513-.392-4.413-.859-4.909l-.243.085c-.529 1.196 1.054 15.828-.779 16.576a.45.45 0 0 1-.447-.062c-2.594-1.987-3.762-19.183-4.273-22.826l-1.259-.222c-1.118 4.568-2.324 10.106-3.759 14.508-1.675-4.555-3.25-9.529-4.562-13.963-2.892-9.773-8.476-13.251-3.52-23.544 2.219-4.61 6.955-18.383 7.117-23.083l-.545.083c-2.106 2.942-2.83 8.032-3.908 11.585-7.231 23.846-19.072 43.43-35.494 62.022-4.977-4.855-24.396-24.977-28.103-26.888.745 16.907.757 33.189.787 50.088.006 3.853.755 8.299 1.01 12.15.758 3.449 1.487 10.995 2.038 14.938l4.71 33.165a1894 1894 0 0 1 7.762 59.198c.7 5.615 3.232 21.977 3.364 26.521l-.878.004c-24.277 3.089-43.857 2.765-67.206-6.435 1.713 6.222 3.38 11.824 5.867 17.841 4.152 1.446 7.147 2.689 10.974 4.94-2.576 1.048-5.026 2.083-7.673 2.951 2.186 5.164 4.537 8.682 6.836 13.414 5.672 2.39 12.797 3.962 18.88 5.498-2.933 1.781-3.969 2.475-7.219 3.631-1.758.99-3.036 1.472-4.48 2.825 10.319 15.214 20.145 27.485 33.741 40.053 2.257 2.211 4.047 4.035 6.569 5.95-19.125 9.822-36.748 14.648-58.054 16.735-30.594 2.998-57.887-1.592-83.45-19.548-4.936-3.467-9.414-7.38-14.077-11.215-3.147-3.443-9.547-9.023-13.225-12.609 13.175-50.205 20.939-103.642 26.619-155.157 2.739-24.842 4.693-49.932 7.292-74.807-3.172 1.253-24.966 21.111-29.84 22.737l-.21-.372c-.584.055-1.408.027-2.015.028-.245-.249-.743-.727-.942-1.085-6.67-12.02-14.805-24.75-20.334-37.2-.612-1.378.452-9.226.655-10.925.989-1.126 1.062-.861 1.382-2.112l-1.34.109-.785-.632-.039-.984c-.119-3.544-4.141-11.886-7.077-13.854l-1.21.432c-1.798-1.872-3.706-6.536-5.933-6.279l-1.144 2.134-1.664-.132-.409.693c-1.273-4.48-3.168-8.956-4.333-13.513-.296-.813-1.456-4.245-1.174-4.839 2.397-5.047 9.221-10.589 12.55-15.127 5.519-7.52 8.273-16.018 13.653-23.226 1.681-2.252 8.532-5.764 11.236-7.27l-.77-.685-.286-.058c-1.107-1.112-.812-1.236-1.2-3.063l-1.596-6.766c2.933-3.196 5.498-6.316 7.412-10.242 8.583-17.616 14.951-77.08 24.622-86.371 2.065-1.983 12.648-8.699 15.138-8.64l.619-.38c-.155-.375-.721-1.658-.459-1.889 2.205-1.954 14.74-9.63 16.796-10.647l.194-.496c-9.272-9.119-11.415-16.067.743-22.533 5.803-3.087 9.174-4.695 15.543-6.798-.563-1.734-.27-1.599-1.472-2.692-1.389-.476-2.685-3.043-3.567-4.42-5.41-.716-13.854-22.072-12.165-27.378.984-3.093 2.158-3.579 4.529-4.932"/><path fill="#f6cd91" d="m458.121 542.001 1.182.38c-1.71 12.279-1.976 24.939-2.389 37.366-1.909 57.527 5.617 115.058 14.011 171.853.51 3.447 1.186 6.929 1.606 10.369l-.832.408c-8.186-26.796-16.023-61.673-18.079-89.602-.356 1.11-.678 1.923-1.11 2.997-2.595 55.442-1.975 109.161 6.096 164.263l-.958.851a844 844 0 0 1-10.513-47.391c-2.07-10.746-3.769-22.829-6.18-33.304-2.515 29.469-4.818 58.42-11.616 87.376-3.147-3.443-9.547-9.023-13.225-12.609 13.175-50.205 20.939-103.642 26.619-155.157 2.739-24.842 4.693-49.932 7.292-74.807.334-2.353.581-4.98.774-7.364 1.519-18.758 4.287-37.063 7.322-55.629"/><path fill="#51433a" d="M452.51 675.772c.001-.624-.179-5.633.771-5.539.338.334.312 2.108.339 2.542-.356 1.11-.678 1.923-1.11 2.997"/><path fill="#f6cd91" d="M475.133 295.587c-.029-15.986 1.317-32.089 13.216-44.106a37.3 37.3 0 0 1 26.652-11.065c9.852-.039 19.118 3.379 26.117 10.382 13.373 13.379 13.131 32.927 13.411 50.447-.221 2.837-.494 5.695-.682 8.525l-1.041-.042c1.021-8.814 1.456-17.069-.762-25.764-3.999-15.676-15.327-29.451-32.195-31.304a30.03 30.03 0 0 0-22.637 6.641c-19.621 15.9-19.437 51.346-10.876 73.016-1.389-.476-2.685-3.043-3.567-4.42-5.41-.716-13.854-22.072-12.165-27.378.984-3.093 2.158-3.579 4.529-4.932"/><path d="M475.133 295.587c.979 15.008 2.452 18.605 7.636 32.31-5.41-.716-13.854-22.072-12.165-27.378.984-3.093 2.158-3.579 4.529-4.932"/><path fill="#f6cd91" d="M454.991 377.372c1.451 1.439 7.113 8.226 8.263 9.926l-.24 1.035.471.934c-3.069 3.652-16.743 5.4-21.406 5.131 3.042 2.035 7.345 5.105 10.422 6.86l-.335 1.702c-1.555 1.602-2.676 4.573-3.697 6.62-9.227 18.488-18.914 36.501-26.786 55.65 7.186-5.789 15.67-13.327 23.099-18.255-7.465 11.477-15.344 21.937-26.113 30.585-4.357 3.499-7.847 4.427-7.633 10.423-.229 1.565-.45 3.382-.754 4.909l-.286-.058c-1.107-1.112-.812-1.236-1.2-3.063l-1.596-6.766c2.933-3.196 5.498-6.316 7.412-10.242 8.583-17.616 14.951-77.08 24.622-86.371 2.065-1.983 12.648-8.699 15.138-8.64z"/><path fill="#7c6248" d="M454.991 377.372c1.451 1.439 7.113 8.226 8.263 9.926l-.24 1.035c-2.452-2.578-6.471-7.635-8.642-10.581z"/><path fill="#f6cd91" d="M568.526 374.738c1.769.529 15.192 10.491 16.474 13.498 2.388 5.596 3.481 12.19 4.729 18.196l6.876 31.815c1.786 8.41 3.95 22.229 7.304 29.691.816 1.817 9.614 12.197 11.787 15.143.328 4.643.069 8.971.29 13.494l5.922-.14 12.158 15.013c1.811 2.218 6.552 7.049 6.397 9.634l-1.305.188c-1.627-2.163-5.61-6.242-7.554-8.394a791 791 0 0 1-11.9-13.643c-2.166.2-4.674.648-6.853.98.25-4.934.817-10.398 1.224-15.362-16.327-15.064-13.632-25.133-19.548-43.852l-1.533-.004c.004 8.666-.316 15.765-.59 24.304-1.934-2.608-.541-1.668-1.342-4.125-.175-8.827-.461-27.106-2.278-35.311-1.291-5.832-7.522-19.218-9.335-25.83-1.474-2.09-.152-6.432-.947-8.253-2.095-4.795-11.991-8.199-11.815-13.899.859-1.886.507-1.577 1.839-3.143"/><path fill="#51433a" d="m592.442 435.388.541-.059c.457 1.3.532 2.122.948 3.335l-1.139.405c-.306-1.369-.286-2.269-.35-3.681"/><path fill="#16110c" d="m592.792 439.069 1.139-.405.596 2.335-1.533-.004z"/><path fill="#a5895f" d="M592.442 435.388c-.199-.588-.439-1.006-.223-1.582l.097-.079c.607.075.603 1.212.667 1.602z"/><path fill="#f1c488" d="m564.352 524.915 1.193 1.048c.259 5.65 1.441 13.268 1.995 19.168.933 9.94 1.408 19.854 2.298 29.732.745 16.907.757 33.189.787 50.088.006 3.853.755 8.299 1.01 12.15.758 3.449 1.487 10.995 2.038 14.938l4.71 33.165a1894 1894 0 0 1 7.762 59.198c.7 5.615 3.232 21.977 3.364 26.521l-.878.004c.015-2.66-1.306-9.391-1.777-12.418-1.325-8.504-2.792-16.998-4.046-25.52a2482 2482 0 0 1-11.255-85.917l-1.809 1.64c-.243 16.322-.844 31.12-2.345 47.462-.355 3.867-2.153 17.33-2.007 19.837a86 86 0 0 0-.394-3.325l.2-2.726c-.066-.758-.149-.766.252-1.277.09-2.982.4-6.264.647-9.262 2.137-25.944 2.403-51.717 2.487-77.717-.449-5.518-.051-13.567-.386-19.54-1.357-24.202-.543-53.393-3.846-77.249"/><path fill="#2a120f" d="M569.744 648.712c.155-4.087.305-6.683.988-10.645.281 3.032.65 5.967.821 9.005z"/><path fill="#51433a" d="M565.45 708.683c.206.745.213.695-.252 1.277-.066-.758-.149-.766.252-1.277"/><defs><linearGradient id="a" x1="395.724" x2="403.85" y1="586.654" y2="582.552" gradientUnits="userSpaceOnUse"><stop offset="0"/><stop offset="1" stop-color="#252321"/></linearGradient></defs><path fill="url(#a)" d="M376.696 542.259c15.767 5.249 36.814 61.205 41.113 77.732.609 2.342 1.367 5.031 2.166 7.368-.584.055-1.408.027-2.015.028-.245-.249-.743-.727-.942-1.085-6.67-12.02-14.805-24.75-20.334-37.2-.612-1.378.452-9.226.655-10.925.989-1.126 1.062-.861 1.382-2.112l-1.34.109-.785-.632-.039-.984c-.119-3.544-4.141-11.886-7.077-13.854l-1.21.432c-1.798-1.872-3.706-6.536-5.933-6.279l-1.144 2.134-1.664-.132-.409.693c-1.273-4.48-3.168-8.956-4.333-13.513.898-.184.985-.358 1.827-.939z"/><path fill="#f1c488" d="M376.614 543.1c1.267 3.471 1.225 8.844 2.915 13.759l-.409.693c-1.273-4.48-3.168-8.956-4.333-13.513.898-.184.985-.358 1.827-.939"/><path fill="#f6cd91" d="M418.271 490.442c4.151 3.317 6.829 5.666 10.487 9.55-3.791-1.055-7.52-2.136-11.374-2.948-7.29 6.796-21.069 17.457-26.33 24.476 9.17 6.24 11.048 6.869 18.438 15.285l-.742 1.4c-3.452-3.602-6.392-6.304-10.077-9.615-5.213 3.15-19.049 10.376-22.256 12.707.164.852-.002.562.279.962l-.082.841c-.842.581-.929.755-1.827.939-.296-.813-1.456-4.245-1.174-4.839 2.397-5.047 9.221-10.589 12.55-15.127 5.519-7.52 8.273-16.018 13.653-23.226 1.681-2.252 8.532-5.764 11.236-7.27z"/><path fill="#f6cd91" d="M471.522 364.34c-9.272-9.119-11.415-16.067.743-22.533 5.803-3.087 9.174-4.695 15.543-6.798.847 1.403 1.777 2.745 2.651 4.131-6.94 2.686-21.903 7.573-17.248 16.683 6.166 12.068 13.608 18.019 24.13 25.763-7.126-2.818-13.001-6.661-18.985-11.431l-.972.074c-2.353-1.818-3.982-3.247-6.056-5.393z"/><path fill="#a5895f" d="M471.522 364.34c2.028 1.668 4.935 3.99 6.834 5.815l-.972.074c-2.353-1.818-3.982-3.247-6.056-5.393z"/><path fill="#f6cd91" d="M454.991 377.372c-.155-.375-.721-1.658-.459-1.889 2.205-1.954 14.74-9.63 16.796-10.647 2.074 2.146 3.703 3.575 6.056 5.393-3.365 4.162-7.883 8.571-11.706 12.335 5.816 8.008 9.441 12.508 17.586 18.687l.186 1.821c-6.685-3.771-14.876-10.28-20.196-15.774-1.15-1.7-6.812-8.487-8.263-9.926"/><path d="M643.871 574.365c.536-10.191-1.016-11.542 9.565-4.088 3.583 2.524 1.418 10.924 2.065 15.238.013 1.557.22 10.109-.101 10.487-3.295 3.876-4.074-9.467-4.928-10.501-.423-.513-.392-4.413-.859-4.909l-.243.085c-.529 1.196 1.054 15.828-.779 16.576a.45.45 0 0 1-.447-.062c-2.594-1.987-3.762-19.183-4.273-22.826"/><path fill="#f6cd91" d="M544.561 338.613c6.434 2.24 14.791 4.851 18.556 11.096 3.421 5.673-6.363 13.354-6.706 16.176l-1.197.11-.421-1.18c1.378-2.181 3.131-5.011 4.203-7.318 3.891-8.372-8.489-14.951-14.574-17.232l-.819-.321z"/><defs><linearGradient id="b" x1="553.655" x2="562.529" y1="383.15" y2="369.678" gradientUnits="userSpaceOnUse"><stop offset="0" stop-color="#e0ac6d"/><stop offset="1" stop-color="#ffda9c"/></linearGradient></defs><path fill="url(#b)" d="M556.411 365.885c2.29.554 14.052 6.137 12.115 8.853-1.332 1.566-.98 1.257-1.839 3.143-3.466 5.492-5.421 8.505-10.047 13.117 2.684-5.52 5.258-9.63 8.087-14.906-4.09-3.375-7.214-4.744-10.981-7.746.867-.939 1.047-1.14 1.468-2.351z"/><path fill="#bda279" d="m639.158 521.27 1.305-.188c.21 5.603-.701 10.097-.805 15.595 3.48 5.734 22.979 28.874 23.159 32.642-7.232-10.207-18.694-22.51-24.341-32.265-.089-4.381.225-11.385.682-15.784"/><path fill="#16110c" d="M642.612 574.143c.124-2.48.377-4.952.757-7.406.184-1.138.085-3.573.765-4.515.644-.284 10.88 7.801 12.311 9.135.216 3.069.574 6.601 1.385 9.561-3.023 2.321-1.749-.769-2.329 4.597-.647-4.314 1.518-12.714-2.065-15.238-10.581-7.454-9.029-6.103-9.565 4.088z"/><path fill="#7c6248" d="M591.062 461.174c.801 2.457-.592 1.517 1.342 4.125.156 1.062.152 2.127.041 3.197a140 140 0 0 0-.679 10.513c-.052 2.488-.489 4.901-.519 7.729-.898-.1-.507-5.846-.432-6.427.762-5.923-.593-13.341.247-19.137"/><path fill="#bda279" d="M543.632 376.033c2.855-2.308 8.707-8.394 11.161-11.218l.421 1.18c-.421 1.211-.601 1.412-1.468 2.351-2.307 2.323-5.098 5.005-7.669 7.001-.269.309-.416.384-.74.626l-.778.581z"/><path fill="#51433a" d="M565.392 716.011c.131 1.112-2.149 16.612-2.303 16.787-.957-.379 1.352-18.157 1.909-20.112q.23 1.659.394 3.325"/><path fill="#967a56" d="m552.806 309.728 1.041.042c-.716 4.246-2.332 10.163-4.119 14.073-.224.553-.479 1.395-.962 1.774l-.425-.217c2.143-5.771 3.027-9.935 4.465-15.672"/><path fill="#7c6248" d="m458.121 542.001.31-2.751c.053-.441 2.477-12.759 2.487-12.782.292-.203.192-.181.335-.181.013 3.251-1.224 12.678-1.95 16.094z"/><path fill="#272220" d="M563.906 519.963c-1.83-4.356.297-2.848-2.599-2.076l-.138-.069c-.118-.685.639-.884.964-1.223 2.374-2.48 2.253-2.785 2.393-5.367 1.798-.743.159 1.171 1.045-1.502l.129-.039c2.039 2.595-3.252 5.85-1.36 8.333.287.377.245 1.617.248 1.933z"/><path fill="#272220" d="M544.61 815.592c-4.439-3.991 2.246-3.72 4.48-2.825-1.758.99-3.036 1.472-4.48 2.825"/><path fill="#bda279" d="M409.492 536.805c2.201 2.712 3.38 4.547 5.153 7.489a141 141 0 0 1-5.895-6.089z"/><path fill="#a5895f" d="M458.606 840.035c.399 1.683.751 4.299.956 6.047l-.853-.112c-.358-1.782-.757-3.248-1.061-5.084z"/><path fill="#bda279" d="M452.501 401.258c2.061 1.213 3.704 2.51 5.642 3.904l-5.977-2.202z"/><path fill="#bda279" d="m483.264 401.251 4.26 3.239-1.028.56a39 39 0 0 1-3.046-1.978z"/><path fill="#967a56" d="m471.699 762.377.832-.408c.462 1.569.833 3.169 1.219 4.759l-.734 1.11c-.407-1.293-.927-3.156-1.144-4.479z"/><path fill="#7c6248" d="M487.524 404.49c.598.414 3.539 2.567 3.598 3.204-.566.682-4.192-2.305-4.626-2.644z"/><path fill="#7c6248" d="m563.906 519.963.682-.01c.402 1.904.668 4.059.957 6.01l-1.193-1.048c-.376-2.023-.357-2.892-.446-4.952"/><path fill="#272220" d="M543.064 378.158c-.564.412-3.551 3.003-3.909 1.945l.076.084c.233-1.147 1.723-2.071 2.691-2.684z"/><path fill="#51433a" d="M473.75 766.728c.182.883.983 4.255.498 5.015l-.159.022-.398-.821.096.313c-.373-1.102-.521-2.285-.771-3.419z"/><path fill="#51433a" d="m458.709 845.97.853.112c.326 1.316.495 2.073.509 3.456l-.37.448.251.181-.123.103-.076-.009c-.802-.66-.902-3.354-1.044-4.291"/><path fill="#bda279" d="M541.002 338.633c1.638-.155 1.917-.179 3.559-.02l-.958 1.331c-1.348-.452-1.546-.439-2.601-1.311"/><path fill="#7c6248" d="m543.632 376.033.927.521c-.717.632-.896.877-1.495 1.604l-1.142-.655c.802-.584.994-.766 1.71-1.47"/><path fill="#16110c" d="M466.683 425.861c1.176 5.328-1.861 35.378-3.355 42.153-.976 4.428-2.915 10.794-4.474 15.322 1.71 3.379 3.569 7.006 5.862 10.02 6.519 8.569 42.65 17.338 54.379 19.585 6.996 1.34 14.036 2.023 21.069 3.084-12.748.922-17.542.502-30.042-1.703-16.716-3.326-29.456-7.922-44.64-15.533-2.479 3.808-3.348 6.082-4.543 10.34 1.907 2.849 3.991 4.213 5.883 7.614-2.33-1.191-6.379-5.411-7.19-8.064-1.152-3.763 1.973-8.57 3.758-12.115-7.766-11.387-7.746-11.41-3.004-24.389 3.502-9.587 3.555-23.222 4.588-33.332.398-3.899.493-9.375 1.709-12.982"/><path fill="#16110c" d="M610.173 486.38c2.47 2.334.806 3.485.343 6.014-1.904 10.374-7.293 18.05-11.323 27.27l-.51.018c-.006-.016 10.364-30.582 11.49-33.302"/><path fill="#272220" d="M492.29 344.691c2.7 4.315-.663 17.794-2.206 22.579-.136-.28-.647-1.112-.504-1.473 2.559-6.445 2.544-14.241 2.71-21.106"/><path fill="#16110c" d="M540.39 508.321c.198-.169.604-.68.983-.572l.028.074c-.203.352-.894.266-1.152.284-.452.306-.577.469-1.021.584.424-.214.611-.255 1.162-.37"/><path fill="#f6cd91" d="M726.064 670.406c1.233 2.234 2.241 4.297 3.369 6.57 5.284 10.196 10.596 20.073 17.151 29.534 23.043 29.04 54.577 47.429 91.385 52.281 1.597.211 2.895.284 4.509.247l.687 2.184c-6.606 2.435-13.102 5.362-19.759 7.595a160.4 160.4 0 0 1-57.425 8.132c-7.161-.262-15.76-2.061-21.346-2.224-2.901.449-4.698-.47-6.152-.357-3.985.311 2.563 1.817 2.682 1.845 1.966 2.672 4.679 7.598 6.456 9.835 3.383 4.259 2.739 8.171-1.388 3.615.303-.924.356-.879.133-1.778-3.306-2.064-5.22-3.294-8.941-4.673 1.928 29.338-8.315 52.074-27.182 73.977-39.988 46.424-81.478 40.261-125.323 4.406-2.522-1.915-4.312-3.739-6.569-5.95-13.596-12.568-23.422-24.839-33.741-40.053 1.444-1.353 2.722-1.835 4.48-2.825 3.25-1.156 4.286-1.85 7.219-3.631-6.083-1.536-13.208-3.108-18.88-5.498-2.299-4.732-4.65-8.25-6.836-13.414 2.647-.868 5.097-1.903 7.673-2.951-3.827-2.251-6.822-3.494-10.974-4.94-2.487-6.017-4.154-11.619-5.867-17.841 23.349 9.2 42.929 9.524 67.206 6.435l.878-.004c3.414-1.128 7.895-1.746 11.489-2.539 46.061-10.164 88.039-36.631 114.769-76.038 2.613 1.701 8.997 6.837 11.766 7.217-2.164-3.189-6.618-8.005-9.288-11.12 3.786-6.192 5.261-11.309 7.819-18.037"/><path fill="#bda279" d="M746.584 706.51c23.043 29.04 54.577 47.429 91.385 52.281 1.597.211 2.895.284 4.509.247l.687 2.184c-6.606 2.435-13.102 5.362-19.759 7.595a160.4 160.4 0 0 1-57.425 8.132c-7.161-.262-15.76-2.061-21.346-2.224-2.901.449-4.698-.47-6.152-.357-3.985.311 2.563 1.817 2.682 1.845 1.966 2.672 4.679 7.598 6.456 9.835 3.383 4.259 2.739 8.171-1.388 3.615.303-.924.356-.879.133-1.778-3.306-2.064-5.22-3.294-8.941-4.673 1.928 29.338-8.315 52.074-27.182 73.977-39.988 46.424-81.478 40.261-125.323 4.406-2.522-1.915-4.312-3.739-6.569-5.95 25.008-2.124 42.441-5.864 64.67-18.271 39.946-22.295 72.552-62.935 92.345-103.694 3.969-8.172 8.77-18.498 11.218-27.17"/><path fill="#16110c" d="M746.366 787.885c-2.125-3.922-5.537-8.567-8.696-11.699-.421-.495-1.249-1.469-1.105-2.189.299-1.489 2.842-.294 3.953-.08l4.117.808c-2.901.449-4.698-.47-6.152-.357-3.985.311 2.563 1.817 2.682 1.845 1.966 2.672 4.679 7.598 6.456 9.835 3.383 4.259 2.739 8.171-1.388 3.615.303-.924.356-.879.133-1.778"/><path fill="#fee5b0" d="M726.064 670.406c1.233 2.234 2.241 4.297 3.369 6.57-4.845 8.64-2.192 13.098-.025 21.978-.516.194-.788.291-1.307.439l-.568.17c-2.164-3.189-6.618-8.005-9.288-11.12 3.786-6.192 5.261-11.309 7.819-18.037"/><path fill="#fee5b0" d="M729.408 698.954c1.857 4.703 1.017 5.096-1.307.439.519-.148.791-.245 1.307-.439"/><path fill="#f6cd91" d="M208.46 225.626c20.507 12.694 42.574 27.979 62.355 41.738 18.531 11.691 30.543 20.783 50.874 29.706-3.951.72-8.882 1.369-12.656 2.176 3.417 1.652 7.032 3.494 10.559 4.83q-11.617.111-23.23-.213c-1.698.317-3.081.038-4.957.368 2.743 1.523 6.817 3.702 9.827 4.576 3.091 1.456 3.13 1.242-.605 3.101-34.956 21.261-55.092 64.051-65.959 102.153-.19.987-.713 2.612-1.005 3.634-4.051-1.956-9.023-3.909-13.222-5.68a156 156 0 0 0 11.258 14.765c-.282 4.59-.696 7.964-1.427 12.5l-4.921-2.861c1.445 3.008 2.687 4.875 4.502 7.669-.602 8.635-.463 17.465-.343 26.11-19.399-27.547-42.855-49.409-70.303-68.719a900 900 0 0 0-36.427-21.419c-9.516-5.302-20.648-10.331-28.902-17.237-8.094-6.773-5.42-17.677 1.239-24.407l-1.628-.73c4.522-4.255 7.144-4.574 12.935-5.309 9.791.895 14.942 3.313 18.751 12.547.986.441 1.036.592 2.095.46 17.269-51.905 36.821-85.639 81.19-119.758"/><path fill="#bda279" d="M208.46 225.626c20.507 12.694 42.574 27.979 62.355 41.738-3.554.272-7.13.54-10.658.853-64.216 5.685-106.148 68.707-101.593 130.227.085 1.149.315 1.951.643 3.035a900 900 0 0 0-36.427-21.419c-9.516-5.302-20.648-10.331-28.902-17.237-8.094-6.773-5.42-17.677 1.239-24.407l-1.628-.73c4.522-4.255 7.144-4.574 12.935-5.309 9.791.895 14.942 3.313 18.751 12.547.986.441 1.036.592 2.095.46 17.269-51.905 36.821-85.639 81.19-119.758"/><path fill="#16110c" d="M106.424 332.377c9.791.895 14.942 3.313 18.751 12.547.986.441 1.036.592 2.095.46-1.894 4.855-2.704 9.775-6.066 13.945-9.98 12.38-37.164-1.636-24.913-15.791 4.094-5.191 16.886-6.282 20.984-1.131 6.848 8.608-2.502 16.42-11.528 15.287-6.557-.824-8.584-6.611-4.099-10.756 1.729-1.598 8.225-2.326 9.715.377.971 1.744.402 4.067-1.586 4.783-1.438.518-3.012.706-4.141-.774-.493-.903 2.654-.77 3.265-1.021.767-.102 2.057-1.807 1.008-2.308-9.013-4.546-13.854 9.944-.383 7.765 7.712-1.248 12.467-9.936 3.701-13.694-3.166-1.357-7.614-1.925-10.927-.422-11.596 5.26-8.206 16.065 2.471 19.742 3.878 1.327 8.009 1.115 11.612-.687 4.667-2.333 5.935-6.285 7.49-10.915-2.211-9.136-3.693-13.355-14.377-15.162-5.462-.923-9.91.496-14.38 3.794l-1.627-.73c4.522-4.255 7.144-4.574 12.935-5.309"/><path fill="#fee5b0" d="M297.834 310.454q1.411.698 2.793 1.454c-34.956 21.261-55.092 64.051-65.959 102.153l-1.247-1.132c-1.875-8.15 7.807-35.484 11.233-43.767 8.799-21.276 31.425-50.104 53.18-58.708"/><path fill="#f1c488" d="M301.232 308.807c3.091 1.456 3.13 1.242-.605 3.101a75 75 0 0 0-2.793-1.454c1.492-.236 2.082-.869 3.398-1.647"/><path fill="#4e331b" d="M291.405 304.231c-.404-.14-.735-.172-1.015-.478.416-.618 5.174-.205 5.972.11-1.698.317-3.081.038-4.957.368"/><path fill="#a5895f" d="M235.694 539.242c2.809-3.507 10.186-8.582 14.008-11.277 17.689-12.472 41.807-28.551 62.523-35.183-1.3 3.081-7.533 15.488-7.109 17.719 1.421-.152 1.772-.223 3.177-.102.273 1.819-.804 10.296-.974 12.761-.356 5.156-.331 9.454-.289 14.609.477 2.499.872 7.106 1.193 9.871 1.026 3.659 1.357 7.567 2.34 11.264 6.681 25.118 21.353 45.525 39.959 63.133 18.673 17.67 45.24 28.843 55.405 53.426-18.213-10.9-46.076-6.986-64.361 1.76-3.249 1.554-9.251 5.949-12.323 6.573l-1.464-.077c-3.09 5.712-9.815 15.767-16.849 8.721l-1.508.935-.24.253c-5.903-1.253-19.217-13.697-24.192-18.358-36.702-34.391-64.299-84.418-80.632-131.598 11.184 3.183 20.182-.549 28.274-8.042l1.695 7.235c.082-1.79-.032-1.722 1.021-3.138z"/><path fill="#bda279" d="M204.358 543.672c11.184 3.183 20.182-.549 28.274-8.042l1.695 7.235c.082-1.79-.032-1.722 1.021-3.138 11.301 37.306 25.88 69.623 54.826 96.713 8.133 7.611 17.141 15.697 27.139 20.501 14.929 7.175 17.345 9.885 11.93 26.855l-1.464-.077c-3.09 5.712-9.815 15.767-16.849 8.721l-1.508.935-.24.253c-5.903-1.253-19.217-13.697-24.192-18.358-36.702-34.391-64.299-84.418-80.632-131.598"/><path fill="#16110c" d="M235.348 539.727c11.301 37.306 25.88 69.623 54.826 96.713 8.133 7.611 17.141 15.697 27.139 20.501 14.929 7.175 17.345 9.885 11.93 26.855l-1.464-.077c-3.09 5.712-9.815 15.767-16.849 8.721l-1.508.935c-4.613-13.404-3.012-25.735 11.672-31.571-7.392-5.434-13.45-7.997-22.06-15.116-33.885-28.019-52.532-62.287-64.707-103.823.082-1.79-.032-1.722 1.021-3.138"/><path fill="#bda279" d="M311.984 681.842c.888 10.681 8.27 8.539 12.953 1.634 2.877-4.242 4.007-15.511-.702-18.978-.724-.533-2.184-.894-2.48-1.684.366-1.085 3.908.359 4.547.814 5.92 4.217 3.31 14.343 1.477 20.091-3.09 5.712-9.815 15.767-16.849 8.721-2.347-6.193-1.947-6.39-.285-12.2z"/><path fill="#a5895f" d="M310.645 680.24c.19-.415.684-1.777 1.14-2.03.428.084.202 3.278.199 3.632z"/><path fill="#a5895f" d="M322.129 680.787c1.514-1.938 2.383-9.15.862-11-4.841-5.884-12.518 4.317-13.255 8.894-.238 1.483-1.017 2.214-1.121 1.176.515-4.477 2.468-8.333 5.542-11.48 7.215-7.389 12.554-1.594 11.797 7.122-.258 2.965-.851 4.129-1.998 6.85-1.096-.618-1.111-.538-1.827-1.562"/><path fill="#bda279" d="m316.834 675.034.14.601c-.256.843-.425 1.427-.762 2.247-1.076 9.657 1.863 4.455 5.917 2.905.716 1.024.731.944 1.827 1.562-9.479 12.35-13.476-.504-8.495-6.212.566-.5.766-.675 1.373-1.103"/><path fill="#a5895f" d="m316.834 675.034.14.601c-.256.843-.425 1.427-.762 2.247a31 31 0 0 0-.751-1.745c.566-.5.766-.675 1.373-1.103"/><path fill="#a5895f" d="M316.834 675.034c1.458-1.439 7.383-.406 3.84 4.882-4.021 2.975-3.728 1.762-2.161-3.119-.79-.504-.921-.543-1.539-1.162z"/><path fill="#a5895f" d="M318.513 676.797c1.568 1.263 1.431 1.171 2.161 3.119-4.021 2.975-3.728 1.762-2.161-3.119"/><path fill="#bda279" d="M316.892 670.52c.714-.837 1.54-1.091 2.601-1.194 2.938-.284 3.974 5.232 2.032 5.228-.876-.002-2.236-1.839-4.356-2.075 1.03-.915.712-1.14-.277-1.959"/><path fill="#a5895f" d="M316.892 670.52c.989.819 1.307 1.044.277 1.959-2.313 1.661-3.54 2.77-6.006 4.139 2.238-2.944 2.616-4.149 5.729-6.098"/><path fill="#f6cd91" d="M235.694 539.242c2.809-3.507 10.186-8.582 14.008-11.277 17.689-12.472 41.807-28.551 62.523-35.183-1.3 3.081-7.533 15.488-7.109 17.719 1.421-.152 1.772-.223 3.177-.102.273 1.819-.804 10.296-.974 12.761-.356 5.156-.331 9.454-.289 14.609.477 2.499.872 7.106 1.193 9.871-.153.265-.19.458-.46.579-.831-.702-1.269-2.817-1.502-3.863-3.077-11.224-2.627-17.042-2.098-28.383-1.357-1.325-2.148.845-4.007-.258.213-4.285 3.711-12.36 5.366-16.638-20.747 8.745-40.389 20.278-58.907 33.095-2.89 2-7.894 6.351-10.921 7.07"/><path fill="#f1c488" d="M307.03 537.769c.477 2.499.872 7.106 1.193 9.871-.153.265-.19.458-.46.579-.831-.702-1.269-2.817-1.502-3.863 1.045-2.313.417-3.452.769-6.587"/><path fill="#bda279" d="M921.288 368.099c37.73 100.723 19.276 228.157-61.676 303.085-4.545 4.207-10.928 9.884-16.197 12.998 6.011-18.841-9.338-34.964-24.744-43.194-4.693-1.793-6.938-2.596-11.947-2.627l-1.065.038c.219-1.495 5.24-4.68 6.649-5.636 34.523-23.424 60.662-58.256 72.16-98.513 13.923-48.749 4.861-91.04-19.788-134.331 3.556 1.26 4.653 1.597 8.361 2.167 10.196-.418 13.368-1.654 22.869-5.23 14.129-7.527 20.125-13.388 25.378-28.757"/><path fill="#f6cd91" d="m895.91 396.856.084.584c-3.447 1.83-8.051 2.44-9.687 5.257.194 2.702 5.038 9.598 6.164 12.698 3.278 9.018 6.224 18.263 7.789 27.757 12.305 74.644-20.93 153.201-81.589 197.836-4.693-1.793-6.938-2.596-11.947-2.627l-1.065.038c.219-1.495 5.24-4.68 6.649-5.636 34.523-23.424 60.662-58.256 72.16-98.513 13.923-48.749 4.861-91.04-19.788-134.331 3.556 1.26 4.653 1.597 8.361 2.167 10.196-.418 13.368-1.654 22.869-5.23"/><path fill="#fee5b0" d="m806.724 638.361-1.065.038c.219-1.495 5.24-4.68 6.649-5.636 34.523-23.424 60.662-58.256 72.16-98.513 13.923-48.749 4.861-91.04-19.788-134.331 3.556 1.26 4.653 1.597 8.361 2.167l.336.63c1.59 2.935 4.458 6.25 5.852 9.068 17.781 35.935 21.125 84.636 10.01 123.186a179.06 179.06 0 0 1-56.349 87.756c-6.303 5.266-17.948 14.795-26.166 15.635"/><path fill="#bda279" d="M280.533 822.946c40.388.88 63.315-5.629 99.518-22.455-1.638 5.641-5.002 15.895-4.936 21.473 1.81-1.7 2.921-2.568 4.804-4.096-.809 8.135-1.181 17.093-2.175 24.991 1.018-.51 1.16-.811 2.033-1.645l1.897-2.014.776.049c1.664 2.453 1.653 7.491 2.794 10.616 5.617 15.383 14.611 28.455 26.63 39.505a259 259 0 0 1 3.812 3.45l3.503 2.453c-35.853 12.369-71.638 19.091-108.947 6.909-9.035-2.95-17.734-8.39-25.511-13.851-30.275-21.259-52.872-49.575-69.134-82.646 16.004 7.821 29.527 12.848 47.367 15.484 6.146.908 11.627 1.065 17.569 1.777"/><path fill="#f6cd91" d="M280.533 822.946c40.388.88 63.315-5.629 99.518-22.455-1.638 5.641-5.002 15.895-4.936 21.473 1.81-1.7 2.921-2.568 4.804-4.096-.809 8.135-1.181 17.093-2.175 24.991 1.018-.51 1.16-.811 2.033-1.645l1.897-2.014.776.049c1.664 2.453 1.653 7.491 2.794 10.616 5.617 15.383 14.611 28.455 26.63 39.505a259 259 0 0 1 3.812 3.45c-5.389.641-25.063-1.052-30.675-1.784-43.271-5.649-85.333-33.388-111.256-68.225 2.744.259 4.019.263 6.778.135"/><path fill="#fee5b0" d="m379.777 841.214 1.897-2.014.776.049c1.664 2.453 1.653 7.491 2.794 10.616 5.617 15.383 14.611 28.455 26.63 39.505l-1.159.575c-2.225-.346-7.435-3.736-9.287-5.27-13.136-10.887-19.717-26.955-21.651-43.461"/><path fill="#f1c488" d="M379.919 817.868c-.809 8.135-1.181 17.093-2.175 24.991-.153.302-1.081 4.19-2.067 2.939-1.012-1.281-1.005-5.097-.92-6.8.273-5.503-.012-11.57.358-17.034 1.81-1.7 2.921-2.568 4.804-4.096"/><path fill="#f6cd91" d="M688.385 164.228c2.49.341 5.079.81 7.569 1.22 31.406.786 75.533 24.71 96.554 47.429 9.09 9.824 28.186 34.531 29.804 50.014-1.874 16.008-12.797 38.982-20.979 52.831-1.459-3.062-3.046-6.598-4.707-9.506 1.759-3.289 2.386-5.268 3.591-8.795l-6.39 4.917c-5.264-7.683-9.379-12.042-16.484-18.293l-2.588-2.046c-10.522-7.636-19.498-14.834-31.584-20.382-6.329-2.906-7.913-2.1-5.183-7.362l2.363-6.438-5.297 5.322c-.379.429-1.929 2.018-2.146 2.299-1.2 1.561-8.692-1.995-11.034-2.873-19.029-7.131-37.251-9.839-57.358-11.27-.437-1.056 1.999-9.307 2.492-11.333-4.003 2.828-9.783 8.395-13.551 11.906-2.971.279-7.578 1.173-10.643 1.673 22.648-24.776 38.613-44.868 45.571-79.313"/><path fill="#bda279" d="M695.954 165.448c31.406.786 75.533 24.71 96.554 47.429 9.09 9.824 28.186 34.531 29.804 50.014-1.874 16.008-12.797 38.982-20.979 52.831-1.459-3.062-3.046-6.598-4.707-9.506 1.759-3.289 2.386-5.268 3.591-8.795l-6.39 4.917c-5.264-7.683-9.379-12.042-16.484-18.293 1.084-15.178.942-25.747-2.942-40.676-7.259-27.897-27.913-54.02-53.808-67.261a148 148 0 0 0-14.134-6.351c-3.439-1.338-7.399-2.388-10.505-4.309"/><path fill="#fee5b0" d="M664.516 241.295c.911-1.267 1.56-1.965 3.264-2.057 22.201-1.202 45.877 4.043 66.203 12.876.412.179.786.682 1.071 1.025-.379.429-1.929 2.018-2.146 2.299-1.2 1.561-8.692-1.995-11.034-2.873-19.029-7.131-37.251-9.839-57.358-11.27"/><path fill="#fee5b0" d="M737.988 254.255c12.626 4.412 28.261 14.866 37.302 25.732.137.165-.511 1.941-.535 2.012-10.522-7.636-19.498-14.834-31.584-20.382-6.329-2.906-7.913-2.1-5.183-7.362"/><path fill="#bda279" d="M297.134 168.743c1.905-1.959 4.055-3.765 6.101-5.606 60.644-54.583 146.768-85.147 228.226-80.82 23.089 1.227 45.175 17.054 60.116 33.98-4.623-2.262-9.135-4.51-14.14-5.799-23.215-5.978-49.81-2.937-73.004 1.41l-.802.065c-51.016 12.226-94.898 32.592-134.15 67.692-10.159 9.084-24.18 22.779-31.355 34.336-.332-2.233-.751-5.794-1.327-7.866a45.9 45.9 0 0 0-6.025-14.411c-7.1-10.998-17.692-17.338-30.301-20.014-4.855.157-6.97.659-3.339-2.967"/><path fill="#f6cd91" d="M334.636 190.994a165.3 165.3 0 0 1 16.935-19.284c32.356-32.017 79.703-54.638 124.892-60.3 8.109-1.016 15.589-.944 23.714-.906l-.054.538c1.922.104 1.882-.003 3.508.931-51.016 12.226-94.898 32.592-134.15 67.692-10.159 9.084-24.18 22.779-31.355 34.336-.332-2.233-.751-5.794-1.327-7.866a45.9 45.9 0 0 0-6.025-14.411c-7.1-10.998-17.692-17.338-30.301-20.014.587-.939.492-.998 1.372-1.481 14.688 3.883 23.095 8.364 32.791 20.765"/><path fill="#fee5b0" d="M500.123 111.042c1.922.104 1.882-.003 3.508.931-51.016 12.226-94.898 32.592-134.15 67.692-10.159 9.084-24.18 22.779-31.355 34.336-.332-2.233-.751-5.794-1.327-7.866 7.06-3.859 21.483-22.529 27.71-29.228 27.839-29.95 61.57-49.333 101.263-58.881 11.414-2.746 22.277-5.82 34.351-6.984"/><path fill="#bda279" d="M297.134 168.743c2.193.938 3.792 1.092 4.711 1.486-.88.483-.785.542-1.372 1.481-4.855.157-6.97.659-3.339-2.967"/><path fill="#f6cd91" d="M500.177 110.504c2.186-.037 3.457-.616 4.256 1.404l-.802.065c-1.626-.934-1.586-.827-3.508-.931z"/><path fill="#bda279" d="M602.946 291.36c30.139 18.429 71.081 25.514 104.94 13.514 3.005-1.064 6.345-4.068 9.733-4.459l.294 1.366-.318.735c-9.284 42.16-24.473 91.203-67.407 110.281-16.456 7.312-37.026 8.571-54.652 1.62a90 90 0 0 1-2.796-1.162c-1.941-10.43-2.991-24.095-11.09-31.577 18.407-24.477 23.199-47.458 22.79-77.53l4.491 1.197 1.157-1.249c-2.104-1.51-3.875-2.891-5.878-4.502z"/><path fill="#f6cd91" d="M602.946 291.36c30.139 18.429 71.081 25.514 104.94 13.514 3.005-1.064 6.345-4.068 9.733-4.459l.294 1.366c-22.166 15.128-43.495 21.395-70.323 16.413a95.5 95.5 0 0 1-21.055-6.289c-1.853-.807-12.219-5.827-13.448-6.063l-2.999-1.746c-2.104-1.51-3.875-2.891-5.878-4.502z"/><path fill="#2d2517" d="m608.931 305.345 1.157-1.249 2.999 1.746c-1.424.081-2 .034-3.403-.322z"/><path fill="#bda279" d="M103.905 504.97c5.23 4.395 10.536 6.892 16.686 9.721 11.81 4.073 21.228 5.049 33.76 4.305.473 3.817.976 8.938 1.714 12.625 1.863-4.945 3.193-8.124 4.075-13.396l13.264-3.788q-2.848 8.1-5.828 16.152c2.138-2.755 3.391-4.441 5.927-6.839-9.001 40.472-4.787 69.483 7.84 107.832 12.093 25.285 14.05 30.747 34.412 52.33a170 170 0 0 1-20.61-2.827c-22.29-4.624-62.943-22.698-75.35-42.2-25.938-40.77-25.76-88.399-15.89-133.915"/><path fill="#f6cd91" d="m160.14 518.225 13.264-3.788q-2.848 8.1-5.828 16.152c2.138-2.755 3.391-4.441 5.927-6.839-9.001 40.472-4.787 69.483 7.84 107.832-.179-.004-1.01-.013-1.269-.08-14.503-3.917-28.163-14.224-37.529-25.673-15.605-19.074-22.156-44.551-22.936-68.765-.237-7.33.287-15.032.982-22.373 11.81 4.073 21.228 5.049 33.76 4.305.473 3.817.976 8.938 1.714 12.625 1.863-4.945 3.193-8.124 4.075-13.396"/><path fill="#bda279" d="M424.493 294.307c-.586 3.609-1.041 7.473-1.536 11.116-.384 4.611-1.2 20.703-.047 24.644 1.159-.573 1.484-.836 2.539-1.605.771.82 1.222 4.856 1.463 6.206 3.052 17.049 9.631 31.871 22.025 44.08-7.67 3.591-12.834 6.032-15.812 14.714-3.619 10.548-5.856 21.966-7.889 32.914-17.343 11.321-35.487 15.482-55.645 18.367-27.445-14.329-47.316-45.16-59.159-73.171a336 336 0 0 0 20.776-7.217c33.367-14.481 68.516-43.766 93.285-70.048"/><defs><linearGradient id="c" x1="386.332" x2="375.449" y1="345.593" y2="330.558" gradientUnits="userSpaceOnUse"><stop offset="0" stop-color="#f8c88a"/><stop offset="1" stop-color="#ffe9b3"/></linearGradient></defs><path fill="url(#c)" d="M424.493 294.307c-.586 3.609-1.041 7.473-1.536 11.116l-.544.474c-6.289 5.536-16.029 17.874-21.908 24.594-16.843 19.254-39.853 38.344-64.111 47.022-1.466-3.925-3.395-9.459-5.186-13.158 33.367-14.481 68.516-43.766 93.285-70.048"/><path fill="#f6cd91" d="M344.199 209.607c9.732-13.312 19.291-22.465 31.722-32.95 36.074-30.428 72.471-47.44 117.466-59.877a443 443 0 0 0 10.085 18.656c13.674 19.884 19.991 28.282 42.607 39.298-3.809.225-8.171.383-11.909.825-2.406-1.966-5.632-4.905-8.723-5.379l-.226.53c1.228 2.117 1.458 2.431 3.237 4.107l-.095.925c-3.194.933-6.337.843-9.705 1.291a271 271 0 0 0-14.895 2.474c-39.13 7.77-75.662 23.015-106.144 49.162-2.156 1.849-2.781 4.012-5.189 1.321-.953-2.707-4.16-6.404-6.07-8.647.431 5.128 1.035 10.507 2.256 15.515-4.983 5.365-7.727 8.522-11.904 14.676l-1.656-5.174q-1.319-.086-2.634-.199c.045 8.046-.073 10.98-3.232 18.417l-1.178-.515c-1.895-18.164-6.229-28.338-14.901-43.93-3.171-5.435-4.052-6.56-8.912-10.526"/><path fill="#bda279" d="M344.199 209.607c9.732-13.312 19.291-22.465 31.722-32.95 36.074-30.428 72.471-47.44 117.466-59.877a443 443 0 0 0 10.085 18.656c-46.38.085-94.78 25.568-126.84 58.077-8.102 8.215-16.607 20.02-23.521 26.62-3.171-5.435-4.052-6.56-8.912-10.526"/><path fill="#fee5b0" d="M392.43 229.99c2.358-5.608 26.911-22.782 33.458-26.744a204.8 204.8 0 0 1 82.951-27.938c6.365-.758 13.417-2.001 19.619-.491l-.095.925c-3.194.933-6.337.843-9.705 1.291a271 271 0 0 0-14.895 2.474c-39.13 7.77-75.662 23.015-106.144 49.162-2.156 1.849-2.781 4.012-5.189 1.321"/><path fill="#2d2517" d="M372.422 246.161c.917-3.932 1.178-2.811 2.634.199q-1.319-.086-2.634-.199"/><path fill="#bda279" d="M856.548 756.414c23.135-15.062 35.649-26.376 51.879-48.539-35.082 94.834-121.857 156.406-218.396 178.713-6.551 1.513-13.844 2.231-20.528 2.879a118.76 118.76 0 0 0 63.827-65.362c5.577-14.108 6.563-22.198 7.015-36.926 1.91.794 4.03 1.618 5.888 2.484 4.127 4.556 4.771.644 1.388-3.615-1.777-2.237-4.49-7.163-6.456-9.835q4.617.812 9.254 1.512c40.034 5.206 71.007-2.977 106.129-21.311"/><path fill="#f6cd91" d="m856.548 756.414.503 1.555c-2.094 2.967-5.558 4.568-8.471 6.641-27.419 19.513-61.639 26.953-94.842 25.609-1.397-3.823-3.09-8.4-3.319-12.494 40.034 5.206 71.007-2.977 106.129-21.311"/><path fill="#bda279" d="M698.317 535.359c17.29 12.386 29.48 18.156 50.005 23.677.065 1.925.157 3.806.133 5.734l1.452.544c.7-1.426 1.583-3.952 2.185-5.512 10.626 2.651 31.815 3.774 42.282 1.466 5.243-.653 10.021-2.213 14.992-3.937 1.945-1.208 5.321-2.55 7.636-3.868 8.081-4.599 13.996-9.6 20.283-16.337l.943 1.064c-25.792 45.604-74.879 82.051-125.159 95.764-28.957 7.898-66.661 11.169-96.109 4.627a118.09 118.09 0 0 0 69.48-56.284 113.5 113.5 0 0 0 11.833-33.261c1.578 2.384 3.173 4.73 4.591 7.213-.182-2.251-.343-5.561-.719-7.698a66 66 0 0 1-.777-3.043l-.489-1.999c-.745-3.004-1.512-5.261-2.562-8.15"/><path fill="#f6cd91" d="M698.317 535.359c17.29 12.386 29.48 18.156 50.005 23.677.065 1.925.157 3.806.133 5.734l1.452.544-.911 2.265-.422-.37c-1.047 2.329-1.673.719-4.386-.014-13.467-3.638-27.392-8.077-38.744-16.421-1.16-.852-2.011-1.564-3.299-2.223a66 66 0 0 1-.777-3.043l-.489-1.999c-.745-3.004-1.512-5.261-2.562-8.15"/><path fill="#4d4029" d="m748.455 564.77 1.452.544-.911 2.265-.422-.37q-.067-1.219-.119-2.439"/><path fill="#f6cd91" d="M794.374 561.268c5.243-.653 10.021-2.213 14.992-3.937l.049.747c-2.23.785-11.116 3.304-12.103 3.811l.994.995c2.15-.409 3.912-1.516 5.233-1.093-3.079 1.644-6.706 2.486-10.079 3.442-15.438 4.377-27.847 5.086-43.643 3.097l-.821-.751.911-2.265c.7-1.426 1.583-3.952 2.185-5.512 10.626 2.651 31.815 3.774 42.282 1.466"/><path fill="#bda279" d="m669.155 108.942 6.063 1.217c12.565 2.442 29.05 8.674 40.82 13.798 45.576 19.842 89.908 50.803 118.329 92.2 20.248 29.492 32.003 57.688 39.456 92.606-5.04-2.895-6.37-3.714-12.124-4.712-.827-4.878-1.546-8.593-3.131-13.305-1.599 4.857-3.11 9.457-4.484 14.395-1.755-2.531-3.414-5.082-5.449-7.388-1.551 3.501-2.872 6.299-4.661 9.678-2.459.831-4.958 1.614-7.334 2.649l-4.29 2.341q.198-4.455.321-8.912c.813-32.743-17.275-70.561-39.929-93.383-32.128-32.365-73.154-47.158-117.965-48.195-.434-.305-1.051-.584-1.129-1.203-.249-1.957-2.556-2.822-4.052-4.07 7.993-15.653 9.199-32.655-.441-47.716"/><path fill="#f6cd91" d="m669.155 108.942 6.063 1.217c3.201 14.037 5.117 17.871 3.563 32.973l.719.785c8.254 1.559 18.476 2.923 26.444 4.856a177.6 177.6 0 0 1 29.662 9.839c49.322 21.252 89.14 64.138 105.767 115.3 1.729 5.319 5.023 20.284 7.262 23.841-1.551 3.501-2.872 6.299-4.661 9.678-2.459.831-4.958 1.614-7.334 2.649l-4.29 2.341q.198-4.455.321-8.912c.813-32.743-17.275-70.561-39.929-93.383-32.128-32.365-73.154-47.158-117.965-48.195-.434-.305-1.051-.584-1.129-1.203-.249-1.957-2.556-2.822-4.052-4.07 7.993-15.653 9.199-32.655-.441-47.716"/><path fill="#fee5b0" d="m669.155 108.942 6.063 1.217c3.201 14.037 5.117 17.871 3.563 32.973-.652 3.762-.67 7.731-1.365 11.419 61.25 5.36 115.909 32.549 145.268 90.071 8.265 16.194 15.61 46.444 14.022 64.74l-.066.718-4.29 2.341q.198-4.455.321-8.912c.813-32.743-17.275-70.561-39.929-93.383-32.128-32.365-73.154-47.158-117.965-48.195-.434-.305-1.051-.584-1.129-1.203-.249-1.957-2.556-2.822-4.052-4.07 7.993-15.653 9.199-32.655-.441-47.716"/><path fill="#a5895f" d="M753.856 348.384a147.3 147.3 0 0 0 22.984 13.714c12.596 6.047 33.521 13.311 47.375 8.473-2.853 28.661-14.33 63.634-32.88 85.613-9.974 11.817-20.591 22.545-36.686 23.565-15.955 1.01-30.416-5.156-42.402-15.047-4.397-2.96-2.307 1.482-5.53 5.128-1.612-1.926-3.34-4.812-4.736-6.975-3.066 12.838-13.866 15.426-25.315 10.648-8.778-3.665-14.738-10.373-18.255-19.176l8.961 5.678c-1.623-4.887-2.689-8.016-4.856-12.742 28.273 16.043 53.872 20.583 74.553-9.556 17.765-25.891 21.815-58.887 16.787-89.323"/><path fill="#bda279" d="M93.489 337.686c-1.2-4.002 10.843-26.889 13.208-31.316 21.659-40.554 51.595-77.549 88.161-105.574 13.117-10.052 25.776-18.72 41.827-23.522-2.575 2.776-10.421 15.307-4.178 17.211 2.235-.408 3.713-1.951 5.557-3.417 3.019 2.858 5.688 5.622 9.486 7.396l.322.948c-1.629 1.608-9.473 4.906-11.998 6.217-8.159 4.237-15.687 9.012-23.155 14.382a225.5 225.5 0 0 0-67.411 75.449 168 168 0 0 0-7.243 15.029c-.846 1.962-2.942 7.242-3.861 8.837-2.051 6.278-6.487 19.764-9.029 25.598-3.809-9.234-8.96-11.652-18.751-12.547-5.791.735-8.413 1.054-12.935 5.309"/><path fill="#f6cd91" d="M240.874 199.304a91 91 0 0 1 6.676-.84l.322.948c-1.629 1.608-9.473 4.906-11.998 6.217-8.159 4.237-15.687 9.012-23.155 14.382a225.5 225.5 0 0 0-67.411 75.449 168 168 0 0 0-7.243 15.029c-.846 1.962-2.942 7.242-3.861 8.837-2.051 6.278-6.487 19.764-9.029 25.598-3.809-9.234-8.96-11.652-18.751-12.547 3.088-4.521 9.06-1.44 12.745.453 10.156-33.311 24.134-58.805 47.168-85.366 16.443-18.962 48.819-46.5 74.537-48.16"/><path fill="#fee5b0" d="M240.874 199.304a91 91 0 0 1 6.676-.84l.322.948c-1.629 1.608-9.473 4.906-11.998 6.217-8.159 4.237-15.687 9.012-23.155 14.382a225.5 225.5 0 0 0-67.411 75.449 168 168 0 0 0-7.243 15.029c-.846 1.962-2.942 7.242-3.861 8.837a42 42 0 0 1-1.397 1.59l-.423-.538c.767-10.086 12.948-33.149 17.904-42 16.723-29.867 41.102-53.091 71.408-68.937 5.527-2.889 14.897-5.783 19.178-10.137"/><path fill="#bda279" d="M133.682 723.626c6.953 8.231 12.111 13.621 21.616 18.895 1.045 6.523 2.015 12.896 3.405 19.357a105 105 0 0 0 1.398-16.221c2.318 1.297 5.807 3.41 8.34 3.955l6.709 1.689c1.857 4.299 3.575 8.224 5.129 12.657.446-.294.876-.544 1.334-.817.42-3.667.726-6.821.923-10.503 4.528.297 7.708.276 12.264.146 2.074-.108 2.634-.483 4.228.3.86 6.078 1.519 12.136 2.674 18.168 4.976 25.981 17.86 49.902 33.497 71.025.955 1.214 1.298 1.697 2.099 3.011 3.974 4.326 7.612 9.482 11.648 13.914 12.037 13.221 27.763 27.607 43.257 36.655l-.469.987a343 343 0 0 1-32.826-14.466c-62.97-31.326-104.3-91.258-126.129-156.507z"/><path fill="#f6cd91" d="m168.441 749.612 6.709 1.689c1.857 4.299 3.575 8.224 5.129 12.657.446-.294.876-.544 1.334-.817.42-3.667.726-6.821.923-10.503 4.528.297 7.708.276 12.264.146 2.074-.108 2.634-.483 4.228.3.86 6.078 1.519 12.136 2.674 18.168 4.976 25.981 17.86 49.902 33.497 71.025l-1.324.795-3.311-2.776c-1.593-.997-4.441-3.322-5.907-4.621-20.21-17.916-36.294-40.691-48.452-64.709-2.61-5.156-7.324-15.69-7.764-21.354"/><path fill="#fee5b0" d="M194.8 752.784c2.074-.108 2.634-.483 4.228.3.86 6.078 1.519 12.136 2.674 18.168 4.976 25.981 17.86 49.902 33.497 71.025l-1.324.795-3.311-2.776c-3.419-7.061-11.518-13.845-16.162-20.438-14.43-20.485-18.955-42.546-19.602-67.074"/><path fill="#4d4029" d="M181.613 763.141c-.132 1.603-.332 3.731-1.334.817.446-.294.876-.544 1.334-.817"/><path fill="#f6cd91" d="M235.199 842.277c.955 1.214 1.298 1.697 2.099 3.011-1.658-.269-2.125-.979-3.423-2.216z"/><path fill="#bda279" d="M81.386 433.284c3.04 10.528 9.573 17.292 19.026 22.335 7.37 2.327 11.879 2.573 19.392.405-6.075 13.861-12.318 27.374-16.333 42.025-7.82 28.537-9.639 55.355-6.263 84.61 1.008 3.989 1.51 8.441 2.516 12.568 3.559 14.604 8.097 27.671 15.814 40.69l-1.666.65c-5.405-5.145-8.927-9.561-13.625-15.308-34.215-46.005-39.7-104.461-26.936-159.172 2.27-9.728 4.507-19.452 8.075-28.803"/><defs><linearGradient id="d" x1="84.647" x2="107.189" y1="516.164" y2="520.213" gradientUnits="userSpaceOnUse"><stop offset="0" stop-color="#f6c586"/><stop offset="1" stop-color="#ffe2ae"/></linearGradient></defs><path fill="url(#d)" d="M97.208 582.659c-.133.315-.004.076-.635.89-.802-.616-.712-.613-1.123-1.571-18.018-42-11.838-85.121 4.962-126.359 7.37 2.327 11.879 2.573 19.392.405-6.075 13.861-12.318 27.374-16.333 42.025-7.82 28.537-9.639 55.355-6.263 84.61"/><path fill="#bda279" d="M100.247 621.259c4.698 5.747 8.22 10.163 13.625 15.308l1.666-.65a43 43 0 0 1 1.177 2.858c-.948.92-.878.246-1.534 1.721 6.631 6.532 12.054 9.68 17.913 15.036 31.248 20.538 64.484 33.901 102.752 29.589l-3.418 4.643c-3.924 6.895-4.319 9.144-6.641 16.257-.98 6.403-1.623 12.2-.42 18.669.509 3.526 1.05 6.592 2.37 9.941l-1.165 1.883c-.153-.127 3.714 3.256 2.798 2.845.269-.045.094.001.487-.244 1.24 1.651 1.564 2.006 2.38 3.862-3.902-.59-11.605-3.916-15.326-5.525-41.807-18.076-76.794-49.157-101.981-86.898-4.597-6.89-12.722-19.422-15.701-26.966-1.772-1.259-.066-1.25 1.018-2.329"/><path fill="#f6cd91" d="M133.094 655.532c31.248 20.538 64.484 33.901 102.752 29.589l-3.418 4.643c-3.924 6.895-4.319 9.144-6.641 16.257-.98 6.403-1.623 12.2-.42 18.669.509 3.526 1.05 6.592 2.37 9.941l-1.165 1.883c-3.524-5.397-4.521-15.312-4.732-21.566-25.764-4.693-59.345-28.144-78.038-46.907-2.271-2.281-5.959-5.311-7.884-7.7-2.306-1.827-3.036-1.847-2.824-4.809"/><path fill="#fee5b0" d="M133.094 655.532c31.248 20.538 64.484 33.901 102.752 29.589l-3.418 4.643c-2.951.207-3.153.28-5.835 1.923-5.242 1.563-11.378 1.603-16.814 1.069-17.069-1.677-33.056-7.404-47.842-16.024-5.584-3.256-10.601-6.784-15.95-10.371-1.301-.872-3.022-1.102-4.405-1.817-1.727-1.126-3.318-4.037-5.664-4.203-2.306-1.827-3.036-1.847-2.824-4.809"/><path fill="#f1c488" d="M226.593 691.687c2.682-1.643 2.884-1.716 5.835-1.923-3.924 6.895-4.319 9.144-6.641 16.257-2.802-2.604.09-10.571.806-14.334"/><path fill="#2d2517" d="M100.247 621.259c4.698 5.747 8.22 10.163 13.625 15.308l1.666-.65a43 43 0 0 1 1.177 2.858c-.948.92-.878.246-1.534 1.721-4.035-3.463-7.325-7.176-10.894-11.1-1.805-1.985-3.076-4.033-5.058-5.808-1.772-1.259-.066-1.25 1.018-2.329"/><path fill="#a5895f" d="M115.538 635.917a43 43 0 0 1 1.177 2.858c-1.307-.863-1.676-1.153-2.843-2.208z"/><path fill="#bda279" d="M446.482 885.491c-.09 3.853-2.456 6.447-1.423 14.198 1.585 11.888 5.799 20.358 13.422 29.69.514.63 6.582 5.231 7.552 5.973l-.358.528c-5.53 1.206-16.099.716-21.963.383a376.7 376.7 0 0 1-89.573-16.076c-12.961-4.047-23.527-7.602-35.783-13.562 7.999 1.19 13.604 2.93 22.149 3.54 41.106 2.933 70.02-8.12 105.977-24.674"/><path fill="#bda279" d="M285.68 365.091c8.237-.143 13.045-1.999 18.029-8.864 9.339 33.571 32.913 72.404 63.758 89.674 4.36 2.441 9.874 3.87 13.847 5.962.521.882.567.81 1.473 1.344-2.43 2.068-2.806 2.625-4.646 5.106-.796.02-1.265.02-2.031.107-3.462 2.124-3.34 11.135-2.402 14.773-7.196-2.751-13.747-6.995-20.048-11.297-28.178-19.236-49.28-46.749-63.698-77.449-2.432-5.18-7.084-13.955-8.09-19.388l.036-.81 1.423-.317c.859.346 1.528.726 2.349 1.159"/><path fill="#16110c" d="M381.314 451.863c.521.882.567.81 1.473 1.344-2.43 2.068-2.806 2.625-4.646 5.106-.796.02-1.265.02-2.031.107 1.681-2.799 3.3-3.876 5.204-6.557"/><path fill="#2d2517" d="M283.331 363.932c.859.346 1.528.726 2.349 1.159q-1.904.007-3.808-.032l.036-.81z"/><path fill="#a5895f" d="M828.253 482.335c2.976 2.207 5.629 3.671 8.717 5.616.552 2.275.883 4.782 1.741 6.943l.325.857c.538-4.306-.625-7.299 3.531-6.779l.991.114c10.021.534 11.849-.619 19.594-6.871-7.355 20.974-11.611 31.396-23.759 49.949.253.591.493 1.115.764 1.695-.523 1.783-1.035 2.699-1.929 4.331l-.943-1.064c-6.287 6.737-12.202 11.738-20.283 16.337-2.315 1.318-5.691 2.66-7.636 3.868-4.971 1.724-9.749 3.284-14.992 3.937-.522-.561-.629-.531-.677-1.166.994-2.398 11.013-13.225 13.449-17.573 4.294-7.664 8.276-15.118 11.656-23.341 1.011-2.46 2.16-6.276 3.139-8.407l.329-.703c2.07-9.753 4.605-17.562 5.983-27.743"/><path fill="#f1c488" d="M828.253 482.335c2.976 2.207 5.629 3.671 8.717 5.616.552 2.275.883 4.782 1.741 6.943l.325.857c-.022 1.42-.109 2.81-.132 4.247-.893-1.586-7.477-14.387-9.11-8.419-1.143 4.182-4.891 15.907-7.524 18.499 2.07-9.753 4.605-17.562 5.983-27.743"/><path fill="#16110c" d="M839.393 532.164c.253.591.493 1.115.764 1.695-.523 1.783-1.035 2.699-1.929 4.331l-.943-1.064c-6.287 6.737-12.202 11.738-20.283 16.337-2.315 1.318-5.691 2.66-7.636 3.868-4.971 1.724-9.749 3.284-14.992 3.937-.522-.561-.629-.531-.677-1.166 19.773-5.022 32.615-11.732 45.696-27.938"/><path fill="#a5895f" d="M840.157 533.859c-.523 1.783-1.035 2.699-1.929 4.331l-.943-1.064c.865-1.155 1.8-2.304 2.872-3.267"/><path fill="#f6cd91" d="M839.036 495.751c.538-4.306-.625-7.299 3.531-6.779l.991.114c-.445 1.406-3.392 11.596-4.654 10.912.023-1.437.11-2.827.132-4.247"/><path fill="#bda279" d="M901.812 354.675c19.684-3.094 20.625 14.183 10.754 26.39-8.658 10.706-21.024 16.919-34.448 18.816-36.731 2.418-10.084-40.772 23.694-45.206"/><path fill="#16110c" d="M903.624 359.239c22.781 1.917.32 35.01-27.071 36.058-11.929-1.483-13.705-9.358-5.979-18.013 8.757-9.81 19.743-16.899 33.05-18.045"/><path fill="#bda279" d="M902.446 361.151c11.198.306 9.97 9.915 4.509 16.539-7.475 9.065-18.186 14.925-29.755 15.741l-1.707-.293c-8.926-1.471-8.858-6.957-4.08-13.17 7.29-9.48 19.093-17.395 31.033-18.817"/><path fill="#16110c" d="M898.007 366.687c19.308 1.735 2.304 20.285-12.653 21.889-2.573-.041-5.352.266-7.533-1.281a5.38 5.38 0 0 1-2.183-3.571c-1.522-9.689 14.69-16.109 22.369-17.037"/><path fill="#bda279" d="M895.617 369.046c1.978-.177 4.732-.464 6.37.415 8.428 4.524-8.675 16.026-12.985 16.524-.634.073-1.335.342-1.895.502-10.953.97-12.727-4.117-4.914-11.099 3.816-3.409 8.526-5.089 13.424-6.342"/><path fill="#16110c" d="M890.31 373.495c8.07-.011 2.57 7.777-.503 9.225l-1.284.603c-7.195-1.974-4.538-6.76.898-9.385z"/><path fill="#bda279" d="M891.14 374.817c4.298.711-1.639 5.717-3.306 6.688-3.711-3.298-.223-4.467 3.306-6.688"/><path fill="#16110c" d="M835.635 657.547c8.121 10.513 11.913 29.986-5.142 32.855-20.262 3.408-41.054-21.056-35.888-40.642 4.21-15.963 22.602-8.305 31.622-1.713 2.511 1.835 4.464 3.862 6.627 6.026 1.002 1.129 1.834 2.294 2.781 3.474"/><path fill="#bda279" d="M835.635 657.547c8.121 10.513 11.913 29.986-5.142 32.855-20.262 3.408-41.054-21.056-35.888-40.642 4.21-15.963 22.602-8.305 31.622-1.713 2.511 1.835 4.464 3.862 6.627 6.026l-.986.54c-5.42-5.204-13.948-11.615-21.845-9.859-19.315 4.295-9.396 29.072 2.282 36.138 19.479 11.785 34.071-3.563 22.618-23.16z"/><path fill="#a5895f" d="M832.854 654.073c1.002 1.129 1.834 2.294 2.781 3.474l-.712.185-3.055-3.119z"/><path fill="#bda279" d="M822.054 649.685c1.117.709.569.375 1.447.886 9.183 5.34 17.609 18.056 11.257 28.412-1.644 2.328-4.801 3.605-7.51 3.938-13.17 1.618-25.309-11.971-26.19-24.172-.581-8.047 4.701-13.035 12.253-12.51 1.478.103 4.504.341 5.561 1.428.146.544-.998.79-1.343.913-2.567.93-4.219 2.383-5.442 4.923-3.643 7.566.138 16.317 7.544 19.801 3.403 1.368 8.187-.771 9.214-4.308.914-3.148-.114-8.277-2.576-10.631-2.072-1.84-6.273-2.434-8.839-1.636-.611.19-1.137 1.443-1.228 2.057-.783 5.329 3.773 8.262 7.99 4.884 1.857-1.487-.971-3.132-2.138-4.066l1.036-1.146c2.154 1.326 3.856 3.009 4.244 5.613 2.031 13.658-14.115 6.695-14.796-2.569-.56-7.613 2.702-9.931 9.516-11.817"/><path fill="#bda279" d="M822.054 659.604c.316.595.821 1.221.903 1.912.055.454-.1.907-.42 1.233-3.521 3.6-10.864-7.161.553-4.291z"/><path fill="#bda279" d="M237.67 688.039c.037-1.625-.162-.847.842-2.338 9.261-4.806 16.123 14.557 17.05 21.563 1.559 11.793 1.409 33.281-11.954 38.46-2.71.91-7.122-1.232-9.328-3.192l-2.043.445c-.816-1.856-1.14-2.211-2.38-3.862-.393.245-.218.199-.487.244.916.411-2.951-2.972-2.798-2.845l1.165-1.883c-1.32-3.349-1.861-6.415-2.37-9.941l.448-2.823q.388 3.244.85 6.478c1.395.033 1.481-.099 2.833-.554-3.074-6.812-2.886-14.081-1.307-21.286.98-4.476 4.785-14.681 8.682-17.194z"/><path fill="#16110c" d="M237.67 688.039c.037-1.625-.162-.847.842-2.338 9.261-4.806 16.123 14.557 17.05 21.563 1.559 11.793 1.409 33.281-11.954 38.46-2.71.91-7.122-1.232-9.328-3.192l-2.043.445c-.816-1.856-1.14-2.211-2.38-3.862-.393.245-.218.199-.487.244.916.411-2.951-2.972-2.798-2.845l1.165-1.883c-1.32-3.349-1.861-6.415-2.37-9.941l.448-2.823q.388 3.244.85 6.478c1.395.033 1.481-.099 2.833-.554 6.912 10.516 14.987-3.279 15.181-10.527.126-4.711 1.699-14.82-5.68-14.799-4.742.007-4.948 5.101-5.112 8.785.072 1.384-.577 6.617-.337 7.257 1.831 4.896 4.011-.222 3.62-3.006-.104-.744.54-3.968 1.105-4.606 1.197-1.079 1.036 3.023 1.05 3.349-.341 4.735.07 9.845-6.336 6.972-.683-.306-1.363-1.909-1.468-2.958-.736-7.329 1.55-24.638 12.492-15.531 3.208 2.669 2.801 11.345 2.49 15.024-.973 7.451-6.243 19.158-15.431 14.648l-1.55.898c.254.688.569 1.352.942 1.984 4.957 8.56 17.369 4.589 18.493-7.287 1.224-12.918 3.312-31.473-11.296-38.306l-.788-.377z"/><path fill="#bda279" d="M237.67 688.039c.037-1.625-.162-.847.842-2.338 9.261-4.806 16.123 14.557 17.05 21.563 1.559 11.793 1.409 33.281-11.954 38.46-2.71.91-7.122-1.232-9.328-3.192l-2.631-3.424c.96.518 1.964 1.057 2.961 1.503a10.74 10.74 0 0 0 8.554.115c9.49-4.036 9.497-22.189 8.44-30.753-1.222-9.895-4.141-18.019-13.934-21.934"/><path fill="#f1c488" d="M227.737 734.631c.734 1.473 1.544 2.953 2.12 4.484-.393.245-.218.199-.487.244.916.411-2.951-2.972-2.798-2.845z"/><path fill="#a5895f" d="M229.522 733.297c-.42-.977-1.364-2.935-1.344-3.944l.085-.083c.399.008 2.317 2.593 2.809 3.129z"/><path fill="#bda279" d="M309.499 202.928c-3.356-1.865-6.859-7.067-6.751-10.471.422-13.256 15.439-2.805 18.76 1.964 2.807 3.306 8.145 13.804 6.808 18.167-4.553 14.866-22.698-1.844-26.239-8.366-4.95-9.115-9.346-20.892-.687-28.269 1.361-1.16 5.508-.698 6.944-.029 15.194 5.772 30.342 24.467 26.374 41.385-.654 2.79-5.635 8.081-8.522 8.791-15.328 3.769-31.449-15.292-35.475-28.464-2.001-6.551-3.74-13.56-.901-20.106 1.646-3.794 7.64-5.266 10.679-3.402-1.094 1.436-2.35 3.038-3.353 4.526a17.1 17.1 0 0 0-2.502 13.18c2.163 10.144 8.561 19.514 17.081 25.129 10.916 7.195 21.526 2.55 17.788-11.25-2.782-10.271-11.903-23.238-23.9-21.15-5.909 1.029-5.414 9.445-3.536 13.686a12.53 12.53 0 0 0 7.424 6.709c12.687 4.154 10.673-12.104 1.267-12.759-3.336 1.384-2.965 3.145-2.254 6.309.28.794.51 1.375.832 2.152.066.768.129 1.496.163 2.268"/><path d="m381.193 556.991 1.144-2.134c2.227-.257 4.135 4.407 5.933 6.279l1.21-.432c2.936 1.968 6.958 10.31 7.077 13.854l.039.984c-.602 5.792-5.466 29.926-7.729 34.752l-.406.283c-2.066-2.453-3.473-16.863-5.073-22.134l-.428.565c-.543.756-1.041.864-1.535 1.396-2.639 2.845-4.343 6.501-6.165 9.776-.554-1.421.551-2.895 1.036-4.039-.521-.256-.803-.448-1.349-.777-1.058 1.016-1.734 1.88-2.656 3.008 2.423.936.764 3.824-.37 5.221-.095 2.328 1.167 17.075.752 17.523l-.413-.34-.606.202c-1.017.316-1.657.928-2.45 1.613.015.331.17.955-.125 1.231l-.159-.024c-.848-.678.254-2.169-.73-3.67-.336 2.838.132 2.004-1.43 4.122-1.574.711-.835.718-2.279.246l-.3-.355c-.054.278-.113 1.857-.769 1.555-.505-.694-.439-5.968-.484-7.18-.223-.436-.196-.333-.201-.825-.309-1.958-.72-3.893-1.423-5.751-.317-3.621.475-7.262.91-10.806 2.026-16.511 11.013-27.156 17.815-41.819l-.909-1.763.409-.693z"/><path fill="#f6cd91" d="m381.193 556.991 1.144-2.134c2.227-.257 4.135 4.407 5.933 6.279a317 317 0 0 1-10.174 15.459c-1.675 2.373-7.732 10.477-8.512 12.699-2.61 7.433-4.382 14.887-7.054 22.577l-1.226.069c-.317-3.621.475-7.262.91-10.806 2.026-16.511 11.013-27.156 17.815-41.819l-.909-1.763.409-.693z"/><path fill="#16110c" d="m379.529 556.859 1.664.132q-.602 1.152-1.164 2.324l-.909-1.763z"/><path d="M372.291 598.372c2.423.936.764 3.824-.37 5.221-.095 2.328 1.167 17.075.752 17.523l-.413-.34-.606.202c-1.017.316-1.657.928-2.45 1.613.015.331.17.955-.125 1.231l-.159-.024c-.848-.678.254-2.169-.73-3.67-.65-7.142-2.733-13.349 1.523-19.871l.671.269a100 100 0 0 0 1.907-2.154"/><path fill="#a5895f" d="M372.291 598.372c2.423.936.764 3.824-.37 5.221-.095 2.328 1.167 17.075.752 17.523l-.413-.34c-1.152-6.202-1.164-12.084-1.319-18.305l-1.196-.274q.328-.832.639-1.671a100 100 0 0 0 1.907-2.154"/><path fill="#16110c" d="M372.291 598.372c2.423.936.764 3.824-.37 5.221.038-.5.448-3.145.24-3.342-.447.187-.646.937-.816 1.335l-.404.885-1.196-.274q.328-.832.639-1.671a100 100 0 0 0 1.907-2.154"/><path fill="#51433a" d="m369.713 600.257.671.269q-.31.838-.639 1.671c-2.823 4.801-1.294 14.388-.541 20.394.015.331.17.955-.125 1.231l-.159-.024c-.848-.678.254-2.169-.73-3.67-.65-7.142-2.733-13.349 1.523-19.871"/><path fill="#a5895f" d="M369.713 600.257c2.576-4.438 8.466-10.707 13.675-11.814l-.428.565c-.543.756-1.041.864-1.535 1.396-2.639 2.845-4.343 6.501-6.165 9.776-.554-1.421.551-2.895 1.036-4.039-.521-.256-.803-.448-1.349-.777-1.058 1.016-1.734 1.88-2.656 3.008a100 100 0 0 1-1.907 2.154z"/><path fill="#16110c" d="M374.947 595.364c.615-.626 3.174-3.496 4.13-3.781.073-.022.259.11.258.185-.008.716-2.646 3.849-3.039 4.373-.521-.256-.803-.448-1.349-.777"/><path fill="#967a56" d="m361.304 611.94 1.226-.069c1.169 3.144 1.412 8.872 1.651 12.27-.054.278-.113 1.857-.769 1.555-.505-.694-.439-5.968-.484-7.18-.223-.436-.196-.333-.201-.825-.309-1.958-.72-3.893-1.423-5.751"/><defs><linearGradient id="e" x1="84.425" x2="122.552" y1="438.646" y2="436.011" gradientUnits="userSpaceOnUse"><stop offset="0" stop-color="#bfa37b"/><stop offset="1" stop-color="#e6be86"/></linearGradient></defs><path fill="url(#e)" d="M90.48 420.057c12.406.343 26.48 7.43 32.415 18.732 3.501 6.666 1.088 12.614-5.881 15.431l-.863.178c-13.095 2.825-23.078-3.368-29.737-14.512-4.95-8.285-5.29-15.004 4.066-19.829"/><path fill="#16110c" d="M95.551 424.145c8.928-.031 30.712 14.084 22.861 23.793-6.546 8.094-27.515 2.649-27.315-11.439a7.2 7.2 0 0 1 2.39-5.256c6.889-6.065 24.362 6.742 16.271 14.5-1.881 1.803-13.694-1.26-11.822-7.021.753-2.315.891-1.551 3.711-1.484 2.462 1.224 4.256 2.321 3.206 5.272-.975 2.738 4.355 2.571 4.164-1.757-.238-5.354-6.43-9.76-11.271-9.204-8.415.966-3.805 11.968.836 14.838 4.449 3.09 6.697 3.622 11.668 3.079 4.142-.453 8.398-2.931 7.539-7.406-.707-3.882-3.753-7.186-6.832-9.295-7.49-5.133-17.455-10.979-23.7-.781-.227.37-.506 1.129-1.066.945-2.28-2.474 4.21-7.834 7.593-8.469z"/><path fill="#bda279" d="M100.038 438.719c3.904.693 3.407 1.294 3.471 5.137-3.042-1.605-3.6-1.792-3.471-5.137"/><path fill="#a5895f" d="M883.944 690.003a137 137 0 0 0 9.459 3.419c2.08 4.961 3.175 10.129 4.385 15.347 1.945-5.193 2.546-8.266 3.476-13.717 5.495-.046 7.477-.206 12.435-2.561-8.338 17.48-13.008 23.933-26.787 37.787a160 160 0 0 1-25.148 19.976c12.503-20.147 18.369-37.07 22.18-60.251"/><defs><linearGradient id="f" x1="675.015" x2="648.368" y1="124.769" y2="139.519" gradientUnits="userSpaceOnUse"><stop offset="0" stop-color="#c19e70"/><stop offset="1" stop-color="#e0bb86"/></linearGradient></defs><path fill="url(#f)" d="M648.223 120.455c2.037-5.046 6.9-12.737 13.024-12.944 1.832-.097 4.907.763 6.128 2.288 9.765 12.197 7.719 33.875-.627 46.235-1.072 1.099-4.783 1.752-6.008 1.464-14.039-3.296-10.17-36.737-1.781-42.603a2.67 2.67 0 0 1 2.045-.45c1.06.201 1.679.934 2.254 1.794l1.168 1.779.607-1.287c-5.524-7.816-10.013-.593-12.732 5.195-1.261-.363-1.276-.251-2.635.097a50 50 0 0 1-1.443-1.568"/><path fill="#16110c" d="M665.033 116.731c1.07.047.178-1.085.002-1.878l.094-.12c2.466-.221 3.637 11.129 3.799 12.767 1.939 19.686-13.713 33.956-13.765 5.004-.01-5.401 6.169-13.064 10.696-4.55l.864-2.114c-.596-3.672-.664-4.218-2.297-7.822z"/><path fill="#bda279" d="M666.732 135.765c-.308 1.847-2.267 12.956-6.736 11.212-2.358-.92-3.755-11.607-3.412-14.225.282-2.144 1.654-7.264 5.155-6.889 3.905.854 3.027 9.826.178 11.243-1.026-.093.694-3.962-.283-3.993-2.905 1.55-1.499 11.114 3.47 2.497z"/><path fill="#bda279" d="M666.723 125.84c.409 3.818.046 6.176.009 9.925l-1.628-.155c.771-3.491.516-4.433.755-7.656z"/><path fill="#a5895f" d="M605.068 609.687c2.113 1.186 5.622 4.869 8.075 6.656 8.183 5.962 16.012 9.405 25.815 11.414-11.37 5.95-21.989 10.651-35.146 8.908-12.539-3.014-14.188-6.261-15.812-18.185 5.201 4.819 4.03 3.949 11.287 5.657-3.592-5.748-4.446-7.414-6.625-13.554q3.499-.134 6.999-.115c3.491 7.693 4.916 14.39 5.407-.781"/><path fill="#bda279" d="M448.527 905.313c-2.53-9.516-2.639-22.209 10.822-12.65 7.988 5.673 15.703 21.497 12.039 31.04-.637 1.776-3.282 2.843-4.977 3.51q1.162.678 2.295 1.403c-4.812.081-5.817-.455-9.57-3.764l-.785.819c-3.533-3.926-9.234-15.308-9.824-20.358"/><path fill="#16110c" d="M449.078 900.373c1.397-3.949 3.472-6.695 8.416-4.826 3.799 1.436 6.682 5.991 8.772 10.315 2.054 4.25 3.568 14.667-5.059 11.731-3.794-1.291-4.887-10.492-6.446-13.532-.609-1.262 1.587-3.436 2.285.175 1.058 3.616 1.763 8.944 4.566 11.592 1.046.988 3.333.637 3.719-.485 1.837-5.332-1.713-13.074-6.076-16.292-1.19-1.188-2.634-2.495-4.5-2.352-4.472.343-4.287 6.206-3.221 9.296 2.561 7.424 6.88 18.501 14.877 21.218q1.162.678 2.295 1.403c-4.812.081-5.817-.455-9.57-3.764l-.785.819c-3.533-3.926-9.234-15.308-9.824-20.358.323-1.763.292-3.224.551-4.94"/><path fill="#a5895f" d="M448.527 905.313c.323-1.763.292-3.224.551-4.94 1.06 8.944 3.938 17.594 10.058 24.479l-.785.819c-3.533-3.926-9.234-15.308-9.824-20.358"/><path fill="#a5895f" d="M706.717 469.83c3.223-3.646 1.133-8.088 5.53-5.128a99 99 0 0 1-1.431 1.081c10.46 8.454 24.24 15.555 37.962 15.801.916-.017 7.179-.305 7.419.228-.288.731-1.626.798-2.255.929-22.954 6.316-51.866 3.484-73.809-5.742 11.131.667 15.682-.157 22.88-9.328l2.553 2.667z"/><path d="M706.717 469.83c3.223-3.646 1.133-8.088 5.53-5.128a99 99 0 0 1-1.431 1.081c-2.635 5.643-1.551 9.395-5.25 4.555z"/><path fill="#7c6248" d="M748.778 481.584c.916-.017 7.179-.305 7.419.228-.288.731-1.626.798-2.255.929-1.753-.937-3.169-.744-5.164-1.157"/><path fill="#a5895f" d="M550.022 109.35c11.1-.264 33.539 1.841 41.575 10.593 5.203 5.665-1.97 10.965-6.373 14.192a94 94 0 0 1-1.163-3.641l-.379-1.28c-1.565-4.026-2.544-5.666-4.968-9.247-2.909 7.023-2.909 8.837-3.188 16.412-5.006-1.093-8.011-1.976-12.711-3.841-3.427-10.647-4.453-15.222-12.793-23.188"/><path fill="#a5895f" d="M207.862 542.811c-16.869-3.39 17.394-29.919 23.446-17.196 5.442 11.439-13.916 18.087-21.945 17.093z"/><path fill="#16110c" d="M207.594 541.551c-2.343-5.845.373-9.37 5.477-12.97 2.81-1.717 9.369-4.389 12.623-2.919 15.795 7.132-19.86 23.734-13.533 9.02 1.148-2.671 8.669-6.183 11.55-4.573 2.409 1.346-3.776 7.274-4.966 5.588.033-.73.602-1.018.437-1.511-.932-.222-.799.652-2.196.394-.727-.72-.965-.813-1.397-1.682-1.375 1.246-4.291 4.201-2.31 5.627 3.09 2.224 11.319-2.112 13.199-4.802 1.472-2.105 2.708-4.793.227-6.397-2.135-1.086-5.783-.175-7.952.442-4.143 1.178-8.005 3.772-10.018 7.651-1.439 2.774-.142 4.125.783 6.902l-.155.387-1.501.103c.017-.774.128-.828-.268-1.26"/><path fill="#a5895f" d="M215.589 532.898c1.324-.568 5.755-2.815 7.028-1.461.245 1.192-3.734.592-5.631 3.143-.727-.72-.965-.813-1.397-1.682"/><path fill="#4d4029" d="M207.594 541.551c.764.27 1.191.436 1.924.77l-.155.387-1.501.103c.017-.774.128-.828-.268-1.26"/><path fill="#bda279" d="M468.706 928.616c6.102-3.276 6.602-9.58 5.154-15.843-2.107-9.11-7.892-18.148-15.855-23.198-1.73-1.097-4.89-2.523-7.211-1.909-3.97 1.873-1.897-3.501-.018-4.105 3.164-1.017 6.698-.407 9.42 1.549 9.069 6.532 15.543 17.387 18.252 28.144.466 1.851.962 5.603.889 7.495-.204 5.282-2.043 14.14-9.083 13.221-4.982-.65-8.12-3.835-11.262-7.552l-.641-.747.785-.819c3.753 3.309 4.758 3.845 9.57 3.764"/><path fill="#a5895f" d="M803.105 355.578c9.733-.322 17.333 2.892 21.764 11.81-2.197 1.138-3.587 1.903-5.862 2.92-3.903.341-15.227.669-18.15-1.547-5.995-4.544-4.421-10.835 2.248-13.183"/><path fill="#16110c" d="M804.452 358.621c3.689-.129 12.286.056 14.256 4.573 1.501 3.444-.473 4.768-3.592 5.778-3.842.182-12.253.129-14.39-4.393-1.515-3.209.93-4.86 3.726-5.958"/><path fill="#16110c" d="M807.4 359.825c2.125.065 3.994.076 5.999.861 4.002 1.96 7.014 4.766 1.861 7.512-2.218-.564-3.831.056-6.329-.656-7.874-2.13-11.087-6.728-1.531-7.717"/><path fill="#a5895f" d="M808.931 367.542c-7.874-2.13-11.087-6.728-1.531-7.717l-.22 1.348c-1.319 2.43-.078 3.64 1.688 5.597l.262.295z"/><path fill="#a5895f" d="M811.465 361.001a79 79 0 0 0 1.934-.315c4.002 1.96 7.014 4.766 1.861 7.512-.932-.59-1.523-.561-1.389-1.649-.493-3.103-.244-3.228-2.406-5.548"/><path fill="#967a56" d="M813.871 366.549c-.134 1.088.457 1.059 1.389 1.649-2.218-.564-3.831.056-6.329-.656l.199-.477c1.933-.049 2.879-.254 4.741-.516"/><path fill="#967a56" d="M807.4 359.825c2.125.065 3.994.076 5.999.861q-.965.17-1.934.315c-1.693-.032-2.592.026-4.285.172z"/><path fill="#a5895f" d="M808.075 361.98c5.324.236 5.565 4.312 2.214 3.734l-.36-.205-.162.022-.229-.463-.126-.042-.17.06.032-.146c.638-.199 1.77.262 2.023-.561-.8-1.368-3.241 1.518-3.222-2.399"/><path fill="#f6cd91" d="M648.223 120.455q.705.8 1.443 1.568c1.359-.348 1.374-.46 2.635-.097-1.234 4.134-1.654 5.838-2.385 10.074-.733 4.251-.126 6.991-.555 10.347q.305 1.953.645 3.902c1.265 7.166 5.753 14.547 14.016 12.716 1.648.913-.498 2.181-1.517 3.331-1.9.317-4.308 1.38-6.246 1.061-9.103-1.499-12.492-11.607-12.787-19.685-.313-8.582 1.533-15.365 4.751-23.217"/><path fill="#bda279" d="M649.666 122.023c1.359-.348 1.374-.46 2.635-.097-1.234 4.134-1.654 5.838-2.385 10.074-.733 4.251-.126 6.991-.555 10.347-1.327-1.403-.035-4.252-.816-6.092-1.768-4.17-.415-10.082 1.121-14.232"/><path fill="#16110c" d="M382.787 453.207c18.464-4.459-3.067 33.776-8.36 15.547-.873-3.007 1.977-7.41 4.447-9.251.377-.519.327-.505.587-1.158l-1.32-.032c1.84-2.481 2.216-3.038 4.646-5.106"/><path fill="#bda279" d="M382.787 453.207c18.464-4.459-3.067 33.776-8.36 15.547-.873-3.007 1.977-7.41 4.447-9.251-.87 2.568-5.889 10.213-.618 11.395 5.959 1.336 12.836-12.573 6.507-14.705-1.006-.339-4.297 1.266-5.302 2.152l-1.32-.032c1.84-2.481 2.216-3.038 4.646-5.106"/><path fill="#bda279" d="M383.985 457.139c1.19.063 1.789.604 1.949 1.841a10.4 10.4 0 0 1-2.203 7.758 6.97 6.97 0 0 1-4.971 2.651l-.512.015-1.01.054c.492-7.61 1.32-3.965 3.506-3.499.469.101.959.002 1.351-.273 1.49-1.06 2.244-5.458 1.152-6.837.2-.873.474-.341.738-1.71"/><path fill="#a5895f" d="M381.158 460.3c1.454 1.324.655 3.24-.589 4.425-2.159-2.345-1.957-2.14.589-4.425"/><path fill="#bda279" d="M281.908 364.249c-4.41-7.027 10.235-13.491 15.594-13.191 7.579.423 5.381 3.907.981 7.686-4.102 3.522-8.947 5.122-14.335 4.524-.14-.125-.33-.072-.544-.067l-.273.731z"/><path fill="#16110c" d="M283.604 363.201c-.576-4.668 1.285-5.937 4.941-8.154 7.582-4.6 12.067 1.604 3.96 5.615-2.023 1.001-2.973-.735-3.222-2.66-.32-.768-.304-.98-.825-1.445-2.846 2.185-3.742 2.864-4.22 6.133l-.09.578c-.14-.125-.33-.072-.544-.067"/><path fill="#a5895f" d="M288.458 356.557c1.24-.708 7.9-3.524 7.533-.189-1.337 1.442-2.436-2.738-6.708 1.634-.32-.768-.304-.98-.825-1.445"/><path fill="#bda279" d="M293.66 356.883c1.505 1.417-.574 2.137-1.842 2.987-1.055-1.877.069-2.011 1.842-2.987"/><path d="M554.529 301.245c1.059-4.322-.126-7.92 4.195-1.013-.25 9.137-2.023 15.138-7.076 22.919-.126.194-1.653.576-1.92.692 1.787-3.91 3.403-9.827 4.119-14.073.188-2.83.461-5.688.682-8.525"/><path fill="#bda279" d="M309.629 197.373c2.071-8.453 7.59 1.629 6.097 5.151-.653 1.541-3.689 2.001-4.841.374l-1.386.03c-.034-.772-.097-1.5-.163-2.268a39 39 0 0 1-.832-2.152c.404-.357.846-.682 1.125-1.135"/><path fill="#16110c" d="M309.629 197.373c.318 1.055.463 1.742.685 2.811l-.978.476a39 39 0 0 1-.832-2.152c.404-.357.846-.682 1.125-1.135"/><path fill="#4e331b" d="M310.314 200.184c.175 1.063.31 1.659.571 2.714l-1.386.03c-.034-.772-.097-1.5-.163-2.268z"/><path fill="#f1c488" d="M668.404 158.109c.444-.448.812-.946 1.192-1.451 1.496 1.248 3.803 2.113 4.052 4.07.078.619.695.898 1.129 1.203-3.576-.003-7.104.126-10.666.16l-1.606.205c1.019-1.15 3.165-2.418 1.517-3.331.872-.567 3.341-.747 4.382-.856"/><path fill="#16110c" d="M664.022 158.965c.872-.567 3.341-.747 4.382-.856-1.746 2.052-2.198 2.368-4.293 3.982l-1.606.205c1.019-1.15 3.165-2.418 1.517-3.331"/><path fill="#a5895f" d="M132.779 725.871c-.176-.755-1.263-3.682-.897-4.096.607-.021 1.462 1.355 1.8 1.851z"/><path fill="#a5895f" d="M842.478 759.038c3.08.731 3.269.563.687 2.184z"/><path fill="#a5895f" d="M292.203 895.857c3.436 2.052 2.343 2.577-.469.987z"/><path fill="#f6cd91" d="m368.012 264.063 1.178.515c-1.104 2.415-1.003.595-1.178-.515"/></svg>