<svg xmlns="http://www.w3.org/2000/svg" width="1024" height="1024" viewBox="0 0 1024 1024"><path fill="#1d1a16" d="M0 0h1024v1024H0z"/><path fill="#0c0c09" d="M453.294 513.187c4.213-.518 7.66 1.459 10.824 3.909 7.225 5.594 11.548 13.26 12.545 22.331 3.808 34.644-25.849 48.059.085 82.549 4.031 5.309 7.399 11.51 12.352 15.998 2.562 2.192 5.284 2.815 8.521 2.54 8.006-.647 11.582-7.465 16.175-13.05 7.831-9.525 16.68-17.407 16.697-30.763.011-9.183-3.57-15.812-5.811-24.305-3.415-12.941-2.578-29.937 5.412-41.12a33.5 33.5 0 0 1 9.766-9.096c1.513-1.14 2.232-1.393 4.029-1.65 16.99-6.939 14.128 2.949 17.278 16.087 1.496 6.235 3.374 12.87 5.475 18.949a336 336 0 0 0 8.367 21.205c5.789 13.176 11.315 19.824 3.557 34.988-6.459 12.626-23.55 32.778-21.494 47.41.148-1.845-.154-2.159.793-3.36 1.202.443 4.67 2.098 5.529 2.206 12.098 1.52 27.741-12.788 35.79-19.905 9.045-8.084 14.314-15.722 10.755-28.388-4.818-17.143-5.79-36.501 11.39-47.048 3.193-1.961 6.905-2.583 10.527-1.504 2.552-.145 3.688-.696 5.719.232 3.966 4.571 3.148 17.945 4.275 24.074 1.353 7.937 3.209 16.107 5.114 23.903 2.917 11.939 10.112 24.358 1.656 35.934-10.89 14.908-36.66 31.076-43.175 48.515 2.427 2.667 3.418 2.799 6.89 3.884 14.123-2.715 37.113-11.259 41.224-26.659 2.23-8.356.559-14.899 7.573-22.401 6.499-6.95 16.746-10.926 26.198-11.289 2.732-.105 7.867.422 9.929 2.357l-.759.728c15.684 1.93 2.335 12.003-1.918 16.925-12.445 14.402-13.055 33.01-17.759 50.47-2.667 9.898-9.866 13.386-18.564 17.392a408 408 0 0 1-16.085 7.116c-10.876 4.41-21.03 6.817-28.848 15.982-9.487 11.122-10.375 22.435-14.175 35.896a115.6 115.6 0 0 1-6.211 16.506c-3.077 6.56-6.851 11.367-11.456 16.845-.621.74-4.421 5.096-4.681 5.519-2.609 7.905-9.067 10.637-13.432 15.858.709 2.231-.78 6.696-1.11 9.281-1.406 11.035-3.791 24.229-2.776 35.273 4.259 46.321 11.192 95.317 21.796 140.489h-171.15a781 781 0 0 0 13.396-39.785c12.198-39.402 20.077-84.075 25.288-124.971.716-5.621.11-15.06-.621-20.729-2.973-23.051-13.487-44.903-29.836-61.45-16.309-17.269-33.701-18.444-47.373-40.199-14.34-22.819-2.287-40.717-10.205-64.923-3.51-10.73-13.355-18.73-18.418-28.482l-.366-.714c.625-4.148.71-6.576 4.628-8.546 4.232-4.226 7.975-6.338 14.013-6.186 17.059.428 32.505 11.017 37.787 27.449 2.591 8.062 3.854 16.763 6.175 24.776 2.338 8.076 8.402 15.752 17.245 16.364 6.113.423 13.332-5.504 17.684-9.307l.67-.116c1.828-2.822 1.59-8.474 1.644-11.737.338-20.41-9.614-38.204-18.886-55.676-2.979-5.613-5.7-12.477-5.762-18.986a55.7 55.7 0 0 1 2.504-16.686c5.004-16.444 14.838-32.216 19.614-49.071 2.555-9.014 1.443-22.701 13.982-21.838"/><path fill="#4b3626" d="M453.294 513.187c4.213-.518 7.66 1.459 10.824 3.909 7.225 5.594 11.548 13.26 12.545 22.331 3.808 34.644-25.849 48.059.085 82.549 4.031 5.309 7.399 11.51 12.352 15.998 2.562 2.192 5.284 2.815 8.521 2.54 8.006-.647 11.582-7.465 16.175-13.05 7.831-9.525 16.68-17.407 16.697-30.763.011-9.183-3.57-15.812-5.811-24.305-3.415-12.941-2.578-29.937 5.412-41.12a33.5 33.5 0 0 1 9.766-9.096l.612 1.666c-27.174 33.285 6.311 57.76-6.289 84.29-4.92 10.359-26.333 37.643-37.351 41.148-3.326 1.058-6.665.744-9.696-.994-7.102-4.073-11.238-14.23-14.913-21.263-3.611-6.909-8.588-13.317-10.9-20.832-7.608-24.725 15.534-43.888 7.045-73.379-2.31-8.026-6.951-15.252-14.433-19.29z"/><path fill="#4b3626" d="M557.072 659.169c.148-1.845-.154-2.159.793-3.36 1.202.443 4.67 2.098 5.529 2.206 12.098 1.52 27.741-12.788 35.79-19.905 9.045-8.084 14.314-15.722 10.755-28.388-4.818-17.143-5.79-36.501 11.39-47.048 3.193-1.961 6.905-2.583 10.527-1.504-7.176 3.212-9.569 7.266-12.668 14.088-8.074 17.775 6.516 42.115-4.789 58.287-8.547 12.226-27.569 25.608-40.884 32.369-6.614 3.358-12.261 3.079-15.376-4.146q-.554-1.29-1.067-2.599"/><path fill="#4b3626" d="M346.624 634.201c4.232-4.226 7.975-6.338 14.013-6.186 17.059.428 32.505 11.017 37.787 27.449 2.591 8.062 3.854 16.763 6.175 24.776 2.338 8.076 8.402 15.752 17.245 16.364 6.113.423 13.332-5.504 17.684-9.307l.67-.116c-1.173 3.575-2.911 7.368-5.09 10.446a27.64 27.64 0 0 1-18.45 11.487c-18.139 2.788-18.778-19.163-20.603-31.692-1.74-13.487-6.6-28.338-18.462-36.321-10.224-6.88-19.055-8.931-30.969-6.9"/><path fill="#4b3626" d="M612.335 697.712c14.123-2.715 37.113-11.259 41.224-26.659 2.23-8.356.559-14.899 7.573-22.401 6.499-6.95 16.746-10.926 26.198-11.289 2.732-.105 7.867.422 9.929 2.357l-.759.728c-16.401.793-30.206 10.882-33.885 27.075-1.982 8.722-5.541 18.456-12.807 24.192-9.319 7.012-24.172 12.08-35.79 13.172-5.638.53-8.538-1.951-8.605-7.556q-.013-1.752.032-3.503c2.427 2.667 3.418 2.799 6.89 3.884"/><path fill="#4b3626" d="M576.803 823.099c-2.609 7.905-9.067 10.637-13.432 15.858-7.726 5.292-14.288 9.267-23.575 11.628 14.067-8.542 24.614-16.626 37.007-27.486"/><path fill="#4b3626" d="M539.86 522.18c1.513-1.14 2.232-1.393 4.029-1.65a127 127 0 0 0-3.417 3.316z"/><path fill="#efc78e" d="M477.826 369.276c25.381 8.702 50.482 28.993 61.791 54.73.944 2.147-.614 26.237-.784 30.417a1676 1676 0 0 0-1.4 46.429c-2.167-3.725-3.447-5.688-6.04-9.114-10.962-13.767-26.195-20.31-43.323-22.87-6.917-1.034-19.216-.27-24.495-4.746-7.209-6.111 1.831-23.672 3.526-31.071 6.473-20.91 13.156-41.572 10.725-63.775"/><path fill="#efc78e" d="M409.612 268.788c5.18 6.953 6.145 12.304 6.502 20.734 2.575 1.03.134 1.702 2.368 1.432l.194.081c1.391-2.459 10.167-4.923 13.454-6.19-1.081 2.669-2.977 6.825-3.038 9.63 1.784 3.071-.052 2.421 1.059 4.915.371-2.676-.087-2.083 1.39-3.949 2.017-1.046 3.765-.96 6.058-1.133-3.159 17.272.621 26.285 9.932 41.392 2.41 3.911 6.077 8.534 8.22 12.486-21.657 9.195-46.823 21.796-57.463 44.545-.574 1.864-.756 3.771-2.5 4.598-.923 2.433-1.973 5.318-5.16 4.225l-.623-.846.235-.899-2.171-2.322c.602-.812 1.915-1.596 2.837-2.591q-7.56-21.247-14.88-42.576c-1.667-4.855-6.286-16.337-6.623-20.748-1.989-26.039 21.581-50.966 40.209-62.784"/><path fill="#0c0c09" d="M418.676 291.035c1.391-2.459 10.167-4.923 13.454-6.19-1.081 2.669-2.977 6.825-3.038 9.63 1.784 3.071-.052 2.421 1.059 4.915.371-2.676-.087-2.083 1.39-3.949 2.017-1.046 3.765-.96 6.058-1.133-3.159 17.272.621 26.285 9.932 41.392 2.41 3.911 6.077 8.534 8.22 12.486-21.657 9.195-46.823 21.796-57.463 44.545-.574 1.864-.756 3.771-2.5 4.598-.923 2.433-1.973 5.318-5.16 4.225l-.623-.846.235-.899-2.171-2.322c.602-.812 1.915-1.596 2.837-2.591l.818.947.769-.339c1.404-37.913 36.392-44.43 38.836-58.218 2.017-11.384-9.762-14.77-15.028-22.55-5.12-7.563-1.679-17.017-.187-25.214 2.575 1.03.134 1.702 2.368 1.432z"/><path fill="#efc78e" d="M418.676 291.035c1.391-2.459 10.167-4.923 13.454-6.19-1.081 2.669-2.977 6.825-3.038 9.63-3.465 14.86 12.626 36.336 14.895 50.883-4.375 2.198-9.01 3.964-13.18 6.375-13.717 7.931-25.693 19.383-32.832 33.604l-1.3-.352c3.48-14.614 14.347-25.333 26.099-33.7 5.203-3.705 11.414-9.031 12.065-15.691 1.148-11.739-9.007-14.333-14.975-21.965-5.121-6.55-2.191-14.664-1.188-22.594"/><path fill="#efc78e" d="M430.151 299.39c.371-2.676-.087-2.083 1.39-3.949 2.017-1.046 3.765-.96 6.058-1.133-3.159 17.272.621 26.285 9.932 41.392 2.41 3.911 6.077 8.534 8.22 12.486-21.657 9.195-46.823 21.796-57.463 44.545l-.461-1.619c6.651-17.333 20.286-30.274 36.66-38.686 2.939-1.51 9.016-3.42 10.933-5.948 2.956-3.9-9.634-28.496-11.598-33.616-1.707-4.452-2.929-8.763-3.671-13.472"/><path fill="#65543d" d="M395.788 397.329a208 208 0 0 0 2.039-6.217l.461 1.619c-.574 1.864-.756 3.771-2.5 4.598"/><path fill="#e3b981" d="M395.574 388.62c.339-1.313.563-2.391 1.101-3.635l1.3.352-1.656 3.558z"/><path fill="#806c50" d="m395.574 388.62.745.275c-.095.472-.443 3.559-1.119 3.721l-.105-.095-.068-.873-.033.268c.003-1.354.219-2.007.58-3.296"/><path fill="#e3b981" d="M392.493 395.504c-.029.384.018 1.033-.295 1.314-.365-.129-.39-.638-.474-.975z"/><path fill="#efc78e" d="M240.199 462.101c16.43 14.605 21.475 11.312 38.825 19.861 8.257 4.069 18.425 10.049 24.031 17.548 6.691 8.952 15.914 53.005 21.458 66.298l.755.169c.477 1.37.879 2.316 1.052 3.773-1.746 3.026-8.878-1.195-11.373-2.471l-.661-1.037c-15.33-9.582-39.366-6.991-56.332-5.371-2.786.266-6.981.608-9.329-1.193-5.784-4.436-7.713-38.567-13.849-48.665-2.425-3.991-6.851-7.083-10.431-10.013 3.298-1.364 6.937-2.673 10.296-3.951-.179-2.267-1.423-4.952.767-5.942-.125-10.514.464-19.258 4.791-29.006"/><path fill="#efc78e" d="M234.641 497.049c2.882 8.928 8.136 10.362 11.514 18.048 3.928 8.937-.055 30.452 9.877 35.646 5.789 3.028 15.128 2.221 21.729 2.346 16.028.306 29.976 5.113 42.91 14.663l-1.332.298c-1.262-.586-3.655-1.326-5.053-1.808-15.33-9.582-39.366-6.991-56.332-5.371-2.786.266-6.981.608-9.329-1.193-5.784-4.436-7.713-38.567-13.849-48.665-2.425-3.991-6.851-7.083-10.431-10.013 3.298-1.364 6.937-2.673 10.296-3.951"/><path fill="#0c0c09" d="M234.641 497.049c-.179-2.267-1.423-4.952.767-5.942 2.855 13.817 6.941 11.632 13.004 22.931 4.112 7.664 1.328 29.073 7.997 34.199 4.717 3.625 17.115 2.047 23.41 2.39 16.168.882 32.777 6.68 44.431 18.188l.583-.189c-.08-1.064-.117-1.773-.32-2.818l.755.169c.477 1.37.879 2.316 1.052 3.773-1.746 3.026-8.878-1.195-11.373-2.471l-.661-1.037c1.398.482 3.791 1.222 5.053 1.808l1.332-.298c-12.934-9.55-26.882-14.357-42.91-14.663-6.601-.125-15.94.682-21.729-2.346-9.932-5.194-5.949-26.709-9.877-35.646-3.378-7.686-8.632-9.12-11.514-18.048"/><path fill="#65543d" d="M320.671 567.752c.799.43 2.961 1.366 3.101 2.425l-.091.095c-.695.14-3.65-1.854-4.342-2.222z"/><path fill="#efc78e" d="m615.358 378.723-2.162-.461-.166-.435c1.624-.483 1.564-.366 3.24.068 2.743 2.515.84 4.24.9 7.335.096 5.653 1.353 10.683-.384 16.304-3.56 11.523-14.536 16.736-13.589 30.198.758 10.766 11.337 26.355 1.312 35.959-2.743 2.628-12.765 5.401-16.594 4.526-1.04.14-2.533.477-3.58.712a70.87 70.87 0 0 0-44.9 31.781c-.609-16.372 1.593-36.18 1.724-52.855.065-8.205.457-18.816 1.202-27.015.201-2.21 4.045-7.613 5.663-9.574 17.806-21.572 39.722-33.563 67.334-36.543"/><path fill="#0c0c09" d="m615.358 378.723-2.162-.461-.166-.435c1.624-.483 1.564-.366 3.24.068 2.743 2.515.84 4.24.9 7.335.096 5.653 1.353 10.683-.384 16.304-3.56 11.523-14.536 16.736-13.589 30.198.758 10.766 11.337 26.355 1.312 35.959-2.743 2.628-12.765 5.401-16.594 4.526 5.899-1.26 13.952-1.832 17.649-7.172 6.501-9.391-1.649-21.215-2.853-30.822-1.368-10.929 2.731-16.682 9.025-24.566 6.931-8.682 5.18-20.692 3.622-30.934"/><path fill="#efc78e" d="M327.794 567.131c-5.063-7.949-10.479-31.65-13.655-41.425-2.401-7.392-5.36-17.422-7.619-24.787-2.48-8.087 5.275-24.857 9.472-31.786 6.885-11.417 16.214-22.353 28.538-28.038 2.205-1.017 7.198-4.034 8.968-1.49 2.878 4.14 3.804 10.274 4.021 15.195l1.847.908.788-.509c1.507-2.075 8.095-2.859 10.74-3.263a36 36 0 0 1 1.591-.219c-7.303 14.071-6.774 18.093-2.7 33.755 1.843 7.087 11.932 27.028 9.785 33.071-.572 1.61-14.209 8.445-17.417 10.473a86 86 0 0 0-8.212 5.999c-9.39 7.71-16.17 16.395-21.932 27.089-1.166 2.889-1.238 5.346-2.901 7.759-1.136-.146-1.462-.914-1.937-1.853z"/><path fill="#efc78e" d="M360.154 455.199c1.507-2.075 8.095-2.859 10.74-3.263a36 36 0 0 1 1.591-.219c-7.303 14.071-6.774 18.093-2.7 33.755 1.843 7.087 11.932 27.028 9.785 33.071-.572 1.61-14.209 8.445-17.417 10.473a86 86 0 0 0-8.212 5.999c-9.39 7.71-16.17 16.395-21.932 27.089l-.774-2.026c7.753-19.914 17.752-30.247 34.964-42.273 13.927-9.731 5.416-23.055-3.254-32.101-8.918-9.304-3.972-19.657-2.791-30.505"/><path fill="#0c0c09" d="m357.519 454.8 1.847.908.788-.509c-1.181 10.848-6.127 21.201 2.791 30.505 8.67 9.046 17.181 22.37 3.254 32.101-17.212 12.026-27.211 22.359-34.964 42.273l.774 2.026c-1.166 2.889-1.238 5.346-2.901 7.759-1.136-.146-1.462-.914-1.937-1.853l.623-.879c1.501-14.876 12.833-32.252 23.659-41.028 16.273-13.191 28.482-17.592 8.793-37.995-10.274-10.647-3.987-21.332-2.727-33.308"/><path fill="#937d60" d="M329.108 569.863c.209-2.01 1.574-7.709 2.127-9.785l.774 2.026c-1.166 2.889-1.238 5.346-2.901 7.759"/><path fill="#efc78e" d="M705.61 454.742c14.656 7.842 26.389 22.924 33.751 37.658 8.361 16.734 1.655 26.187-4.628 42.156a3482 3482 0 0 0-15.402 39.313c-.791-3.912-1.178-5.243-2.609-8.97-7.148-16.458-19.278-26.15-35.754-32.904-19.389-6.725-5.739-18.984 2.08-29.725 11.919-16.371 18.86-27.066 22.562-47.528"/><path fill="#efc78e" d="M309.7 312.708c16.782-.835 46.331 7.007 57.459 20.799 2.281 2.827 9.136 25.031 10.885 30.183a3246 3246 0 0 0 11.159 31.954c-3.164-2.779-5.593-4.327-9.168-6.492-28.444-15.094-45.665 3.467-56.201.422-3.073-.888-4.424-4.257-5.234-7.053-1.894-6.547-2.23-14.163-3.188-20.93-2.421-17.103-7.603-32.698-16.071-47.77 3.527-.522 6.806-.803 10.359-1.113"/><path fill="#efc78e" d="M594.37 221.398c19.065 8.616 43.081 33.375 42.505 55.896-.044 1.726-1.444 5.785-2.012 7.573-5.926 18.64-13.522 37.029-18.908 55.801q-.456-1.3-.927-2.598c.759-4.063-4.958-15.007-7.466-18.689a49.5 49.5 0 0 0-15.06-14.409c-17.212-10.455-34.861-6.519-16.742-31.74 11.296-15.724 17.78-32.279 18.61-51.834"/><path fill="#efc78e" d="m806.122 482.436.547.258c7.078 13.83-1.101 30.427-12.696 39.055-15.819 11.771-.38 27.19-14.507 38.779-4.438 1.067-11.838.968-16.684.88-14.519-.266-28.994 4.255-40.287 13.691-.983.643-.441.398-1.639.708l-.1-.901c6.26-14.226 11.475-30.589 17.429-45.079 2.019-4.914 5.011-14.092 7.638-18.11 4.058-6.208 13.653-12.932 20.806-14.933 17.495-4.894 24.164-3.983 39.493-14.348"/><path fill="#efc78e" d="m694.92 247.412.617.429c2.017 3.821 3.176 8.514 3.567 12.69 1.565 16.72-11.966 20.478-16.554 33.558-1.743 6.729.775 13.963-.217 20.83-1.66 11.492-10.251 10.438-19.486 10.163-16.03-.477-29.367 4.35-41.92 14.235-1.622 1.512-1.465 1.924-3.126 1.992l-.267-1.061c1.799-7.365 19.662-59.726 22.334-63.332 4.803-6.484 12.744-10.768 20.076-13.718 12.114-4.874 24.088-8.218 34.976-15.786"/><path fill="#efc78e" d="M755.059 424.425c.003-1.025.164-1.8.475-2.777 1.601-5.018 19.186-49.103 20.861-51.207 3.277-4.115 8.851-7.055 13.728-8.833 5.365-1.956 11.069-3.083 16.537-4.739 6.305-1.91 12.052-4.645 17.868-7.682 1.683 7.924 2.291 13.574 1.661 21.623 2.215 2.358.4 3.645 1.501 6.551 2.46 1.229 4.895 2.487 7.417 3.58-16.106 11.975-12.345 24.496-20.184 41.022-.537 1.133-2.458 2.665-3.772 2.237-20.772-6.761-27.824-6.962-48.501-2.693l-.169.703 1.364.495c-3.319 1.199-5.607 1.995-8.302 4.46-1.547-.585-1.591-1.052-2.136-2.22l.429-.75z"/><path fill="#efc78e" d="M827.69 377.361c2.46 1.229 4.895 2.487 7.417 3.58-16.106 11.975-12.345 24.496-20.184 41.022-.537 1.133-2.458 2.665-3.772 2.237-20.772-6.761-27.824-6.962-48.501-2.693 14.519-10.657 26.497-6.676 42.199-6.033 12.912.529 8.34-18.667 11.097-25.632 1.567-3.958 8.277-8.474 11.744-12.481"/><path fill="#0c0c09" d="M826.189 370.81c2.215 2.358.4 3.645 1.501 6.551-3.467 4.007-10.177 8.523-11.744 12.481-2.757 6.965 1.815 26.161-11.097 25.632-15.702-.643-27.68-4.624-42.199 6.033l-.169.703 1.364.495c-3.319 1.199-5.607 1.995-8.302 4.46-1.547-.585-1.591-1.052-2.136-2.22l.429-.75 1.223.23c7.685-6.191 14.773-10.495 24.746-12.537 8.241-1.687 21.761 3.222 28.02-.106 6.202-3.297 1.658-18.663 5.752-24.724 5.5-8.142 9.558-6.102 12.612-16.248"/><path fill="#efc78e" d="M442.229 157.795c12.247 2.98 22.272 7.003 31.97 15.353 7.791 6.707 15.68 17.333 16.418 27.935-1.127 15.682-5.578 39.722-5.655 54.627-9.586-15.523-20.344-21.942-38.503-24.139-18.934-2.106-16.621-9.834-11.564-24.434 6.158-17.781 9.568-30.517 7.334-49.342"/><path fill="#efc78e" d="M737.024 320.209c1.429.671 2.759 1.349 4.145 2.237 14.589 9.345 26.893 26.639 31.191 43.371.474 1.846.571 5.919.076 7.558-2.042 6.755-16.517 45.514-19.137 49.323l-.29-.819c-2.385-14.155-11.046-26.317-23.924-32.817-3.593-1.764-15.72-8.031-14.048-13.303 3.172-10.006 12.347-19.517 16.286-29.627 3.576-9.18 4.625-16.468 5.701-25.923"/><path fill="#efc78e" d="M491.75 202.677c3.951-22.792 26.213-28.487 43.968-38.476 2.003-1.128 4.538-2.552 6.659-3.372 9.304 22.79-6.248 23.968-8.802 38.06-3.184 17.572 16.177 32.975-18.256 35.572-7.67.579-22.565 12.102-26.976 19.686.644 1.878-.626 4.341-1.807 5.796l-.898.015c-1.25-1.841-.816-1.461-.676-4.248.077-14.905 4.528-38.945 5.655-54.627l.93.369z"/><path fill="#190f09" d="m490.617 201.083.93.369.203 1.225c-.538 5.792-6.274 51.745-5.192 53.536.648-.727 1.176-1.309 1.785-2.066.644 1.878-.626 4.341-1.807 5.796l-.898.015c-1.25-1.841-.816-1.461-.676-4.248.077-14.905 4.528-38.945 5.655-54.627"/><path fill="#efc78e" d="M460.83 395.06c1.574-.3 9.963 3.684 13.035 4.543-3.15 19.276-11.517 36.987-15.751 55.346-3.717 16.118 21.114 16.156 30.601 16.686 11.075 1.743 23.342 6.064 31.963 13.17 4.016 3.286 6.678 7.247 9.075 9.352 6.599 2.571 3.717 13.877 7.966 15.737a3.66 3.66 0 0 0 3.44-.293c1.896-1.209 2.306-3.845 5.358-3.454l-2.941 2.513c-2.936 3.11-6.014 2.431-8.759-.424-1.571-.434-1.749-.898-3.028-2.085-21.193-16.135-38.786-16.598-63.694-12.109-7.83 1.411-17.032 2.31-24.933 1.338.976-3.841 3.44-12.388 3.471-15.944l-.357-.105c-.979-2.246-.825-11.005.228-13.286l.686.042c2.96-8.721 5.885-16.479 9.191-25.06-.134-.766-.182-7.324 1.42-6.139 1.395-2.116 2.102-10.185 2.441-12.71 1.273-6.947 1.884-14.218.381-21.183-.692-3.201-.77-3.118.207-5.935"/><path fill="#efc78e" d="m446.633 479.436 1.115-.604c10.092 4.252 14.886 4.902 25.792 4.671 24.237-.516 43.28 1.597 59.121 21.896l-.872.752c-21.193-16.135-38.786-16.598-63.694-12.109-7.83 1.411-17.032 2.31-24.933 1.338.976-3.841 3.44-12.388 3.471-15.944"/><path fill="#0c0c09" d="m446.633 479.436-.357-.105c-.979-2.246-.825-11.005.228-13.286l.686.042c-.485 2.944-1.456 6.5.405 8.903 2.886 3.727 10.307 5.497 14.78 5.744 27.497 1.518 48.724-3.831 68.617 19.548a186 186 0 0 1 4.555 5.66c-1.728-5.21-2.866-7.107-5.794-11.785 6.599 2.571 3.717 13.877 7.966 15.737a3.66 3.66 0 0 0 3.44-.293c1.896-1.209 2.306-3.845 5.358-3.454l-2.941 2.513c-2.936 3.11-6.014 2.431-8.759-.424-1.571-.434-1.749-.898-3.028-2.085l.872-.752c-15.841-20.299-34.884-22.412-59.121-21.896-10.906.231-15.7-.419-25.792-4.671z"/><path fill="#b79b73" d="M532.661 505.399c.902 1.051 1.382 1.71 2.156 2.837-1.571-.434-1.749-.898-3.028-2.085z"/><path fill="#0c0c09" d="M460.83 395.06c3.647 9.22 2.962 20.724.656 30.213-1.127 5.172-3.26 10.786-5.105 15.754-.134-.766-.182-7.324 1.42-6.139 1.395-2.116 2.102-10.185 2.441-12.71 1.273-6.947 1.884-14.218.381-21.183-.692-3.201-.77-3.118.207-5.935"/><path fill="#efc78e" d="M304.837 260.358c-16.844-2.911-25.687 7.145-34.359 7.102-5.716-2.678-8.283-18.981-12.691-23.85-3.447-3.807-9.327-5.849-12.921-9.301.144-.464.242-.888.567-1.293 9.612-11.982 27.461-15.291 40.468-6.5.601-.738.869-.931.972-1.866 1.727 5.074 20.56 30.691 25.157 36.809.032 1.794-.225 1.649-1.93 2.069-2.118-1.236-3.198-.967-5.6-1.583z"/><path fill="#190f09" d="M286.873 224.65c1.727 5.074 20.56 30.691 25.157 36.809.032 1.794-.225 1.649-1.93 2.069-2.118-1.236-3.198-.967-5.6-1.583l.337-1.587c2.411.398 3.753.977 6.014 1.665-6.177-9.868-14.927-19.132-20.773-29.488-1.212-2.148-2.922-4.013-4.177-6.019.601-.738.869-.931.972-1.866"/><path fill="#efc78e" d="M286.873 224.65c-4.071-14.6 4.382-39.844 20.227-44.739.958 7.484 1.945 20.5 8.185 24.654 9.712 6.464 15.253 7.907 6.306 19.737-6.42 8.488-8.91 17.287-9.524 28.067-.142 3.222-.003 5.912-.037 9.09-4.597-6.118-23.43-31.735-25.157-36.809"/><path fill="#efc78e" d="M547.603 502.786c12.333-11.936 36.134-21.332 52.712-22.716 20.499-1.712 22.01 2.508 20.8-20.82-.613-11.825.022-33.1 6.311-43.453 3.071 1.144 6.028 2.053 9.153 3.027-1.233 1.43-2.752 3.226-3.83 4.733-7.566 10.577-6.768 35.339-3.947 47.769l.501-1.012c2.305 5.422 3.726 16.464-2.228 19.937 1.024 4.605 1.714 9.631 2.655 14.329-26.557-7.388-40.791-11.959-68.658-3.071-3.832 1.222-15.817 6.842-17.496 7.151l2.941-2.513.729.112c-1.229-.48-1.488-.403-2.223-1.434l1.117.058c.385-1.269.382-1.263 1.463-2.097"/><path fill="#efc78e" d="M547.246 506.259c19.901-12.214 36.8-17.515 60.634-16.615 6.211.234 13.213 2.741 19.195.607 1.024 4.605 1.714 9.631 2.655 14.329-26.557-7.388-40.791-11.959-68.658-3.071-3.832 1.222-15.817 6.842-17.496 7.151l2.941-2.513z"/><path fill="#0c0c09" d="m628.802 471.326.501-1.012c2.305 5.422 3.726 16.464-2.228 19.937-5.982 2.134-12.984-.373-19.195-.607-23.834-.9-40.733 4.401-60.634 16.615-1.229-.48-1.488-.403-2.223-1.434l1.117.058c.385-1.269.382-1.263 1.463-2.097l1.955-.152c14.568-10.718 38.182-15.557 55.926-15.412 17.432.142 26.069 8.9 23.318-15.896"/><path fill="#806c50" d="M546.14 504.883c.385-1.269.382-1.263 1.463-2.097l1.955-.152-.651.529c-.637.541-1.332.936-2.063 1.332z"/><path fill="#efc78e" d="M620.329 119.548c11.185 5.926 16.854 12.666 21.058 24.98.609 1.784.782 3.027.679 4.892l1.021 1.029c-2.343 5.734-10.694 28.386-11.528 33.869-.553-.076-1.31-.204-1.874-.22l-1.541-3.055a35 35 0 0 1-1.941-1.176c-1.771-1.814-3.482-4.639-5.324-6.857l-.281-.159-.535.647c.278.365 1.368 1.502 1.138 2.061-.233-.006-4.656-3.699-5.266-4.196-8.399-3.524-9.79-3.979-18.88-6.445 1.113-1.238 2.215-2.99 3.463-3.568l.405-.851c.299-2.819 1.357-4.555 2.966-6.981 3.767-6.329 9.199-10.257 11.292-17.509.9-3.119-.242-6.481-.054-7.443l.151-.085c.828.016 3.21 1.502 4.452 1.915l1.265-.333c-.119-3.743-.295-6.792-.666-10.515"/><path fill="#efc78e" d="M603.889 153.518q.789.494 1.56 1.016c.03 3.746.006 3.567 2.432 6.451l1.398-.011c1.189.673 2.505 1.642 3.692 2.409l.972.646c1.157.591 2.18 1.297 3.242 2.039l.134 1.652.608.306q.942 1.026 1.898 2.039c.324.203.209.121.554.454l1.137 1.62-.637.871-.281-.159-.535.647c.278.365 1.368 1.502 1.138 2.061-.233-.006-4.656-3.699-5.266-4.196-8.399-3.524-9.79-3.979-18.88-6.445 1.113-1.238 2.215-2.99 3.463-3.568l.405-.851c.299-2.819 1.357-4.555 2.966-6.981"/><path fill="#e3b981" d="M597.055 164.918c1.113-1.238 2.215-2.99 3.463-3.568 3.097 2.731 11 6.131 15.504 8.972l-.087 1.041c-8.399-3.524-9.79-3.979-18.88-6.445"/><path fill="#302116" d="M600.923 160.499c6.191 4.534 14.059 6.603 19.675 12.352l-.535.647c.278.365 1.368 1.502 1.138 2.061-.233-.006-4.656-3.699-5.266-4.196l.087-1.041c-4.504-2.841-12.407-6.241-15.504-8.972z"/><path fill="#b79b73" d="M616.022 170.322c1.68 1.141 2.492 1.912 4.041 3.176.278.365 1.368 1.502 1.138 2.061-.233-.006-4.656-3.699-5.266-4.196z"/><path fill="#65543d" d="m612.971 163.383.972.646c1.157.591 2.18 1.297 3.242 2.039l.134 1.652c-1.755-1.436-2.786-1.891-4.417-3.095l-.454-.348z"/><path fill="#65543d" d="M609.279 160.974c1.189.673 2.505 1.642 3.692 2.409l-.523.894c-1.352-.779-2.732-1.598-3.876-2.667l-.691-.625z"/><path fill="#e3b981" d="M603.889 153.518c3.767-6.329 9.199-10.257 11.292-17.509.9-3.119-.242-6.481-.054-7.443l.151-.085c.828.016 3.21 1.502 4.452 1.915-1.02 10.027-10.157 14.942-14.11 23.766l-.171.372a51 51 0 0 0-1.56-1.016"/><path fill="#190f09" d="m642.066 149.42 1.021 1.029c-2.343 5.734-10.694 28.386-11.528 33.869-.553-.076-1.31-.204-1.874-.22 1.702-3.268 2.537-7.181 3.816-10.845z"/><path fill="#190f09" d="m619.73 130.396 1.265-.333-.497 2.692c-1.969 10.584-19.18 19.409-11.219 28.219l-1.398.011c-2.426-2.884-2.402-2.705-2.432-6.451l.171-.372c3.953-8.824 13.09-13.739 14.11-23.766"/><path fill="#190f09" d="M618.545 167.246c4.268 3.906 7.55 8.36 9.599 13.797a35 35 0 0 1-1.941-1.176c-1.771-1.814-3.482-4.639-5.324-6.857l.637-.871-1.137-1.62c-.345-.333-.23-.251-.554-.454q-.956-1.013-1.898-2.039z"/><path fill="#e3b981" d="M621.516 172.139c2.253 2.649 3.411 4.577 4.687 7.728-1.771-1.814-3.482-4.639-5.324-6.857z"/><path fill="#302116" d="m617.185 166.068 1.36 1.178-.618.78-.608-.306z"/><path fill="#efc78e" d="M193.888 370.989c11.682-5.959 26.077-7.104 36.923 1.303 4.001 11.849 8.242 20.079 12.351 31.122l-1.191-.051-1.31.928c-.217.321-.026.189-.563.199l-.349.726c-1.179 1.054-8.783 1.362-11.246 1.863-5.972 1.041-11.71 3.726-16.81 6.933-.528.332-1.858 1.569-2.208 1.203-.547-.569-.93-3.044-1.018-3.8-.629-.666-.674-.643-1.102-1.36-1.63-3.026-1.897-3.225-2.738-6.82l-.524-2.242-.46-2c-1.922-8.379-2.835-13.013-9.873-18.352 1.035-.32 2.46-.833 3.489-1.084l3.297-.816.297.862a60 60 0 0 1 3.099 12.15c.492 3.532.812 5.614 2.399 8.828l.928-.873c-2.719-5.832-1.978-14.823-5.332-20.704-1.277-2.239-5.978-6.165-8.059-8.015"/><path fill="#efc78e" d="M193.77 380.641c1.035-.32 2.46-.833 3.489-1.084l3.297-.816.297.862a60 60 0 0 1 3.099 12.15c.492 3.532.812 5.614 2.399 8.828 2.201 2.194 3.327 3.112 6.647 2.962 10.878-.491 12.431-5.048 23.516-1.328 1.892.445 2.893.746 4.147 2.076-.217.321-.026.189-.563.199l-.349.726c-1.179 1.054-8.783 1.362-11.246 1.863-5.972 1.041-11.71 3.726-16.81 6.933-.528.332-1.858 1.569-2.208 1.203-.547-.569-.93-3.044-1.018-3.8-.629-.666-.674-.643-1.102-1.36-1.63-3.026-1.897-3.225-2.738-6.82l-.524-2.242-.46-2c-1.922-8.379-2.835-13.013-9.873-18.352"/><path fill="#efc78e" d="M236.514 402.215c1.892.445 2.893.746 4.147 2.076-.217.321-.026.189-.563.199l-.349.726c-1.179 1.054-8.783 1.362-11.246 1.863-5.972 1.041-11.71 3.726-16.81 6.933-.528.332-1.858 1.569-2.208 1.203-.547-.569-.93-3.044-1.018-3.8-.629-.666-.674-.643-1.102-1.36 7.929-2.429 15.992-5.105 24.087-6.729 1.999-.473 3.279-.2 5.062-1.111"/><path fill="#190f09" d="M236.514 402.215c1.892.445 2.893.746 4.147 2.076-.217.321-.026.189-.563.199l-.349.726c-8.175-2.573-23.038 3.249-31.282 6.199-.629-.666-.674-.643-1.102-1.36 7.929-2.429 15.992-5.105 24.087-6.729 1.999-.473 3.279-.2 5.062-1.111"/><path fill="#b79b73" d="M236.514 402.215c1.892.445 2.893.746 4.147 2.076-.217.321-.026.189-.563.199-3.743-1.454-4.526-.885-8.646-1.164 1.999-.473 3.279-.2 5.062-1.111"/><path fill="#0c0c09" d="M207.279 399.708c9.785 7.62 19.992-7.182 34.692 3.655l-1.31.928c-1.254-1.33-2.255-1.631-4.147-2.076-11.085-3.72-12.638.837-23.516 1.328-3.32.15-4.446-.768-6.647-2.962z"/><path fill="#efc78e" d="M232.173 370.651c1.229-13.477 10.965-24.525 24.102-27.659l-.004.702c-.045 4.238-.933 9.059-.676 12.809.549 8.025 9.451 12.36 11.507 19.892l1.075-.486.15-.437c.026.014 4.1 5.786 4.705 6.538l.378.967c.192.198 2.3 2.244 1.296 2.598-8.668 3.052-17.294 7.142-23.648 13.984-.69.744-.836.839-1.78 1.195-1.164 2.19-.78 2.089-2.576.005-.993 1.802-.686 1.954-2.182 2.722-.671.241-.723.312-1.358-.067-4.109-11.043-8.35-19.273-12.351-31.122q.674-.828 1.362-1.641"/><path fill="#190f09" d="m268.177 375.909.15-.437c.026.014 4.1 5.786 4.705 6.538l.378.967c.192.198 2.3 2.244 1.296 2.598-8.668 3.052-17.294 7.142-23.648 13.984-.69.744-.836.839-1.78 1.195-1.164 2.19-.78 2.089-2.576.005 2.886-7.177 6.95-12.505 13.284-17.015 3.396-2.417 6.051-3.114 7.116-7.349z"/><path fill="#efc78e" d="m268.177 375.909.15-.437c.026.014 4.1 5.786 4.705 6.538-6.057 1.325-14.405 6.836-18.951 11.025l-1.571-.746c5.27-5.655 7.288-7.037 13.685-11.419 1.1-.754 1.768-2.002 1.873-3.377z"/><path fill="#efc78e" d="M273.41 382.977c.192.198 2.3 2.244 1.296 2.598-8.668 3.052-17.294 7.142-23.648 13.984-.69.744-.836.839-1.78 1.195 5.544-8.778 14.418-14.509 24.132-17.777"/><path fill="#b79b73" d="m252.51 392.289 1.571.746c-2.632 2.795-3.651 4.256-6.059 7.145 1.669-3.319 2.302-4.824 4.488-7.891"/><path fill="#190f09" d="M230.811 372.292q.674-.828 1.362-1.641c1.257 8.786 9.115 23.747 12.347 32.83-.671.241-.723.312-1.358-.067-4.109-11.043-8.35-19.273-12.351-31.122"/><path fill="#efc78e" d="M514.644 75.37c15.812 5.762 19.576 11.34 25.132 26.731-.853 3-2.099 5.801-3.339 8.662-2.839 6.553-5.158 13.361-7.93 19.919l.634 1.155.241.3c-.594.805-.562.921-.909 1.895-2.263.803-3.2.238-3.47-2.032-2.45-.949-1.391-1.594-3.211-2.662-9.153-8.462-12.676-8.543-24.657-10.872a245 245 0 0 0 1.989-5.392l.001-.611c1.276-2.191 2.055-4.781 3.407-6.966 3.445-5.58 8.839-11.998 8.892-18.99.022-2.932-1.927-6.53 4.191-2.279l.713-1.19c-.521-2.759-.968-4.937-1.684-7.668"/><path fill="#190f09" d="M499.125 112.463c1.276-2.191 2.055-4.781 3.407-6.966 3.445-5.58 8.839-11.998 8.892-18.99.022-2.932-1.927-6.53 4.191-2.279l.713-1.19.251 1.582c1.374 9.128-7.661 14.968-9.372 23.176-.371 1.778.453 2.754 1.851 3.758 7.696 5.529 16.998 9.915 18.447 20.396q.493-.64 1.002-1.268l.634 1.155.241.3c-.594.805-.562.921-.909 1.895-2.263.803-3.2.238-3.47-2.032-2.45-.949-1.391-1.594-3.211-2.662-9.153-8.462-12.676-8.543-24.657-10.872a245 245 0 0 0 1.989-5.392z"/><path fill="#efc78e" d="M499.125 112.463c1.276-2.191 2.055-4.781 3.407-6.966 3.445-5.58 8.839-11.998 8.892-18.99.022-2.932-1.927-6.53 4.191-2.279-.382 4.808-.132 3.382-1.528 7.58-1.458 4.38-11.843 15.779-7.502 19.576 5.128 4.487 17.559 9.299 18.571 18.125.019.171-.041.204-.144.335-.34.059-4.388-4.791-5.397-5.668-5.639-4.901-13.622-8.827-20.49-11.713"/><path fill="#e3b981" d="M499.124 113.074c4.86 3.579 21.665 9.793 22.668 16.264-9.153-8.462-12.676-8.543-24.657-10.872a245 245 0 0 0 1.989-5.392"/><path fill="#0c0c09" d="m528.507 130.682.634 1.155.241.3c-.594.805-.562.921-.909 1.895-2.263.803-3.2.238-3.47-2.032 1.12-1.151.704-.296 2.502-.05q.493-.64 1.002-1.268"/><path fill="#efc78e" d="M643.087 150.449c4.625-6.182 15.472-7.897 22.789-8.062 6.839-.155 10.588 1.294 16.336 4.905-7.367 6.566-13.736 11.297-14.811 21.955-1.881 18.661-4.329 13.059-18.989 12.013-4.417-1.108-11.459.318-15.517 2.477-.616.519-.558.515-1.336.581.834-5.483 9.185-28.135 11.528-33.869"/><path fill="#efc78e" d="M388.51 156.521c-2.643-5.124-4.511-11.465-7.025-16.72-8.333-17.419 3.435-32.021 19.337-38.462-.939 3.902-1.373 6.894-1.933 10.888.593 1.043.783 1.291 1.14 2.375 3.605-2.546 3.677-3.049 4.254 1.473.59 4.633 3.084 8.8 5.352 12.781q.56.915 1.076 1.856c.942 1.768 1.978 3.614 3.089 5.28.083.378.298.774.462 1.128.301.29 2.447 2.252 1.248 2.805-4.822 2.223-9.779 3.175-14.404 5.986l-.446.265c-1.052 1.421-6.237 6.486-7.998 7.409-1.205 1.39-1.078 2.17-2.871 2.669-.658 1.114-.774.944-2.099 1.045z"/><defs><linearGradient id="a" x1="402.941" x2="398.481" y1="145.982" y2="140.077" gradientUnits="userSpaceOnUse"><stop offset="0" stop-color="#dab17f"/><stop offset="1" stop-color="#ffd49a"/></linearGradient></defs><path fill="url(#a)" d="M409.952 131.6c.255-.376.413-.512.759-.888.942 1.768 1.978 3.614 3.089 5.28.083.378.298.774.462 1.128.301.29 2.447 2.252 1.248 2.805-4.822 2.223-9.779 3.175-14.404 5.986l-.446.265c-1.052 1.421-6.237 6.486-7.998 7.409-1.205 1.39-1.078 2.17-2.871 2.669 3.348-7.513 6.485-13.056 13.253-17.985 3.234-2.356 5.033-3.085 6.908-6.669"/><path fill="#efc78e" d="M414.262 137.12c.301.29 2.447 2.252 1.248 2.805-4.822 2.223-9.779 3.175-14.404 5.986l-.446.265c.563-3.091 10.63-7.285 13.602-9.056"/><path fill="#4b3626" d="M413.8 135.992c.083.378.298.774.462 1.128-2.972 1.771-13.039 5.965-13.602 9.056-1.052 1.421-6.237 6.486-7.998 7.409 4.019-7.91 13.61-13.558 21.138-17.593"/><path fill="#190f09" d="M398.889 112.227c.593 1.043.783 1.291 1.14 2.375 3.605-2.546 3.677-3.049 4.254 1.473.59 4.633 3.084 8.8 5.352 12.781q.56.915 1.076 1.856c-.346.376-.504.512-.759.888-1.875 3.584-3.674 4.313-6.908 6.669-6.768 4.929-9.905 10.472-13.253 17.985-.658 1.114-.774.944-2.099 1.045l.818-.778c2.875-8.071 6.426-13.373 12.95-18.579 5.071-4.046 10.694-5.422 3.943-10.822-4.923-3.938-6.425-8.677-6.514-14.893"/><path fill="#efc78e" d="M400.029 114.602c3.605-2.546 3.677-3.049 4.254 1.473.59 4.633 3.084 8.8 5.352 12.781l-.721.345c-5.307-5.347-6.864-7.599-8.885-14.599"/><path fill="#b79b73" d="M409.635 128.856q.56.915 1.076 1.856c-.346.376-.504.512-.759.888a35 35 0 0 1-1.038-2.399z"/><path fill="#efc78e" d="m339.785 131.54 1.565-1.18c10.168-7.574 24.284-7.861 34.755-.811 3.957 8.655 7.276 18.269 11.152 27.087l.435.663c-1.448.696-4.454 1.622-5.909 1.124-3.13.482-4.326.714-7.324 1.394-4.349 1.644-9.754 3.407-13.459 6.219-2.929 2.224-3.213 1.283-3.579-2.469-.295-.317-.541-.657-.911-.859-1.364-3.152-2.127-5.704-3.209-8.938l1.128-.502c.698 1.08 1.356 2.154 2.08 3.218l1.026-.578c-8.447-12.859-1.835-18.05-17.75-24.368"/><path fill="#302116" d="M354.429 153.268c.698 1.08 1.356 2.154 2.08 3.218l1.026-.578c8.853 4.466 13.158-5.68 29.722.728l.435.663c-1.448.696-4.454 1.622-5.909 1.124-3.13.482-4.326.714-7.324 1.394-4.349 1.644-9.754 3.407-13.459 6.219-2.929 2.224-3.213 1.283-3.579-2.469-.295-.317-.541-.657-.911-.859-1.364-3.152-2.127-5.704-3.209-8.938z"/><path fill="#efc78e" d="M354.429 153.268c.698 1.08 1.356 2.154 2.08 3.218 3.894 4.487 13.027-.035 18.982-.606l.577 1.206c-6.927 1.548-13.019 4.153-19.558 5.622-1.364-3.152-2.127-5.704-3.209-8.938z"/><path fill="#efc78e" d="M357.421 163.567c3.327-.6 11.619-3.509 15.209-4.829l1.829 1.079c-4.349 1.644-9.754 3.407-13.459 6.219-2.929 2.224-3.213 1.283-3.579-2.469"/><path fill="#e3b981" d="M372.63 158.738c4.4-.772 4.737-1.215 9.153-.315-3.13.482-4.326.714-7.324 1.394z"/><path fill="#e3b981" d="M375.491 155.88c.987.085 5.908-.131 6.129.815-1.243.456-4.088.353-5.552.391z"/><path fill="#efc78e" d="M619.525 402.829c4.36.907 9.099 1.328 13.548 1.825-19.567 19.884-13.792 44.222-15.242 69.267-.184 3.178-4.576 3.245-6.961 3.229-22.392-.149-44.554 7.789-62.297 21.341-1.091.151-1.134.601-2.288.823 8.82-11.329 25.124-20.989 39.107-24.157 5.141-1.164 11.61-1.608 16.464-3.704 21.035-9.084 1.832-30.716 4.752-44.743 1.826-8.772 8.698-14.01 12.917-23.881"/><path fill="#efc78e" d="M811.443 523.039a328 328 0 0 0 8.444 3.465c-14.34 12.295-17.891 24.243-22.729 42.628-1.108 4.211-1.326 10.227-2.666 14.234-.089.297-.33 1.185-.46 1.42.642 1.105-1.306 10.635-1.647 12.558-20.443-14.576-33.4-21.885-58.308-19.147-1.145.196-2.255.359-3.397.579l-.87-.932c-.705.074-1.413.211-2.115.327l-.131-.8-.009-.282-.708-.626a79.36 79.36 0 0 1 43.298-5.496c5.886.95 12.257 3.831 18.128 3.115 2.046-.25 2.775-4.104 3.667-5.647 5.247-14.057 10.249-33.431 19.503-45.396"/><path fill="#efc78e" d="M734.4 577.005c16.654-2.324 28.123-2.571 44.591 2.642 4.878 1.544 10.306 3.697 15.041 5.139.642 1.105-1.306 10.635-1.647 12.558-20.443-14.576-33.4-21.885-58.308-19.147z"/><path fill="#0c0c09" d="M727.555 577.089c21.829-6.37 46.76-4.243 66.937 6.277-.089.297-.33 1.185-.46 1.42-4.735-1.442-10.163-3.595-15.041-5.139-16.468-5.213-27.937-4.966-44.591-2.642l-.323 1.192c-1.145.196-2.255.359-3.397.579l-.87-.932c-.705.074-1.413.211-2.115.327l-.131-.8z"/><path fill="#b79b73" d="m734.4 577.005-.323 1.192c-1.145.196-2.255.359-3.397.579l-.87-.932c1.492-.395 3.061-.617 4.59-.839"/><path fill="#efc78e" d="M293.323 338.526c4.575-1.199 8.865-2.656 13.562-3.407a120 120 0 0 1 4.794 18.067c1.522 8.263 2.57 32.224 8.029 36.964 6.402 5.559 22.136-3.328 31.589-4.067 15.643-1.224 24.566 1.718 36.772 11.404l2.171 2.322c-1.265-.017-4.686-1.487-5.961-2.059-12.696-5.703-25.404-6.836-38.883-2.772-8.843 2.665-22.302 9.553-31.787 6.097-7.114-6.197 3.755-43.427-20.286-62.549"/><path fill="#efc78e" d="M704.648 384.636c-4.493-10.516 23.519-23.945 18.734-47.822l7.606 4.427c-2.08 7.485-6.939 16.059-11.554 22.218-7.45 9.942-10.273 17.76 3.058 24.623 15.85 8.161 22.928 15.296 27.839 32.683.2 1.903.169 1.952-.112 3.899l-1.376.743c-.975-.34-2.102-2.07-2.793-2.959-17.988-22.67-23.737-18.368-48.094-28.142.965-1.347 5.453-8.404 5.791-8.774z"/><path fill="#efc78e" d="M703.747 385.532c5.028 5.176 9.342 6.835 16.007 9.441 13.858 5.419 21.358 13.014 27.4 26.411l-1.104 1.064c-17.988-22.67-23.737-18.368-48.094-28.142.965-1.347 5.453-8.404 5.791-8.774"/><path fill="#0c0c09" d="M704.648 384.636c1.544 1.028 3.471 2.827 5.112 3.538 18.863 8.179 31.659 11.654 39.28 33.309l1.291-.718c.2 1.903.169 1.952-.112 3.899l-1.376.743c-.975-.34-2.102-2.07-2.793-2.959l1.104-1.064c-6.042-13.397-13.542-20.992-27.4-26.411-6.665-2.606-10.979-4.265-16.007-9.441z"/><path fill="#e3b981" d="M747.154 421.384c.915 1.794 1.174 2.17 1.689 4.023-.975-.34-2.102-2.07-2.793-2.959z"/><path fill="#b79b73" d="M750.331 420.765c.2 1.903.169 1.952-.112 3.899-.465-1.157-.792-1.996-1.179-3.181z"/><path fill="#efc78e" d="M541.008 102.96c10.73-8.614 21.045-8.287 32.918-2.732-3.188 2.045-5.383 3.456-7.87 6.295-3.764 4.297-4.899 8.466-5.639 13.975-.336 2.503-.691 6.309-2.709 8.004-.946.746-2.946.444-4.012.23-5.456-1.097-15.544-.849-20.413 2.037-1.322.486-2.555.937-3.901 1.368l-.241-.3-.634-1.155c2.772-6.558 5.091-13.366 7.93-19.919 1.24-2.861 2.486-5.662 3.339-8.662z"/><path fill="#190f09" d="m539.776 102.101 1.232.859c-4.307 9.523-7.491 19.682-11.867 28.877l-.634-1.155c2.772-6.558 5.091-13.366 7.93-19.919 1.24-2.861 2.486-5.662 3.339-8.662"/><path fill="#efc78e" d="M722.745 215.499c10.571.008 23.748 3.908 24.951 16.266-.14 2.975 1.144 18.181 1.429 22.143-.909 1.504-1.421.804-2.314-.608l-.325-.493-1.491.283c-1.162-.021-1.163-.128-2.115-.892-.914.472-.827.518-1.766.298-4.447-1.532-7.798-2.557-12.602-2.076-6.072.607-5.711 2.387-6.339-3.042l.181-1.052c.167-6.163 2.21-12.166 1.377-18.305-.25-1.842-1.555-3.488-1.737-4.655.496-1.094 3.044-.667 3.962-.463l.786-.612c-1.308-2.281-2.673-4.451-3.997-6.792"/><path fill="#efc78e" d="M722.354 246.326c.167-6.163 2.21-12.166 1.377-18.305-.25-1.842-1.555-3.488-1.737-4.655.496-1.094 3.044-.667 3.962-.463 4.915 11.603-9.628 20.771 9.496 24.503 1.349.263 4.554 1.828 5.95 2.5l-.933.693c.951.568 1.527.958 2.411 1.599-.914.472-.827.518-1.766.298-4.447-1.532-7.798-2.557-12.602-2.076-6.072.607-5.711 2.387-6.339-3.042z"/><path fill="#efc78e" d="M722.354 246.326c6.191 2.031 11.613 1.925 18.115 4.273.951.568 1.527.958 2.411 1.599-.914.472-.827.518-1.766.298-4.447-1.532-7.798-2.557-12.602-2.076-6.072.607-5.711 2.387-6.339-3.042z"/><path fill="#4b3626" d="M722.354 246.326c6.191 2.031 11.613 1.925 18.115 4.273.951.568 1.527.958 2.411 1.599-.914.472-.827.518-1.766.298-2.147-1.733-5.977-2.612-8.696-3.137-.558-.274-.553-.231-1.202-.19-5.063-.297-4.625-.752-9.043-1.791z"/><path fill="#937d60" d="M731.216 249.169c.649-.041.644-.084 1.202.19-.555.094-.779.164-1.202-.19"/><path fill="#302116" d="M726.742 222.291c6.388 10.652-8.268 19.79 5.812 23.146 4.965 1.183 10.558 3.442 13.932 7.37l-1.491.283c-1.162-.021-1.163-.128-2.115-.892a29 29 0 0 0-2.411-1.599l.933-.693c-1.396-.672-4.601-2.237-5.95-2.5-19.124-3.732-4.581-12.9-9.496-24.503z"/><path fill="#e3b981" d="M741.402 249.906c1.861 1.279 2.287 1.441 3.593 3.184-1.162-.021-1.163-.128-2.115-.892a29 29 0 0 0-2.411-1.599z"/><path fill="#efc78e" d="M748.53 231.444c.026-8.429 12.216-17.559 20.22-16.959.692.052 5.768-.271 4.428 1.726-2.768 5.253-5.402 10.898-2.517 16.718 2.136 4.516 2.472 3.595 2.263 8.455l.78.319.421-.367c.687.526 1.142.886 1.784 1.457q.076 1.549.11 3.099l.649.74c.085.891.402 2.338.124 3.168-.183.547-2.062-.066-2.324-.106-2.958-.45-6.001-.901-8.97-.265-1.196.242-2.658.455-3.889.618-.495.274-.82.341-1.38.265l-.58-.06c-2.983.895-4.012 3.785-7.045 4.158-.538.312-.71.321-1.311.151l-1.274-.68-.894.027c-.285-3.962-1.569-19.168-1.429-22.143.362-.01.479-.13.834-.321"/><path fill="#302116" d="m772.924 241.384.78.319.421-.367c.687.526 1.142.886 1.784 1.457q.076 1.549.11 3.099l.649.74c.085.891.402 2.338.124 3.168-.183.547-2.062-.066-2.324-.106-2.958-.45-6.001-.901-8.97-.265-1.196.242-2.658.455-3.889.618-.495.274-.82.341-1.38.265l-.58-.06c-2.983.895-4.012 3.785-7.045 4.158-.538.312-.71.321-1.311.151 1.687-8.06 16.462-8.232 21.631-13.177"/><path fill="#efc78e" d="M764.636 247.657c4.301-.811 6.936-.735 11.383-1.765l.649.74c.085.891.402 2.338.124 3.168-.183.547-2.062-.066-2.324-.106-2.958-.45-6.001-.901-8.97-.265-1.196.242-2.658.455-3.889.618-.495.274-.82.341-1.38.265l-.58-.06c2.123-1.586 2.392-1.693 4.987-2.595"/><path fill="#4b3626" d="M764.636 247.657c4.301-.811 6.936-.735 11.383-1.765l.649.74c-4.203 1.25-12.557 1.27-15.059 3.415-.495.274-.82.341-1.38.265l-.58-.06c2.123-1.586 2.392-1.693 4.987-2.595"/><path fill="#efc78e" d="M774.125 241.336c.687.526 1.142.886 1.784 1.457q.076 1.549.11 3.099c-4.447 1.03-7.082.954-11.383 1.765l-1.156-.799c3.517-1.082 8.207-2.215 10.224-5.155z"/><path fill="#e3b981" d="m763.48 246.858 1.156.799c-2.595.902-2.864 1.009-4.987 2.595-2.983.895-4.012 3.785-7.045 4.158 2.601-4.823 6.083-5.923 10.876-7.552"/><path fill="#302116" d="M748.53 231.444c.952 1.845 1.277 18.863 1.489 22.437l-.894.027c-.285-3.962-1.569-19.168-1.429-22.143.362-.01.479-.13.834-.321"/><path fill="#efc78e" d="M696.605 282.366c4.212.619 6.711.982 10.758 2.156-12.315 11.057-14.013 20.023-16.489 35.957-2.434 15.664-6.131 18.001-21.125 13.825-11.411-3.178-23.853-1.236-35.127 1.949l-12.432 4.758c9.731-6.976 15.143-9.802 27.203-12.796 9.45-2.346 25.533 2.313 32.278-3.908 6.869-6.333 3.267-16.596 3.692-24.624.438-8.249 5.542-12.312 11.242-17.317"/><path fill="#efc78e" d="M219.951 510.983c2.922.014 8.668-1.295 11.158-.058 6.708 3.331 9.202 39.752 13.455 48.303.379.762 1.263 2.387 1.972 2.882 4.277 2.986 29.244-.699 35.712-.603 8.034.12 15.72 1.377 23.379 3.766-2.339 1.634-1.746.607-4.523.881-23.043-1.234-38.693 5.417-60.049 10.608-.906-17.856-2.544-39.089-12.001-54.675-2.517-4.149-5.805-7.563-9.103-11.104"/><path fill="#efc78e" d="M805.888 514.806c2.987 2.022 5.018 2.806 8.448 3.886-14.921 9.211-19.162 38.545-27.075 52.598-.62 1.102-19.249-3.164-24.473-3.169-9.113-.01-23.341 1.005-31.815 5.007l-.35-1.066c9.01-4.733 13.475-5.924 23.255-7.999 11.61-2.463 29.451 4.748 34.175-9.139 3.099-9.111-1.307-18.591 4.572-26.547 3.712-4.679 8.514-7.663 12.434-12.533l.524-.644z"/><path fill="#efc78e" d="M578.115 237.518c3.856 1.872 7.591 3.704 10.885 6.463-4.148 14.375-12.573 24.151-20.208 36.471-1.715 2.767-3.811 7.667-2.659 10.919 2.931 8.267 14.436 9.966 21.34 13.633 13.887 7.379 20.999 16.407 25.835 30.855l-1.08 1.317c-5.814-12.513-13.451-21.894-26.863-26.613-8.784-3.091-20.127-5.49-27.614-11.377-2.13-1.674-.425-4.294.758-6.169 11.824-18.735 19.346-32.857 19.606-55.499"/><path fill="#efc78e" d="M427.65 176.191a419 419 0 0 1 13.156 3.584c-2.605 13.404-7.275 23.946-10.887 36.883-.899 3.223-1.53 7.658.578 10.489 4.953 6.652 14.693 6.037 21.941 7.688 11.526 2.623 20.749 7.636 27.254 17.511l.395.609c-.758.102-2.448-1.409-3.065-1.894-10.347-8.116-23.84-11.179-36.767-11.418-4.613-.512-18.668.262-19.344-6.129-.443-5.222 2.134-11.402 3.806-16.348 5.369-15.893 10.011-24.867 2.933-40.975"/><path fill="#efc78e" d="M686.259 469.504c4.132 1.844 7.503 4.52 10.942 7.402-5.99 13.115-17.143 25.317-25.093 37.239-1.803 2.704-4.453 6.891-3.448 10.111 2.226 7.129 13.181 10.682 19.265 14.058 13.462 7.469 22.65 16.171 27.321 30.86-1.021-.927-3.467-4.218-4.421-5.415-8.293-10.413-18.621-17.097-31.155-21.421-8.201-2.829-15.483-5.079-20.818-12.472 3.482-7.102 11.86-16.935 16.754-23.84 5.605-7.906 11.296-16.996 11.849-27.157.086-1.587-.913-7.532-1.196-9.365"/><path fill="#efc78e" d="M544.625 187.291c2.762.308 5.861.744 8.611.797-11.674 15.657-9.769 28.59-9.04 47.204.094 2.392.146 5.165-2.626 5.23-19.655.467-29.842-.345-46.938 10.651l-.414-.939c6.237-6.273 10.037-9.265 18.198-12.574 9.759-3.956 27.998-.257 27.152-16.011-.88-16.4-8.583-19.64 5.057-34.358"/><path fill="#190f09" d="M247.187 238.486c15.305 5.732 12.331 19.537 21.346 29.632 3.297 3.691 14.96-3.605 18.971-4.724 2.753-.768 3.464-1.139 6.949-1.51l.654-.064c1.763-.847 7.446-.246 9.393.125 2.402.616 3.482.347 5.6 1.583l-.183 1.139a41 41 0 0 1-3.203.001c-1.252.829-2.611 1.302-4.041 1.728-11.756 3.835-20.181 12.355-27.47 22.007-1.083-1.838-2.249-3.664-3.167-5.576-.918-.125-.743-.305-.923-1.264-1.824-2.189-2.496-3.006-3.463-5.821.089-.481.132-.87.301-1.318-.635-2.262-2.723-6.672-3.789-8.985-5.571-12.087-9.182-16.421-20.425-22.908z"/><path fill="#efc78e" d="M247.187 238.486c15.305 5.732 12.331 19.537 21.346 29.632 3.297 3.691 14.96-3.605 18.971-4.724 2.753-.768 3.464-1.139 6.949-1.51l.654-.064c2.379.053 3.147-.826 4.475 1.12-6.467 1.665-11.875 1.597-17.993 5.341-4.686 2.869-8.108 5.582-13.638 6.143-.635-2.262-2.723-6.672-3.789-8.985-5.571-12.087-9.182-16.421-20.425-22.908z"/><path fill="#efc78e" d="M299.999 265.634c.935.239 1.751.485 2.674.762-11.756 3.835-20.181 12.355-27.47 22.007-1.083-1.838-2.249-3.664-3.167-5.576 8.947-9.387 15.834-13.005 27.963-17.193"/><path fill="#e3b981" d="m292.412 265.697.125 1.269c-11.935 4.708-12.87 8.18-21.424 14.597-1.824-2.189-2.496-3.006-3.463-5.821 7.602-.082 13.148-7.284 24.762-10.045"/><path fill="#b79b73" d="M295.107 261.82c1.763-.847 7.446-.246 9.393.125 2.402.616 3.482.347 5.6 1.583-3.621-.091-6.649-.522-10.518-.588-1.328-1.946-2.096-1.067-4.475-1.12"/><path fill="#806c50" d="M292.412 265.697c1.435-.523 7.086-1.77 8.561-1.427l.079.072c-.093.194-7.79 2.409-8.515 2.624z"/><path fill="#937d60" d="M306.714 264.668c-1.252.829-2.611 1.302-4.041 1.728-.923-.277-1.739-.523-2.674-.762 2.207-.244 4.694-.855 6.715-.966"/><path fill="#efc78e" d="M369.056 467.407c1.874-.285 4.311-.849 6.089-.457.749 1.497.603 1.839.809 3.512.082 3.852 2.914 19.186 1.72 20.844 1.591 7.642 10.608 25.48 14.375 32.482-16.093 5.449-36.464 16.287-47.963 28.67-4.702 5.062-8.06 10.117-12.461 15.274 11.239-25.318 27.673-34.843 49.785-47.031 4.449-4.325-2.564-18.542-4.047-22.317-4.308-10.963-8.005-19.397-8.307-30.977"/><path fill="#0c0c09" d="M375.145 466.95c.749 1.497.603 1.839.809 3.512.082 3.852 2.914 19.186 1.72 20.844-2.762-6.697-4.801-15.624-3.465-22.804z"/><path fill="#efc78e" d="M241.361 578.321c5.897-.927 13.685-3.267 19.654-4.796 21.676-5.552 36.687-7.591 58.353-1.357l-1.118 1.068c-31.522-5.154-50.16 2.622-75.681 19.499-.772-4.615-.981-9.723-1.208-14.414"/><path fill="#efc78e" d="M314.758 403.834c27.216.911 33.683-17.746 67.396-4.874l-.991.761c-5.592-1.942-20.031-2.729-25.584-.823-14.012 4.812-23.938 13.796-38.54 19.051z"/><path fill="#efc78e" d="M658.734 533.743c7.195 6.86 10.575 6.903 19.682 10.541 18.336 7.326 29.177 15.418 38.001 32.85-1.157-1.078-2.233-2.407-3.274-3.612-24.136-28.727-33.044-16.487-60.864-28.581 2.552-4.028 4.276-6.963 6.455-11.198"/><path fill="#efc78e" d="m556.016 192.214.14.081c.427 1.225-.82 2.394-1.487 3.668-7.79 14.892-3.568 37.459-2.477 53.61-21.66-7.129-35.39-4.926-56.041 4.231l-5.363 3.048c9.46-9.287 21.811-13.63 34.951-13.902 5.123-.106 10.451.417 15.518-.382 1.105-.174 2.713-.496 3.623-1.205 4.341-3.381-2.269-36.217 6.107-46.999 1.522-1.959 2.709-1.873 5.029-2.15"/><path fill="#efc78e" d="m393.325 525.093 5.286 10.731c-23.749 3.974-45.164 11.49-61.995 29.683l-1.116-.385c18.809-22.741 31-28.227 57.825-40.029"/><path fill="#efc78e" d="M401.652 390.49c7.992-13.336 20.048-22.565 33.32-30.406 6.932-4.096 14.445-6.702 21.728-10.009 1.77 3.683 3.642 7.435 5.168 11.215-25.657 1.79-41.502 10.033-58.417 29.343l-.298.345z"/><path fill="#efc78e" d="M421.941 238.758c6.783 2.975 14.416 2.552 21.685 3.156 9.355.777 19.04 2.689 27.225 7.524 3.343 1.975 9.123 6.321 10.898 9.735-1.65-.267-1.86-.701-3.333-1.731-23.499-15.313-35.409-6.287-60.517-7.633 1.411-3.468 2.76-7.495 4.042-11.051"/><path fill="#efc78e" d="M622.585 342.832c29.647-16.18 50.804-.558 64.651-6.381l-1.904 13.815c-24.57-12.414-35.723-11.965-61.559-6.531z"/><path fill="#efc78e" d="M555.983 300.27c2.486 1.752 5.463 4.234 8.166 5.389 12.962 5.537 26.152 6.449 36.323 17.287 3.499 3.729 12.079 16.894 11.922 21.562-.951-.247-.699-.437-1.55-1.703-18.048-32.224-31.188-23.443-60.758-33.296 2.284-3.292 3.999-5.731 5.897-9.239"/><path fill="#efc78e" d="m327.412 212.129 1.25-.559c1.681 1.63 2.817 3.042 4.195 4.926.607.504.798.64 1.455 1.064 1.355.395 2.877 2.61 3.871 3.774-5.302 7.258-11.739 13.731-16.325 21.577-1.496 2.559-2.654 5.196-4.082 7.771-.805 2.311-1.746 4.785-2.59 7.11-.959-.073-.127-2.681-.057-3.735l-.933.408-.256-.277c-.528-1.982-.619-3.513-.234-5.582 1.298-9.394 4.586-16.791 9.891-24.606 3.025-4.457 6-6.258 3.815-11.871"/><path fill="#efc78e" d="M334.312 217.56c1.355.395 2.877 2.61 3.871 3.774-5.302 7.258-11.739 13.731-16.325 21.577-1.496 2.559-2.654 5.196-4.082 7.771-1.577-2.212-.412-1.228-.747-3.678 2.414-12.233 13.262-21.236 17.283-29.444"/><path fill="#190f09" d="M332.857 216.496c.607.504.798.64 1.455 1.064-4.021 8.208-14.869 17.211-17.283 29.444.335 2.45-.83 1.466.747 3.678-.805 2.311-1.746 4.785-2.59 7.11-.959-.073-.127-2.681-.057-3.735l-.933.408-.256-.277c-.528-1.982-.619-3.513-.234-5.582.392.88.465.96 1.047 1.765 2.132-8.771 5.904-16.343 11.233-23.619 3.277-4.475 4.743-4.994 6.871-10.256"/><path fill="#e3b981" d="M315.129 254.057c.636-1.581.953-4.451 1.9-7.053.335 2.45-.83 1.466.747 3.678-.805 2.311-1.746 4.785-2.59 7.11-.959-.073-.127-2.681-.057-3.735"/><path fill="#b79b73" d="M313.94 254.188c-.528-1.982-.619-3.513-.234-5.582.392.88.465.96 1.047 1.765-.237 1.583-.363 2.285-.813 3.817"/><path fill="#65543d" d="m560.688 127.007.418-1.56c1.497-5.681 1.202-13.45 6.425-17.329.871-.647 4.224-.766 4.72-.326-.029.104-4.922 5.05-6.029 7.534-1.899 4.264-2.967 7.526-4.378 11.948l-.68 3.731c-.355 1.902-.317 2.304-1.106 4.096l.136 1.129c.492 1.535.275 2.054-.694 3.372l-.294 1.081c.921 6.151-4.004 1.247-5.777.258-4.49-2.504-9.461-4.569-14.603-5.141-2.026-.098-8.614-.369-9.92-1.657l-.433-.111c.347-.974.315-1.09.909-1.895 1.346-.431 2.579-.882 3.901-1.368l-.401 1.679c1.721-1.132 2.742-1.376 4.691-2.088 4.876-.782 10.308-1.454 15.18-.428 4.814 1.014 5.169.635 7.935-2.925"/><path fill="#efc78e" d="m560.688 127.007.418-1.56c1.497-5.681 1.202-13.45 6.425-17.329.871-.647 4.224-.766 4.72-.326-.029.104-4.922 5.05-6.029 7.534-1.899 4.264-2.967 7.526-4.378 11.948l-.68 3.731c-.355 1.902-.317 2.304-1.106 4.096-10.27-3.256-11.099-2.937-21.507-3.135l-.978-1.606c4.876-.782 10.308-1.454 15.18-.428 4.814 1.014 5.169.635 7.935-2.925"/><path fill="#efc78e" d="M538.826 135.8c-.182-.169-.396-.289-.445-.507.676-.474 5.704-.459 6.618-.311 5.222.846 9.452 3.963 14.207 5.701.921 6.151-4.004 1.247-5.777.258-4.49-2.504-9.461-4.569-14.603-5.141"/><path fill="#190f09" d="M532.882 132.448c1.721-1.132 2.742-1.376 4.691-2.088l.978 1.606c10.408.198 11.237-.121 21.507 3.135l.136 1.129c-3.131-.504-5.247-1.251-8.271-2.212-4.118-1.228-11.242-.95-15.672-1.2 1.006.057-8.115 1.553-7.345 1.325l-.433-.111c.347-.974.315-1.09.909-1.895 1.346-.431 2.579-.882 3.901-1.368z"/><path fill="#e3b981" d="M532.882 132.448c1.721-1.132 2.742-1.376 4.691-2.088l.978 1.606c-1.316.127-5.513.971-6.146.742z"/><path fill="#efc78e" d="M559.5 139.602c-2.808-1.428-5.734-2.701-8.51-4.15-.654-.341.944-1.443.933-1.434 3.024.961 5.14 1.708 8.271 2.212.492 1.535.275 2.054-.694 3.372"/><path fill="#efc78e" d="M774.427 425.201c15.91-2.125 28.541 2.936 42.65 9.105-1.31 2.796-2.835 5.71-4.23 8.481l-6.182-3.911c-9.537-6.046-19.346-9.385-30.646-10.17-5.429-.377-11.161-.264-16.518-.979l-.654-.093c5.466-1.015 10.036-1.887 15.58-2.433"/><path fill="#efc78e" d="M626.369 344.695c16.402-3.244 27.191-4.478 43.592 1.304 4.267 1.504 11.695 4.974 15.46 5.983-1.229 2.663-2.853 6.504-4.169 9.011-20.093-14.387-27.599-17.32-51.565-15.263-1.694-.337-1.755-.299-3.318-1.035"/><path fill="#efc78e" d="M407.198 439.833a9.186 9.186 0 0 1 9.823 8.393 9.185 9.185 0 1 1-9.823-8.393"/><path fill="#efc78e" d="M734.732 623.396a7.848 7.848 0 0 1 9.697 9.65 7.846 7.846 0 1 1-9.697-9.65"/><path fill="#efc78e" d="M528.991 247.225c4.711.109 19.642 1.994 22.423 4.75.695 1.822.698 1.715.413 3.633-1.08 1.132-3.507-.268-5.613-.976-13.22-4.443-20.866-5.802-34.475-2.959-10.322 2.57-15.182 6.555-23.986 9.118 13.491-9.08 25.126-12.765 41.238-13.566"/><path fill="#efc78e" d="M763.845 422.705c12.126-3.466 21.223-3.592 33.668-.232 4.354 1.176 10.608 3.975 15.204 3.762 1.574-.073 3.782-2.95 4.781-4.155l-.778 10.334c-16.089-8.528-29.179-11.235-47.369-8.291-3.994.646-10.815 2.652-13.808 3.042 2.695-2.465 4.983-3.261 8.302-4.46"/><path fill="#efc78e" d="M339.599 222.541a228 228 0 0 0 5.01 4.87c-7.39 6.567-13.249 10.505-19.472 18.917-1.886 2.548-7.418 12.133-8.839 12.933l.334-1.235c3.773-13.274 13.57-25.586 22.967-35.485"/><path fill="#4b3626" d="M667.78 180.497q-.406 1.497-.797 2.998c-.599 2.557-.625 3.112-1.807 5.429-.093.289-.133.764-.169 1.061-.789 2.921-.873 4.245-3.459 2.218-8.882-6.961-17.611-6.619-27.959-7.441l-.694-1.025c4.058-2.159 11.1-3.585 15.517-2.477-.391.146-.82.261-1.097.508.09.244.413.407.599.57 1.008.093 1.963.144 2.952.358 5.228.818 10.773 3.278 14.904-.459l.83-1.367z"/><path fill="#e3b981" d="M633.589 184.762c3.406-1.407 13.598-.77 17.387.316 4.664 1.336 9.317 3.379 14.031 4.907-.789 2.921-.873 4.245-3.459 2.218-8.882-6.961-17.611-6.619-27.959-7.441"/><path fill="#efc78e" d="M667.78 180.497q-.406 1.497-.797 2.998c-.599 2.557-.625 3.112-1.807 5.429l-15.341-5.245 1.031-.983c5.228.818 10.773 3.278 14.904-.459l.83-1.367z"/><path fill="#e3b981" d="M647.914 182.338c1.008.093 1.963.144 2.952.358l-1.031.983c-.468-.115-1.956-.31-2.21-.684-.01-.254.153-.416.289-.657"/><path fill="#efc78e" d="M379.353 244.609c8.864-.839 9.668 1.732.93 3.539-8.533 1.764-15.303 9.927-19.336 17.485-2.369 5.112-6.041 2.571-1.904-4.134 5.487-8.891 10.113-13.801 20.31-16.89"/><path fill="#efc78e" d="M666.056 208.113c2.573-.255 10.989.106 11.944 1.944 2.571 4.951-2.613 2.723-3.492 2.501-5.237-1.322-9.785-.377-14.496 1.336-2.964 1.639-4.657 3.161-7.035 5.406-.536.507-3.321-1.176-2.002-2.801 3.128-3.854 8.425-7.147 13.312-8.067z"/><path fill="#efc78e" d="M579.035 348.644c6.976-.037 7.072 5.26.22 3.951-4.137-.79-11.905 6.005-14.869 9.647-2.753 3.5-5.242.268-2.756-2.935 4.597-5.921 10.131-9.281 17.405-10.663"/><path fill="#efc78e" d="M291.378 425.106c1.754-.081 4.273.12 3.062 2.909-.428.983-2.997 1.42-3.93 1.601-7.777 1.513-9.572 7.722-13.005 13.623-6.97 2.358-.044-15.278 13.873-18.133"/><path fill="#efc78e" d="M782.607 295.003c7.83-.392 9.577 6.734 4.904 10.306l-.641.52c-4.439.47-7.065-.685-7.172-5.832a5.26 5.26 0 0 1 1.758-4.007z"/><path fill="#efc78e" d="M288.705 614.836a5.119 5.119 0 1 1 3.75 9.526 5.119 5.119 0 0 1-3.75-9.526"/><path fill="#efc78e" d="M499.726 309.911a5.094 5.094 0 1 1 2.635 9.842 5.094 5.094 0 0 1-2.635-9.842"/><path fill="#efc78e" d="M225.284 307.843a4.946 4.946 0 1 1 2.913 9.454 4.946 4.946 0 0 1-2.913-9.454"/><path fill="#efc78e" d="M465.403 85.929a4.417 4.417 0 1 1 4.035 7.86 4.417 4.417 0 0 1-4.035-7.86"/><path fill="#efc78e" d="M664.2 429.242a4.09 4.09 0 1 1 3.803 7.242 4.09 4.09 0 0 1-3.803-7.242"/><path fill="#e3b981" d="M326.372 210.61c-2.752-3.052-4.869-5.076-8.587-7.163-4.788-2.689-6.508-10.166-7.416-15.185-.265-1.469-1.063-4.333-.591-5.661.467-.715 2.408-1.341 2.146.153-1.418 8.093 2.686 15.359 8.203 20.944 2.201 2.228 4.784 4.169 6.861 6.31z"/><path fill="#e3b981" d="M666.6 180.87a50 50 0 0 0 1.578-6.614c.338-2.005.57-3.99.873-6.003.496-3.862 2.418-9.187 5.579-11.484 1.171-.851 3.465-.881 3.11.146-4.665 4.216-6.923 9.296-8.346 15.323-.399 1.689-.783 3.288-1.088 5.005-.214 1.205-.381 2.023-.526 3.254z"/><path fill="#efc78e" d="M773.533 236.336c-.976-1.857-4.912-9.729-2.328-11.643 7.031-5.21 2.601 4.852 2.987 10.214z"/><path fill="#0c0c09" d="M312.067 252.369c.492 2.097-.037 3.997 2.129 2.096l.933-.408c-.07 1.054-.902 3.662.057 3.735l1.446.234-.334 1.235c-.001.018-.154.738.11.843.163.065.325.148.502.171l.163.063c.451 1.095-4.249 5.212-7.156 4.329l.183-1.139c1.705-.42 1.962-.275 1.93-2.069.034-3.178-.105-5.868.037-9.09"/><path fill="#efc78e" d="M353.301 153.77c-1.396-3.913-2.889-7.353-5.345-10.779-.771-1.311-2.58-2.535-3.319-3.737-.352-.572 2.691-1.344 3.119-1.094 2.199 1.28 3.029 4.982 3.778 7.335.889 2.794 1.71 5.069 2.895 7.773z"/><path fill="#efc78e" d="M513.562 334.816a3.274 3.274 0 1 1 1.958 6.251 3.274 3.274 0 0 1-1.958-6.251"/><path fill="#e3b981" d="M258.665 350.299c.908 2.473-.194 5.697.407 8.46.157.722 1.509 4.616 1.485 4.782l-.618.323c-2.68-4.117-4.211-9.199-1.274-13.565"/><path fill="#b79b73" d="M305.627 565.273c3.005.76 5.428 1.991 8.166 3.194-1.405-.32-12.64-2.29-12.689-2.313 2.777-.274 2.184.753 4.523-.881"/><path fill="#e3b981" d="M774.192 234.907c.978 2.879 1.169 5.005 1.717 7.886a28 28 0 0 0-1.784-1.457c-.031-2.178-.067-2.91-.592-5z"/><path fill="#b79b73" d="M619.329 345.794c2.175-.407 4.851-.981 7.04-1.099 1.563.736 1.624.698 3.318 1.035-3.653.489-6.723.238-10.358.064"/><path fill="#b79b73" d="M548.573 498.491c-.646.952-5.309 5.349-6.318 6.236.964-1.404 2.834-4.431 4.03-5.413 1.154-.222 1.197-.672 2.288-.823"/><path fill="#e3b981" d="m401.652 390.49 1.501.488a142 142 0 0 1-4.858 5.067c.888-1.592 2.204-4.217 3.357-5.555"/><path fill="#0c0c09" d="M615.955 340.668c-.093.581-.116 1.923-.372 2.331l.009-.18-.02-.022-.851-.202-.146-.323-.07-.041c-.148-.187-.211-.558-.145-.787.525-1.814-.386-1.785.668-3.374q.471 1.298.927 2.598"/><path fill="#937d60" d="M730.973 573.128c-1.257.448-4.136 2.001-5.039 1.83l-.091-.127c.382-.63 3.907-2.351 4.78-2.769z"/><path fill="#937d60" d="m494.218 250.234.414.939c-.465.405-3.464 3.186-3.817 2.55.184-.736 2.729-2.932 3.403-3.489"/><path fill="#937d60" d="m335.5 565.122 1.116.385c-3.808 4.296-4.158 2.983-1.116-.385"/><path fill="#b79b73" d="M319.368 572.168c.798.242 2.177.396 2.699 1.052-.003.715-3.468.075-3.817.016z"/><path fill="#b79b73" d="M613.308 335.859c.101.594.953 3.68.417 4.158-.65-.545-1.164-2.063-1.497-2.841z"/><path fill="#b79b73" d="M623.773 343.735c-2.666.529-7.086 1.063-1.188-.903z"/><path fill="#937d60" d="M727.564 577.371c-3.34.955-5.709 1.193-.717-.908l.708.626z"/><path fill="#65543d" d="M727.695 578.171c.702-.116 1.41-.253 2.115-.327l.87.932c-.82.13-2.195.524-3.009.248-.067-.023-.232-.098-.26-.19-.066-.211.246-.596.284-.663"/><path fill="#806c50" d="M382.154 398.96c4.595 1.821 1.254 1.332-.991.761z"/><path fill="#e3b981" d="M326.988 210.008c.535.559 1.098 1.047 1.674 1.562l-1.25.559c-.4-.549-.682-.937-1.04-1.519z"/></svg>