<svg xmlns="http://www.w3.org/2000/svg" width="1024" height="1024" viewBox="0 0 1024 1024"><path fill="#231a1a" d="M0 0h1024v1024H0z"/><path fill="#f8d39d" d="M453.408 184.917c-7.6-8.798-10.028-20.838-9.736-32.245.341-3.907 2.277-13.151 7.906-12.089 1.493.281 5.684 4.805 6.972 6.049 6.166 5.955 17.165 14.697 25.27 17.339 20.484-4.834 34.589-6.238 55.375.006 13.133-6.364 20.648-13.974 31.553-22.949 2.624-2.16 6.802 2.34 7.16 4.869 4.38 13.63.249 28.325-8.949 38.901 2.561 3.62 3.348 5.258 5.318 9.213 8.797-.17 10.445 5.461 4.5 10.511 2.15 4.959 2.921 9.939 4.934 14.516 2.299 5.229 6.696 10.982 9.457 16.317 5.707 11.025 18.829 55.984 6.161 63.062-1.577 8.944-2.82 15.388-7.256 23.598-1.421 2.629-5.846 9.571-6.764 11.917-2.877 7.351-4.133 12.053-8.066 19.183l62.002 12.843c6.381 1.355 20.162 3.67 25.574 6.056 9.933 4.379 12.279 20.872 9.948 30.973a38.7 38.7 0 0 1-6.732 14.328c4.596.537 11.956 1.231 16.149 2.554 7.772 14.95 8.115 32.153-.48 46.842 6.214 1.486 11.728 6.556 14.869 12.018 10.972 19.076 6.522 39.417-6.579 55.764 3.816 15.812 2.57 25.872-1.849 41.208 6.483 2.619 8.341 5.872 11.776 11.546 11.072 18.286 11.625 42.085 3.661 61.733a104 104 0 0 1-3.857 8.235c4.897.176 9.215 1.111 12.518 5.11 14.186 17.176 11.099 46.227 5.755 65.576 2.531-.131 12.521-.853 14.306-.224 24.833 8.751 23.227 58.666 8.45 73.558a41 41 0 0 1-1.853 1.764c11.947 17.537 16.758 38.273 12.844 59.46-2.044 11.066-8.201 25.519-17.069 33.428-.865.772-7.72 2.411-9.16 2.729a3257 3257 0 0 1-74.229 14.765l-84.342 16.446-37.737 7.323c-3.282.635-17.353 3.497-19.617 3.252-11.093-1.2-23.452-3.799-34.581-5.546a6265 6265 0 0 1-94.054-15.404 6220 6220 0 0 1-70.769-11.536c-10.453-1.734-20.771-3.151-31.217-5.369-14.684-3.116-15.438-23.787-2.725-29.833 3.892-1.852 7.757-1.475 11.948-1.201 9.139-9.314 15.087-29.095 4.588-40.706-5.101-5.642-15.082 2.125-22.343-8.536a17.4 17.4 0 0 1-2.891-8.454c-.646-9.574 5.666-17.055 15.464-16.744 5.584.177 11.132.618 16.703 1 2.457-8.972 4.74-12.06 13.826-12.72 4.265-.31 7.727-5.196 8.61-8.917 2.722-9.259.889-17.734-5.131-25.025-13.774.367-22.328-11.498-12.359-22.924 2.502-2.867 8.636-2.277 9.187-6.766.56-2.522 5.713-7.511 7.61-10.316 4.216-6.234 5.463-20.316 1.671-26.688-5.431-9.126-9.862-6.892-9.254-19.433-5.711.116-18.503 1.432-22.69-2.025-5.382-4.444 3.583-12.071 5.248-14.99 10.396-18.256 10.513-42.08.488-60.492-1.11-2.037-5.013-5.686-5.516-7.676-2.78-10.976 20.202-7.721 26.714-7.637 1.9-3.638 4.821-3.938 6.879-6.468 7.957-9.781 7.3-23.222 2.191-34.102-8.521-3.49-9.642-9.74-.145-12.477l.69-.193c8.483-13.574 9.682-33.239 3.737-47.973-.973-2.411-8.126-6.55-4.79-10.215 4.103-4.507 18.3-4.337 24.05-4.713-18.965-14.432-15.044-44.215 8.769-49.493-.269-.866-.238-.787-.998-1.298-4.933-.135-33.027-3.536-35.268-5.739-.88-.865-1.284-1.665-1.167-2.934.309-3.352 5.15-6.976 7.033-9.724 5.709-8.33 5.543-20.095.396-28.635-.433-.718-.912-1.39-1.401-2.071-2.607-.514-4.111-.492-5.974-2.487-1.719-1.84-.634-7.509 1.793-7.807 37.198-4.569 74.973-6.242 112.228-10.309-10.051-12.788-13.439-21.574-15.443-37.698-6.964-2.939-5.455-8.719-5.447-15.074.019-16.626 4.213-32.774 11.446-47.69 3.07-6.63 6.129-10.508 9.594-16.166 1.462-2.386 3.814-12.139 5.129-15.607-1.786-2.066-2.977-3.946-2.792-6.838 2.089-3.778 6.373-.928 8.299-4.201 1.551-2.636 2.626-5.146 4.481-7.635"/><path fill="#9c7a4d" d="M360.501 405.532c2.658-.157 5.114.313 7.774.627-2.054.402-4.639.532-6.776.671-.269-.866-.238-.787-.998-1.298"/><path fill="#231a1a" d="M283.501 806.575a52 52 0 0 1 3.49-.042c13.225.297 27.472 1.491 40.739 2.412l85.134 6.481 61.329 4.63c11.589.857 23.676 1.536 35.184 2.931 3.927.633 6.207 1.029 8.84 4.259 19.932 24.45 19.452 82.227-4.205 103.482-4.083-1.187-12.501-2.424-16.806-3.131l-32.465-5.198-132.211-21.748-33.542-5.573c-5.139-.816-12.804-1.6-17.528-2.907-4.638-4.545-3.047-8.869 2.855-10.824 3.023-1.148 5.53.903 8.47-.021 4.508-1.417 11.616.608 16.618 1.401q18.036 2.7 36.034 5.659l125.827 20.136c10.681 1.636 22.375 3.918 32.811 5.315 10.965-5.61 14.747-19.159 16.782-30.35a89.6 89.6 0 0 0 1.084-18.142c-.739-16.062-3.818-23.856-15.344-34.358a9096 9096 0 0 1-132.447-10.978l-45.171-3.832c-7.982-.675-16.057-1.171-23.986-2.152-2.794-.346-5.689-1.178-7.906.491l.005 1.114c2.56 2.161 185.743 16.724 208.722 18.992a30.7 30.7 0 0 1 5.896 6.708c11.001 17.014 9.427 57.733-8.441 69.272-6.18-1.522-14.207-2.586-20.577-3.601l-32.503-5.262c-49.93-8.26-102.73-15.23-152.195-24.808 6.775-6.919 9.998-14.007 11.348-23.644 1.32-9.417-1.207-21.657-7.199-29.091-6.132-7.606-9.674-5.035-17.938-5.345-1.36-.089-3.11-1.43-3.813-2.618-2.656-4.49-.335-7.381 3.109-9.658"/><path fill="#f8d39d" d="M319.824 837.172a7877 7877 0 0 1 110.931 10.376l51.517 4.493c5.4.47 16.469.532 21.697 2.631.536.215.306 1.655.307 2.375-18.259-2.508-40.624-3.429-59.374-5.417-41.493-4.398-83.593-7.412-125.065-11.77l-.515-.849z"/><path fill="#f8d39d" d="M320.382 859.688c14.89-.802 20.623 3.991 34.235 5.34 10.049.996 21.701-5.376 33.162-2.439 10.027 2.57 16.431 8.192 26.322 10.16 11.231 1.55 20.588-3.963 32.628-3.29 14.514.81 22.008 6.822 35.126 11.497 4.937 1.759 10.051 2.133 15.162 2.765 1.147.142 2.243.647 2.874 1.633-1.285 1.05-1.062.701-3.138.793-5.561-.409-12.514-1.473-17.714-3.488-10.218-3.96-17.47-8.441-28.605-10.137-12.951-1.971-21.14 3.514-33.742 3.12-13.126-.411-19.919-9.618-32.741-10.899-9.967-.996-17.893 2.905-27.422 3.168-8.195.226-16.847-3.718-25.058-5.229-3.743-.688-10.502.031-12.927-.96l-.28-.85c.82-.879.846-.673 2.118-1.184"/><path fill="#231a1a" d="m324.011 664.709 235.771.743c45.72-.082 91.49-1.032 137.212-.901 1.435-.065 8.811.546 9.636 1.256 16.176 13.93 10.629 48.481 4.279 65.091-22.876-.002-48.121 1.518-71.084 2.265q-54.361 1.308-108.701 3.278c-9.591.133-21.37 1.052-30.733.758-33.816-1.061-67.702-2.407-101.516-3.617l-47.513-1.729c-4.311-.151-26.162-.098-28.621-1.982-.341-1.938-.288-1.863.229-3.651 1.805-1.457 44.267.892 50.304 1.115l119.823 4.23c12.552-18.222 11.862-43.663-1.827-61.095-11.323-.684-29.261-.054-41.34-.08l-79.703-.066c-14.691-.006-29.438.014-44.127-.169-1.878-.024-2.323-.255-3.384-1.405-.246-1.772.397-2.461 1.295-4.041"/><path fill="#f8d39d" d="M697.097 670.29c5.183-.75 7.809 2.284 9.596 6.97 5.756 15.093 5.067 32.941-.854 47.875-3.793.475-13.23.423-17.374.525q-18.101.383-36.195 1.027l-144.645 4.932-6.779.142c8.149-20.955 9.74-40.716-1.173-61.06 14.696-.764 36.607-.108 51.751-.128l91.212-.063c17.855-.006 36.679.255 54.461-.22"/><path fill="#231a1a" d="M579.698 673.746q60.09.376 120.177-.312a77 77 0 0 1 1.761 3.122c7.302 13.692 6.135 30.786 1.779 45.2-7.184-.145-16.363.39-23.668.606l-54.374 1.699c-39.612 1.909-79.757 2.167-119.46 3.98 6.699-19.275 6.855-34.797-.179-54.026z"/><path fill="#f8d39d" d="M655.964 687.258c5.281-.032 32.726-1.222 34.983 1.184-1.993 1.798-30.092 1.461-35.279 1.51l-58.043.611c-5.909.086-31.997 1.157-35.928-.718l.051-.727c2.721-1.663 23.843-1.17 28.857-1.246z"/><path fill="#f8d39d" d="M637.188 705.268c13.292-.385 26.634-.058 39.929-.42 2.523-.069 5.072-.467 6.745 1.134l-.045.801c-2.769 1.459-68.04 1.661-76.66 1.747-5.999.114-41.88 1.195-45.079-.082l-.239-.863.977-.896c16.247-.764 60.461-1.244 74.372-1.421"/><path fill="#231a1a" d="M721.004 735.718c3.501-.294 8.287-.318 11.896-.449 7.529 5.019 11.291 17.232 12.114 25.798 1.254 13.051-1.742 26.071-10.125 36.349-7.42 1.078-17.855 1.695-25.506 2.355l-49.252 4.138-136.753 11.21c-3.205.359-7.605.391-10.921.505 13.697-21.655 13.287-52.624-3.914-72.283 16.582-1.167 36.507-1.246 53.425-1.906z"/><path fill="#f8d39d" d="M626.087 746.728c13.628-.249 13.481 4.445 14.944 17.115 1.367 11.849.43 26.744-3.756 38.013-3.542.545-7.999.724-11.652.965-9.972.55-13.592-.338-10.824-10.447 2.273-8.299 1.559-18.64.838-27.159-1.205-14.245-7.069-17.87 10.45-18.487"/><path fill="#231a1a" d="M621.716 749.185c3.959-.016 8.948-.36 12.57 1.066 6.635 6.176 5.023 41.074.86 49.102-1.307.958-3.039.724-4.769.759-3.671.344-10.739 1.205-13.486-1.417 1.259-9.348 2.247-16.988 2.191-26.486-.033-5.511-3.464-17.869-1.8-21.914 1.692-1.274 1.914-.873 4.434-1.11"/><path fill="#f8d39d" d="M548.313 752.868c3.602 2.373.783 2.322-1.52 4.194-6.292 5.115-5.947 16.422-5.863 23.842.255 6.182.736 11.765 3.501 17.39 2.037 4.144 5.106.777 4.329 5.052l-.15.898-.691-.274c-6.636-2.56-9.071-9.051-9.399-15.72-.565-11.507-3.108-30.003 9.793-35.382"/><path fill="#f8d39d" d="M716.521 753.371c5.288.288 7.086 5.938 7.943 10.632 1.355 7.426.093 14.431-4.445 20.615-5.359 2.093-.238-4.545.032-5.35 2.013-6.003 2.474-13.911-.188-19.765-1.089-2.395-2.41-3.527-3.342-6.132"/><path fill="#231a1a" d="M314.621 733.71c1.708 1.386 3.155 2.435 4.96 3.695 46.999.21 94.644 3.774 141.67 5.024 14.585.388 29.344 1.257 43.919 1.237 7.371 9.661 10.428 15.093 12.593 27.397 2.641 15.007-.412 31.733-9.403 44.278-4.887-.663-10.517-1.017-15.481-1.442-21.983-1.26-44.666-3.826-66.631-5.642l-115.79-9.397c3.3-6.297 5.161-4.511 11.488-4.266 16.802-12.917 15.637-39.052.245-53.049-6.243.985-15.37-.791-7.57-7.835"/><path fill="#f8d39d" d="M405.05 782.21c6.189-.691 18.988-.217 25.207.355 6.023.567 12.011 1.47 17.933 2.704 13.912 2.813 27.677 7.768 41.873 9.794 2.976.424 10.091.598 11.539 2.338l-.242-.586-.312 1.096c-5.624 2.422-40.552-7.006-48.106-8.997-15.578-3.569-22.231-3.923-37.407-4.447-12.978-.448-57.049 6.398-65.948 2.255l-.062-.559c2.606-1.597 4.044-1.012 6.877-.955 16.021.325 32.669-1.782 48.648-2.998"/><path fill="#f8d39d" d="M348.197 766.508c10.344.244 152.874 6.048 153.701 6.453.658.321.652 1.286.826 1.943-10.277.409-152.152-5.432-153.68-6.225-.677-.351-.678-1.481-.847-2.171"/><path fill="#f8d39d" d="M346.467 751.22c3.961-.586 16.63.011 21.017.145l43.062 1.427q31.736.705 63.456 1.925c8.129.287 16.806.438 24.954.934.901.055.914.574 1.728 1.665-5.874 1.03-29.83-.312-36.943-.555l-73.507-2.383a2362 2362 0 0 1-31.709-1.076c-3.251-.122-6.943-.135-10.187-.333-1.214-.074-1.27-.729-1.871-1.749"/><path fill="#231a1a" d="m456.093 579.227 13.794-.42a66.1 66.1 0 0 1 9.681 26.484c2.122 16.035-.85 36.133-10.976 49.231-48.142.762-98.417.54-146.717.478l-15.54-.139a68.8 68.8 0 0 0 7.102-15.135c6.261-19.16 3.832-38.874-5.214-56.672z"/><path fill="#f8d39d" d="M448.316 631.729c3.519-.183 8.601-.829 11.7.794l-.138.716c-4.189 1.92-32.682 1.677-38.975 1.842l-79.427 2.057c-4.864.27-7.3.781-11.958-.472l-.225-.656c3.66-1.76 33.616-1.9 40.002-2.101q39.503-1.365 79.021-2.18"/><path fill="#f8d39d" d="M445.999 598.267c3.401-.131 13.918-1.013 16.055 1.19-1.108 1.01-1.576 1.288-3.383 1.346-10.044.322-20.356.179-30.403.392l-77.143 1.595c-4.746.211-9.424.715-13.965-.75l-.094-.631c4.429-1.698 35.654-1.686 42.219-1.821a3646 3646 0 0 1 66.714-1.321"/><path fill="#f8d39d" d="M420.052 614.775c4.121-.136 19.217-1.572 21.766 1.066-2.367 1.839-25.043 1.656-30.068 1.759l-55.11 1.219-16.821.316c-1.965.02-3.592.262-4.82-.945l.171-1.229c2.832-1.179 76.064-1.994 84.882-2.186"/><path fill="#231a1a" d="M486.245 452.346c9.539.535 21.71 2.174 31.498 3.236l64.049 7.268 59.763 6.786c11.216 1.21 22.452 2.382 33.781 3.605 12.988 1.401 17.311 7.516 20.483 19.719 3.34 12.849-.499 23.032-7.207 34.095-.243.289-1.513 1.671-1.759 1.662-5.792-.208-20.548-1.45-25.284-1.827l-104.394-8.669c-21.179-1.861-48.542-5.026-69.298-5.14a82 82 0 0 0 2.66-6.55c6.381-17.966 3.674-37.238-4.292-54.185"/><path fill="#f8d39d" d="M533.877 465.553c1.274-.07 6.701-.526 7.168 1.268-.223.327-.668.615-1.028.768-5.209 2.206-8.816 8.227-11.775 12.965 3.76-.98 4.909-1.664 9.002-1.252l4.351.443c-5.571 4.608-6.154 6.274-9.227 13.002 3.989.583 8.238 1.046 12.279 1.572-1.076 1.316-2.541 2.631-3.11 4.191a7.81 7.81 0 0 0 .399 6.262l.559 1.044c2.572 2.477 3.885 3.059 6.7 5.169-.876-.109-1.764-.227-2.64-.326a36 36 0 0 1-14.07-4.545c-16.963-9.903-20.215-33.618 1.392-40.561"/><path fill="#f8d39d" d="M654.988 481.143c16.453.298 23.645 13.797 15.848 28.231-4.701 8.702-14.511 11.567-23.865 12.628 6.982-6.698 7.213-6.106 5.018-14.994a499 499 0 0 1 9.714-.041c-2.201-6.601-3.258-7.728-8.031-12.703.642-.047 10.555-.365 10.096.088.867-4.907-9.743-11.826-9.822-12.545.126-.207.275-.296.491-.397z"/><path fill="#f8d39d" d="M608.913 490.289a5.052 5.052 0 1 1 2.701 9.735 5.052 5.052 0 0 1-2.701-9.735"/><path fill="#231a1a" d="M510.34 243.921c7.898 8.942 11.01 5.101 19.252 3.647 3.141-.555 6.913 10.186 17.036 3.465 7.742 12.369 9.995 5.351 14.601 8.002 1.931 2.977 3.869 9.661 5.397 11.68 6.479 8.563 8.832 11.76 11.191 22.782 4.118 19.241 3.342 41.446-7.445 58.483-16.292-2.751-33.781-6.576-49.98-10.006-14.423-2.559-31.882-7.215-46.274-8.842-6.905-.78-22.47 1.795-30.343 2.481-4.094-17.174-2.714-38.325 3.899-54.729 1.177-2.919 5.911-7.666 7.564-10.989 1.709-3.433 3.18-8.532 5.301-11.436 9.196 1.101 8.209-.527 14.52-6.981 4.945-.855 4.651 6.955 16.084-3.683 7.125 3.997 13.82 1.457 19.197-3.874"/><path fill="#231a1a" d="m476.215 453.75 4.699-.432c10.905 17.029 11.175 42.802.793 60.146-20.892.35-42.572 1.719-63.443 2.84l-70.666 3.337-8.404.254c7.834-20.889 8.291-32.674.841-53.727 10.755-1.904 28.953-3.004 40.286-3.995l57.29-5.064c12.688-1.07 26.05-1.894 38.604-3.359"/><path fill="#f8d39d" d="M461.48 480.286c2.704-.199 7.537-.816 9.841.262l.069.844c-1.834 1.583-98.72 5.409-110.014 6.18-2.053.164-7.374 1.17-8.266-.822 2.961-2.147 96.345-5.791 108.37-6.464"/><path fill="#f8d39d" d="M442.011 493.285c5.036-.455 29.548-.527 31.327 3.179-.8.488-2.016.925-2.952.783-6.364-.962-12.478-2.09-18.98-2.01-22.611.276-45.46 3.368-67.793 6.751-6.094 1.051-21.843 4.314-27.086 4.035l-.333-.463c8.5-5.151 73.538-11.439 85.817-12.275"/><path fill="#f8d39d" d="M463.48 464.71c2.574-.218 6.309-.907 8.242 1.156-2.312 1.136-100.212 8.265-111.841 9.285-2.656.284-6.41.936-8.774-.018l-.148-.785c2.396-.919 21.788-2.303 25.783-2.652a5679 5679 0 0 1 86.738-6.986"/><path fill="#231a1a" d="M328.5 673.628c48.596-.546 97.272.353 145.873.209 4.927-.014 9.939.061 14.858-.142 8.458 11.723 10.692 22.431 8.291 36.797a50.6 50.6 0 0 1-6.618 17.999c-5.798-.751-14.063-.848-20.101-1.077l-33.052-1.305-110.767-4.122c3.072-3.974 6.177-7.942 7.276-12.995.007-1.395.268-1.585.83-2.931 1.454-5.598 1.545-10.008.824-15.77 16.77-.477 136.383 2.169 139.492.088l.076-.85c-2.213-2.025-13.405-1.267-16.811-1.281l-27.282-.165-96.001-.517c-1.795-6.425-2.676-8.412-6.888-13.938"/><path fill="#f8d39d" d="M334.26 708.992c.007-1.395.268-1.585.83-2.931 15.627.19 136.747-.355 141.294 1.854l.225.807c-1.236 1.258-2.244 1.344-4.049 1.329-45.92-.368-92.419-1.82-138.3-1.059"/><path fill="#231a1a" d="M550.72 577.438c4.788.15 10.159.562 14.937.952 28.129 2.296 56.924 2.587 84.991 5.134 11.955 22.503 13.533 50.218.777 72.751l-.185.277c-1.121.655-90.377.398-99.794.443a222 222 0 0 0 2.82-6.442c10.212-24.891 6.408-49.113-3.546-73.115"/><path fill="#f8d39d" d="M585.943 614.189a7.242 7.242 0 1 1 2.558 14.256 7.242 7.242 0 0 1-2.558-14.256"/><path fill="#231a1a" d="M513.22 520.988a2580 2580 0 0 1 44.771 3.753l67.629 5.162a4294 4294 0 0 0 58.543 4.916c2.317 7.094 4.957 40.253-4.039 41.167-40.997-1.555-82.32-4.622-123.364-6.193-14.855-.568-30.144-2.004-44.915-2.37 8.789-15.47 10.844-30.676 1.375-46.435"/><path fill="#f8d39d" d="M562.938 538.637c4.699-1.092 98.845 6.958 112.342 8.149.545.048.752 1.083 1.062 1.844-3.092.235-9.721-.481-13.101-.736l-20.636-1.441-43.889-3.507c-11.201-.855-23.529-1.5-34.56-2.726z"/><path fill="#f8d39d" d="M569.762 557.562c15.548.022 32.267 1.426 47.968 1.739 9.916.197 20.164 1 30.116 1.056 1.65.009 1.569.127 2.595.921l.052 1.465c-9.392-.331-78.826-2.379-80.668-3.399z"/><path fill="#231a1a" d="m337.1 528.528 116.012-5.11c13.294-.628 26.631-1.689 39.91-1.906.273-.005 2.468 1.446 2.728 1.716 10.707 11.145 7.107 33.572-2.234 43.726a9470 9470 0 0 0-160.052 4.588c2.642-3.144 3.373-5.244 5.228-7.58l.514-2.003c.621-1.466 1.366-4.701 1.799-6.364l.318-2.056.243-7.05a8721 8721 0 0 1 100.195-3.741l26.69-.969c3.458-.116 12.154.343 14.698-1.401l-.215-.542c-2.849-.735-26.793.375-31.483.491-36.51.908-73.356 3.214-109.845 3.809-.398-2.33-.724-3.971-1.332-6.251l-.415-2.613a112 112 0 0 0-2.759-6.744"/><path fill="#f8d39d" d="M339.859 535.272c15.411-.772 143.009-6.154 146.802-4.817-2.512 2.258-11.32 1.801-14.91 1.939l-21.264.991a6186 6186 0 0 1-62.548 2.491c-14.518.456-33.395.723-47.665 2.009z"/><path fill="#f8d39d" d="M341.323 553.539c33.023-1.407 65.515-2.115 98.488-3.19l32.813-1.145c3.443-.132 13.761-1.317 16.499-.173l.021.606c-2.619 1.494-13.832 1.476-17.385 1.642a1626 1626 0 0 1-37.667 1.357c-30.675.974-62.487 2.41-93.087 2.959z"/><path fill="#f8d39d" d="M339.206 561.959a7998 7998 0 0 1 86.359-2.611l35.261-.948c4.028-.125 19.75-1.299 22.079.131l-.04.731c-2.19.649-12.692.761-15.448.871q-22.59.902-45.19 1.49l-55.96 1.736c-8.254.233-19.588.867-27.575.603z"/><path fill="#231a1a" d="M567.061 199.686c4.269-1.942 6.924-3.655 11.601-1.947l.706.813c-.732 3.175-3.965 3.816-6.75 4.685 4.345 16.705 5.124 18.792 13.824 33.293 8.745 14.577 12.955 38.775 11.4 55.818-1.752-.736-3.36-1.456-5.188-2.004.077 11.175-.611 17.768-5.562 28.213l-.376.504-.289.473c-1.124 1.199-.521-1.879-.522-1.876-1.15-10.072-.744-28.785-6.174-38.126-2.959-5.089-8.586-9.649-11.598-17.173-2.654-6.633-3.315-13.391-5.664-19.404-1.326-.647-.616-.498-2.232-.245-2.709 2.895.03 8.199-3.976 10.124-6.534-.27-6.152-10.791-10.825-12.491-2.178 1.242-1.852 3.243-4.371 5.797-5.154 1.956-8.833-4.567-11.459-8.209-11.072 14.09-13.385.596-20.001-.045-6.715 2.248-7.376 13.413-18.4.457-2.432 3.457-5.367 8.3-9.417 9.513-4.691-.856-2.72-6.643-6.452-7.161-3.702 3.673-4.982 11.401-10.295 12.394-4.182-1.478-.543-7.582-3.827-10.947l-1.093.061c-2.473 2.172-2.416 5.758-3.059 8.873a51.5 51.5 0 0 1-3.253 10.083c-3.957 9.088-10.48 14.976-13.081 22.564-2.477 7.229-4.137 21.137-4.79 28.981q-.006 4.275.087 8.548c-.798-1.525-1.609-3.077-2.137-4.723-4.311-10.632-4.75-14.875-5.508-26.371l-5.007 1.978c-2.197-27.504 7.372-48.938 20.725-71.645 1.925-3.274 4.537-12.935 6.386-17.32-2.643-1.046-5.488-1.831-6.869-4.408 1.352-3.715 10.192-.397 12.9.511-12.606 30.102 32.242 45.392 41.401 17.034a26.8 26.8 0 0 0 1.166-11.227c9.799-5.169 15.403-5.962 25.006.413-.456 7.349-.192 12.445 5.179 18.435a23.3 23.3 0 0 0 16.75 7.673 21.68 21.68 0 0 0 15.953-6.24 23.28 23.28 0 0 0 6.899-17.116c-.068-3.255-.822-5.549-1.808-8.56"/><path fill="#1f1107" d="M433.888 316.529c1.949-1.099 1.235-.872 1.804-2.944l.246-.881q-.006 4.275.087 8.548c-.798-1.525-1.609-3.077-2.137-4.723"/><path fill="#1f1107" d="M585.905 317.658c.065-.499.334-3.731.443-3.962l-.059-.625.022.027-.007-.105.046-.032c.17.167.522 4.478.742 5.596l-.376.504-.289.473c-1.124 1.199-.521-1.879-.522-1.876"/><path fill="#f8d39d" d="M506.899 205.585c9.951-.681 16.614.76 10.791 8.929-.829 1.163-2.982 6.465-3.83 8.16-1.821 2.616-2.933 4.598-4.64.111-2.64-6.941-10.397-12.58-2.321-17.2"/><path fill="#231a1a" d="m477.074 398.248.512.101c2.404 2.35 4.904 9.131 5.566 12.458 2.526 12.689.83 23.26-5.918 34.08-5.771.904-15.21 1.398-21.35 1.93a4275 4275 0 0 1-44.365 3.723l-27.854 2.397c-9.914.851-15.308 2.69-24.473-1.711a40 40 0 0 1-1.826-1.3 22.04 22.04 0 0 1-8.414-14.748c-1.127-9.508 3.191-18.18 13.056-20.443 12.506-2.654 25.431-4.193 38.126-5.906 25.519-3.445 51.368-7.798 76.94-10.581"/><path fill="#f8d39d" d="M471.952 409.209c.317-.067 1.193-.064 1.557-.074l.5.64-.306.871c-1.672 1.225-6.682 1.425-8.985 1.716l-22.68 2.897-73.462 9.772c-1.754-.187-1.19.221-2.118-.768l.332-.459c3.451-1.803 25.227-3.835 30.496-4.531z"/><path fill="#f8d39d" d="M474.305 423.726c1.21-.163.888-.102 2.15.124l.271.741c-1.338 1.329-10.926 1.782-13.288 2.002l-24.638 2.224a6066 6066 0 0 0-68.112 6.318c-1.373-.009-1.344.058-2.598-.446l-.321-.802c2.056-1.413 96.959-9.466 106.536-10.161"/><path fill="#f8d39d" d="M464.452 434.794c2.402-.248 6.259-.983 8.137.401-.985.803-2.687 1.136-3.934 1.22-27.474 1.853-54.909 5.178-82.36 7.17-3.016.427-5.13 1.109-7.853-.251l.229-.592c4.203-1.4 23.407-2.654 28.988-3.124z"/><path fill="#231a1a" d="m624.725 810.307.976-.114c.832-.101 2.68-.405 3.342-.017 7.999 4.682 14.631 21.929 16.714 29.944 6.39 24.599 3.045 45.951-9.095 67.623-12.683 3.048-31.054 5.826-44.235 8.152-2.697.533-5.723.976-8.459 1.439 16.573-35.899 13.303-68.826-5.144-103.184 11.898-1.989 33.009-2.758 45.901-3.843"/><path fill="#231a1a" d="M338.667 354.344a7077 7077 0 0 1 80.604-6.543c17.537-1.315 37.749-2.434 55.126-4.347 10.468 10.076 7.999 32.846-3.631 41.425-4.37.802-11.017.942-15.616 1.186q-13.419.638-26.823 1.55a2718 2718 0 0 1-62.356 4.299c-8.858.543-20.779 1.61-29.315 1.629 1.465-2.193 2.781-4.149 4.095-6.451 12.742-1.259 26.836-1.749 39.735-2.547l57.106-3.753c5.364-.328 33.695-1.455 36.013-2.83l-.306-.53c-4.047-.714-17.224.423-24.428.823-35.277 1.96-71.42 4.627-106.801 6.504l-.415-.464c.155-1.914.215-2.253.69-4.117-.061-1.244.012-1.347.281-2.583l.654-4.067.185-2.036c-.247-2.042-.271-2.145-.053-4.172.092-.314.163-1.182.204-1.546-.843-1.398-1.063-2.233-1.638-3.755.174-.653.065-1.52.044-2.26-1.43-1.875-2.212-3.377-3.355-5.415"/><path fill="#f8d39d" d="M342.022 359.759c6.311-1.039 14.695-1.357 21.296-1.81a2944 2944 0 0 1 38.479-2.42c22.592-1.324 45.256-2.793 67.84-4.31 1.503-.101 3.009-.083 4.368.576l-.304.6c-6.088 1.883-16.758 1.479-23.627 2.101-19.928 1.805-42.426 2.35-62.22 4.022-8.492.717-41.498 1.555-45.876 3.501.174-.653.065-1.52.044-2.26"/><path fill="#f8d39d" d="M342.626 377.595c2.553.979 20.039-.493 24.219-.739l65.565-4.007c5.785-.379 39.422-3.187 41.622-1.848-1.658 2.083-18.365 2.291-21.915 2.51l-33.719 2.198c-24.263 1.603-51.81 3.942-76.053 4.469-.061-1.244.012-1.347.281-2.583"/><path fill="#f8d39d" d="M343.465 371.492c31.84-1.498 63.436-3.712 95.228-5.487 6.949-.388 29.8-2.403 35.279-1.507-1.19 2.195-17.315 2.339-20.326 2.52l-28.359 1.745-57.556 3.529c-7.282.389-17.388 1.225-24.451 1.236z"/><path fill="#f8d39d" d="M343.616 365.774c4.062-.876 11.945-1.167 16.345-1.454l30.439-1.843 63.742-3.975c5.223-.281 15.231-1.585 19.902-.48l.136.662-.011-.609.071.037-.146.612c-4.391 1.518-39.265 2.951-46.457 3.36l-84.225 5.236c.092-.314.163-1.182.204-1.546"/><path fill="#231a1a" d="M522.926 349.042c10.324 2.866 26.008 5.483 36.768 7.691l79.14 16.108c3.844 10.529 5.079 29.183-2.968 38.043-5.059-.53-10.093-1.251-15.107-2.104-26.914-4.574-53.94-8.454-80.866-12.956-7.24-1.211-14.47-2.5-21.74-3.525q.273-.487.534-.981c7.26-13.805 8.845-27.436 4.239-42.276"/><path fill="#231a1a" d="m677.939 805.706 5.385-.455a75.24 75.24 0 0 1 15.683 30.846c5.421 22.141.518 42.526-11.137 61.624-4.563 1.271-10.649 2.204-15.403 3.114l-27.419 5.307-4.414.793a89 89 0 0 0 10.963-36.875c1.548-20.878-4.141-44.373-17.983-60.441 13.847-1.743 30.269-2.762 44.325-3.913"/><path fill="#231a1a" d="M479.273 573.979c16.723.129 37.621 1.765 54.753 2.558 9.654 20.102 14.003 33.426 10.398 56.769-.712 4.61-5.563 21.218-9.014 23.572a2166 2166 0 0 0-55.843-.133c3.513-5.334 5.671-10.274 7.443-16.412 7.14-24.729 4.083-44.163-7.737-66.354"/><path fill="#231a1a" d="M558.048 407.24c14.989 2.852 32.656 5.033 47.897 7.391 15.574 2.409 32.641 5.585 48.101 7.527a44 44 0 0 1 1.056 2.8c4.858 13.911 2.878 25.257-3.379 38.156-32.276-3.505-65.256-8.139-97.529-11.369q.312-.524.611-1.055c7.817-13.984 7.581-28.501 3.243-43.45"/><path fill="#f8d39d" d="M605.042 430.689a4.845 4.845 0 1 1 4.278 8.694 4.845 4.845 0 0 1-4.278-8.694"/><path fill="#231a1a" d="M450.694 147.348c8.957 10.228 19.864 18.509 32.692 23.295 17.75-5.94 37.804-5.599 55.646-.192 12.684-3.702 24.633-13.743 33.091-23.676q.36 2.153.624 4.32c1.373 11.984-4.363 18.804-11.142 27.267 2.544-1.768 5.646-4.369 8.604-4.657l.246.722c-2.097 4.104-5.717 6.711-9.394 9.16a225 225 0 0 0 5.709 8.656c1.131 1.518 2.322 2.623 1.462 4.479-2.824.259-7.365-4.63-10.663-6.492a22.74 22.74 0 0 0-18.06-1.823c-7.352 2.375-11.098 7.167-14.483 13.638-10.515-6.175-16.406-5.276-26.99-.314-6.816-14.565-21.39-18.636-34.966-9.582-1.821 1.214-5.52 3.702-7.557 3.277-.511-2.665 3.947-8.699 5.583-11.203-5.389-5.175-6.054-5.633-9.115-12.336 3.005 1.984 6.071 4.183 9.027 6.256-1.725-3.008-3.871-5.133-5.802-8.024-4.7-7.035-6.213-14.488-4.512-22.771"/><path fill="#231a1a" d="M534.558 817.796c2.115-.242 4.716-.358 6.879-.516 20.246 33.446 20.223 72.866 3.329 107.648-5.64 1.534-16.007 3.014-22.659 4.509l-1.138.108c-.174-1.21 2.618-4.868 3.41-6.235 16.854-29.09 16.359-79.049-8.773-103.621a872 872 0 0 0 18.952-1.893"/><path fill="#231a1a" d="m705.717 803.298.873-.117c5.934-.744 8.183 4.839 11.113 9.307 14.877 22.691 13.466 59.831-3.988 80.783-5.484.346-12.597 2.052-18.107 3.208-1.42.339-1.39.347-2.843.279-.344-1.554 5.056-11.348 5.964-13.745a77.8 77.8 0 0 0 4.449-17.417c3.169-23.227-2.398-42.057-16.452-60.539 5.616-.757 13.058-1.136 18.991-1.759"/><path fill="#231a1a" d="M665.139 584.197q11.942.575 23.861 1.52c16.13 20.17 14.783 49.238 1.507 70.503-2.066 1.511-21.604.91-25.708.904 8.751-21.307 11.272-37.044 5.12-59.947-1.072-3.994-3.238-8.193-4.503-12.112z"/><path fill="#231a1a" d="m586.96 843.711.877.315c4.786 11.456 3.528 35.028 1.934 47.266-10.032 1.546-19.564 3.745-29.836 5.006l-1.368-.029c-.614-1.535 1.262-14.116 1.351-17.57a120.2 120.2 0 0 0-2.723-29.81c9.793-1.649 19.973-3.899 29.765-5.178"/><path fill="#231a1a" d="M517.801 401.458c9.414 2.151 21.514 2.956 31.322 4.608 5.306 16.099 5.907 28.997-3 44.212-2.519 1.049-25.712-2.287-30.224-2.844 1.995-4.563 4.214-9.745 5.048-14.687a56.5 56.5 0 0 0 .16-18.749c-.648-4.163-1.928-8.546-3.306-12.54"/><path fill="#231a1a" d="M719.69 802.206c2.225-.241 6.211-.278 8.576-.377 18.057 21.763 23.604 48.085 11.543 74.738-1.738 3.841-6.475 13.515-11.197 13.752-3.956.306-6.807 1.103-10.673 2.086 15.146-23.675 17.738-51.876 4.733-77.348-1.439-2.817-7.431-11.078-7.475-11.804 1.339-1.221 2.323-.885 4.493-1.047"/><path fill="#231a1a" d="M472.183 190.675c10.314-2.518 20.714 3.808 23.221 14.124s-3.83 20.71-14.148 23.206c-10.304 2.493-20.678-3.833-23.182-14.134s3.811-20.682 14.109-23.196"/><path fill="#f8d39d" d="M477.108 202.437c10.608.062 4.6 11.249-.682 15.164-9.722-.172-6.259-11.561.682-15.164"/><path fill="#f8d39d" d="m475.178 195.048 1.125-.038c1.667-.045 4.225-.095 5.621 1.01.352.583-.631.882-.891.916-9.9 1.273-14.438 6.971-15.128 16.75-.026-.207.971 4.883-.23 3.62-7.559-7.948 1.46-19.713 9.503-22.258"/><path fill="#231a1a" d="M544.008 190.384c10.511-1.383 20.141 6.05 21.465 16.569s-6.162 20.108-16.688 21.373c-10.444 1.256-19.94-6.159-21.254-16.595s6.048-19.975 16.477-21.347"/><path fill="#f8d39d" d="M548.155 201.424c.644.052 1.21.071 1.843.202.794.166 1.48.661 1.89 1.361 2.741 4.801-1.824 12.485-6.375 14.926-8.747-2.564-3.374-12.913 2.642-16.489"/><path fill="#f8d39d" d="M545.579 195.099c7.034-.651 8.588 2.309 6.216 2.267-9.915-.173-15.961 7.45-14.637 16.745 2.189 13.696-13.975-9.284 8.421-19.012"/><path fill="#231a1a" d="M483.886 395.785c3.275.808 6.538 1.575 9.869 2.133l5.749.987 3 .503c2.07.333 4.159.69 6.229 1.037 6.461 15.283 7.015 31.366-1.217 46.1-6.401.262-16.409-1.605-23.436-1.976 8.553-14.973 7.636-33.709-.194-48.784"/><path fill="#231a1a" d="M568.88 814.798c2.208-.239 4.193-.337 6.393-.501 6.312 9.855 8.141 15.113 11.648 25.902l.148.444-8.064 1.503c-5.089 1.011-11.002 2.147-16.119 2.824-2.089.423-4.085.699-6.185 1.108-3.666-13.514-4.85-16.648-11.649-29.21 6.212-.571 17.985-1.09 23.828-2.07"/><path fill="#231a1a" d="m496.933 344.198.671.115c5.652.916 11.288 2.053 16.95 2.941 4.404 17.937 3.408 27.409-5.039 43.882-5.371-.427-11.159-1.614-16.546-2.367 8.247-16.288 9.089-27.143 3.964-44.571"/><path fill="#231a1a" d="M663.331 423.862c5.599.423 11.584 1.374 17.116 2.392 6.097 14.176 4.598 26.078-1.759 39.784-5.03-.181-13.54-1.366-18.779-2.032 7.461-12.803 7.808-26.158 3.422-40.144"/><path fill="#231a1a" d="M588.574 894.187c2.337 1.764-6.991 20.891-8.875 24.067-9.886 2.482-20.671 4.232-30.75 6.045-.318-.58-.225-.631.118-1.28 3.817-7.208 6.07-15.527 8.258-23.35 10.427-1.702 20.887-3.844 31.249-5.482"/><path fill="#231a1a" d="M483.25 342.182c3.161.524 6.717 1.053 9.901 1.517 5.111 16.437 5.996 29.104-3.542 44.491-3.403-.644-5.591-1.046-9.043-1.426 9.033-14.519 11.233-28.693 2.894-44.185z"/><path fill="#231a1a" d="M539.291 577.037c2.069-.067 2.646-.107 4.66.22 3.091 3.631 5.238 9.273 6.669 13.815 7.305 23.181 6.095 44.116-4.672 65.717-1.371.196-2.423.559-3.564-.097-.135-.59 5.372-15.488 6.045-18.201a80.85 80.85 0 0 0-9.138-61.454"/><path fill="#231a1a" d="M501.514 520.53c2.841-.126 4.853-.003 7.66.215 9.185 13.426 8.526 32.56-.4 45.943l-.499.764-7.546-.438c7.697-12.657 9.713-26.567 4.495-40.714-.624-1.692-2.674-3.875-3.71-5.77"/><path fill="#231a1a" d="M647.073 374.264c1.848.33 3.947.66 5.75 1.172l.802.217c6.271 13.012 5.756 25.937-1.541 38.422-2.582-.778-5.546-1.259-8.213-1.852 7.637-13.201 7.526-23.593 3.202-37.959"/><path fill="#231a1a" d="M658.062 376.408c6.327 1.158 8.252 8.114 9.554 13.736 1.931 8.334-1.726 17.716-6.362 24.662-1.069.37-4.889.102-5.1-.688-.134-1.262 1.394-3.916 1.911-5.08 4.026-9.075 4.305-20.233.87-29.532-.556-1.506-.745-1.463-.873-3.098"/><path fill="#1f1107" d="m656.379 583.799 2.372.266c2.12 1.661 2.425 3.321 3.309 5.728 8.536 23.255 8.29 44.402-2.901 66.977-1.094.29-.672.228-1.84.071-.16-1.446 2.172-6.032 2.862-7.945 8.261-22.894 6.103-43.408-3.802-65.097"/><path fill="#1f1107" d="M518.231 347.65c2.744 1.524 2.722 4.476 3.201 7.603 1.957 12.761.239 25.488-6.753 36.534l-.927-.549c.819-4.61 4.475-11.244 5.678-16.995 2.314-11.069-.035-16.056-1.199-26.593"/><path fill="#1f1107" d="M512.096 400.62c3.632 1.265 3.298 4.192 4.438 7.959 3.625 11.973 2.506 27.903-4.485 38.523-.898-.097-.887-.53-.518-1.314 4.577-9.712 6.525-20.151 4.607-30.792-.934-5.186-2.454-9.398-4.042-14.376"/><path fill="#1f1107" d="M552.753 406.263c1.919.753 2.095.723 2.699 2.723 2.668 8.815 3.088 17.472 1.388 26.51-1.148 6.099-2.931 9.904-5.717 15.266-1.837.594-.59-1.245-.146-2.148 5.496-11.166 6.554-24.339 3.371-36.331-.54-2.036-1.147-3.934-1.595-6.02"/><path fill="#1f1107" d="M641.786 373.187c6.314 2.254 5.949 24.381 3.236 29.887-1.565 3.176-2.189 5.409-4.019 8.59-1.318-.151-1.721-.303-.95-1.671 7.176-12.715 5.735-23.711 1.733-36.806"/><path fill="#1f1107" d="M657.592 422.671c3.365 1.32 2.825 2.599 3.707 6.346 2.753 11.709 1.099 24.205-4.793 34.639.197.043-.865-.139-.803-.3 5.498-14.266 8.029-25.136 1.889-40.685"/><path fill="#f8d39d" d="M649.603 211.03c4.357 1.145 4.593 7.721 6.067 11.966 1.098.372 10.025 2.301 9.152 4.191-1.173 2.54-6.435 2.173-8.677 3.985-3.488 2.82-2.434 7.307-4.32 11.02l-.338.69c-4.981-2-1.781-6.372-4.887-10.481-2.178-2.882-10.885-2.456-10.332-6.149 1.233-1.331 5.34-1.608 7.458-2.797 4.245-2.383 3.67-6.775 5.327-11.023z"/><path fill="#231a1a" d="M650.524 220.26c1.343 2.595 2.169 4.828 5.038 5.971.234.094.488.132.545.386-1.457 1.592-1.946.6-4.172 3.883l-1.159 1.718c-.892.183-4.487-4.394-5.506-5.464 3.727-2.349 3.669-2.263 5.254-6.494"/><path fill="#f8d39d" d="M375.987 193.129c4.621 1.232 2.89 5.372 5.247 9.402 2.31 3.951 4.305 2.654 7.462 4.145 6.858 3.238-4.817 5.567-6.822 6.227-2.218 4.721-2.05 7.231-3.804 11.451-2.256-.441-2.693-.912-3.05-3.344-.745-5.161-2.713-8.79-8.024-9.993-9.104-2.063.511-5.098 3.506-6.131 3.704-1.279 3.531-7.837 5.154-11.077z"/><path fill="#231a1a" d="M376.739 202.39c2.581 2.613-.706 2.368 5.763 5.997l.117.267c-.167.15-.328.25-.546.313-2.91.844-3.693 2.977-4.896 5.683-.877.397-.818-1.13-1.094-1.918-.773-2.21-3.17-2.68-4.2-4.214-.151-.225 1.46-.695 1.493-.668 1.972-1.256 2.552-3.438 3.363-5.46"/><path fill="#f8d39d" d="M674.507 300.928c3.411 1.353 2.938 3.582 3.786 7.093 7.529 2.866 10.644 4.943.175 6.806-.887 3.739-.651 5.756-3.264 8.652-3.618-2.383-2.474-3.609-3.405-7.999l-.929-.343c-1.385-.524-2.778-.8-4.075-1.3-4.962-1.915-.796-3.964 1.921-4.501q1.598-.397 3.184-.837l.082-.429c.388-1.965.381-5.181 1.905-6.553z"/><path fill="#f8d39d" d="M458.258 95.954c3.86.98 6.489 1.61 10.374 3.77 8.273 4.599 16.777 13.779 20.114 22.758.157.628.038 1.327-.351 1.85l-.542.766c-3.063-1.224-2.889-2.145-4.626-5.316-4.618-8.53-11.784-14.607-20.528-18.646-4.06-1.875-6.957-.965-4.441-5.182"/><path fill="#f8d39d" d="M561.188 96.598c6.978-.815 6.439 2.234.16 4.138-10.442 3.168-18.539 13.009-23.376 22.519-1.37 2.36-4.251.769-2.946-1.984 5.34-11.259 14.632-20.023 26.162-24.673"/><path fill="#f8d39d" d="M510.248 79.642c.257.05 2.995.397 2.977 1.024-.317 10.8 1.533 27.366-.005 37.711-.236-.04-2.974-.333-2.967-.964.133-11.172-1.489-26.974-.005-37.771"/><path fill="#f8d39d" d="M356.936 269.763a5.313 5.313 0 1 1 1.835 10.463 5.313 5.313 0 0 1-1.835-10.463"/><path fill="#f8d39d" d="M631.594 286.182a4.09 4.09 0 1 1 2.164 7.89 4.09 4.09 0 0 1-2.164-7.89"/><path fill="#f8d39d" d="M616.127 158.729a3.959 3.959 0 1 1 3.697 7.002 3.959 3.959 0 0 1-3.697-7.002"/><path fill="#f8d39d" d="M698.194 373.809a3.891 3.891 0 1 1 1.125 7.7 3.891 3.891 0 0 1-1.125-7.7"/><path fill="#f8d39d" d="M323.579 314.789a3.879 3.879 0 1 1 3.573 6.887 3.879 3.879 0 0 1-3.573-6.887"/><path fill="#f8d39d" d="M409.624 154.78a3.868 3.868 0 0 1 2.249 7.403 3.868 3.868 0 1 1-2.249-7.403"/></svg>