<svg xmlns="http://www.w3.org/2000/svg" width="1024" height="1024" viewBox="0 0 1024 1024"><path fill="#251c19" d="M0 0h1024v1024H0z"/><path fill="#b3916d" d="M513.392 506.431c10.48 10.944 12.045-2.346 18.697-6.831.749-.506 2.636-.196 3.435.311 1.826 1.159 2.014 3.674 2.385 5.666.933 1.748 1.163 1.927 2.555 3.39-.186 11.139-1.092 23.414 1.435 34.229 2.058 8.813 10.581 17.449 3.987 26.34-1.099.968-2.037 1.812-3.487 2.267a5.04 5.04 0 0 1-3.91-.392 6.75 6.75 0 0 1-3.39-4.413 34 34 0 0 1-.718-3.91l-1.459.488c.012 4.744.726 6.348 4.056 9.856q.165 16.317.028 32.636c-.018 6.048-.171 11.863.359 18.294.634 7.68 9.161 18.322 3.941 25.523-1.244 1.716-3.834 1.703-5.655 1.579-.283.566-.363 1.111-.515 1.736 1.07 3.208.088 15.675.528 20.071 1.199 11.99 7.72 26.016 1.947 37.373-4.323 4.438-11.054 3.828-13.749-1.842-3.465-7.294-.627-15.129 1.505-22.232 1.34-4.38 2.042-14.084 2.139-18.702l-1.393.458c-1.472 2.938-1.327 8.46-2.168 12.747-2.095 10.684-9.052 25.889 2.539 33.741l.372.153c4.674 1.161 5.492 1.052 10.098-.42a2735 2735 0 0 0-.122 49.856c-.013 6.465-.528 14.233.116 20.529.182 1.778 2.959 5.59 3.833 8.173-1.575 2.596-3.113 4.881-5.714 6.546-.205 1.347-.224.858.134 2.158 3.2.762 6.852-5.799 7.683-8.468 12.612-7.733 25.531-11.831 40.3-12.443-10.879 8.249-16.927 13.266-26.018 23.955l1.438 1.089c-.66.893-2.049 1.706-3.004 2.403-3.967 3.777-8.599 7.267-12.433 11.039-12.427 12.228-21.263 23.902-30.406 38.601-8.501-12.834-16.348-23.616-27.24-34.674-4.249-4.315-9.259-8.249-13.608-12.475-.574-6.075-19.818-22.697-24.82-27.896 16.187 3.323 21.865 5.749 37.054 11.207 3.515 2.869 4.815 6.449 9.355 9.432-3.28-7.802-10.735-11.131-5.404-18.968l.347-116.974c2.559-1.991 3.69-3.739 4.392-6.94 2.096-9.561.237-19.354-.978-28.9-.463-3.638-.586-7.284-1.249-10.905-6.149 3.183-9.208 3.717-13.367-2.97l-.295-.484c-3.828-9.298 4.058-19.108 5.44-29.422 1.259-9.408 1.239-13.878.075-23.384l-.011-1.233c-2.895-.692-3.784-1.158-5.913-3.216-5.223-9.163-.263-15.269 1.368-24.558 1.543-8.785 1.636-17.731 1.298-26.612 12.021.359 11.135-6.77 15.405-7.83 6.26 2.551 3.751 13.764 9.451 17.711 6.419.634 7.787-7.722 9.331-12.463"/><path fill="#f8d19b" d="M537.909 505.577c.933 1.748 1.163 1.927 2.555 3.39-.186 11.139-1.092 23.414 1.435 34.229 2.058 8.813 10.581 17.449 3.987 26.34-1.099.968-2.037 1.812-3.487 2.267a5.04 5.04 0 0 1-3.91-.392 6.75 6.75 0 0 1-3.39-4.413 34 34 0 0 1-.718-3.91l-1.459.488c.012 4.744.726 6.348 4.056 9.856q.165 16.317.028 32.636c-.018 6.048-.171 11.863.359 18.294.634 7.68 9.161 18.322 3.941 25.523-1.244 1.716-3.834 1.703-5.655 1.579-.283.566-.363 1.111-.515 1.736 1.07 3.208.088 15.675.528 20.071 1.199 11.99 7.72 26.016 1.947 37.373-4.323 4.438-11.054 3.828-13.749-1.842-3.465-7.294-.627-15.129 1.505-22.232 1.34-4.38 2.042-14.084 2.139-18.702.408-27.034-.265-54.173.091-81.221.109-8.254.231-16.748-.058-24.987 1.964-4.907 1.326-6.567.964-11.429a12 12 0 0 0 1.599-1.392c6.684-6.835 4.427-28.783 4.309-38.911.55-1.311 2.475-3.219 3.498-4.351"/><path fill="#b3916d" d="M537.611 710.644c-4.323 4.438-11.054 3.828-13.749-1.842-3.465-7.294-.627-15.129 1.505-22.232 1.197 5.596-.985 17.477 4.447 22.304 1.646 1.462 5.691 1.629 7.797 1.77"/><path fill="#b3916d" d="M534.953 560.294c2.566 7.702 2.822 9.806 10.933 9.242-1.099.968-2.037 1.812-3.487 2.267a5.04 5.04 0 0 1-3.91-.392 6.75 6.75 0 0 1-3.39-4.413 34 34 0 0 1-.718-3.91q.267-1.401.572-2.794"/><path fill="#331d09" d="M535.136 653.2c-6.182-4.766-3.244-16.296-2.273-10.478.874 5.233.158 3.483 2.788 8.742-.283.566-.363 1.111-.515 1.736"/><path fill="#331d09" d="M532.922 563.576c-.065-1.561-.642-5.351.747-6.462l.117-.021.243-.2c.902 1.016.821 1.974.924 3.401q-.305 1.393-.572 2.794z"/><path fill="#f8d19b" d="M513.392 506.431c10.48 10.944 12.045-2.346 18.697-6.831.749-.506 2.636-.196 3.435.311 1.826 1.159 2.014 3.674 2.385 5.666-1.023 1.132-2.948 3.04-3.498 4.351-7.476 6.695-19.158 13.959-29.643 13.385-6.567-.359-11.92-3.983-17.119-7.573.838 8.112 1.098 14.824-.051 22.903-1.63 6.436-4.487 18.605-11.059 21.54-5.223-9.163-.263-15.269 1.368-24.558 1.543-8.785 1.636-17.731 1.298-26.612 12.021.359 11.135-6.77 15.405-7.83 6.26 2.551 3.751 13.764 9.451 17.711 6.419.634 7.787-7.722 9.331-12.463"/><path fill="#f8d19b" d="M526.856 714.967c4.674 1.161 5.492 1.052 10.098-.42a2735 2735 0 0 0-.122 49.856c-.013 6.465-.528 14.233.116 20.529.182 1.778 2.959 5.59 3.833 8.173-1.575 2.596-3.113 4.881-5.714 6.546-3.57-1.055-6.03-.051-8.915-1.082 1.351-2.298 2.655-4.003 4.182-6.151.99-1.392-1.188-1.339-1.818-1.427-1.735-2.804-1.485-67.724-1.66-76.024"/><path fill="#f8d19b" d="M482.463 564.632c1.949-.637 3.124-1.048 5.124-1.415.205.805.226.473.133.99.512 8.149.498 10.314 1.427 18.722-1.478.716-.748-3.267-1.272-3.68l-.097.006c.122-.16.172 5.826-.266 7.485 2.104 11.788 3.738 18.943-2.959 30.007-2.681.342-4.885.675-7.605.691-3.828-9.298 4.058-19.108 5.44-29.422 1.259-9.408 1.239-13.878.075-23.384"/><path fill="#d5a976" d="M487.512 586.74c-.666-2.47-1.294-10.003-.669-12.382 1.013-3.854-.035-5.953.877-10.151.512 8.149.498 10.314 1.427 18.722-1.478.716-.748-3.267-1.272-3.68l-.097.006c.122-.16.172 5.826-.266 7.485"/><path fill="#251c19" d="M482.452 563.399c11.292-4.334 5.028-18.935 7.79-24.502 3.194 7.852-.433 17.314-.497 25.277-.046 5.732.878 12.731 1.831 18.379.883 5.232 2.273 9.336 2.262 14.694l-.453.784c-1.413-2.271-2.912-11.486-4.238-15.102-.929-8.408-.915-10.573-1.427-18.722.093-.517.072-.185-.133-.99-2 .367-3.175.778-5.124 1.415z"/><path fill="#251c19" d="M527.539 561.66c-4.134 4.55-7.06 5.684-12.517 1.579-2.52-1.896-3.273-6.024-3.325-8.989-.025-1.386-.36-8.791 1.797-9.234.071-.007.33.173.339.263.476 4.519-.785 9.646.98 14.025 1.834 3.305 4.722 5.171 8.354 3.698 5.535-2.244 2.033-14.579 4.09-15.67.987.408 1.041 1.953 1.246 2.899.362 4.862 1 6.522-.964 11.429"/><path fill="#251c19" d="M528.516 790.991c.63.088 2.808.035 1.818 1.427-1.527 2.148-2.831 3.853-4.182 6.151-.778 1.127-1.174 2.69-2.167 3.463-.394.307-1.277-.329-1.287-.834-.07-3.757 3.819-6.738 5.346-9.375z"/><path fill="#d5a976" d="M555.6 808.345c.231-1.692.495-2.072 1.566-3.492l1.438 1.089c-.66.893-2.049 1.706-3.004 2.403"/><path fill="#251c19" d="M500.683 795.738c5.297.395 6.764 8.774 6.892 13.092.004.002-.963-.431-.959-.415-.823-3.252-4.687-10.247-5.933-12.677"/><path fill="#331d09" d="M512.923 767.515c.037.012 1.584.421 1.578.607-.153 4.432.782 9.123.961 13.46-3.405-3.559-2.922-9.403-2.539-14.067"/><path fill="#f8d19b" d="M294.344 695.8c18.64 3.333 36.204 7.892 54.417 12.275 59.752 14.381 96.83 28.317 137.044 75.407-2.517 4.467-2.837 5.759-1.658 10.665-15.189-5.458-20.867-7.884-37.054-11.207 5.002 5.199 24.246 21.821 24.82 27.896-60.643-50.288-130.206-58.062-205.303-68.721-14.371-2.04-29.86-4.455-44.34-5.299 7.159-4.656 17.309-10.099 24.875-14.45a2591 2591 0 0 1 47.199-26.566"/><path fill="#f8d19b" d="M539.129 785.169c26.573-40.803 72.095-59.529 117.017-72.223a972 972 0 0 1 53.213-13.092c6.775-1.431 13.48-2.688 20.237-4.254 24.474 13.27 48.329 27.558 72.686 40.789-67.095 9.839-142.588 14.591-204.333 44.726-13.979 6.823-26.807 15.679-39.345 24.827l-1.438-1.089c9.091-10.689 15.139-15.706 26.018-23.955-14.769.612-27.688 4.71-40.3 12.443-.687-4.212-.805-5.033-3.755-8.172"/><path fill="#f8d19b" d="M562.79 382.755c1.893-.188 1.818-.088 3.713 1.47 11.32 9.3 23.012 19.069 35.932 26.09 18.145 9.86 36.827 14.269 52.102 29.087 6.039 5.858 9.898 10.259 13.34 18.102 9.032 20.902 13.102 44.277 17.422 66.555 5.586 28.811 11.081 57.597 16.836 86.372 3.395 16.978 15.603 30.99 10.261 48.487l-1.343-2.225c-.34-2.334-.785-4.761-1.615-6.972a29.1 29.1 0 0 0-15.254-16.182c-9.019-4.111-17.532-3.167-26.525.161l-.444-1.01c7.728-3.729 15.886-5.734 24.449-3.525 3.119.804 5.697 2.457 8.856 2.686 5.345-4.4-2.781-22.389-8.112-22.715-9.292-.568-24.841 9.373-32.669 13.991l-.468-1.084c8.267-7.092 24.563-13.848 28.246-22.404 4.154-9.651-15.48-105.266-19.124-106.359-1.288 1.167-2.193 4.65-2.749 6.452-2.649 8.574-6.315 16.365-10.121 24.48l-2.418.133a155 155 0 0 0 11.46-32.049c.857-3.477 3.89-20.236-1.176-20.92-3.296 1.725-5.216 7.339-6.382 10.75-3.531 10.327-8.64 19.695-13.253 29.569l-1.497.563a160.4 160.4 0 0 0 9.228-22.479c2.568-8.13 5.85-21.082.786-28.561-12.279-18.136-34.857-30.174-55.014-36.409-1.084-2.845-5.678-12.869-8.935-12.544-.858 1.903-1.101 7.957-1.553 10.405-1.235 6.697-4.192 11.83-7.65 17.521l-.919-.686c7.813-15.972 6.465-27.073-4.526-41.266-.896 23.122-8.042 38.576-24.498 54.396l-1.178-.792c17.754-17.741 27.934-44.517 14.576-67.822z"/><path fill="#f8d19b" d="M312.184 658.582c-.971-3.166-2.31-9.427-1.471-12.425 3.947-14.108 9.088-27.216 12.223-41.659 7.924-36.506 14.333-73.298 22.717-109.695 2.871-10.459 5.053-22.396 9.103-32.429 10.226-25.336 32.548-37.355 56.521-46.751 8.655-3.393 17.749-10.404 25.818-14.472 7.239-3.651 18.126-16.682 24.11-18.669l.523.37c-.212 1.958-2.121 4.647-2.877 6.651-8.242 21.842 1.238 42.264 14.201 59.822l-.812.704c-14.508-16.825-20.655-31.986-20.625-53.907-12.908 12.091-11.937 27.06-5.757 42.128l-1.088.531c-7.03-11.933-6.472-14.128-9.45-26.981-5.741 3.775-5.764 6.057-7.762 12.708-5.334 1.518-12.699 3.572-17.517 6.035-12.738 6.512-31.007 19.321-38.331 31.532-7.563 12.608 2.247 40.655 7.544 53.538l-.909.409c-3.633-8.011-7.242-15.776-10.459-23.997-1.488-3.803-4.885-19.11-6.566-20.552-7.58 3.661 1.202 35.132 4.041 41.226 5.27 11.309 9.318 21.001 13.324 32.883l-1.002.77c-5.131-15.332-14.164-28.936-18.948-44.435-.834-2.703-1.212-4.726-2.621-7.22l-.604-.275c-3.089 3.395-8.132 30.628-9.401 36.911-3.358 16.629-6.419 34.434-9.286 51.145-4.229 24.649 3.942 21.342 19 32.283l-.954.848c-6.249-3.447-13.689-7.575-21.194-6.009-6.324 1.319-16.009 16.054-12.483 21.74 3.547.048 9.865-1.338 13.559-2.092 7.19-1.468 17.197-.166 23.363 3.974l.317 1.32c-5.59-2.409-10.502-3.864-16.662-3.44-13.982.961-27.437 11.185-28.299 25.814q-.636.838-1.286 1.666"/><path fill="#f8d19b" d="m521.039 325.832.443.168c.16.671-4.899 9.001-5.625 10.723-15.199 36.033 30.227 65.938 19.246 103.902-3.785 13.087-10.235 24.052-23.141 28.528.28-3.578.921-8.784 2.024-12.165 3.137-9.615 5.869-12.688 5.711-23.242l-.783-1.264-.643-.019c-3.374 8.875-9.499 14.057-12.404 22.887-1.217 3.702.758 12.224-4.007 12.307-2.764-1.315-5.449-3.321-7.115-5.939-13.131-20.633 5.196-42.021 6.826-64.335 1.591-13.713-3.745-26.915-1.119-40.548 2.615-13.581 9.267-23.286 20.587-31.003"/><path fill="#b3916d" d="M478.791 876.962c7.312.095 64.905 1.146 67.189-.803 1.563-1.335 2.676-3.255 4.284-4.565 3.236-2.634 8.576-4.64 12.32-6.611 30.425-16.013 64.794-23.776 99.114-24.482 24.28-.499 47.646 2.054 71.707 4.905 9.08 1.076 18.732 1.625 27.667 3.535-2.401.308-2.981.45-5.225 1.09-4.237-.005-13.388-1.251-17.958-1.765l-1.512 1.437c-5.13-.562-10.204-1.243-15.31-1.845-2.526.074-11.674-1.052-14.633-1.33a398 398 0 0 0-26.589-1.73c-35.881-1.06-69.411 4.013-102.649 18.067-8.016 3.389-15.381 8.344-23.331 11.868-2.449 5.074-3.786 7.177-9.663 7.208-15.865.086-31.745.079-47.611.069-6.667-.004-13.824.373-20.355-.666-1.971-.314-3.792-4.154-4.647-5.818-10.836-5.581-21.325-11.054-32.641-15.612-37.24-14.999-77.883-17.206-117.483-13.646-5.656.508-11.309 1.272-16.972 1.685-2.501.215-6.433.998-8.776.884-1.451-.435-2.222-.632-3.732-.901-2.327.269-9.266 1.194-11.322 1.018-2.437.699-4.784.886-7.289 1.168-10.915 1.228-19.965 2.713-30.928 1.332 8.178-1.719 22.144-2.915 30.687-3.652 7.335-1.811 25.134-3.015 33.156-4.078 51.136-6.779 104.787-4.422 151.43 19.565 5.099 2.622 10.763 5.148 15.76 8.042 3.301 1.912 3.715 2.201 5.312 5.631"/><path fill="#d5a976" d="M242.446 851.454c8.178-1.719 22.144-2.915 30.687-3.652l1.084.494c-.303.477-19.388 1.997-20.068 2.411l-.007.018c2.397.403 9.39-.727 12.127-.765 4.139-.058 10.659-2.191 14.394-1.006-2.437.699-4.784.886-7.289 1.168-10.915 1.228-19.965 2.713-30.928 1.332"/><path fill="#d5a976" d="M721.067 847.858c1.95-1.299 14.93-.262 16.822.408l-1.512 1.437c-5.13-.562-10.204-1.243-15.31-1.845"/><path fill="#d5a976" d="M291.985 847.936c4.133-.61 7.747-1.336 11.761-.19l.747.207c-2.501.215-6.433.998-8.776.884-1.451-.435-2.222-.632-3.732-.901"/><path fill="#f8d19b" d="M484.057 481.521c10.986-.643 15.268 12.368 27.739 13.199 11.532.769 16.238-7.956 27.628-5.049 6.604 1.686 8.367 13.719 2.875 16.218-3.867-1.094-2.591-9.44-9.111-10.08-2.44.549-4.928 2.91-6.17 5.011-4.943 9.686-6.17 7.328-14.526 4.454-4.109.785-1.4 5.781-5.455 10.782-8.22 3.65-1.219-14.393-12.401-17.022-5.565 2.028-14.912 16.538-19.151.822-2.135-7.916 1.35-14.685 8.572-18.335"/><defs><linearGradient id="a" x1="362.573" x2="364.438" y1="846.043" y2="786.692" gradientUnits="userSpaceOnUse"><stop offset="0" stop-color="#98724d"/><stop offset="1" stop-color="#b4916c"/></linearGradient></defs><path fill="url(#a)" d="M256.33 789.785c5.255-.035 12.491-1.917 17.885-2.549 64.991-7.612 133.906 1.483 188.177 40.353 9.82 7.033 18.032 14.732 27.316 22.426l-.848.578c-2.32-2.448-9.251-8.218-12.124-10.582-50.169-40.797-120.061-55.309-183.45-48.887-20.53 2.08-40.178 7.172-60.451 10.476l-.459.039c1.324-1.093 22.282-11.344 23.954-11.854"/><path fill="#b3916d" d="M595.545 808.33c52.511-24.986 111.985-28.012 168.679-19.069l2.249-1.015c1.105.433 1.953 1.009 3 1.591 3.257 1.545 22.878 11.117 23.959 12.534-18.88-3.454-39.058-8.249-58.018-10.818-31.57-4.278-67.442-1.786-98.417 5.704-8.598 2.079-16.49 4.469-24.79 7.419-3.32 1.179-12.766 5.196-15.353 5.801l-.015-.068c.756-1.493 5.826-2.595 8.494-4.786-3.729.395-6.951 2.872-9.788 2.707"/><path fill="#331d09" d="M766.473 788.246c1.105.433 1.953 1.009 3 1.591-1.678-.015-3.599-.265-5.249-.576z"/><path fill="#f8d19b" d="M428.755 283.581c.282-2.21-1.082-14.275-1.316-17.558-1.28-17.951 3.187-37.036 13.286-52.092a77.7 77.7 0 0 1 49.814-33.21l.438 1.17c-46.826 16.278-57.956 61.174-55.575 106.026-3.064-3.391-2.427-2.708-6.647-4.336"/><path fill="#b3916d" d="M235.556 818.359c2.804-.773 10.852-1.508 14.21-1.914a1538 1538 0 0 0 27.482-3.515c21.6-3.014 44.86-6.519 66.732-6.784 39.451-.479 82.395 9.221 116.946 28.717 10.647 6.007 16.207 10.719 25.527 17.692l-1.06.563a773 773 0 0 0-7.72-5.464c-35.096-24.395-85.382-37.637-127.809-38.009-21.952-.193-47.818 3.359-69.608 6.477a1385 1385 0 0 0-48.13 7.351c1.141-1.663 2.986-3.527 3.43-5.114"/><path fill="#b3916d" d="M534.424 856.263a254 254 0 0 1 13.667-10.971c19.12-14.456 36.877-21.826 59.17-28.72 45.497-14.071 84.449-12.005 130.927-4.941 14.301 2.174 29.65 3.643 44.2 5.67l.582.621c1.533 1.71 3.755 3.034 5.538 4.847a3147 3147 0 0 0-52.511-7.567c-17.331-2.417-40.255-5.764-57.695-5.692-48.15.199-97.013 13.138-135.918 41.861a150 150 0 0 0-6.17 4.84z"/><path fill="#b3916d" d="M224.468 828.865c.662-.18 10.08-1.118 11.969-1.367a3419 3419 0 0 1 36.909-4.818c18.78-2.32 40.054-5.31 58.688-6.416 43.965-2.607 91.855 2.681 130.581 25.089 7.229 4.182 23.529 14.347 29.304 20.138-11.437-6.327-20.911-13.906-33.029-19.85-36.902-18.098-81.454-25.237-122.274-23.006-19.471 1.064-41.863 4.387-61.395 6.961a1290 1290 0 0 0-32.868 4.755c-6.354.971-15.288 2.545-21.505 2.907.985-1.04 4.223-3.326 3.62-4.393"/><path fill="#f8d19b" d="M533.503 182.127a72 72 0 0 1 2.732-.482c12.604 3.885 23.567 8.137 33.637 16.932 24.512 21.41 31.014 53.282 25.422 84.24-2.936 1.435-3.231 1.774-5.664 3.973 1.974-19.301-.804-46.762-9.493-63.89-10.681-21.055-24.739-33.15-46.634-40.773"/><path fill="#b3916d" d="M529.85 844.334c44.564-53.896 115.135-76 182.961-77.715l-.478.131c-2.777.742-5.497 1.187-8.324 1.69-.423.978-.399.909-.665 1.89l-2.297 1.13c2.804-.868 4.318-.82 7.112.093-5.98.691-12.207.915-18.207 1.4-53.841 4.344-109.396 24.941-149.348 61.943a1126 1126 0 0 0-7.146 6.688l-.511.71c-.611.879-3.816 4.399-4.644 4.707l-.297-.084c-.199-.805 1.204-2.142 1.844-2.583"/><path fill="#5d483b" d="M529.85 844.334c1.277-.531 2.457-1.838 3.608-2.75l-.511.71c-.611.879-3.816 4.399-4.644 4.707l-.297-.084c-.199-.805 1.204-2.142 1.844-2.583"/><path fill="#b3916d" d="M537.561 858.383c3.463-2.182 7.323-5.408 10.707-7.859 60.252-43.646 132.162-36.874 201.259-28.051l44.617 5.539c2.298.292 3.096-.041 5.239.255-.552.129-1.138.235-1.671.419-.041.277 5.066 3.817 5.843 4.469-18.347-2.929-37.248-5.413-55.722-7.862-24.359-3.23-50.935-7.138-75.417-7.174-44.681-.065-93.232 11.216-129.831 37.785-1.465 1.063-2.71 1.923-4.025 3.172z"/><path fill="#b3916d" d="M206.156 844.403c8.16-1.217 17.473-2.053 25.793-3.061l36.572-4.783c50.472-6.573 100.62-13.496 150.527.5 12.512 3.509 25.643 7.578 37.244 13.506 3.98 2.034 23.364 12.214 25.091 14.73-2.113-.548-20.113-10.733-24.132-12.624-13.8-6.496-24.402-9.84-38.892-13.685-44.346-11.766-78.946-8.678-123.378-2.704a4862 4862 0 0 0-59.962 8.493c-10.856 1.549-23.254 3.576-34.068 4.528 1.887-1.895 3.59-2.991 5.205-4.9"/><path fill="#b3916d" d="M547.497 862.481c31.899-20.221 64.356-29.529 101.907-32.776 31.121-2.691 62.211 1.25 93.042 5.037a4461 4461 0 0 1 76.921 10.096c1.708 1.585 2.71 2.733 4.223 4.477-44.969-4.542-89.761-14.426-134.932-17.756-4.319-.319-8.647-.554-12.977-.63a273.8 273.8 0 0 0-65.307 6.973 199.3 199.3 0 0 0-61.765 25.215z"/><defs><linearGradient id="b" x1="665.018" x2="687.072" y1="890.007" y2="805.648" gradientUnits="userSpaceOnUse"><stop offset="0" stop-color="#93735d"/><stop offset="1" stop-color="#af8963"/></linearGradient></defs><path fill="url(#b)" d="M544.287 858.746c7.052-4.697 15.782-10.527 23.481-14.215 31.617-15.142 69.506-21.476 104.345-21.437 17.555.02 36.159 2.005 53.429 3.748a3543 3543 0 0 1 81.671 9.603l.632.941c-1.423.927-2.745 1.696-4.116 2.702-14.381-2.306-28.902-3.996-43.333-6.067-25.942-3.723-55.089-8.236-81.155-9.083-45.103-1.464-96.135 7.985-133.686 34.131z"/><defs><linearGradient id="c" x1="777.288" x2="791.38" y1="783.651" y2="756.019" gradientUnits="userSpaceOnUse"><stop offset="0" stop-color="#d0a172"/><stop offset="1" stop-color="#ffd399"/></linearGradient></defs><path fill="url(#c)" d="M766.718 752.523c5.669-.737 10.826-1.331 16.565-1.604a1620 1620 0 0 1 37.119 22.868c-23.04-.57-46.47-2.101-69.356-2.303.51-2.843.918-2.267-.716-4.504 12.605.414 31.329 2.334 43.049 1.949.014-.082.028-.453.144-.53.222-.146.819-.098.935-.097.373.004.676.049 1.043.01.677-.071 1.354-.14 2.033-.192-10.109-5.178-20.591-10.737-30.816-15.597"/><path fill="#331d09" d="M793.379 768.929c.014-.082.028-.453.144-.53.222-.146.819-.098.935-.097.373.004.676.049 1.043.01.677-.071 1.354-.14 2.033-.192.456.149.873.243 1.338.359l-1.913.779c-1.334-.233-2.24-.246-3.58-.329"/><path fill="#82664c" d="M798.872 768.479c.551.173 1.52.332 1.913.78-.36.51-3.292.07-3.826-.001z"/><path fill="#a37f5f" d="M214.043 836.835c.962-.284 11.657-1.334 13.475-1.544l35.324-4.119c29.004-3.403 59.391-8.025 88.543-8.085 33.576-.07 72.909 5.646 103.321 20.523.257.411.164.585.147 1.183-61.634-26.471-114.941-21.628-179.02-12.472l-66.074 9.684c1.596-3.191 4.746-3.276 4.284-5.17"/><defs><linearGradient id="d" x1="429.544" x2="438.302" y1="818.826" y2="797.091" gradientUnits="userSpaceOnUse"><stop offset="0" stop-color="#986f4f"/><stop offset="1" stop-color="#b2936d"/></linearGradient></defs><path fill="url(#d)" d="M369.889 773.347c36.453 6.439 77.982 26.183 105.59 50.719 7.242 6.435 13.45 13.532 19.964 20.61l-.57.819c-20.984-24.892-61.244-47.381-91.613-58.002-10.412-3.641-21.699-6.263-32.337-9.224.393-1.612.957-1.867 1.417-3.326-.898-.734-1.442-1.011-2.451-1.596"/><path fill="#b3916d" d="M257.957 767.979c4.148-.71 14.479-.98 19.144-1.108 28.247-.775 58.199-.627 86.039 4.778 1.336.26 5.86 1.251 6.749 1.698 1.009.585 1.553.862 2.451 1.596-.46 1.459-1.024 1.714-1.417 3.326-10.681-1.657-18.724-3.927-30.331-5.065-22.98-2.253-45.389-1.916-68.451-1.862.778-.679 1.815-.516 3.205-.734-4.055-.369-10.459.477-13.127.104-.315-1.201-.335-.98-.355-2.19l.601-.237z"/><defs><linearGradient id="e" x1="239.772" x2="228.387" y1="781.153" y2="757.929" gradientUnits="userSpaceOnUse"><stop offset="0" stop-color="#daa97c"/><stop offset="1" stop-color="#ffdaa0"/></linearGradient></defs><path fill="url(#e)" d="M241.028 750.782q8.032.52 16.032 1.389c-8.886 5.113-25.392 12.461-32.484 17.423l33.381-1.615 4.508.306-.601.237c.02 1.21.04.989.355 2.19 2.668.373 9.072-.473 13.127-.104-1.39.218-2.427.055-3.205.734a2070 2070 0 0 0-43.296 1.339c-7.782.347-16.885.565-24.554 1.402 10.084-8.001 26.238-15.347 36.737-23.301"/><path fill="#f8d19b" d="M650.235 652.297c8.869-5.229 15.779-7.093 26.094-4.666 13.876 3.265 22.594 13.594 33.809 20.394-.621 8.714-1.323 17.535-1.697 26.268-.145 3.386-1.445 4.803-4.969 4.529-.722-1.329-.357-10.576-.296-12.823.416-15.375-12.941-30.377-27.551-34.814a33.52 33.52 0 0 0-24.994 2.293l-.382.211z"/><path fill="#f8d19b" d="M314.458 668.623c20.412-11.944 33.048-31.259 59.338-16.523l-.459.993c-21.667-9.57-44.453 3.262-49.991 25.862-1.828 7.462-1.672 12.974-1.298 20.616l-5.493-1.163z"/><path fill="#f8d19b" d="M737.889 848.266c4.57.514 13.721 1.76 17.958 1.765 2.244-.64 2.824-.782 5.225-1.09 2.96.191 8.557.929 11.447 1.623 20.691 1.206 42.094 5.763 62.901 7.092 2.722.174 5.762.506 8.464.877-2.271-2.042-4.969-4.344-7.007-6.544l.291-.671c4.406 1.836 14.951 4.733 10.496 11.043-3.046 1.591-11.216-.12-14.982-.595l-22.615-2.858-73.69-9.205z"/><path fill="#d5a976" d="M761.072 848.941c2.96.191 8.557.929 11.447 1.623-.193.025-4.719.348-4.74.358-2.556 1.118-5.601-.2-8.282-.301-1.426-.054-2.352-.278-3.65-.59 2.244-.64 2.824-.782 5.225-1.09"/><path fill="#f8d19b" d="M291.985 847.936c1.51.269 2.281.466 3.732.901a6038 6038 0 0 1-82.432 10.311c-10.676 1.276-21.337 2.689-31.998 4.084-5.699.745-7.055-4.928-3.006-7.834 3.205-2.3 7.803-3.793 11.518-5.146l.799.932c-4.388 1.312-6.634 4.296-9.766 7.574 20.559-2.22 41.144-5.161 61.614-7.304 10.963 1.381 20.013-.104 30.928-1.332 2.505-.282 4.852-.469 7.289-1.168 2.056.176 8.995-.749 11.322-1.018"/><path fill="#f8d19b" d="M760.91 784.996c4.048.128 19.361.034 21.875 1.078 7.956 3.303 17.974 9.601 25.637 13.925a532 532 0 0 0 15.479 8.245l-2.368.956c-6.492-2.081-21.083-5.12-28.101-6.829-1.081-1.417-20.702-10.989-23.959-12.534-1.047-.582-1.895-1.158-3-1.591-1.883-1.163-3.58-2.248-5.563-3.25"/><path fill="#f8d19b" d="M242.618 785.221c6.451.285 15.562-.093 22.258-.162l-8.546 4.726c-1.672.51-22.63 10.761-23.954 11.854-7.765 1.879-21.623 4.653-28.634 7.069l-2.104-.96a1849 1849 0 0 0 40.98-22.527"/><path fill="#b3916d" d="M642.601 674.665c14.869-.161 30.713 6.556 37.606 20.69 1.141 2.341 2.207 5.991 1.2 8.52l-.912.247c-2.211-1.607-2.743-4.15-4.092-6.57-4.887-8.773-12.58-13.54-21.74-16.536-20.952-5.443-31.748 5.558-45.052 19.452 6.973-13.824 17.229-23.737 32.99-25.803"/><path fill="#f8d19b" d="M595.294 282.817c.411.7.44.718 1.022 1.31 17.22-.387 10.464 23.727 7.791 33.298-2.03 7.268-12.593 25.716-21.518 23.969-.792-5.518 6.615-7.214 9.624-11.01 6.697-8.446 15.733-32.108 6.84-40.952-4.044-4.022-10.395 5.958-12.208 8.918.901-3.637 1.437-6.54 3.444-9.766a38 38 0 0 0-.659-1.794c2.433-2.199 2.728-2.538 5.664-3.973"/><path fill="#331d09" d="M595.294 282.817c.411.7.44.718 1.022 1.31-1.975 1.435-4.13 3.109-6.027 4.457a38 38 0 0 0-.659-1.794c2.433-2.199 2.728-2.538 5.664-3.973"/><path fill="#f8d19b" d="M428.755 283.581c4.22 1.628 3.583.945 6.647 4.336l-.739 1.762c.74 1.283 1.622 2.708 2.226 4.043l-1.571 1.25c-2.886-4.411-7.544-9.706-11.736-2.123-3.245 5.87-.997 15.4.821 21.618 3.207 10.968 6.522 17.145 16.908 22.74.428 1.785.774 3.684 1.137 5.492-14.324-6.657-18.769-14.061-23.262-29.207-2.541-8.567-6.223-30.091 8.38-28.91q.586-.51 1.189-1.001"/><path fill="#331d09" d="M428.755 283.581c4.22 1.628 3.583.945 6.647 4.336l-.739 1.762c-2.984-2.978-3.516-3.308-7.097-5.097q.586-.51 1.189-1.001"/><path fill="#b3916d" d="M374.667 675.183c18.689-2.201 30.924 9.478 39.505 24.616-12.713-13.046-19.743-20.572-38.999-19.885-9.865 1.452-19.347 5.879-25.643 13.909-2.039 2.602-4.709 7.954-6.58 11.062l-.498-.083c-1.894-3.744 2.709-12.328 5.365-15.486 6.847-8.138 16.347-12.936 26.85-14.133"/><path fill="#f8d19b" d="M483.768 664.669c-3.547-2.751-3.923-5.121-2.951-9.764 1.103-5.268 2.945-9.956 3.898-15.323.877-4.934.759-9.198 1.384-14.034.104-.728 3.195-1.654 2.799.682-.057 6.594 1.944 13.412 2.038 20.005.411 5.381 1.559 12.359-1.915 17.034-1.355 1.824-3.307 1.133-5.253 1.4"/><path fill="#b3916d" d="M483.768 664.669c6.314-4.038 6.15-11.819 7.168-18.434.411 5.381 1.559 12.359-1.915 17.034-1.355 1.824-3.307 1.133-5.253 1.4"/><path fill="#b3916d" d="M712.811 766.619c11.799-.177 25.84-.5 37.519.361 1.634 2.237 1.226 1.661.716 4.504l-42.887.069c-2.794-.913-4.308-.961-7.112-.093l2.297-1.13c.266-.981.242-.912.665-1.89 2.827-.503 5.547-.948 8.324-1.69z"/><path fill="#f8d19b" d="m581.814 326.625.91 1.88c-4.145 25.872-10.427 46.036-32.588 62.096l-1.183-.535c18.634-14.319 26.862-41.826 32.861-63.441"/><path fill="#f8d19b" d="M442.84 323.551c5.01 22.515 11.839 46.129 28.62 62.979l-1.557.467c-21.264-18.411-24.083-35.739-28.124-61.676z"/><path fill="#f8d19b" d="M516.43 442.399c.19 2.588-1.602 5.269-2.676 7.629-5.404 11.876-3.802 25.981-3.841 38.67-.002.433-1.013.848-1.213.951-.69-.499-1.661-.942-1.673-1.891-.07-5.58-.09-11.175-.06-16.758.029-5.501-.253-11.13 1.728-16.369 1.548-4.06 5.075-8.796 7.735-12.232"/><path fill="#a37f5f" d="M595.545 808.33c2.837.165 6.059-2.312 9.788-2.707-2.668 2.191-7.738 3.293-8.494 4.786l.015.068c-8.201 4.236-16.77 7.775-24.749 12.497-10.106 5.98-19.394 13.601-28.559 20.924-.557 1.002-1.518 1.517-2.474 2.189l-.43.47-.476-.967c16.061-13.962 35.536-29.077 55.379-37.26"/><path fill="#5d483b" d="M541.072 846.087c.86-1.14 1.19-1.983 2.474-2.189-.557 1.002-1.518 1.517-2.474 2.189"/><path fill="#f8d19b" d="m782.388 817.301 6.361.756 7.254.803c6.416.726 9.447 4.832 14.119 9.195l-9.378-1.95c-5.426-.879-7.195-1.402-12.236-3.336-1.783-1.813-4.005-3.137-5.538-4.847z"/><path fill="#f8d19b" d="M214.548 828.199c8.622-8.493 9.291-8.948 21.008-9.84-.444 1.587-2.289 3.451-3.43 5.114-5.841 3.376-11.042 3.297-17.578 4.726"/><path fill="#f8d19b" d="M807.213 836.445c4.678.387 8.923 1.198 13.923 1.534a65 65 0 0 1 5.774 6.374c-4.747-1.004-9.124-1.735-13.783-3.14-2.642.136-6.786-.613-9.398-1.125 1.371-1.006 2.693-1.775 4.116-2.702z"/><path fill="#a37f5f" d="M803.729 840.088c1.371-1.006 2.693-1.775 4.116-2.702 1.977 1.6 3.426 2.395 5.282 3.827-2.642.136-6.786-.613-9.398-1.125"/><path fill="#f8d19b" d="m471.622 413.534-.172-.437c-2.535-6.343-5.214-12.724-6.039-19.592-1.023-8.514-.991-7.295 5.143-3.384-1.097 7.041-.471 16.32 2.198 22.972z"/><path fill="#f8d19b" d="m799.383 828.267 7.866.78c1.094.103 2.976.474 4.166.642l7.556 6.323c-4.991-.833-10.671-1.301-15.416-2.857-.777-.652-5.884-4.192-5.843-4.469.533-.184 1.119-.29 1.671-.419"/><path fill="#f8d19b" d="M224.468 828.865c.603 1.067-2.635 3.353-3.62 4.393a30.4 30.4 0 0 1-4.601 1.178c-3.555.619-7.102 1.121-10.654 1.743a232 232 0 0 1 7.523-6.316c3.657-.46 7.659-.744 11.352-.998"/><path fill="#b3916d" d="M643.354 557.661c-1.134-9.585 3.066-19.733 7.149-28.193.634-1.314 1.768-4.055 2.602-5.123l2.418-.133c-5.854 13.202-9.733 18.63-12.169 33.449"/><path fill="#f8d19b" d="M554.776 389.865c2.099-1.955 2.699-2.147 5.15-3.608-.986 7.516-2.568 14.841-5.058 22.027l-1.106-.28c1.021-7.362 1.506-10.415 1.014-18.139"/><path fill="#f8d19b" d="M203.654 838.236c3.989-.817 6.278-1.09 10.389-1.401.462 1.894-2.688 1.979-4.284 5.17-3.994.473-8.687 1.408-12.663 2.181 2.16-2.185 4.234-3.972 6.558-5.95"/><path fill="#f8d19b" d="M195.548 845.549c3.738-.137 6.921-.542 10.608-1.146-1.615 1.909-3.318 3.005-5.205 4.9-2.973.978-7.135 1.354-10.353 1.881l-.799-.932a391 391 0 0 1 5.749-4.703"/><path fill="#f8d19b" d="M819.367 844.838c2.89.374 6.18.937 9.065 1.118q.551.036 1.101.079c2.215 1.706 3.827 3.055 6.223 4.551l-1.471.547c-4.197-.352-6.625-.78-10.695-1.818-1.513-1.744-2.515-2.892-4.223-4.477"/><path fill="#82664c" d="M454.706 843.61c4.049 1.072 29.957 16.446 31.719 19.01l.006.171c-.717.571-13.256-7.777-14.675-8.783-4.949-3.512-12.054-6.084-16.903-9.215.017-.598.11-.772-.147-1.183"/><path fill="#5d483b" d="M540.642 846.557c-.19.193-2.806 2.606-2.848 2.607-1.179.027-9.54 10.213-9.698 8.337-.033-.393 1.026-1.656 1.202-1.827 3.551-3.446 6.883-7.141 10.868-10.084z"/><path fill="#82664c" d="M636.234 523.278c.833-1.623 5.191-10.21 6.023-11.02l1.497-.563c-1.587 3.442-4.786 9.033-7.52 11.583"/><path fill="#82664c" d="M486.453 852.555c1.364.88 7.276 5.337 7.393 6.606-.486.394-7.564-5.294-8.453-6.043z"/><path fill="#d5a976" d="M471.46 386.53c2.693 2.041 5.704 5.092 8.053 7.536-3.302-2.278-6.472-4.554-9.61-7.069z"/><path fill="#b3916d" d="M355.823 614.761c.899.547 5.939 3.778 5.954 4.729l-.062.083c-.703.087-6.022-3.36-6.846-3.964z"/><path fill="#82664c" d="M533.503 182.127c-.834-.037-6.29-1.212-6.657-1.602l.03-.201.408.204.157-.343c1.381-.144 7.273 1.148 8.794 1.46q-1.371.215-2.732.482"/><path fill="#5d483b" d="M545.555 859.069c-.995.851-4.099 3.228-5.046 3.513-4.868 1.464 3.734-3.805 3.778-3.836z"/><path fill="#a37f5f" d="M378.685 545.582q.4 1.703.712 3.424c.393 2.097.502 4.423.492 6.552l-.708-2.84c-.547-2.191-1.128-4.097-1.498-6.366z"/><path fill="#b3916d" d="M490.539 180.721c2.062-.785 5.334-.625 7.578-.84-.793.398-1.514.799-2.291 1.227-1.626-.122-3.228.441-4.849.783z"/><path fill="#b3916d" d="M659.592 637.79c2.021-1.601 5.171-4.281 7.623-5.1l.444 1.01c-2.515 1.405-5.463 2.813-8.067 4.09"/><path fill="#b3916d" d="m578.2 439.505.919.686c-1.493 2.647-3.255 4.282-5.198 6.49.811-1.5 3.312-6.325 4.279-7.176"/><path fill="#5d483b" d="M489.708 850.015c.757.677 5.405 4.484 5.352 5.146-.745.382-5.414-3.855-6.2-4.568z"/><path fill="#5d483b" d="M548.609 863.117c-1 .738-7.46 4.695-4.745 1.554.004-.004 2.047-1.27 2.112-1.312l1.521-.878z"/><path fill="#b3916d" d="M379.254 515.613c.983 1.92 1.565 3.715 2.497 5.584l-.838.367c-.677-1.787-1.77-3.721-2.568-5.542z"/><path fill="#d5a976" d="M552.287 413.226c.404-1.541.918-3.816 1.475-5.222l1.106.28c-.49 2.03-1.248 3.447-1.684 5.321z"/><path fill="#82664c" d="M529.067 861.53c1.718-1.869 3.292-3.774 5.357-5.267l1.79-.052c-2.151 1.921-4.765 3.693-7.147 5.319"/><path fill="#d5a976" d="M441.779 325.321c-.015-.087-1.427-7.374.216-5.309l-.44.316.602.057a39 39 0 0 1 .683 3.166z"/><path fill="#82664c" d="M447.288 440.371c.89 1.657 1.881 3.076 2.811 4.826l.865 1.6c-2.071-2.274-3.337-3.64-4.996-6.263z"/><path fill="#d5a976" d="M196.343 810.828c1.746-1.072 3.452-2.174 5.295-3.08l2.104.96c-2.237.502-5.121 1.444-7.399 2.12"/><path fill="#b3916d" d="M472.752 413.093c.698 2.299 1.573 4.434 2.24 6.769-1.294-2.182-2.449-3.944-3.37-6.328z"/><path fill="#b3916d" d="M358.114 633.222c3.292 1.376 3.689 1.998 6.642 3.939-2.325-.793-4.092-1.623-6.325-2.619z"/><path fill="#d5a976" d="M436.889 293.722c.068.78.692 4.123.2 4.515l-.192-.033.188-.552-.079.293c-.883-.559-1.307-1.939-1.688-2.973z"/><path fill="#b3916d" d="M473.052 449.325c1.339 1.36 1.931 2.472 3.375 3.594l-.863.653c-1.184-1.484-2.128-2.065-3.324-3.543z"/><path fill="#5d483b" d="M531.926 863.393c1.958-1.866 3.477-3.337 5.635-5.01l.999.693c-1.827 1.536-4.572 3.11-6.634 4.317"/><path fill="#d5a976" d="m711.053 656.693 1.343 2.225q-.171 1.023-.329 2.048l-1.233.42c.119-1.64.174-3.061.219-4.693"/><path fill="#d5a976" d="M823.901 808.244c.527.358 1.534.849 1.766 1.492-.133.695-3.679-.439-4.134-.536z"/><path fill="#b3916d" d="M581.814 326.625c.186-1.12.371-2.094.926-3.077l.023-.088c.559.926.133 3.974-.039 5.045z"/><path fill="#d5a976" d="M650.249 653.689c-.529.332-2.816 1.92-3.358 1.669-.446-.638 2.963-2.794 3.344-3.061z"/><path fill="#a37f5f" d="M550.136 390.601c-3.162 2.704-5.259 2.378-1.183-.535z"/><path fill="#a37f5f" d="M562.574 384.021c-.641.371-1.908 1.35-2.639 1.327-.186-.006-.355-.39-.238-.57.588-.901 2.156-1.527 3.093-2.023z"/><path fill="#5d483b" d="m375.847 653.297.516.39c2.405 1.31 2.055 2.899-1.458.488z"/><path fill="#82664c" d="M553.184 413.605c-.142.302-1.513 3.81-1.989 3.503.215-.202.115-.087.292-.35l-.286-.435c.317-1.18.62-1.983 1.086-3.097z"/><path fill="#d5a976" d="M659.739 623.127c-.312.185-2.663 1.881-2.896 1.082.209-.796 1.801-1.738 2.428-2.166z"/><path fill="#d5a976" d="M313.47 656.916q.045 1.606.157 3.208l-.97.315c-.152-.645-.284-1.219-.473-1.857q.65-.828 1.286-1.666"/><path fill="#b3916d" d="m547.998 451.843 1.178.792c-.212.185-2.391 2.243-2.805 1.553.019-.628 1.209-1.84 1.627-2.345"/><path fill="#d5a976" d="M445.858 438.25c.658.746.922 1.272 1.43 2.121l-1.32.163a75 75 0 0 0-1.198-1.753z"/><path fill="#82664c" d="m312.657 660.439.97-.315c.208.916.72 2.582.156 3.468l-.053.011c-.577-.581-.738-1.445-.88-2.223z"/><path fill="#5d483b" d="m498.117 179.881 1.619.064c.452.019.523.063.946.207l.038.074c-.3.487-4.166.811-4.894.882.777-.428 1.498-.829 2.291-1.227"/><path fill="#a37f5f" d="m710.834 661.386 1.233-.42c-.558 1.447-.7 2.194-.983 3.729l-.83-.764c.208-1.319.165-1.39.58-2.545"/><path fill="#5d483b" d="M381.751 521.197c1.768 2.987.684 3.645-.598.877l-.24-.51z"/><path fill="#b3916d" d="M373.796 652.1c.774.399 1.318.74 2.051 1.197l-.942.878c-.537-.385-1.009-.726-1.568-1.082z"/><path fill="#5d483b" d="M495.443 844.676c2.594 3.005 2.068 3.75-.57.819z"/><path fill="#5d483b" d="M711.084 664.695c-1.211 3.879-1.435 1.853-.83-.764z"/><path fill="#b3916d" d="M835.756 850.586c.654.289.808.367 1.412.732l-.291.671c-1.053-.439-1.49-.567-2.592-.856z"/><path fill="#5d483b" d="M476.427 452.919c.168.185 1.433 1.402 1.329 1.84a.22.22 0 0 1-.182.165c-.664.1-1.619-.961-2.01-1.352z"/></svg>