<svg xmlns="http://www.w3.org/2000/svg" width="1024" height="1024" viewBox="0 0 1024 1024"><path fill="#1d1a14" d="M0 0h1024v1024H0z"/><path fill="#f1bf7f" d="M675.669 227.954c10.906-5.525 23.997-12.031 35.508-16.113 26.416-9.367 68.345-18.249 92.639-1.246-38.165 18.752-65.897 52.865-86.599 89.263-13.224-1.236-28.171 1.39-40.734 5.444 1.632 1.226 1.852.775 3.987.909 8.423-.847 21.916-.628 30.084 1.548l-6.008 6.604c.361.397.716.739 1.097 1.117a80 80 0 0 1-1.703 1.834c-.467-.315-.877-.601-1.362-.89-17.361 20.796-25.627 32.24-38.536 56.312-12.598 1.034-27.256 5.416-39.295 9.228l1.081.818c10.607-2.43 22.838-3.276 33.621-2.919-7.413 6.123-14.266 12.091-20.587 19.439-3.067 3.566-5.552 7.523-8.404 11.07a124.7 124.7 0 0 0-44.804 14.155l.949.605c16.17-6.768 34.54-12.291 52.209-11.572-10.693 9.047-16.071 15.984-20.635 29.073-23.836 5.966-36.982 13.623-57.401 26.037l.383.986c20.564-9.768 33.484-13.621 55.609-18.084-21.877 19.729-43.677 29.889-69.884 42.296l.232.822a595 595 0 0 0 22.828-7.117c-10.241 8.936-27.931 16.485-40.818 20.528 5.101-14.699 10.253-29.045 16.001-43.513 34.807-87.608 87.77-169.372 165.141-224.864l-.419-.994a390.5 390.5 0 0 0-67.11 58.709c-50.644 55.605-97.111 139.896-117.412 212.652-3.456-.29-5.143-.656-8.453-1.727 23.432-67.536 50.438-122.826 94.601-179.649l-1.021-.319a552.1 552.1 0 0 0-95.564 176.571c-5.633-4.442-15.754-12.811-22.197-15.606l.891-1.101c4.195 1.294 7.789 2.35 11.836 4.106l2.012-1.48c-14.484-14.651-18.816-32.81-15.19-52.968l.396-.059c.851 3.334 1.389 8.693 2.232 12.492 2.814 12.677 7.728 22.609 16.544 32.049-11.695-28.904-12.112-41.668-5.198-71.909.13-.762.237-1.526.433-2.273l-.047.209.512-.678-.066-.183.133-.133c.588.117.226 4.26.219 4.817-.033 2.511.066 5.016.022 7.527.33 4.513 1.015 12.142 2.797 16.329.023-.01.453-.299.631-.207.102.052.251.476.259.496.085.2.106.321.248.494l.371-.162c.213-2.823.241-3.68 1.341-6.341.357-1.219.734-5.591.877-7.041 3.072-31.038 18.574-65.225 40.95-87.379-1.8 6.986-3.694 20.892-2.001 27.769 1.738 1.466 1.148 6.202 1.993 7.249l.398-.241c.491-1.221.127-6.313 1.25-6.938.713-5.275.786-9.58 1.832-15.026 3.871-20.155 13.221-32.906 24.947-48.746.687-.838.729-.817 1.687-1.417 1.034.865 1.206.996 2.387 1.643l.755-1.965c4.127-10.695 23.837-25.916 33.188-33.647-.163 2.917-.376 4.823.052 7.741a75 75 0 0 0 1.513 3.125c1.065-4.261 2.97-13.718 5.912-16.322 9.991-8.847 24.04-18.523 35.833-24.581 1.31 6.781 1.702 14.299 2.294 21.24.507 1.2.813 1.912 1.448 3.046 3.044-8.318 6.75-21.984 7.285-30.942"/><path fill="#2c1a0e" d="M585.002 298.616c1.034.865 1.206.996 2.387 1.643-1.876 4.713-3.226 9.353-5.347 13.982a281 281 0 0 1 2.037-11.235c.138-.663.349-1.329.54-1.977l-1.304-.996c.687-.838.729-.817 1.687-1.417"/><path fill="#d9a768" d="M585.002 298.616a33 33 0 0 1-.383 2.413l-1.304-.996c.687-.838.729-.817 1.687-1.417"/><path fill="#150a04" d="M552.895 363.735c1.738 1.466 1.148 6.202 1.993 7.249l.398-.241c.491-1.221.127-6.313 1.25-6.938.24 3.618-.054 8.127.2 12.292-.347.866-.441.977-.971 1.788a67 67 0 0 1-2.187-8.389c-.484-2.654-.572-3.107-.683-5.761"/><path fill="#4a331d" d="M709.849 238.73c3.957-3.506 14.045-8.854 18.787-12.449l-.082 1.401c-3.198 1.063-14.837 9.741-18.286 12.042z"/><path fill="#8a6844" d="M625.03 310.397c-2.969 5.469-6.148 8.733-9.786 13.6l-2.999 3.966c-.281.376-.408.461-.77.752l-1.021-.319 1.066-1.402a116 116 0 0 1 3.867-4.792 166 166 0 0 0 5.867-7.358c1.287-1.53 2.464-2.93 3.776-4.447"/><path fill="#2c1a0e" d="M513.069 430.386c-.066 6.312-.026 10.126 1.024 16.457-1.589-3.651-3.004-6.784-3.874-10.737.023-.01.453-.299.631-.207.102.052.251.476.259.496.085.2.106.321.248.494l.371-.162c.213-2.823.241-3.68 1.341-6.341"/><path fill="#bf8e5c" d="M728.636 226.281c.971-.757 7.074-4.794 8.154-4.856.256.368-.181.932-.343 1.254-1.197.32-6.599 3.991-7.893 5.003z"/><path fill="#2c1a0e" d="M507.432 490.886c1.915 1.656 4.072 3.806 5.91 5.569-2.231-1.188-5.752-3.246-7.922-4.089z"/><path fill="#bf8e5c" d="M506.216 410.491c.13-.762.237-1.526.433-2.273l-.047.209.512-.678-.066-.183.133-.133c.588.117.226 4.26.219 4.817-.033 2.511.066 5.016.022 7.527-.851-3.867.076-6.957-1.206-9.286"/><path fill="#4a331d" d="M667.727 307.989c2.652-.866 6.078-2.116 8.756-2.687 1.632 1.226 1.852.775 3.987.909-4.242.583-8.511 1.229-12.743 1.778"/><path fill="#2c1a0e" d="M621.384 272.388a75 75 0 0 0 1.513 3.125c-.182 1.17-.448 2.06-.729 3.202l-.587-.681q-.17-2.82-.197-5.646"/><path fill="#8a6844" d="m625.828 382.782-.674.136c-.916.176-5.454 1.456-5.884.764.431-.505 4.653-1.542 5.477-1.718z"/><path fill="#2c1a0e" d="M666.936 255.85c.507 1.2.813 1.912 1.448 3.046a24 24 0 0 0-.722 2.135l-.769-.036c.097-1.84.071-3.315.043-5.145"/><path fill="#2c1a0e" d="M704.546 314.363c.361.397.716.739 1.097 1.117a80 80 0 0 1-1.703 1.834c-.467-.315-.877-.601-1.362-.89.662-.739 1.239-1.375 1.968-2.061"/><path fill="#4a331d" d="M586.603 425.132c-.562.237-4.943 2.51-4.881 1.413l.195.047.102-.345.153.297.067-.436a43 43 0 0 1 3.415-1.581z"/><path fill="#705633" d="M547.116 494.69c-1.131.501-1.76.747-2.951 1.094l-.447-.274-.033.351-.31-.109.002-.042c.405-.57 1.494-.952 2.129-1.233l.565-.245.813-.364z"/><path fill="#4a331d" d="M556.736 376.097c.584 2.282-.055 5.194-.971 1.788.53-.811.624-.922.971-1.788"/><path fill="#705633" d="m560.776 468.67.383.986c-.55.273-2.348 1.377-2.962 1.097-.286-.13.858-1.013.91-.974.041.032 1.697-1.127 1.669-1.109"/><path fill="#8a6844" d="m666.893 260.995.769.036c-.085.363-.362 2.436-1.024 2.077-.252-.716.043-1.412.255-2.113"/><path fill="#705633" d="m621.581 278.034.587.681c.006.505.079.68-.148 1.063l-.158.036c-.259-.304-.29-.654-.279-1.041z"/><path fill="#f1bf7f" d="M513.193 541.765c6.609-5.547 11.149-13.992 17.731-19.834 7.434-6.598 16.129-8.842 24.877-12.969 6.498-3.065 12.571-8.218 20.386-7.658 3.185.229 8.041 3.935 10.569 5.992 8.684 8.175 17.125 17.389 25.382 26.03 8.643 9.044 17.827 17.395 26.489 26.22 8.331.329 59.609.833 64.332 2.481 6.641 2.318 13.11 8.782 17.767 13.841 13.24 14.385 24.751 35.698 26.501 55.407-20.014-1.517-52.989-11.861-72.926-17.4-10.08-2.801-31.153-8.941-40.808-12.661-17.442 5.681-31.493.675-43.371-13.093l.231-1.626c-4.131-.162-20.279-1.262-23.135-.5-12.167 3.243-22.227 12.017-36.213 8.742-2.39-1.184-3.152-1.389-4.02-3.935-1.763.031-1.671.06-3.336-.495-3.625 1.496-4.26 1.505-8.061.511-.946-.313-1.606-.635-2.426-1.204l-.724-.482c-.131-.114-1.079-1.505-1.249-1.748-1.181-2.101-1.07-2.892 1.449-3.004-.237-.465-.455-.792-.565-1.273-.367-.678-.231-1.079-.255-1.997-.574.23-1.116.447-1.685.692-1.662.157-3.015-.179-3.921 1.325-.916 6.229-4.169 12.995-4.857 18.341.129.322.443.859.314 1.186-.531.307-.74.029-1.544.58-4.111.255-7.325-.546-10.81-2.933l.267-.66c-.765-1.963 3.346-13.076 4.243-16.647l.628-2.498c.494-1.998 2.868-10.205 2.996-11.496.788-7.964 3.959-11.888 6.059-19.124.235-1.349.657-2.589 1.214-3.835l.622.541-.187.551c.153.706.326 3.037.623 3.436.752-.056.571-.748.837-1.315l.227-.034c2.509-2.561 3.184-3.811 6.19-6.446z"/><path fill="#150a04" d="m567.599 516.186.402.812c-5.073 2.386-26.786 11.757-29.152 14.527-6.933 8.121-29.328 27.894-33.705 35.929.376.129.919.465 1.259.657 1.739-2.357 3.748-3.115 6.446-4.309 2.973 2.354 4.167 3.343 6.057 6.785.072 1.989.107 2.524 1.664 3.872-2.247 2.366-5.832 5.192-8.752 6.651-.574.23-1.116.447-1.685.692-1.662.157-3.015-.179-3.921 1.325-.916 6.229-4.169 12.995-4.857 18.341.129.322.443.859.314 1.186-.531.307-.74.029-1.544.58-4.111.255-7.325-.546-10.81-2.933l.267-.66c-.765-1.963 3.346-13.076 4.243-16.647l.628-2.498c.494-1.998 2.868-10.205 2.996-11.496.788-7.964 3.959-11.888 6.059-19.124.235-1.349.657-2.589 1.214-3.835l.622.541-.187.551c.153.706.326 3.037.623 3.436.752-.056.571-.748.837-1.315l.227-.034c2.509-2.561 3.184-3.811 6.19-6.446l.159-1.009c4.326.476 5.051 2.389 7.113 5.692 3.979-3.954 14.485-15.832 18.211-18.409 5.375-3.717 21.985-9.88 29.082-12.862"/><path fill="#f1bf7f" d="M503.508 549.876c.133.541.274 1.014.43 1.547l.057 1.001.042 1.01c.109 2.365 1.332 3.772 2.823 5.465q.39.444.772.894c-3.53 5.469-8.073 9.594-6.387 16.594.878 3.643 1.817 4.994 4.967 6.74-.916 6.229-4.169 12.995-4.857 18.341.129.322.443.859.314 1.186-.531.307-.74.029-1.544.58-4.111.255-7.325-.546-10.81-2.933l.267-.66c-.765-1.963 3.346-13.076 4.243-16.647l.628-2.498c.494-1.998 2.868-10.205 2.996-11.496.788-7.964 3.959-11.888 6.059-19.124"/><path fill="#2c1a0e" d="M489.582 599.641c4.659.862 6.912 1.692 11.773 1.827.129.322.443.859.314 1.186-.531.307-.74.029-1.544.58-4.111.255-7.325-.546-10.81-2.933z"/><path fill="#f1bf7f" d="m513.034 542.774.971.211c5.399 1.051 6.057 6.48 1.448 9.46-4.634 2.996-5.514 9.416-9.388 1.484-.228-1.403-1.01-1.769-2.127-2.506-.156-.533-.297-1.006-.43-1.547.235-1.349.657-2.589 1.214-3.835l.622.541-.187.551c.153.706.326 3.037.623 3.436.752-.056.571-.748.837-1.315l.227-.034c2.509-2.561 3.184-3.811 6.19-6.446"/><path fill="#9c7748" d="m504.722 546.041.622.541-.187.551c.153.706.326 3.037.623 3.436.752-.056.571-.748.837-1.315l.227-.034c.579 1.628 4.458 5.54.648 3.757-.829.351-1.003.304-1.427.952-.228-1.403-1.01-1.769-2.127-2.506-.156-.533-.297-1.006-.43-1.547.235-1.349.657-2.589 1.214-3.835"/><path fill="#150a04" d="M505.157 547.133c.153.706.326 3.037.623 3.436.752-.056.571-.748.837-1.315l.227-.034c.579 1.628 4.458 5.54.648 3.757-2.241-3.048-4.162-1.329-2.335-5.844"/><path fill="#f1bf7f" d="m506.403 568.111.981.373c1.241.291 2.293-1.418 3.35-1.562 8.831-1.204 7.148 10.03-.902 11.888-6.625 1.53-7.73-6.364-4.688-11.356.376.129.919.465 1.259.657"/><path fill="#d9a768" d="M518.906 570.587c.072 1.989.107 2.524 1.664 3.872-2.247 2.366-5.832 5.192-8.752 6.651-.574.23-1.116.447-1.685.692-1.672-.247-4.846-.13-5.532-2.283-.063-.198-.006-.206.1-.315.69-.176 2.109 1.153 3.075 1.32 4.578.793 9.947-4.913 10.89-8.985z"/><path fill="#150a04" d="M520.57 574.459c8.524-7.73 17.647-14.848 26.196-22.553 7.838-7.064 17.222-9.833 26.766-13.771 2.278-.94 9.525-4.098 11.636-4.318-8.81 5.06-25.622 11.305-31.349 15.283-10.195 7.084-23.697 21.013-34.401 29.314 8.25 3.162 6.331 9.175-.955 10.891q-1.03.234-2.073.41c-.419.357-.51.619-.802 1.103-.946-.313-1.606-.635-2.426-1.204l-.724-.482c-.131-.114-1.079-1.505-1.249-1.748-1.181-2.101-1.07-2.892 1.449-3.004-.237-.465-.455-.792-.565-1.273-.367-.678-.231-1.079-.255-1.997 2.92-1.459 6.505-4.285 8.752-6.651"/><path fill="#f1bf7f" d="M512.073 583.107c2.931-1.71 4.709-3.877 8.168-3.157a3.7 3.7 0 0 1 2.444 1.709c3.116 5.151-4.741 7.992-9.352 6.245l-2.144-.52c-1.181-2.101-1.07-2.892 1.449-3.004-.237-.465-.455-.792-.565-1.273"/><path fill="#d9a768" d="M511.189 587.384c-1.181-2.101-1.07-2.892 1.449-3.004.446 1.584.544 1.91.695 3.524z"/><path fill="#d9a768" d="M512.438 589.132c1.93-.09 2.023-.028 3.952.583-.419.357-.51.619-.802 1.103-.946-.313-1.606-.635-2.426-1.204z"/><path fill="#150a04" d="m586.316 559.814.311.857c-8.924 3.281-18.847 8.485-27.84 12.053-1.647.654-19.983 12.015-20.316 12.452 2.608 6.264-2.682 7.429-7.537 8.263l.071 1.298c-2.39-1.184-3.152-1.389-4.02-3.935-1.763.031-1.671.06-3.336-.495 6.614-4.142 14.298-7.9 21.13-11.824 4.612-2.648 10.245-6.61 14.886-8.543 8.736-3.638 17.779-6.587 26.651-10.126"/><path fill="#f1bf7f" d="M526.985 590.802c1.838.702 2.35 1.457 3.949 2.637l.071 1.298c-2.39-1.184-3.152-1.389-4.02-3.935"/><path fill="#f1bf7f" d="M536.2 585.909c6.475 2.077-2.515 5.682-4.52 6.461-6.332-2.875 1.555-5.062 4.52-6.461"/><path fill="#4a331d" d="M603.927 583.699c-3.763 1.919-7.365 3.576-11.676 3.909-.817.063-1.372.24-2.129.513l.231-1.626c5.98-.479 7.968-1.147 13.574-2.796"/><path fill="#8a6844" d="M567.599 516.186c.33-.189 3.395-2.02 4.178-1.492l.013.122c-.422.767-3.064 1.924-3.789 2.182z"/><path fill="#8a6844" d="M586.316 559.814c.662-.381 2.463-1.501 3.236-.985-.051.777-2.327 1.613-2.925 1.842z"/><path fill="#f1bf7f" d="M216.337 627.528c-17.277-45.289 7.662-71.55 30.568-108.015 6.799-10.824 14.045-26.182 19.463-37.883a962 962 0 0 0 29.636-71.877c7.904-21.325 15.169-43.664 25.546-63.981a131 131 0 0 1 25.728-34.871c19.43-18.791 52.167-34.738 79.479-34.322-3.534 1.429-9.11 2.785-12.997 4.088-16.077 5.389-29.076 21.22-36.156 36.317-21.467 45.777-18.964 107.792-10.872 156.539 1.391 8.377 4.355 22.939 7.034 30.776l-1.131.612c-3.21-7.658-5.877-16.294-8.848-24.105-14.047-36.934-21.135-72.189-18.306-111.904l-1.291-1.752c-13.703 49.075-39.89 104.057-74.429 141.816a82.7 82.7 0 0 1 62.829 11.01 214 214 0 0 1 5.676 3.737l-.828.859c-8.009-4.363-15.264-8.077-24.478-9.123-30.445-3.455-58.97 23.779-74.931 46.599l.66 1.106c27.748-26.995 85.35-43.156 119.299-19.234l-.529 1.274c-23.216-14.894-48.448-6.554-70.373 6.973-27.469 16.947-46.832 47.887-53.821 79.114-6.045-1.947-10.734-2.794-16.928-3.753"/><path fill="#705633" d="m345.459 360.881.745.731c-.174 1.408-.254 2.685-.474 4.096l-1.106-.992c.322-1.276.557-2.547.835-3.835"/><path fill="#150a04" d="m344.624 364.716 1.106.992c-.176 1.286-.218 1.896-.249 3.194l-1.291-1.752q.224-1.216.434-2.434"/><path fill="#2c1a0e" d="M236.303 564.475a27 27 0 0 1 1.726-2.427l.66 1.106a54 54 0 0 0-1.509 1.569z"/><path fill="#bf8e5c" d="M345.459 360.881c.074-3.397 1.491-2.979.745.731z"/><path fill="#705633" d="M237.18 564.723c-.29.35-1.613 2.196-2.265 1.941-.238-.791.912-1.714 1.388-2.189z"/><path fill="#705633" d="M478.797 614.494c4.764-4.602 7.322-7.694 9.677-14.004.103-.277.649-.205.841-.189 3.485 2.387 6.699 3.188 10.81 2.933.869 2.154.123 7.99.953 11.275 1.27 5.027 2.548 4.437-.384 7.944.416.577.855 1.152 1.209 1.765-.136.345-2.7 2.707-3.612 4.099l-.994 1.504c-.827 1.263-1.171 1.836-2.265 2.873 21.523 6.471 37.993 11.41 48.661 32.584 13.158 26.116 6.92 57.409-12.758 78.334-5.873 6.247-21.831 15.387-24.333 21.54 5.119 4.741 16.736-3.306 21.235-6.299l.529.226c-3.708 2.735-12.062 7.222-16.369 9.252-4.374-2.205-16.63-5.532-22.514-8.112-6.878-1.934-12.557-5.455-18.882-7.7.498 2.808-.521 3.206-3.146 4.36l-.598.269c-4.893-1.667-10.188-4.026-14.561-6.791.802-1.118 1.49-2.561 1.805-3.904l-.123-.031c-.047-.451.241-.37.595-.664-.289-.439-15.682-7.465-18.148-8.928-5.817-2.625-21.971-10.414-26.422-13.589 2.145-.181 9.315 4.141 11.749 5.46.178-9.924-1.254-14.94-2.529-24.753-4.158-32.011 10.598-64.076 44.373-70.869 4.443-.894 13.035-.679 16.251-3.019 1.967-3.965-1.212-2.531-1.324-8.831 1.497 4.615 2.17 7.455 3.128 12.267 1.794-2.666.18-2.167.406-3.899l.63-.457c-.479-4.59-2.323-10.277-3.89-14.646"/><path fill="#f1bf7f" d="M478.797 614.494c4.764-4.602 7.322-7.694 9.677-14.004.103-.277.649-.205.841-.189 3.485 2.387 6.699 3.188 10.81 2.933.869 2.154.123 7.99.953 11.275 1.27 5.027 2.548 4.437-.384 7.944.416.577.855 1.152 1.209 1.765-.136.345-2.7 2.707-3.612 4.099l-.994 1.504c-.827 1.263-1.171 1.836-2.265 2.873-4.75 4.191-4.598 6.987-7.796 11.078-3.828-1.907-1.325-.504-2.161-2.764l-.251-.661c-1.644-.342-.943-8.906-2.137-11.207-.479-4.59-2.323-10.277-3.89-14.646"/><path fill="#4a331d" d="M484.824 640.347c.593-5.083 2.946-10.223 3.851-15.295.073-.411.707-4.267 1.624-3.922.449 1.552-2.82 13.342-3.419 15.677l.572 2.787c2.296-3.907 9.477-15.176 13.242-17.141.416.577.855 1.152 1.209 1.765-.136.345-2.7 2.707-3.612 4.099l-.994 1.504c-.827 1.263-1.171 1.836-2.265 2.873-4.75 4.191-4.598 6.987-7.796 11.078-3.828-1.907-1.325-.504-2.161-2.764z"/><path fill="#d9a768" d="m486.88 636.807.572 2.787c-.271.396-.858 1.767-1.356 1.491-.227-.679.612-3.476.784-4.278"/><path fill="#1d1a14" d="M490.965 612.43a2.95 2.95 0 1 1 2.468 5.36 2.95 2.95 0 0 1-2.468-5.36"/><path fill="#9c7748" d="m436.425 736.83 3.149.819c4.858 1.307 6.196-2.255 10.019-2.646 8.596-.88 32.292 9.487 35.375 16.94l-1.685.93c-.754 3.617 2.39 5.145 5.306 5.807l.894 1.539c-6.878-1.934-12.557-5.455-18.882-7.7.498 2.808-.521 3.206-3.146 4.36l-.598.269c-4.893-1.667-10.188-4.026-14.561-6.791.802-1.118 1.49-2.561 1.805-3.904l-.123-.031c-.047-.451.241-.37.595-.664-.289-.439-15.682-7.465-18.148-8.928"/><path fill="#fff7ea" d="M454.573 745.758c5.275 2.067 10.822 4.945 16.028 6.761.498 2.808-.521 3.206-3.146 4.36l-.598.269c-4.893-1.667-10.188-4.026-14.561-6.791.802-1.118 1.49-2.561 1.805-3.904l-.123-.031c-.047-.451.241-.37.595-.664"/><path fill="#2c1a0e" d="M482.687 629.14c1.194 2.301.493 10.865 2.137 11.207l.251.661c.836 2.26-1.667.857 2.161 2.764-.25.521-3.287 6.027-3.412 6.106-1.696-1.088-2.322-14.044-2.173-16.382 1.794-2.666.18-2.167.406-3.899z"/><defs><linearGradient id="a" x1="497.514" x2="481.237" y1="661.775" y2="718.994" gradientUnits="userSpaceOnUse"><stop offset="0" stop-color="#5e4123"/><stop offset="1" stop-color="#7a5c33"/></linearGradient></defs><path fill="url(#a)" d="M483.14 664.389c.751-1.991.826-5.271 1.937-6.748 5.151-.025 5.314 11.776 6.667 15.324 2.914 7.643 7.345 14.689 10.607 22.162 3.415 7.823-.408 22.317-9.768 24.309-1.016.604-1.248.71-2.359.984-5.995 1.474-10.664.027-15.338-3.813-.463-.381-3.631-1.655-4.188-2.124-4.371-3.679-7.025-8.393-8.19-13.898-2.16-10.212 2.696-18.364 10.814-24.03.904-.632 5.577-1.98 6.158-2.808 1.869-2.661 1.65-6.317 3.66-9.358"/><path fill="#9c7748" d="M492.583 719.436c-1.016.604-1.248.71-2.359.984-5.995 1.474-10.664.027-15.338-3.813-.463-.381-3.631-1.655-4.188-2.124-4.371-3.679-7.025-8.393-8.19-13.898-2.16-10.212 2.696-18.364 10.814-24.03.904-.632 5.577-1.98 6.158-2.808 1.869-2.661 1.65-6.317 3.66-9.358-3.069 16.482-20.318 32.194-10.821 48.301 4.55 7.716 12.174 8.451 20.264 6.746"/><path fill="#f1bf7f" d="M486.617 663.855c2.465 11.111 4.894 16.193 10.707 26.06 7.341 12.462 3.934 24.34-10.872 28.234-5.609-.173-9.663-2.715-12.621-7.551-6.972-11.402 3.924-23.76 8.609-33.622 1.867-3.929 3.198-8.904 4.177-13.121"/><path fill="#fff7ea" d="M478.252 692.348c.892 3.94-.315 7.899 1.112 12.426.701 2.225 3.055 6.56.056 5.966-5.215-5.472-6.737-12.452-1.168-18.392"/><path fill="#4a331d" d="M496.525 705.51c-.641 5.785-8.275 10.018-13.693 6.829l-.632-.363c-.645-.819-.725-1.376.483-.773 5.494 2.739 10.511-1.783 13.842-5.693"/><path fill="#f1bf7f" d="M387.919 560.806c3.212-5.308 7.146-11.613 9.844-17.152 2.011-4.129 2.968-10.094 5.519-14.305 2.625-4.332 8.103-6.242 10.505-10.374 1.892-3.253 2.329-8.119 5.056-11.222 3.17-3.763 9.692-3.993 12.824-7.64 3.616-4.852 11.366-17.448 19.167-14.474 7.378 2.812 24.375 17.729 28.941 24.093 7.371 10.272 12.397 22.583 19.602 32.978l.251 1.131c2.063 3.656-1.048 10.943-2.729 14.659.126.035.545.093.688.258.061.071.041.183.011.26-.054.134-.256.406-.307.487-.063.099-.121.202-.182.303l-1.078 1.256c-1.77.501-3.374-.278-5.175-.862-8.977-8.392-16.728-26.428-24.763-35.645-3.084-3.538-16.95-13.135-21.543-16.332l-1.126.484c11.384 10.118 21.69 14.22 28.637 28.458 4.893 10.025 14.985 20.983 18.236 31.733 1.051 1.373.713 1.716.731 3.517-.538.834-.87 1.417-1.351 2.286l1.119.226c.051-.016.911-.349.956-.181.999 3.739-5.888 6.45-8.376 7.338l-.185 1.148c.429 1.039.843 1.428.622 2.137-3.856 11.931-17.699-.572-22.903-4.962-.577.313-1.403.624-2.035.883 1.309.976 7.526 5.877 8.044 6.95-.074.751-1.328 1.116-1.932 1.432l-.045.271c-4.038 9.29-23.348-4.007-28.461-5.222-8.091-1.922-19.488-6.334-27.446-7.445 6.244 2.655 12.546 4.77 18.95 6.998-13.193 13.702-21.151 19.474-40.73 16.727-.451.106-.995.247-1.443.328a1146 1146 0 0 1-102.441 27.498c.661-23.807 19.725-56.885 39.167-70.234 20.736-.157 43.542.687 64.421 1.017.518.594.575.626.96 1.194"/><path fill="#150a04" d="M427.118 527.715c4.372 3.057 9.035 6.532 13.617 9.33 15.083 9.209 23.593 26.054 35.661 38.574 1.621 1.681 3.604 3.462 5.063 5.136.85.675 1.007.823 1.917 1.331l-.185 1.148c.429 1.039.843 1.428.622 2.137l-.756-.321-.686.878c-3.31 4.742-8.856 3.802-10.715-1.571-.666-1.926 1.794-5.689 2.798-7.464-8.504-9.465-16.935-21.8-25.65-30.739-3.872-3.973-16.335-13.011-21.382-16.853z"/><path fill="#f1bf7f" d="M472.585 583.569c.792-1.714 1.353-3.52 2.461-5.068l.343-.5c3.087 2.641 4.104 3.676 7.802 5.233-2.568 5.873-8.115 6.578-10.606.335"/><path fill="#150a04" d="M416.297 551.76c6.665 3.453 16.61 7.6 22.564 11.756 6.905 4.82 15.357 11.624 22.049 16.893-.577.313-1.403.624-2.035.883 1.309.976 7.526 5.877 8.044 6.95-.074.751-1.328 1.116-1.932 1.432l-.045.271c-3.247 1.691-4.644 1.69-7.575-.802-4.911-4.176-2.51-5.159.038-8.817-5.691-4.666-14.428-11.282-20.435-15.559-5.646-4.02-14.78-8.611-21.025-12.136z"/><path fill="#f1bf7f" d="M464.987 589.674c-9.069.778-12.378-6.724-6.112-8.382 1.309.976 7.526 5.877 8.044 6.95-.074.751-1.328 1.116-1.932 1.432"/><path fill="#f1bf7f" d="M482.412 579.65c-4.525-4.275-5.439-8.901-.617-13.356 4.538-4.192 6.065-.083 8.502 2.606 1.051 1.373.713 1.716.731 3.517-.538.834-.87 1.417-1.351 2.286l1.119.226c.051-.016.911-.349.956-.181.999 3.739-5.888 6.45-8.376 7.338-.91-.508-1.067-.656-1.917-1.331.297-.369.64-.745.953-1.105"/><path fill="#150a04" d="M482.412 579.65c-4.525-4.275-5.439-8.901-.617-13.356 4.538-4.192 6.065-.083 8.502 2.606 1.051 1.373.713 1.716.731 3.517-1.732-1.99-2.846-6.096-4.724-6.547-4.529-1.089-7.904 6.619-5.316 10.117 3.179 4.296 6.229 1.657 8.689-1.284l1.119.226c.051-.016.911-.349.956-.181.999 3.739-5.888 6.45-8.376 7.338-.91-.508-1.067-.656-1.917-1.331.297-.369.64-.745.953-1.105"/><path fill="#f1bf7f" d="M490.796 574.929c.051-.016.911-.349.956-.181.999 3.739-5.888 6.45-8.376 7.338-.91-.508-1.067-.656-1.917-1.331.297-.369.64-.745.953-1.105 3.885-.136 5.446-.79 7.852-4.032z"/><path fill="#f1bf7f" d="M496.899 558.5c-9.122-4.538-6.077-15.95 2.729-14.659 2.063 3.656-1.048 10.943-2.729 14.659"/><path fill="#150a04" d="M497.109 559.808c-11.381-4.691-7.831-18.515 2.268-17.098l.251 1.131c-8.806-1.291-11.851 10.121-2.729 14.659.126.035.545.093.688.258.061.071.041.183.011.26-.054.134-.256.406-.307.487-.063.099-.121.202-.182.303"/><path fill="#2c1a0e" d="M386.959 559.612c.518.594.575.626.96 1.194-2.387 4.023-4.504 7.885-7.084 11.82 2.029-5.42 3.245-7.934 6.124-13.014"/><path fill="#4a331d" d="M385.812 601.331c-4.338-2.559-6.563-5.044-7.031-10.449-.01-.117.163-.158.227-.187.661.303 1.67 6.988 7.399 9.885l.848.423c-.451.106-.995.247-1.443.328"/><path fill="#705633" d="M422.011 524.412c1.851 1.016 3.528 1.88 5.107 3.303l.304 1.586c-1.994-1.623-3.557-3.135-5.411-4.889"/><path fill="#150a04" d="M441.438 505.625a50 50 0 0 1 3.112 2.6l-1.126.484a41 41 0 0 0-1.901-1.611z"/><path fill="#705633" d="M441.523 507.098c-.088-.082-3.335-2.879-2.034-2.979l.405.204-.059-.054c.709.464 1.025.758 1.603 1.356z"/><path fill="#705633" d="M415.945 552.631c-.529-.316-3.032-1.708-3.045-2.323.663-.295 2.826 1.087 3.397 1.452z"/><path fill="#f1bf7f" d="M501.585 52.163c1.322.184 1.55.42 2.681 1.154-67.882 14.331-92.967 88.417-79.091 149.525 2.261 9.956 7.9 28.2 17.121 34.935 11.215 6.118 23.965 14.026 35.391 19.597l.232 1.321c-7.722-3.216-16.808-5.982-24.809-9.157-11.508-4.568-19.81-9.319-30.572-14.954 8.252 9.253 15.968 19.537 25.216 27.774 1.64 12.337 3.49 22.255 9.448 33.475 2.505 4.718 8.546 10.493 12.114 14.931 9.511 11.828 18.06 26.275 29.94 35.727 5.247 4.175 10.659 5.738 17.241 6.121.128.318.204.345.141.586-.415.413-3.149.316-3.907.367-14.064-.788-28.196-12.114-39.153-20.475-14.054-10.725-28.876-25.222-38.128-40.237-7.429-12.056-9.326-25.785-14.029-38.737-8.288-22.827-18.696-48.134-21.962-72.343-4.056-30.066 2.442-61.886 21.397-86.114 19.467-24.883 49.636-39.754 80.729-43.496"/><path fill="#f1bf7f" d="M251.397 898.267c-19.931-6.989-39.851-20.944-28.119-45.427 11.332-23.65 48.164-39.864 73.067-44.619a137.3 137.3 0 0 1 38.797-1.595c18.343 1.924 32.011 8.442 49.728 11.267 7.525 1.199 22.555-3.256 30.287-5.555 58.196-17.302 110.341-46.54 162.88-76.1a3987 3987 0 0 1 111.382-61.219c21.106-11.066 47.782-23.174 69.955-31.6 27.51-10.453 60.733-16.752 88.444-3.696a55.75 55.75 0 0 1 29.36 32.287c16.684 48.329-41.638 94.333-79.941 111.457-13.522 6.045-26.027 10.911-39.989 15.912-66.788 23.921-136.951 38.551-206.705 50.867-29.076 5.104-65.964 7.211-93.737 16.586l-.083-1.153a394 394 0 0 1 52.563-12.25c13.685-2.279 27.827-4.023 41.412-6.619a1945 1945 0 0 0 166.014-39.387c52.676-15.381 122.303-36.865 151.669-88.568 7.522-13.244 10.427-30.48 5.638-45.265a50.32 50.32 0 0 0-25.383-29.715c-25.179-12.792-54.142-9.174-79.791-.156-40.869 14.369-81.424 37.751-118.975 59.335a6684 6684 0 0 1-79.389 45.781c-9.021 5.082-17.837 10.328-27.016 15.14a717.7 717.7 0 0 1-114.949 48.216c-12.079 3.831-30.243 10.123-43.292 10.109-6.433-.007-15.452-3.497-21.854-4.815-32.364-9.184-65.318-9.732-95.348 7.096-14.783 8.285-28.81 16.662-36.783 32.713-9.378 18.275 2.463 35.069 20.579 39.871z"/><path fill="#f1bf7f" d="M288.492 806.45c-44.228-13.214-109.563-38.424-134.371-80.731-16.922-28.857-10.427-70.324 20.947-86.768 22.468-11.776 51.336-8.298 74.645-.388 41.58 14.193 81.261 39.226 118.881 61.575a1110 1110 0 0 0 28.339 16.237c2.073 1.153 11.17 6.206 13.07 6.866 4.451 3.175 20.605 10.964 26.422 13.589 2.466 1.463 17.859 8.489 18.148 8.928-.354.294-.642.213-.595.664l.123.031c-.315 1.343-1.003 2.786-1.805 3.904-2.873-.587-11.286-5.545-14.352-7.208-4.87-3.091-14.194-7.677-19.564-10.646-5.742-3.175-14.744-8.577-20.404-11.184-15.325-9.794-31.379-18.665-47.021-27.953-32.806-19.481-103.402-64.248-142.39-55.662-14.134 3.112-25.27 11.313-33 23.489-8.84 13.926-11.329 31.356-7.595 47.359 6.086 26.088 27.844 45.099 49.827 58.564 17.784 10.893 37.661 18.668 57.056 26.138 9.183 3.537 18.512 7.428 28.056 9.855z"/><path fill="#705633" d="M397.976 721.319c5.66 2.607 14.662 8.009 20.404 11.184 5.37 2.969 14.694 7.555 19.564 10.646 3.066 1.663 11.479 6.621 14.352 7.208 4.373 2.765 9.668 5.124 14.561 6.791l.598-.269c2.625-1.154 3.644-1.552 3.146-4.36 6.325 2.245 12.004 5.766 18.882 7.7 5.884 2.58 18.14 5.907 22.514 8.112-2.087 1.027-4.337 2.121-6.267 3.4-2.998 2.841-22.043 9.664-27.121 11.994l-.205-.292c5.385-2.379 11.919-5.453 17.361-7.509-.734-.494-1.388-.748-2.037-1.185-3.468-1.192-3.851.251-5.72-.115-2.968-.581-7.557-.669-10.327-1.443-2.584.193-5.333-1.073-8.119-1.242l1.438 1.582-.242.615c-1.449-.438-3.594-2.05-4.926-2.947-.9.602-.432.358-1.398.743-19.543-9.903-26.101-11.751-40.526-28.218l-.856-.533c-5.288-12.927-13.98-14.325-25.112-21.028z"/><defs><linearGradient id="b" x1="421.725" x2="431.455" y1="741.419" y2="736.49" gradientUnits="userSpaceOnUse"><stop offset="0" stop-color="#564027"/><stop offset="1" stop-color="#856335"/></linearGradient></defs><path fill="url(#b)" d="M397.976 721.319c5.66 2.607 14.662 8.009 20.404 11.184 5.37 2.969 14.694 7.555 19.564 10.646 2.875 7.125 14.277 12.968 14.71 17.047l-.236.174-.084-1.192-1.206 1.052c-7.986-2.898-14.623-7.757-21.345-12.819-2.033-1.531-3.408-2.882-5.875-3.697l-.856-.533c-5.288-12.927-13.98-14.325-25.112-21.028z"/><path fill="#f1bf7f" d="M470.601 752.519c6.325 2.245 12.004 5.766 18.882 7.7 5.884 2.58 18.14 5.907 22.514 8.112-2.087 1.027-4.337 2.121-6.267 3.4-10.886-4.131-22.217-7.405-33.012-11.906-1.699-.708-3.717-1.157-5.223-2.244l-.638-.433.598-.269c2.625-1.154 3.644-1.552 3.146-4.36"/><path fill="#4a331d" d="M477.681 773.181c1.954-.336 18.11-.182 18.698.362l.055.216c-.918.3-1.807.632-2.706.98-3.468-1.192-3.851.251-5.72-.115-2.968-.581-7.557-.669-10.327-1.443"/><path fill="#f1bf7f" d="M705.643 315.48c3.693 1.912 7.763 5.998 10.604 9.017 15.059 16.004 24.081 39.41 30.473 60.391 10.653 34.968 19.987 68.355 33.983 102.386a546 546 0 0 0 16.231 36.201c7.587 15.229 19.239 34.332 22.729 50.957 3.057 14.565-1.219 36.99-6.815 50.934-.551 1.372-1.323 2.202-2.629 2.884l-.805-.314c-.557-3.622 3.983-13.496 4.914-17.606 2.617-11.553 4.014-23.312 1.755-35.019-3.31-17.154-13.566-32.689-21.266-48.265a533 533 0 0 1-19.118-42.374 761 761 0 0 1-21.559-62.313c-9.713-32.514-18.127-71.235-41.616-96.839-1.938-2.112-7.374-6.192-8.584-8.206a80 80 0 0 0 1.703-1.834"/><path fill="#f1bf7f" d="M416.938 250.329c-12.261-5.167-18.472-16.7-24.798-28.009-3.617-6.302-10.838-23.674-7.153-30.987 7.26-14.407 14.302-3.043 14.815 7.381.062 1.249 1.654 7.716 1.867 8.701.146 1.303-.099 1.29-.932 2.232 1.283 3.239 4.48 7.614 5.908 11.376 3.663 9.648 6.955 19.547 10.293 29.306"/><path fill="#2c1a0e" d="M392.367 195.091c2.033 2.163 8.69 12.042 9.302 12.324.146 1.303-.099 1.29-.932 2.232-2.959-4.893-5.566-9.587-8.37-14.556"/><path fill="#f1bf7f" d="M642.474 607.683c1.748.193 4.129.217 4.857 1.798 1.559 3.541.923 7.974 2.094 11.624 6.309 19.659 20.751 34.22 39.797 41.844 1.686.675 7.151 2.283 8.173 3.347l-.657.717-3.783 2.246c-30.87-10.824-50.584-26.82-50.481-61.576"/><path fill="#f1bf7f" d="M765.958 562.509c-26.009-16.525-66.784-29.779-95.004-13.235-3.065 1.797-9.312 8.066-12.259 7.566l-.181-.8c6.608-8.6 21.576-15.133 32.134-16.905 28.319-4.751 53.065 6.57 75.652 22.122z"/><path fill="#f1bf7f" d="M684.791 536.221c22.612-25.948 56.855-28.766 86.015-12.128l-.492 1.041c-25.131-11.136-53.119-10.686-75.028 6.658-4.146 3.283-5.401 3.668-10.495 4.429"/><path fill="#f1bf7f" d="M611.362 209.033c2.167-8.956 4.275-24.619 12.572-29.66 3.826-2.325 9.166-1.658 11.16 2.518 7.775 13.609-12.644 68.59-27.826 67.792l.106-.524c12.445-6.071 16.801-17.869 21.417-30.25 2.633-7.063 8.807-31.071 2.581-36.764-7.902-2.011-16.586 21.3-18.962 27.303z"/><path fill="#f1bf7f" d="m697.894 407.99.861.635c-14.409 27.442-27.454 65.796-33.71 96.108-1.2-.188-1.219-.194-2.407-.623 6.878-36.626 16.261-63.582 35.256-96.12"/><path fill="#f1bf7f" d="M737.647 898.234c12.199-3.178 24.412-10.275 24.993-25.159.794-20.322-22.495-35.508-38.293-43.794-2.454-1.287-18.853-8.02-19.408-8.833 4.732-1.314 24.088 8.74 28.908 11.259 19.869 10.386 44.419 37.513 22.926 58.822-4.91 4.868-11.425 6.808-17.942 8.782z"/><path fill="#f1bf7f" d="M515.987 510.897c3.567 1.242 4.807 1.255 8.298 1.802-5.181 17.42-4.45 21.191-18.941 33.883l-.622-.541c4.082-11.678 7.415-23.509 11.265-35.144"/><path fill="#f1bf7f" d="m492.969 261.062 1.044-.118c.237 14.098-.107 34.964.934 48.568 5.251 2.959 10.165 4.709 15.705 6.995l-3.85 3.47a598 598 0 0 1-16.424-6.211q.52-17.647 1.592-35.269c.222-3.787 1.146-14.298.999-17.435"/><defs><linearGradient id="c" x1="694.847" x2="689.028" y1="513.085" y2="507.471" gradientUnits="userSpaceOnUse"><stop offset="0" stop-color="#dea265"/><stop offset="1" stop-color="#fec281"/></linearGradient></defs><path fill="url(#c)" d="m727.328 480.024.592.101c.003.678-5.646 3.779-6.761 4.473-24.131 15.029-42.245 35.609-55.986 60.576l-.408.127c-.121-1.093.153-1.674.615-2.713 12.809-28.784 33.278-50.232 61.948-62.564"/><path fill="#d9a768" d="m383.54 614.479.589.761c-2.197 4.746-5.191 11.721-7.865 15.999-8.927 14.289-21.746 26.108-37.618 31.937a105 105 0 0 1-9.855 3.118l-1.302-1.094c23.892-3.665 47.435-29.084 56.051-50.721"/><path fill="#bf8e5c" d="M662.638 504.11c1.188.429 1.207.435 2.407.623-.086.69-.229 1.343-.38 2.022l-.189.991-.357 1.758-.678 3.488c-.383 1.827-.698 3.666-1.028 5.503l-.479 2.752c-.701 4.235-1.056 8.731-1.176 13.022-.002.084.075 1.733-.185 1.875-.145-.005-.088.019-.178-.061-1.611-4.586 1.214-26.34 2.243-31.973"/><path fill="#8a6844" d="M501.585 52.163c3.653-1.18 15.732-.767 19.928-.164 2.008.29 4.714.838 6.754 1.228l-1.518.046c-1.856.064-8.339.11-10.001-.257-2.826-.623-10.874.557-12.482.301-1.131-.733-1.359-.97-2.681-1.154"/><path fill="#8a6844" d="M605.769 240.876c-.045 6.484-2.713 26.69-5.035 32.752-.208-3.2 3.923-29.452 5.035-32.752"/><path fill="#bf8e5c" d="M516.497 352.612c4.397-.292 8.151.197 12.752-.669.933-.175 10.302-1.826 10.446-1.808l.106.092c.034 1.039-11.067 3.042-12.554 3.194-4.835.492-9.705 1.11-14.516.144.758-.051 3.492.046 3.907-.367.063-.241-.013-.268-.141-.586"/><path fill="#8a6844" d="M251.818 897.165c2.891.484 5.795 1.281 8.687 1.686 2.428.34 4.867.379 7.282.978-1.836 1.206-12.128-.626-14.295-1.111l-2.095-.451z"/><path fill="#8a6844" d="M738.831 899.311c-2.802.492-13.252 1.86-15.519.658l.001-.15c-.671.339 13.877-1.543 14.334-1.585z"/><path fill="#9c7748" d="M444.005 870.185c3.455-1.347 9.24-3.694 12.718-4.506l.083 1.153c-3.352 1.138-10.022 2.859-12.815 4.425z"/><path fill="#bf8e5c" d="M357.988 543.92c.969.772 7.414 6.448 6.383 7.911-.46.056-1.3-1.352-1.541-1.652-1.552-1.933-3.463-3.433-5.371-4.985z"/><path fill="#8a6844" d="M328.791 666.294c-3.483.609-6.315.907-9.884.691l-.148-.398-.419.229c-.111-.159-.09-.179-.043-.368-.096.059 8.36-1.115 9.192-1.248z"/><path fill="#4a331d" d="M432.114 875.862c2.978-1.736 8.63-5.05 11.891-5.677l-.014 1.072c-4.02 1.381-7.827 3.205-11.877 4.605"/><path fill="#705633" d="m383.54 614.479.267-.879c-.058.203 2.937-8.734 3.13-6.621.106 1.165-1.992 6.453-2.631 7.863l-.177.398z"/><path fill="#bf8e5c" d="M766.3 561.257c2.809 2.071 4.357 3.479 7.013 5.777a43 43 0 0 1-7.355-4.525z"/><path fill="#705633" d="M703.626 398.663c-.64 1.527-2.13 5.678-3.233 6.568l-1.607.789c1.356-2.54 3.164-5.019 4.84-7.357"/><path fill="#705633" d="M373.766 504.299c.25 1.092 1.361 5 1.003 5.888l-.093.026c-.516-.53-1.753-4.355-2.041-5.302z"/><path fill="#bf8e5c" d="M770.806 524.093c1.338.589 2.647 1.559 3.904 2.352l-.415.759c-1.398-.745-2.573-1.235-3.981-2.07z"/><path fill="#8a6844" d="M492.969 261.062c.02-.839.22-5.174.776-5.696l.045.021c.368.931.256 4.516.223 5.557z"/><path fill="#bf8e5c" d="M338.266 523.713c.48.368 2.596 1.762 2.328 2.477-.711.273-2.642-1.255-3.156-1.618z"/><path fill="#bf8e5c" d="m698.786 406.02 1.607-.789a28 28 0 0 1-1.638 3.394l-.861-.635a55 55 0 0 1 .892-1.97"/><path fill="#705633" d="M477.687 257.374c2.99 1.216 5.042 2.879.232 1.321z"/><path fill="#bf8e5c" d="M492.693 489.361c-.366-.214-2.174-1.044-2.288-1.547l.064-.08c.541-.224 2.542.399 3.115.526z"/><path fill="#bf8e5c" d="m611.362 209.033 1.048.415c-1.01 3.264-1.787 2.848-1.048-.415"/><path fill="#705633" d="M774.71 526.445c.346.193 2.195 1.118 1.976 1.806-.532.484-2.042-.764-2.391-1.047z"/><path fill="#9c7748" d="M492.242 437.918c.066-.494.037-.765.293-1.147l.078-.024c.15.25.052.597.025 1.112z"/></svg>