<svg xmlns="http://www.w3.org/2000/svg" width="1024" height="1024" viewBox="0 0 1024 1024"><path fill="#181716" d="M0 0h1024v1024H0z"/><path fill="#181716" d="M499.458 492.976c6.617 3.2 15.109 7.556 22.08 9.276l.002.998-.106 1.705c-1.143 2.23-2.114 7.361-2.721 10.041l-.982.341-1.242.798c-1.234-.804-1.551-.716-3.057-.677-.949 3.79-.97 3.582.916 6.976 1.123 1.106 6.435.558 8.03.453l1.005.306c-1.815 1.345-3.109 1.069-5.391.94.899 4.697 1.904 8.53 3.134 13.129 3.927-.815 7.788-1.782 11.787-1.904 5.372-.949 12.335-2.626 17.555-1.62-5.206 10.957-9.607 20.228-13.485 31.718l1.378-.095.703.118c3.316 8.103-3.729 31.501-5.034 40.907-.507 3.651-4.291 19.073-6.088 21.653l-.258 1.147c-1.058 2.05-7.181 9.202-7.042 8.535.16.272.905.747 1.155.98 2.421 2.253 3.316 6.388 3.253 9.551-.113 5.662-5.115 11.701-11.048 11.659-1.167-.008-2.538-.497-3.661-.807-9.564-4.848-8.517-11.233-5.684-20.022.873-2.711-5.143-3.144-4.537-10.517l.04-.435c-.261-.167-1.606-1.083-1.653-1.208-7.035-18.678-11.713-55.94-10.957-73.95 3.535-2.675 7.727-4.806 11.633-6.947l1.414-8.849c-.804-3.681.6-6.199 1.041-10.182-.907-.272-7.614 1.416-10.003 1.42-9.557.016-17.997-.575-27.61.213l-.457-.406 1.332-1.328c-16.219-.811-32.394-2.704-48.272-6.03-2.449-.513-4.368-.826-6.791-1.53-1.383-.403-5.461-2.077-6.509-2.176-6.176-.584-20.711 1.036-26.136-.509 2.683-.041 7.3.017 9.815-.256-20.923-1.291-45.231.375-66.35-.265-4.839-.146-20.177.348-23.986-.411l1.617-.749c8.548.217 17.409.192 25.966.07 30.44-.436 61.07.414 91.486-.123 18.149-2.183 74.192 1.014 86.119-4.186.472-1.594-2.458-8.552-1.951-12.491-.003-1.248-.737-3.308-1.122-4.613z"/><path fill="#a58e6a" d="M499.458 492.976c6.617 3.2 15.109 7.556 22.08 9.276l.002.998-.106 1.705c-1.143 2.23-2.114 7.361-2.721 10.041l-.982.341-1.242.798c-1.234-.804-1.551-.716-3.057-.677-.949 3.79-.97 3.582.916 6.976 1.123 1.106 6.435.558 8.03.453l1.005.306c-1.815 1.345-3.109 1.069-5.391.94.899 4.697 1.904 8.53 3.134 13.129 3.927-.815 7.788-1.782 11.787-1.904-1.417.989-1.657 1.395-3.27 1.786-10.89-.262-32.605 10.001-41.147 16.641.026 6.989 2.186 13.877 3.716 20.773a1385 1385 0 0 1 5.003 24.125c2.146 11.029 2.626 19.815 4.146 30.513 3.24-.564 5.728-.795 9.04-.775l-.313.957c1.344.177 2.632.424 3.97.632q.223-.837.463-1.669c1.938-.163 3.518-.258 5.469-.247 2.298.444 5.22.707 7.694 1.092-1.058 2.05-7.181 9.202-7.042 8.535.16.272.905.747 1.155.98 2.421 2.253 3.316 6.388 3.253 9.551-.113 5.662-5.115 11.701-11.048 11.659-1.167-.008-2.538-.497-3.661-.807-9.564-4.848-8.517-11.233-5.684-20.022.873-2.711-5.143-3.144-4.537-10.517l.04-.435c-.261-.167-1.606-1.083-1.653-1.208-7.035-18.678-11.713-55.94-10.957-73.95 3.535-2.675 7.727-4.806 11.633-6.947l1.414-8.849c-.804-3.681.6-6.199 1.041-10.182-.907-.272-7.614 1.416-10.003 1.42-9.557.016-17.997-.575-27.61.213l-.457-.406 1.332-1.328c-16.219-.811-32.394-2.704-48.272-6.03-2.449-.513-4.368-.826-6.791-1.53-1.383-.403-5.461-2.077-6.509-2.176-6.176-.584-20.711 1.036-26.136-.509 2.683-.041 7.3.017 9.815-.256-20.923-1.291-45.231.375-66.35-.265-4.839-.146-20.177.348-23.986-.411l1.617-.749c8.548.217 17.409.192 25.966.07 30.44-.436 61.07.414 91.486-.123 18.149-2.183 74.192 1.014 86.119-4.186.472-1.594-2.458-8.552-1.951-12.491-.003-1.248-.737-3.308-1.122-4.613z"/><path fill="#d6b382" d="M499.458 492.976c6.617 3.2 15.109 7.556 22.08 9.276l.002.998-.106 1.705c-1.143 2.23-2.114 7.361-2.721 10.041l-.982.341-1.242.798c-1.234-.804-1.551-.716-3.057-.677-.949 3.79-.97 3.582.916 6.976-1.702.013-3.214.357-4.823.186-1.683.527-7.516.303-9.598.28 1.169-1.174 2.527-2.415 3.588-3.64-13.306.055-25.613-1.473-38.801-1.945-14.922-.534-31.273-1.413-46.223-.724-10.231.189-21.062-.3-31.484-.199-20.923-1.291-45.231.375-66.35-.265-4.839-.146-20.177.348-23.986-.411l1.617-.749c8.548.217 17.409.192 25.966.07 30.44-.436 61.07.414 91.486-.123 18.149-2.183 74.192 1.014 86.119-4.186.472-1.594-2.458-8.552-1.951-12.491-.003-1.248-.737-3.308-1.122-4.613z"/><path fill="#181716" d="M500.465 494.543c2.981 1.453 7.279 3.614 10.326 4.816 1.366 3.976.473 10.545 1.219 15.602.713.139.765.186 1.422.497-.949 3.79-.97 3.582.916 6.976-1.702.013-3.214.357-4.823.186-1.683.527-7.516.303-9.598.28 1.169-1.174 2.527-2.415 3.588-3.64.25-.344 2.112-2.605 2.088-2.912l-.242.407c-.563-3.391-.483-3.373-1.278-6.769l-.521-2.243c-1.034-4.635-2.215-8.365-3.097-13.2"/><path fill="#f1d3a0" d="M509.702 515.169c.741-.022 1.561-.129 2.308-.208.713.139.765.186 1.422.497-.949 3.79-.97 3.582.916 6.976-1.702.013-3.214.357-4.823.186.012-1.889-.148-5.796.177-7.451"/><path fill="#ba9a69" d="M510.791 499.359c1.366 3.976.473 10.545 1.219 15.602-.747.079-1.567.186-2.308.208.87-5.106-.485-12.817 1.089-15.81"/><path fill="#534336" d="M499.908 498.237c1.48 5.139 3.379 11.364 4.611 16.508-28.23.027-60.986 1.123-88.779.169 18.149-2.183 74.192 1.014 86.119-4.186.472-1.594-2.458-8.552-1.951-12.491"/><path fill="#181716" d="M510.791 499.359c3.01 1.386 6.32 2.481 9.453 3.81-.822 3.932-1.851 8.225-2.513 12.168l-1.242.798c-1.234-.804-1.551-.716-3.057-.677-.657-.311-.709-.358-1.422-.497-.746-5.057.147-11.626-1.219-15.602"/><path fill="#534336" d="M387.007 516.392c10.422-.101 21.253.388 31.484.199 9.403.708 17.829.031 27.242 1.543 17.658 2.838 35.596 4.779 53.489 4.796-.208.001 3.66 1.418 4.139 1.537-.703 4.374-2.014 8.353-2.764 12.709-.804-3.681.6-6.199 1.041-10.182-.907-.272-7.614 1.416-10.003 1.42-9.557.016-17.997-.575-27.61.213l-.457-.406 1.332-1.328c-16.219-.811-32.394-2.704-48.272-6.03-2.449-.513-4.368-.826-6.791-1.53-1.383-.403-5.461-2.077-6.509-2.176-6.176-.584-20.711 1.036-26.136-.509 2.683-.041 7.3.017 9.815-.256"/><path fill="#181716" d="M519.99 628.094c2.298.444 5.22.707 7.694 1.092-1.058 2.05-7.181 9.202-7.042 8.535.16.272.905.747 1.155.98 2.421 2.253 3.316 6.388 3.253 9.551-.113 5.662-5.115 11.701-11.048 11.659-1.167-.008-2.538-.497-3.661-.807.802-1.188.852-1.801 2.282-1.94-7.424-1.275-9.171-4.982-8.383-12.659.215-2.091.933-5.192 2.745-6.449l.107-.515c.858-.033 1.267.03 2.127.122 3.526-.341 4.432-.833 7.282-3.001.376-.352.789-2.148 1.289-3.058-1.763.551-2.077.645-3.887.867l.603-.85c.162-.243.218-.542.157-.828l-.153-.649-.452-.134q.223-.837.463-1.669c1.938-.163 3.518-.258 5.469-.247"/><path fill="#fee5bb" d="M519.99 628.094c2.298.444 5.22.707 7.694 1.092-1.058 2.05-7.181 9.202-7.042 8.535.16.272.905.747 1.155.98 2.421 2.253 3.316 6.388 3.253 9.551-.113 5.662-5.115 11.701-11.048 11.659-1.167-.008-2.538-.497-3.661-.807.802-1.188.852-1.801 2.282-1.94 10.608-2.543 7.938-10.955 5.877-18.759-3.752.437-4.965.883-8.973.393l-.308-1.135c3.526-.341 4.432-.833 7.282-3.001.376-.352.789-2.148 1.289-3.058-1.763.551-2.077.645-3.887.867l.603-.85c.162-.243.218-.542.157-.828l-.153-.649-.452-.134q.223-.837.463-1.669c1.938-.163 3.518-.258 5.469-.247"/><path fill="#2c2216" d="M514.51 630.144c.798.144 3.513.343 3.825 1.125-.092.169-.201.169-.545.335-1.763.551-2.077.645-3.887.867l.603-.85c.162-.243.218-.542.157-.828z"/><path fill="#7e6e55" d="M507.092 637.541c.858-.033 1.267.03 2.127.122l.308 1.135a81 81 0 0 1-2.542-.742z"/><path fill="#181716" d="M507.092 637.541c-.91-.523-.9-.499-1.656-1.166-7.741-6.837-4.933-6.962 4.652-6.997 1.344.177 2.632.424 3.97.632l.452.134.153.649c.061.286.005.585-.157.828l-.603.85c1.81-.222 2.124-.316 3.887-.867-.5.91-.913 2.706-1.289 3.058-2.85 2.168-3.756 2.66-7.282 3.001-.86-.092-1.269-.155-2.127-.122"/><path fill="#d6b382" d="M513.903 632.471c1.81-.222 2.124-.316 3.887-.867-.5.91-.913 2.706-1.289 3.058-1.482-.706-6.433-1.087-6.247-1.856.724-.47 2.799-.341 3.649-.335"/><path fill="#181716" d="M490.979 572.514c3.745 17.775 7.337 33.885 8.814 52.039l-1.363.466c-3.923-13.811-8.713-37.474-8.938-51.857z"/><defs><linearGradient id="a" x1="506.471" x2="503.391" y1="542.272" y2="525.478" gradientUnits="userSpaceOnUse"><stop offset="0" stop-color="#2a2624"/><stop offset="1" stop-color="#41392e"/></linearGradient></defs><path fill="url(#a)" d="M507.922 524.009c.154.034.307.072.462.101.293.054.658.059.92.238 1.03.705.988 12.807 1.4 14.884.085.429.179.856.244 1.289-2.677 1.184-5.197 2.268-7.781 3.66-4.006 1.716-1.699-2.606-1.659-5.685.027-2.09 1.159-6.069 1.711-8.191l.479-1.795c1.125-3.94.559-3.475 4.224-4.501"/><path fill="#181716" d="M511.387 528.829c-.538-2.241-.976-4.523 1.547-4.699 4.809-.336 4.037.102 4.871 4.637.43 2.41 1.481 6.112 2.122 8.571-2.616.899-5.517 1.931-8.09 2.778-.246-3.827-.255-7.482-.45-11.287"/><path fill="#534336" d="M511.387 528.829c-.538-2.241-.976-4.523 1.547-4.699 4.809-.336 4.037.102 4.871 4.637l-2.017-.839c-1.476-.604-3.605-.765-4.401.901"/><path fill="#2c2216" d="M489.492 573.162c-.171-3.139-.266-5.173-.123-8.327.621 2.806 1.084 4.875 1.61 7.679z"/><path fill="#2c2216" d="m498.43 625.019 1.363-.466c0 .007.347 2.524-.545 2.284-.272-.073-.295-.512-.417-.694z"/><path fill="#fee5bb" d="M532.913 535.358c5.372-.949 12.335-2.626 17.555-1.62-5.206 10.957-9.607 20.228-13.485 31.718l1.378-.095.703.118c3.316 8.103-3.729 31.501-5.034 40.907-.507 3.651-4.291 19.073-6.088 21.653l-.258 1.147c-2.474-.385-5.396-.648-7.694-1.092l-.115-.808c.783-11.605 2.296-24.34 4.24-35.806 1.287-7.59 3.595-15.079 4.705-22.877-3.682 8.732-6.412 20.446-9.025 29.839l-1.9-.202c-.417-15.532 2.083-49.177 11.748-61.096 1.613-.391 1.853-.797 3.27-1.786"/><path fill="#181716" d="m536.983 565.456 1.378-.095c-5.424 10.561-9.455 36.365-12.025 48.678l-1.122.303c2.367-12.168 3.271-24.228 7.398-36.128 1.424-4.104 2.812-8.228 4.23-12.338z"/><path fill="#7e6e55" d="M526.336 614.039a59 59 0 0 1-.267 2.71c-.334 2.613-.712 5.287-1.056 7.917-.872-1.354-.131-8.498.201-10.324z"/><path fill="#9c8463" d="M519.875 627.286c3.042.274 4.976.618 8.067.753l-.258 1.147c-2.474-.385-5.396-.648-7.694-1.092z"/><path fill="#f1d3a0" d="M510.401 628.421a96 96 0 0 0 4.12-.08q-.24.832-.463 1.669c-1.338-.208-2.626-.455-3.97-.632z"/><path fill="#fbdcaa" d="m517.895 598.24 1.9.202c-.231.679-.94 3.634-1.467 3.846-.528-.258-.423-3.627-.433-4.048"/><path fill="#181716" d="M505.709 398.947c-3.793-8.34-5.713-18.322 4.62-22.757l.392.682c.548.979 1.572.892 2.682 1.52-3.478.13-5.189.445-7.859 2.964-2.247 2.121-1.359 4.211-1.688 6.51-.557 3.89 4.907 9.952 2.579 12.026-2.76 2.46-4.483 3.934-6.466 6.951 3.544.124 7.177.302 10.714.239.68-1.624-.591-.718-.903-1.33 1.439-1.803 1.14.121 2.138-1.637-5.662-1.538 6.704-.533 6.505-.553.578 1.172.157 1.406-.327 2.568.347 2.355.028 1.692-2.077 2.661q1.366-.13 2.73-.279c2.609-.448 5.469-.707 8.201-1.098.148.303.55.809.744 1.07 3.423 5.528 15.178 59.745 11.669 65.5l-.767.096-.587-.537-1.236.504a553 553 0 0 0 5.836 14.214c1.378 3.224 7.019 13.791 7.356 16.062-3.173 4.282-15.603.683-20.766.341-2.631-.169-5.1-.963-7.659-1.414l-.002-.998c-6.971-1.72-15.463-6.076-22.08-9.276l-.672.648c-2.962-1.667-10.479-5.599-12.32-7.869 1.595-26.656 5.328-57.847 14.561-83.037.196-.536 3.954-3.241 4.682-3.771"/><path fill="#fee5bb" d="M518.749 408.512c2.609-.448 5.469-.707 8.201-1.098.148.303.55.809.744 1.07 3.423 5.528 15.178 59.745 11.669 65.5l-.767.096-.587-.537-1.236.504a553 553 0 0 0 5.836 14.214c1.378 3.224 7.019 13.791 7.356 16.062-3.173 4.282-15.603.683-20.766.341l.118-1.603c-7.91-11.2-14.415-55.889-10.931-70.021 2.665 10.757 5.054 20.624 8.395 31.177l.968-.39a354 354 0 0 1-6.351-33.448c-.889-6.686-1.215-13.308-2.171-19.993-.291-.781-.32-1.044-.478-1.874"/><path fill="#181716" d="M525.411 419.017a394 394 0 0 0 12.598 54.526l-1.236.504c-5.746-16.027-9.779-35.889-11.84-52.767q.246-1.13.478-2.263"/><path fill="#a58e6a" d="M518.749 408.512c2.609-.448 5.469-.707 8.201-1.098.148.303.55.809.744 1.07-2.447.123-7.45-.155-8.467 1.902-.291-.781-.32-1.044-.478-1.874"/><path fill="#9c8463" d="M524.933 421.28c-.159-.707-1.107-5.3-.305-5.532.601.284.721 2.687.783 3.269q-.231 1.133-.478 2.263"/><path fill="#2c2216" d="M527.749 463.827c.203.664 1.007 2.689.472 3.27-.579-.403-1.167-2.206-1.44-2.88z"/><path fill="#9c8463" d="M505.709 398.947c-3.793-8.34-5.713-18.322 4.62-22.757l.392.682c.548.979 1.572.892 2.682 1.52-3.478.13-5.189.445-7.859 2.964-2.247 2.121-1.359 4.211-1.688 6.51-.557 3.89 4.907 9.952 2.579 12.026-2.76 2.46-4.483 3.934-6.466 6.951 3.544.124 7.177.302 10.714.239.68-1.624-.591-.718-.903-1.33 1.439-1.803 1.14.121 2.138-1.637-5.662-1.538 6.704-.533 6.505-.553.578 1.172.157 1.406-.327 2.568.347 2.355.028 1.692-2.077 2.661-4.268.655-10.919-.217-15.403-.678.81 4.185-.059 10.196-.529 14.491-1.531 13.99-4.779 27.596-7.958 41.281-1.748 7.524-3.963 14.567-4.911 22.299 3.521 1.846 9.131 4.611 12.24 6.792l-.672.648c-2.962-1.667-10.479-5.599-12.32-7.869 1.595-26.656 5.328-57.847 14.561-83.037.196-.536 3.954-3.241 4.682-3.771"/><path fill="#2c2216" d="M511.918 404.115c-5.662-1.538 6.704-.533 6.505-.553.578 1.172.157 1.406-.327 2.568-2.208.992-4.914.915-7.413.952.68-1.624-.591-.718-.903-1.33 1.439-1.803 1.14.121 2.138-1.637"/><path fill="#f1d3a0" d="M511.918 404.115c-5.662-1.538 6.704-.533 6.505-.553.578 1.172.157 1.406-.327 2.568-2.306-.981-3.758-1.455-6.178-2.015"/><path fill="#181716" d="m498.661 413.136.848.774c1.694 9.05-7.391 46.842-9.806 57.196l-.278-.259c-.763-1.605.283-8.687.538-10.782 1.926-15.784 3.724-31.771 8.698-46.929"/><path fill="#ba9a69" d="M521.538 502.252c2.986.641 4.687.874 7.779.809l-.118 1.603c-2.631-.169-5.1-.963-7.659-1.414z"/><path fill="#534336" d="M518.713 514.996c.607-2.68 1.578-7.811 2.721-10.041.849 3.305-1.294 3.835-.224 5.754 8.221.33 17.375.396 25.433 2.668 2.739.772 15.157.407 18.6.48 18.986.401 38.055-.502 57.014.476 5.634.291 13.731-.056 19 .57l89.919.176c5.901 1.937 38.612-.34 40.073 1.133l.023.189c-12.353-.454-27.806.02-40.366.038l-70.582.083c-2.162 1.727-28.005.307-32.562.608-5.533 1.664-8.746 3.522-14.63 4.821-6.074 1.34-17.198.663-22.526 2.253-8.426 2.514-14.456 1.253-22.081 2.739.548.854 3.613 1.632 4.881 2.072-2.617.656-6.986-.278-9.608.056-11.542 1.469-29.666-2.32-40.402.403-1.488-.763-1.553-.836-2.84-1.921l-.814.226c.523 3.227 1.64 4.769 2.206 7.797 3.721.98 23.226-4.644 28.076-2.946l.444 1.108c-5.22-1.006-12.183.671-17.555 1.62-3.999.122-7.86 1.089-11.787 1.904-1.23-4.599-2.235-8.432-3.134-13.129 2.282.129 3.576.405 5.391-.94l-1.005-.306c-1.595.105-6.907.653-8.03-.453-1.886-3.394-1.865-3.186-.916-6.976 1.506-.039 1.823-.127 3.057.677l1.242-.798z"/><path fill="#d6b382" d="M518.713 514.996c.607-2.68 1.578-7.811 2.721-10.041.849 3.305-1.294 3.835-.224 5.754 8.221.33 17.375.396 25.433 2.668 2.739.772 15.157.407 18.6.48 18.986.401 38.055-.502 57.014.476 5.634.291 13.731-.056 19 .57l89.919.176c5.901 1.937 38.612-.34 40.073 1.133l.023.189c-12.353-.454-27.806.02-40.366.038l-70.582.083c-4.238-.365-8.979-.15-13.274-.141-25.194.054-50.384.271-75.552 1.536-6.56.329-13.292 1.752-19.882 2.105-4.776.385-18.382.621-21.859 1.421.516 1.5.696 1.596 1.637 2.83-4.541-.163-4.412-3.167-8.011-1.08l-1.005-.306c-1.595.105-6.907.653-8.03-.453-1.886-3.394-1.865-3.186-.916-6.976 1.506-.039 1.823-.127 3.057.677l1.242-.798z"/><path fill="#534336" d="M518.713 514.996c.607-2.68 1.578-7.811 2.721-10.041.849 3.305-1.294 3.835-.224 5.754 8.221.33 17.375.396 25.433 2.668 2.739.772 15.157.407 18.6.48 18.986.401 38.055-.502 57.014.476 5.634.291 13.731-.056 19 .57-18.887.89-40.29-.486-59.383.006-6.875.177-14.818-.383-21.586.118-12.811-.296-28.776-.356-41.575-.031"/><path fill="#fee5bb" d="M518.713 514.996c12.799-.325 28.764-.265 41.575.031-4.302 1.012-18.869.114-21.286 1.309.986.6 10.558-.315 11.128.434-.893.811-28.239.38-30.821.38-.484 0-1.349-1.417-1.578-1.813z"/><path fill="#181716" d="M513.432 515.458c1.506-.039 1.823-.127 3.057.677 2.154 3.559 3.231 2.783 5.569 6.283l.32.469c-1.595.105-6.907.653-8.03-.453-1.886-3.394-1.865-3.186-.916-6.976"/><path fill="#fee5bb" d="M384.098 695.218c1.277 6.226 2.067 12.504 2.986 18.786 2.866-2.72 5.469-4.744 8.699-6.978-2.168 3.751-3.766 5.998-6.388 9.42 8.504.737 12.09 1.117 20.481 2.583-7.222 1.532-13.601 2.015-20.899 2.758 2.508 3.16 4.78 5.975 7.102 9.321-4.499-3.24-5.189-4.006-9.161-7.699-1.039 6.786-1.483 13.317-3.161 19.996-1.128-5.483-2.071-14.205-2.325-19.803-4.469 3.922-5.58 5.077-10.716 8.221 2.682-3.726 5.302-6.74 8.25-10.241-8.617-.111-11.515-.915-19.814-2.535 7.286-1.628 12.027-2.023 19.511-2.625.883-1.689.526-2.001 2.201-2.662 1.399-4.682 2.236-13.32 3.234-18.542"/><path fill="#fee5bb" d="M380.099 302.947c1.902-1.292 3.336-16.162 3.887-19.523.831 5.531 1.769 11.028 2.453 16.586.242 1.964-.19 2.079 1.543 2.455a97 97 0 0 1 1.516 2.62c.054.034 17.376 3.103 19.121 3.462-6.554 1.342-12.903 1.916-19.534 3.297 3.249 3.39 4.648 4.691 7.576 8.491-3.396-1.975-6.559-4.208-9.886-6.305-.737 6.117-1.414 12.37-2.326 18.446-2.221-7.331-2.729-11.569-3.059-19.246-3.863 3.481-5.015 4.243-9.292 7.123a254 254 0 0 1 6.546-9.203c-7.26-.223-13.439-1.413-20.553-2.686a284 284 0 0 1 14.911-2.769c1.605-.256 4.286-.25 6.067-.358-.042-1.339.089-1.391 1.03-2.39"/><path fill="#fee5bb" d="M642.006 693.763c.36 2.411 2.401 18.77 3.077 19.554.768.953 2.144 2.042 2.48 2.935 5.7.877 11.444.978 17.066 2.498l.058.418c-4.244 1.323-12.993 2.22-17.515 2.521 2.911 3.769 4.094 5.443 6.574 9.475-3.635-2.576-5.818-4.264-9.122-7.217-.451 6.467-1.742 12.821-2.48 19.288-1.713-6.673-2.318-12.802-2.937-19.643-3.347 2.323-6.532 5.271-10.016 7.83 3.119-5.19 3.914-5.267 7.341-9.813-6.976-.866-11.999-1.143-18.776-3.177 3.37-.52 16.322-1.841 18.446-2.841.919-1.359.901-1.928 2.55-1.69 1.376-6.69 1.982-13.408 3.254-20.138"/><path fill="#fee5bb" d="M637.518 302.968c2.203-1.393 1.28-3.196 1.659-5.963.608-4.443 1.2-8.276 2.333-12.621 1.048 6.337 1.6 12.508 2.409 18.85 1.84-1.536 3.278-2.831 5.205-4.377l.934 1.203c-1.261 1.73-2.411 3.521-3.611 5.293 7.077.527 12.587 1.706 19.522 3.194-5.293 1.147-14.979 1.473-19.182 3.007-.939 2.247-.996.794-2.669 2.006a116.5 116.5 0 0 1-2.627 18.325c-1.457-6.975-1.547-11.904-2.327-18.799-3.406 2.352-6.702 4.406-10.172 6.657 1.923-2.341 4.033-4.714 5.898-7.049l1.285-1.634c-6.925-.411-13.173-1.17-19.948-2.567 2.874-.749 5.581-1.409 8.53-1.902l4.236-.704c2.183-.374 5.663-.373 7.059-1.272.527-.663.82-1.117 1.466-1.647"/><path fill="#6c553e" d="m377.192 516.648-170.851-.202q-27.528.072-55.047-.641c-6.649-.128-16.191.371-22.349-.332 1.301-.332 10.979-.204 13.069-.206l31.486-.038 81.968-.308c13.768-.037 29.157-.402 42.82.046l-1.617.749c3.809.759 19.147.265 23.986.411 21.119.64 45.427-1.026 66.35.265-2.515.273-7.132.215-9.815.256"/><path fill="#fee5bb" d="M315.753 369.937c1.02 2.7 1.747 11.095 1.999 14.16 3.984-3.27 4.042-3.806 8.437-6.762-1.812 2.523-3.942 5.102-5.508 7.744l-.472.774c4.954.44 7.792.751 12.63 1.556a171 171 0 0 1-12.721 2.382c3 4.184 3.137 4.147 5.646 8.752-3.289-2.474-5.137-4.219-8.083-6.937-.31 3.893-.718 9.34-1.75 13.06-1.529-1.716-1.649-8.061-2.123-10.619l-.38-1.988c-3.501 2.95-4.35 3.564-8.228 5.906 2.339-3.626 3.212-4.912 6.234-8.087-4.533-.62-8.214-.862-12.615-2.262l-.455-.141 1.364-.242c3.858-.652 7.513-1.07 11.362-1.629-2.081-3.077-3.761-5.115-5.843-8.025 3.004 1.97 5.649 3.958 8.545 6.066.38-4.959.721-8.809 1.961-13.708"/><path fill="#fee5bb" d="M315.439 618.816c1.018 5.029 1.811 8.634 2.166 13.766 3.42-3.255 3.996-3.669 7.78-6.145-1.832 2.821-3.927 5.487-5.647 8.282 4.078.547 7.518 1.051 11.469 2.204-3.828.637-7.524 1.211-11.347 1.922 1.92 2.601 3.698 4.303 5.93 7.421-3.04-1.73-5.221-3.054-8.104-5.021-.399 4.808-1.124 9.315-2.097 14.033-.784-4.908-1.05-9.858-1.993-14.671-2.755 2.088-5.344 4.28-8.126 6.382 2.016-3.522 3.178-5.205 5.773-8.316-4.725-.414-8.315-1.317-12.969-2.249 4.647-.635 9.065-1.286 13.757-1.578-2.542-2.748-4.108-4.858-6.116-7.964 3.481 1.888 4.653 2.42 7.865 4.999.59-4.394 1.044-8.65 1.659-13.065"/><path fill="#f1d3a0" d="M305.915 626.882c3.481 1.888 4.653 2.42 7.865 4.999-1.71.323-1.925 1.283-1.749 2.965-2.542-2.748-4.108-4.858-6.116-7.964"/><path fill="#fee5bb" d="M706.075 382.935c-.049.007 1.165-.092 1.21-.311.893-4.38 1.371-8.948 2.202-13.359l2.228 14.04a190 190 0 0 1 8.155-5.943c-1.871 2.696-4.058 5.624-6.033 8.269 4.613.547 9.27 1.176 13.885 1.762-4.763 1.225-8.797 2.163-13.692 2.858 2.205 2.663 3.906 4.517 6.056 7.31-4.177-1.943-5.009-2.918-8.732-5.65-.403 6.059-.445 7.455-1.836 13.478-.77-4.18-1.547-8.429-2.206-12.626l-.122-.74c-2.772 2.208-4.653 3.579-7.565 5.548 1.868-2.903 3.572-5.182 5.582-7.982-4.556-.199-4.439-.13-8.915-.9l1.496-2.191c2.414-.045 4.816-.433 7.149-1.046.031-1.449.065-1.467 1.138-2.517"/><path fill="#fee5bb" d="M707.158 632.088c.666-2.975 1.348-5.755 1.53-8.816.018-.302.408-3.821 1.077-3.841.344.295 1.979 11.153 2.332 12.762 2.552-1.917 5.025-3.94 7.598-5.878-2.322 4.013-3.059 5.011-6.066 8.533 5.03.248 8.212.561 13.117 1.677-4.275.693-9.059 1.256-13.228 2.234-.134 1.57-.264 1.611-1.583 2.438-.668 2.18-.981 5.003-1.342 7.308l-1.084 7.119c-.393-2.206-1.408-13.454-2.716-14.27-1.033-.936-1.232-1.082-2.018-2.195-1.181-1.611-7.844-1.52-10.767-2.098l-2.879-.546c4.552-.731 9.015-1.276 13.536-2.194-1.897-2.766-3.483-5.08-5.142-7.984 2.729 1.797 5.098 3.7 7.635 5.751"/><path fill="#fee5bb" d="M512.013 818.374c.657 4.156.969 10.079 1.913 13.931 1.159-.583 5.163-3.597 5.74-2.955.037.444-.166.618-.404 1.114 1.032 1.774.803 2.226 1.1 4.345 2.969.518 4.556.835 7.352 1.72l-6.46 1.081c-1.984.349-3.599.629-5.555 1.159-.185 1.344-.249 1.312-1.464 1.915-1.001 3.923-1.238 7.935-1.932 11.947-.966-4.233-1.426-8.015-2.052-12.286q-3.45 2.822-6.959 5.57c1.433-2.289 3.132-4.656 4.453-6.963l.429-.732c-3.15-.51-6.284-1.109-9.453-1.492l.32-1.151c3.132-.747 6.315-1.097 9.51-1.448l.527-1.797c.056-.019 1.136-.339 1.15-.457.384-3.315.545-6.611 1.149-9.96z"/><path fill="#f1d3a0" d="M513.926 832.305c1.159-.583 5.163-3.597 5.74-2.955.037.444-.166.618-.404 1.114 1.032 1.774.803 2.226 1.1 4.345a201 201 0 0 0-4.569-.631c-.113-1.172-.127-1.32-1.298-1.684z"/><path fill="#181716" d="M519.262 830.464c1.032 1.774.803 2.226 1.1 4.345a201 201 0 0 0-4.569-.631c1.581-1.423 2.135-2.034 3.469-3.714"/><path fill="#fee5bb" d="M509.749 184.311c.702-.593 2.017-9.142 2.644-11.237.343 2.735.436 9.463 2.619 10.944.674-.891 7.086-7.334 4.278-2.361.841 1.924.685 3.476 1.086 5.483l.355.237c-.816 1.375.029 1.396 1.324 2.365-1.884.367-3.797.698-5.667 1.111-.76 1.028-.788.926-2.04 1.421-.871 3.467-1.343 6.94-2.121 10.435l-.476.067a241 241 0 0 1-1.486-10.778c-2.299 1.83-4.489 3.823-6.814 5.721 1.701-3.01 2.407-3.886 4.286-6.637l.235-.348c-3.749-.609-7.276-1.404-10.969-2.213 3.698-.914 7.189-1.755 10.982-2.25.73-.955.87-1.096 1.764-1.96"/><path fill="#181716" d="M515.012 184.018c.674-.891 7.086-7.334 4.278-2.361.841 1.924.685 3.476 1.086 5.483-1.556-.138-2.456-.244-3.991-.528-.25-1.508-.249-1.454-1.373-2.594"/><path fill="#f1d3a0" d="M515.012 184.018c.674-.891 7.086-7.334 4.278-2.361-1.205 1.757-2.016 3.012-2.905 4.955-.25-1.508-.249-1.454-1.373-2.594"/><path fill="#fee5bb" d="M764.662 586.079c.977-4.362 1.487-8.738 2.425-13.12l.967 9.29c.113 1.121.399 2.193.645 3.287 1.262 1.33 1.046 1.356 1.686 2.932 4.351.426 8.218.353 12.319 1.56a626 626 0 0 1-11.875 1.727 69 69 0 0 1 4.541 6.869c-2.244-1.695-4.349-3.365-6.656-4.98-.363 4.807-.932 7.278-1.705 12.011-.559-4.219-1.325-8.331-1.766-12.55-3.196 2.909-3.725 3.395-7.458 5.933 1.95-2.925 3.323-4.688 5.556-7.344-4.289-.726-8.314-1.04-12.621-1.618 4.03-.76 8.415-1.202 12.322-2.087-1.004-1.601-2.166-3.184-3.117-4.766l-1.593-2.666c2.671 2.101 3.936 3.466 6.33 5.522"/><path fill="#f1d3a0" d="M758.332 580.557c2.671 2.101 3.936 3.466 6.33 5.522-1.751-.545-1.951.415-1.62 1.91-1.004-1.601-2.166-3.184-3.117-4.766z"/><path fill="#fee5bb" d="M258.442 576.07c.462 3.212 1.05 6.592 1.707 9.771l6.074-5.505-1.078 2.291c-.882 1.861-1.989 3.609-2.929 5.44a97 97 0 0 0 7.864 1.494l.216.934c-2.672.046-6.034.264-8.542 1.244 1.248 2.355 3.573 4.871 5.298 7.174-.788-.549-6.903-5.188-6.96-5.188l-.402.255c-.261 3.681-.872 5.036-1.51 8.55l.03.495-.031.621-.487-.521c-.928-3.156-.815-8.358-1.989-9.578-.927-.908-1.032-.933-1.64-1.977-1.355-.627-7.184-.783-10.469-1.941l-.864-.3c4.336-.292 7.115-.59 11.362-.994a82 82 0 0 1-1.79-2.446c-1.163-1.677-2.407-3.246-3.59-4.911a87 87 0 0 1 5.189 3.315c.882.611.99.892 1.928 1.043.664-2.938 1.521-5.902 1.616-8.927z"/><path fill="#f1d3a0" d="M248.712 580.978a87 87 0 0 1 5.189 3.315c.882.611.99.892 1.928 1.043-.55 1.01-1.051 2.096-1.737 2.999a82 82 0 0 1-1.79-2.446c-1.163-1.677-2.407-3.246-3.59-4.911"/><path fill="#fbdcaa" d="M259.69 593.98c.107-2.505 1.621.493 2.064-2.241 1.248 2.355 3.573 4.871 5.298 7.174-.788-.549-6.903-5.188-6.96-5.188z"/><path fill="#b6a687" d="m258.18 602.53.03.495-.031.621-.487-.521c.158-.289.195-.279.488-.595"/><path fill="#fee5bb" d="M764.633 433.46c1.111-.415 1.194-3.699 1.345-4.961q.379-3.107.86-6.2c.86 3.46 1.484 6.309 2.126 9.803l.169.884c1.038.711 1.21.997 2.063 1.972.94.991 9.488 1.63 11.957 1.987-4.39.807-8.083 1.372-12.551 1.744 2.131 2.463 3.394 3.999 5.35 6.593-3.052-1.693-4.25-2.584-7.176-4.55-.699 4.667-1.19 8.062-1.708 12.743-.825-4.64-1.381-7.957-1.688-12.647a321 321 0 0 0-6.314 4.307c1.228-2.146 2.39-4.302 3.639-6.443-6.561-.519-4.01.005-10.785-1.75l1.463-.307c1.548-.341 8.814-1.1 9.395-1.745.553-.443 1.269-1.06 1.855-1.43"/><path fill="#fee5bb" d="m257.532 425.948.627-.133.474 1.648a28 28 0 0 1 .856 4.318c.093.753.095.974.733 1.376 1.492.549 1.436.307 1.793 1.828 1.306 1.793 8.379 1.663 11.041 1.971-3.898.92-7.5 1.54-11.426 2.277 1.569 1.996 3.083 4.273 4.554 6.356-3.047-1.865-3.1-1.894-5.888-4.148-.856 2.423-1.519 8.923-2.009 11.903-1.02-4.644-1.618-7.865-1.943-12.594-2.682 1.969-4.47 3.198-7.301 4.983 1.836-2.706 3.353-4.365 5.095-6.814-4.276-.638-8.239-1.231-12.508-2.015 1.331-.185 11.634-1.427 12.045-1.909.956-1.361.828-1.621 2.346-2.17.637-2.264.837-4.622 1.511-6.877"/><path fill="#fbdcaa" d="M260.296 441.441c1.076-.789 1.265-.875 1.334-2.208 1.569 1.996 3.083 4.273 4.554 6.356-3.047-1.865-3.1-1.894-5.888-4.148"/><path fill="#6c553e" d="M731.176 515.079c14.918-.868 129.803.937 131.681.09 3.875 1.197 12.772.263 17.652.744-10.731-.513-22.689.206-33.509.39q-24.621.29-49.245.26c-5.266.014-22.252.436-26.483-.162l-.023-.189c-1.461-1.473-34.172.804-40.073-1.133"/><path fill="#fee5bb" d="M510.329 376.19c11.088-3.713 18.486 9.941 12.894 19.158-1.272 2.097-3.674 4.189-3.328-.098.73-9.022 1.136-12.409-6.492-16.858-1.11-.628-2.134-.541-2.682-1.52z"/><path fill="#fee5bb" d="M557 247.554c2.298.522.629-5.456 2.212-6.361 1.35.547-.26 4.593 1.856 6.303a222 222 0 0 1 3.885-3.625c-.973 2.173-1.759 3.636-2.812 5.736 2.874.883 2.647.817 5.777.989l.907.785c-2.443.442-4.682.774-7.118 1.309 1.484 2.19 3.033 4.151 4.616 6.263-3.549-2.83-6.019-6.973-6.427-1.44.046.756.318 3.297-.216 3.866a.29.29 0 0 1-.28.086c-.535-.124-.656-1.847-.715-2.206-.214-1.964-.088-3.341-1.302-4.847-.355-.224-1.089-.66-1.418-.949-1.138-1.689-6.033-1.967-8.202-2.442l6.252-.996c1.046-.165 1.032-.057 1.958-.508.347-.711.608-1.289 1.027-1.963"/><path fill="#f1d3a0" d="M561.068 247.496a222 222 0 0 1 3.885-3.625c-.973 2.173-1.759 3.636-2.812 5.736.02-.81.139-1.33-.59-1.788z"/><path fill="#b6a687" d="M559.896 257.513c.046.756.318 3.297-.216 3.866a.29.29 0 0 1-.28.086c-.535-.124-.656-1.847-.715-2.206.76-.228.751-.514.992-1.23z"/><path fill="#fee5bb" d="M465.057 238.877c.281 2.067.345 8.031 1.9 8.823l1.369.934c.21 1.783.789 1.443 2.581 1.936l.61 1.319c-1.793.434-2.634.119-2.996 1.838-.683.167-1.343.294-2.033.433-.474.985-.589 6.985-.715 8.736-.696-2.474-1.122-8.032-3.219-8.355-.183-.62-.43-1.374-.541-1.992-2.794-.563-5.781-.943-8.653-1.457 2.431-.37 6.781-.207 8.114-2.138.639-.575.719-.799 1.49-.985 1.338-1.049 1.669-6.682 2.093-9.092"/><path fill="#fee5bb" d="M518.423 403.562c-2.468-1.999-3.031-3.088-6.411-4.609-4.57-2.057 8.15-1.49 9.354 1.2.308.688 7.015 5.044 5.584 7.261-2.732.391-5.592.65-8.201 1.098q-1.364.149-2.73.279c2.105-.969 2.424-.306 2.077-2.661.484-1.162.905-1.396.327-2.568"/><path fill="#fee5bb" d="M465.951 770.582c1.623.184 4.662-3.188 6.015-4.361-1.612 2.314-3.198 4.391-4.867 6.652 2.923.176 5.17.296 8.086.64-2.017.586-7.839 1.001-7.562 2.943-.566.139-1.061.244-1.629.361-.513 2.792-.55 3.532-.447 6.373l-.966-.231c-.329-2.025-.609-3.946-1.206-5.898-1.86 1.21-3.777 3.081-5.649 4.561 1.129-1.794 2.976-4.376 3.898-6.014-2.061-.82-5.376-.503-6.218-1.271-1.393-1.272 5.478-.826 6.022-2.2.405-.365 1.074-1.02 1.518-1.285l.605.004c1.045-.186 1.36-.235 2.4-.274"/><path fill="#f1d3a0" d="M461.624 775.608c.501 1.388.295 1.657 1.751 1.453-1.86 1.21-3.777 3.081-5.649 4.561 1.129-1.794 2.976-4.376 3.898-6.014"/><path fill="#fbdcaa" d="M419.058 370.792c.235 1.071 1.087 5.824 1.588 6.875.224.471 1.922-.736 2.597-.953.398.511-.401 1.647-.754 2.033-2.23 2.442 5.402 2.931 2.022 4.074-.623.21-2.88-.234-3.563.684-.818 1.71-1.269 4.132-1.823 6.058-.575-2.538-.629-5.278-2.43-6.863-1.009.119-6.075 1.485-3.997-.658l.89-.467c4.639-2.152.54-2.449.104-4.631-.275-1.38 2.827.777 3.017.3.813-2.111 1.515-4.299 2.349-6.452"/><path fill="#f1d3a0" d="M416.695 382.7c-1.009.119-6.075 1.485-3.997-.658 1.454.19 2.556.369 3.997.658"/><path fill="#fee5bb" d="M605.336 372.928c1.145 1.443.824 3.165 1.952 4.456.122.311 2.766-.972 2.62-.165-.536 2.96-3.205 2.275.572 4.764 3.04 2.003-1.78 1.252-2.225 1.227-2.923-.166-1.525 4.178-3.379 5.931q-.758-2.866-1.52-5.731c-.974-.122-5.35-.037-5.269-.945.797-.812 2.794-.836 3.684-1.286 1.645-.832-1.368-2.486-1.67-3.641.142-.507.728-.592 1.118-.321 2.712 1.883 3.384-2.518 4.117-4.289"/><path fill="#fee5bb" d="m419.113 633.912.425 1.834c.377 1.598.805 3.175 1.177 4.785l.074.312c5.252.074 6.549-.078 1.375 2.822.288.525 1.097 1.788 1.163 2.367.143 1.267-2.764-.084-3.044.451-.981 1.878-.914 5.134-1.218 7.398-.452-2.296-.769-5.723-1.706-7.676-.334-.697-2.93.619-3.379.073-.021-.639 1.552-2.117 1.991-2.604-.715-.412-3.487-1.955-3.537-2.85.734-.762 3.305-.14 4.257.038 1.214-1.847 1.833-4.756 2.422-6.95"/><path fill="#fbdcaa" d="M420.789 640.843c5.252.074 6.549-.078 1.375 2.822a71 71 0 0 0-1.375-2.822"/><path fill="#f1d3a0" d="M415.971 643.674c-.715-.412-3.487-1.955-3.537-2.85.734-.762 3.305-.14 4.257.038-.374 1.175-.82 1.608-.72 2.812"/><path fill="#fee5bb" d="M605.063 635.269c.593 1.973 1.012 3.935 1.812 5.815 5.138-.407 7.067-.751.844 2.541.322.418 2.396 2.777 1.827 3.271-.839.104-1.664-.437-2.29-.387-1.716.137-1.118 3.832-1.969 4.788-1.66-.275.007-5.829-3.023-4.715-3.07 1.129-.744-1.363-.271-2.09.699-1.072-3.278-1.557-3.387-2.312-.088-1.005 3.879-.438 4.533-1.562.928-1.593 1.393-3.677 1.924-5.349"/><path fill="#fbdcaa" d="M606.875 641.084c5.138-.407 7.067-.751.844 2.541-.191-1.362-.212-1.343-.844-2.541"/><path fill="#fee5bb" d="M558.333 771.014c.73-.205 1.417-.376 2.152-.559l.235.523c.903.732.953.765 1.679 1.621 1.574.383 2.133.393 3.779.508 2.337-.207 4.386.423.731 1.182-1.965.281-3.707.103-4.883 1.715l-1.072 1.272-1.225-.368c.187 1.054.868 6.567-.436 6.814-.127-.175-.209-.228-.348-.569-.495-2.805.578-5.908-1.878-5.928l-.629-1.249c-1.281-1.781-7.055-1.626-9.636-2.014 2.527-.287 9.633.199 9.035-2.845.213-.25.515-.665.812-.865z"/><path fill="#fee5bb" d="M558.945 783.153c.072-.895.057-6.041.422-6.323l.362.078c.187 1.054.868 6.567-.436 6.814-.127-.175-.209-.228-.348-.569"/><path fill="#f1d3a0" d="M566.178 773.107c2.337-.207 4.386.423.731 1.182-.267-.497-.363-.762-.731-1.182"/><path fill="#fee5bb" d="M463.514 677.27c3.399 5.301-.331 3.495 6.679 6.649-4.336 2.246-4.521 1.607-6.676 6.006-2.201-4.055-1.636-3.901-6.189-5.675-.203-.079-.275-.241-.321-.432 5.039-3.225 3.419.481 6.507-6.548"/><path fill="#fee5bb" d="M560.154 677.735c1.5 1.273 1.802 2.797 2.855 4.714.716.33 3.12 1.129 3.654 1.725.308.581-.943.832-1.156.835-3.059.054-3.73 2.13-4.6 4.316-.554 1.163-.951.359-1.007-.267-.329-3.671-4.039-3.739-5.057-5.07-.022-.412 1.736-.95 2.295-1.332 1.685-1.151 2.273-3.101 3.016-4.921"/><path fill="#fee5bb" d="M560.313 333.358c1.222 1.203.908 2.335 2.502 3.445.875.61 3.164 1.129 3.247 1.725-1.93 2.607-2.855-.937-5.431 6.127-.304-.296-1.104-1.17-1.05-1.429.429-2.066-4.577-4.602-4.62-4.774 1.106-1.528 2.625-.33 5.352-5.094"/><path fill="#fee5bb" d="M463.599 332.979c.915 1.934 1.536 3.638 3.661 4.459.458.177 1.968.616 1.859 1.27-.867 1.068-3.667 1.097-4.118 3.026-.268 1.149-.75 2.498-1.188 3.599l-.513-1.273c-.534-1.714-1.236-3.755-3.091-4.423-.376-.172-1.719-.431-1.991-.93-.285-.524 1.728-.98 2.068-1.124 2.185-.926 2.639-2.584 3.313-4.604"/><path fill="#fee5bb" d="M394.38 810.469c1.126-4.811 1.047-4.118 2.254-.047.848.767 1.471 1.116 2.421 1.811.91.667-3.661 2.774-2.971 4.531-.011-.028-.129 1.294-.597 1.283-.876-.554-.298-4.167-2.535-4.371-.293-.027-2.098-.65-1.867-1.337.975-.762 1.73-.155 3.295-1.87"/><path fill="#fee5bb" d="M394.38 810.469c1.126-4.811 1.047-4.118 2.254-.047-1.124 1.051-1.015.982-2.254.047"/><path fill="#fee5bb" d="M628.747 207.241c-.035-.087.391 1.183.42 1.068-.404 1.595 3.568 4.098 3.633 4.434-3.765 2.544-2.48 1.394-4.097 5.868-.974-1.809-.351-3.883-2.433-4.874-.425-.202-1.496-.696-1.843-1.005 3.943-2.371 2.908-.943 4.32-5.491"/><path fill="#2c2216" d="M862.857 515.169c2.836-.345 33.247-.358 34.388.562-2.193.483-14.483.736-16.736.182-4.88-.481-13.777.453-17.652-.744"/><path fill="#fee5bb" d="M395.307 208.356c1.462 1.443 1.436 3.355 3.88 3.859.184.038.647.313.738.529-.54 1.19-2.906-.062-3.984 3.803l-.394 1.449c-2.344-3.267.674-1.975-4.218-5.265l.086-.225.485-.211-.401.148c2.552-1.241 2.336-1.513 3.808-4.087"/><path fill="#fee5bb" d="M628.079 816.01c-.665-2.901-2.31-2.026-2.949-3.221.073-.433.876-.967 1.192-1.097 1.435-.594 1.744-3.915 2.363-4.311.78.035.998 4.807 3.323 4.641.2-.014.864.432 1.047.71-2.232 1.935-3.168.153-3.766 4.038z"/><path fill="#fee5bb" d="M275.693 287.648c1.375 1.223 2.693 2.48 4.09 3.702-2.249 1.901-1.878 1.157-3.881 3.861-.395-.51-3.542-4.079-3.512-3.963.093-.255 2.32-2.175 3.303-3.6"/><path fill="#fee5bb" d="M747.91 287.701c1.129.874 2.596 2.403 3.817 3.428-1.347 1.289-2.33 2.278-3.572 3.697-.785-.665-2.675-3.072-3.507-4.019.631-.759 2.279-1.972 3.262-3.106"/><path fill="#fee5bb" d="M275.789 730.792c1.263.976 2.314 2.468 3.434 3.716-1.404 1.626-1.936 2.294-3.2 4.099l-.277-.451c-.546-.901-1.037-1.86-1.899-2.508.077.11-1.274-.879-1.07-1.127.664-.807 2.454-2.96 3.012-3.729"/><path fill="#fee5bb" d="M747.929 730.894c.688.667 2.65 2.642 3.242 3.325.109.123.16.287.138.45-.02.159-2.896 2.774-3.36 3.297-4.771-4.986-3.859-2.192-.02-7.072"/><path fill="#fee5bb" d="M246.597 338.416c.503.205 3.231 2.995 3.138 3.317-.27.932-2.132 2.371-2.91 3.16-1.222-.056-.948-.682-1.857-1.352-2.834-2.09-.405-2.924 1.629-5.125"/><path fill="#fbdcaa" d="M645.083 713.317c3.5-2.58 4.998-3.984 9.004-6.327-2.101 3.09-4.545 6.271-6.524 9.262-.336-.893-1.712-1.982-2.48-2.935"/><path fill="#fbdcaa" d="M776.649 677.032c1.319 1.959 1.776 2.479 3.336 4.23a48 48 0 0 0-3.164 3.316c-.664-.814-1.113-1.606-1.874-2.308.073.06-1.332-1.05-1.204-1.301.494-.969 2.276-2.911 2.906-3.937"/><path fill="#fee5bb" d="M246.897 676.962c.707.774 1.089 2.249 1.872 2.72 2.101 1.264-.778 3.011-2.206 4.877-.917-1.815-1.496-2.74-3.279-3.843-.311-.192.271-.614.411-.681 1.432-.678 2.288-1.841 3.202-3.073"/><path fill="#fee5bb" d="M777.276 338.381c5.156 5.038 2.989 2.21-.112 7.176l-.385-.601c-.356-.706-.846-1.286-1.421-1.825-.066-.038-1.328-1-1.133-1.33.477-.807 2.523-2.808 3.051-3.42"/><path fill="#f1d3a0" d="M719.976 461.562c1.019.988.436 2.451 2.072 2.749.479.088 1.671.155 1.692.857-1.501 2.206-2.839-2.256-3.31 5.07-1.596-1.298-.796-1.884-1.579-3.751-.347-.826-2.663-.793-2.982-1.427 2.182-1.599 2.327 1.581 4.107-3.498"/><path fill="#fee5bb" d="M340.61 269.546c.258.219.73.623.793.956.341 1.813 1.925 1.889 2.801 2.879.066.348-.881.517-1.196.657-1.069.476-1.423 2.02-1.903 3.073-1.242.703-.127-3.017-2.114-3.005-.201.002-1.278-.139-1.451-.493a.46.46 0 0 1-.02-.353c.474-1.306 1.71.482 3.09-3.714"/><path fill="#f1d3a0" d="M303.601 556.301c.845 1.196.718 1.543 1.152 2.871.283.864 2.545.473 2.98 1.288l-.111.21c-3.066 1.727-2.432-1.344-3.422 3.963-1.703-1.68-.32-3.646-3.202-3.74-.258-.009-.557-.466-.659-.675l.121-.278c2.707-1.899 1.783 1.662 3.141-3.639"/><path fill="#fbdcaa" d="M337.6 435.351c1.328 2.096.61 3.957 3.169 3.89.326-.009.698.301.882.564-.333.886-1.874.902-2.637 1.214-.569.233-1.175 1.799-1.497 2.367-.249-.217-.534-.511-.495-.883.234-2.228-1.867-1.596-2.664-2.735l.021-.072c3.287-1.613 1.943 1.129 3.221-4.345"/><path fill="#f1d3a0" d="M629.306 706.715c3.28 2.276 6.344 4.674 9.446 7.186-1.649-.238-1.631.331-2.55 1.69-1.733-2.535-4.389-5.128-6.896-8.876"/><path fill="#f1d3a0" d="M487.012 301.231c.785 1.565.797 3.2 2.262 3.625.384.111 1.532.255 1.525.755-1.598 1.717-2.019-1.73-3.196 3.978-1.087-1.144-.668-2.732-2.34-3.328-.424-.15-1.399-.362-1.285-.967 1.836-2.199 1.523 1.422 3.034-4.063"/><path fill="#f1d3a0" d="M719.912 556.605c.393.872.585 1.881.828 2.612.198.593 2.83.491 3.299 1.197l-.06.274c-3.221 1.616-2.814-1.728-3.849 3.895-.352-.379-.788-.99-.869-1.492-.481-2.946-1.603-1.494-3.157-2.414-.078-.397.597-.625.922-.656 1.925-.182 2.274-1.801 2.886-3.416"/><path fill="#fee5bb" d="M304.25 461.405c.707 1.566.424 2.77 1.758 3.227.543.187 1.587.423 1.603 1.061-3.265 2.012-1.384-1.942-3.266 4.676a28 28 0 0 1-1.098-3.148c-.316-1.127-2.19-1.2-2.395-1.529.024-.071 2.098-1.15 3.398-4.287"/><path fill="#fee5bb" d="m337.619 580.352.14.328c.432.989.613 1.878 1.034 2.823.402.899 2.503.556 2.792 1.201-1.178 1.454-2.268-.979-3.732 3.651-.131.352-.068.272-.168.362-.654-.861-.399-2.486-1.494-3.049-.357-.183-1.18-.349-1.393-.783-.361-.738.992-.784 1.367-1.089 1.009-.693 1.139-2.346 1.454-3.444"/><path fill="#fee5bb" d="M686.406 436.032c.399.701.594 1.403.76 2.191.216 1.027 2.394.937 2.589 1.627-1.144 1.711-1.268-1.224-3.381 4.304-.551-1.679-.416-3.001-2.176-3.496-.23-.065-1.531-.517-1.397-.975 2.086-1.85 1.305 1.546 3.605-3.651"/><path fill="#f1d3a0" d="M368.183 405.363c1.918 7.487 1.757 2.446 3.564 4.782.009 1.07-2.277-.043-3.727 3.002-.148.309-.184.466-.325.549l-.047-.014c-.522-.854.248-2.347-1.4-2.543-.463-.055-1.315-.106-1.463-.643.503-1.042 2.625-.753 2.673-2.202.035-1.051.361-1.952.725-2.931"/><path fill="#f1d3a0" d="M371.801 706.816c3.265 2.289 5.262 3.883 8.269 6.315l.794.629c-1.675.661-1.318.973-2.201 2.662z"/><path fill="#fbdcaa" d="M371.89 296.435c3.188 2.082 5.712 3.513 8.209 6.512-.941.999-1.072 1.051-1.03 2.39-3.757-4.097-3.858-4.227-7.179-8.902"/><path fill="#fee5bb" d="M644.118 313.56c1.673-1.212 1.73.241 2.669-2.006 2.07 2.91 4.017 5.185 6.245 8.437-1.328-.886-8.528-6.331-8.914-6.431"/><path fill="#f1d3a0" d="M655.66 610.335c.482.927.724 1.589 1.03 2.559.177.561 2.536-.041 2.752.903l-.079-.121c-1.738 2.197-1.814-1.29-3.223 4.114-.868-.428-.984-1.101-1.118-2.053-.169-1.194-3.097-1.204-2.919-1.993 1.952-1.616 1.895 1.644 3.557-3.409"/><path fill="#f1d3a0" d="M686.377 580.446c1.083 1.553.002 3.432 1.634 3.579 1.23.112 2.998 1.094.735 1.207-2.301.116-1.613 1.544-2.115 3.556-2.065-4.778-2.532-2.133-4.189-4.022.905-1.598 1.941 1.782 3.935-4.32"/><path fill="#fee5bb" d="M536.431 716.518c.386.798.622 2.418.83 2.553 1.844 1.192 4.724.866.16 2.172-.352.101-.808 2.027-1.037 2.743-.851-.796-.693-1.082-1.034-2.188-.304-.989-1.716-.622-2.352-1.288l.007-.159c1.414-1.783 1.129.632 3.426-3.833"/><path fill="#fee5bb" d="M683.071 749.338c.41.153.547.364.679.772l.33.885c.228.775 2.5.732 2.612 1.277.195.952-2.447.563-2.814 1.727-.014.047-.607.998-.64 1.052l-.131.653-.053-.011c-.697-.796-.34-2.616-1.81-2.625a2.3 2.3 0 0 1-1.176-.347c-.048-.86 1.91-1.108 2.585-2.506z"/><path fill="#fee5bb" d="M340.691 748.36c1.073 1.491.411 2.979 1.967 3.412 2.774.771.016 1.174-.68 1.705-.663.505-.646 2.545-.796 3.427-.66-1.167-1.003-3.075-1.95-3.602-.377-.21-1.491-.458-1.511-1.008 1.186-1.834 1.01 1.709 2.97-3.934"/><path fill="#fee5bb" d="M487.56 716.727c.768.808.404 2.371 1.73 2.706 1.273.322 1.383.909.2 1.447l-.653.231c-.941.436-1.095 2.121-1.294 2.919-.913-.882-.346-1.148-.705-2.259-.26-.805-2.404-.907-2.525-1.949 1.271-1.371.766 1.108 3.247-3.095"/><path fill="#f1d3a0" d="M387.982 302.465c1.86-2.207 5.941-5.099 8.323-6.763-2.262 3.181-4.606 6.143-6.807 9.383a97 97 0 0 0-1.516-2.62"/><path fill="#fee5bb" d="M536.353 301.991c1.2 2.953 3.888 3.521 2.47 4.035-2.118.766-1.657 1.042-2.642 3.112-.537-.986-.764-2.07-1.656-2.744-.261-.197-1.097-.526-1.135-.843-.203.491 2.378-2.476 2.963-3.56"/><path fill="#fbdcaa" d="M711.935 641.197c1.319-.827 1.449-.868 1.583-2.438 3.47 3.368 3.703 3.642 6.46 7.553-3.652-2.109-4.618-2.82-8.043-5.115"/><path fill="#fee5bb" d="M683.267 269.389c.53.84.615 1.386.821 2.365.219 1.042 1.529.987 2.184 1.499.09.667-.789.726-1.265.931-1.055.453-1.332 1.961-1.71 2.949-.623-.758-.694-1.154-.853-2.151-.167-1.042-1.916-.822-2.261-1.453l.036-.107c2.3-2.036 1.054 1.129 3.048-4.033"/><path fill="#fee5bb" d="M655.767 405.883c.961 1.633.126 3.272 1.939 3.775.475.131 1.135.167 1.431.615-.225.605-2.169.685-3.502 1.988l-.026.57-.266.297.124.061-.113.044c-.412-.405-.209-1.729-.901-2.116-.482-.269-1.647-.664-1.586-1.332 2.713-1.232 1.7-.29 2.9-3.902"/><path fill="#f1d3a0" d="M368.168 610.332c1.14 2.162.689 2.234 2.882 3.423l.034.072c-.034.17-.013.165-.139.266l-.56-.015c-1.779 1.378-1.316 1.793-1.863 4.268-2.403-5.58-1.82-2.395-3.578-4.675.736-1.136 1.444.876 3.224-3.339"/><path fill="#fbdcaa" d="M776.235 580.662c-1.877 2.667-3.889 5.198-5.85 7.806-.64-1.576-.424-1.602-1.686-2.932 2.159-1.252 5.148-3.407 7.536-4.874"/><path fill="#fee5bb" d="M729.396 700.071c.142.274 2.344 3.764 2.317 3.29-1.815 2.119-1.001-.19-2.331 3.434-1.252-2.149-1.028-2.273-3.231-3.361-.037-.175-.039-.088.005-.26 2.015-.907 2.116-1.31 3.24-3.103"/><path fill="#f1d3a0" d="M698.8 377.478c2.473 1.571 5.323 3.266 7.275 5.457-1.073 1.05-1.107 1.068-1.138 2.517-2.474-3.148-3.733-4.537-6.137-7.974"/><path fill="#fee5bb" d="M513.147 875.042c.632 1.558.729 2.001 2.191 3.011.532.368-1.586 1.393-1.903 2.227l-.273.729q-.212-.243-.42-.489c-.423-.504-.776-.994-1.326-1.361-.151-.1-.31-.186-.463-.282-.208-.132-.653-.388-.67-.684s2.29-2.283 2.864-3.151"/><path fill="#fee5bb" d="M729.181 319.632c1.008.277.467.478 1.116 1.047 2.291 2.009.492 1.831-1.208 4.54-.951-1.209-.435-1.858-2.079-2.475-1.123-.422 1.573-2.436 2.171-3.112"/><path fill="#fbdcaa" d="M353.115 192.571c.126.062.62.301.65.384.102.286 2.5 1.673 2.134 2-1.01.901-1.575 1.106-2.645 2.212-.645.079-3.354-2.643-1.863-3.119.478-.153 1.338-1.088 1.724-1.477"/><path fill="#fee5bb" d="M294.496 700.932c.634.359.537 1.671 1.814 1.813.116.013.932.369 1.001.602.079-.176-2.114 1.109-3.058 2.545-.419.259-.6.113-.673-.362-.101-.663-.269-1.141-.91-1.435-.361-.166-1.301-.658-1.079-1.208.103-.193.401-.308.591-.347 1.036-.216 1.572-.865 2.314-1.608"/><path fill="#f1d3a0" d="M629.21 296.19c2.453 1.761 6.355 4.472 8.308 6.778-.646.53-.939.984-1.466 1.647-.599-1.014-5.518-6.664-6.842-8.425"/><path fill="#fee5bb" d="M294.09 319.794c.46.234 1.827 2.227 2.702 2.493.814.248-1.573 1.007-2.046 1.413l-.696.599-.392.433c-2.931-3.844-2.363-.944.432-4.938"/><path fill="#fbdcaa" d="M449.064 147.618c3.595 3.292 1.851 2.054-.095 5.461-.695-.328-.644-1.345-1.339-1.723-2.193-1.196-.256-1.777.62-2.783z"/><path fill="#f1d3a0" d="M699.519 646.672c1.952-3.245 2.996-4.618 5.256-7.513.786 1.113.985 1.259 2.018 2.195-2.41 1.512-4.971 3.583-7.274 5.318"/><path fill="#fbdcaa" d="M575.179 872.597c.928 1.746.852 1.84 2.53 2.809.028.11-1.979 2.329-2.426 3.073-.572-.766-2.099-2.211-2.545-2.939-.062-.101.337-.389.478-.444 1.166-.457 1.468-1.441 1.963-2.499"/><path fill="#fee5bb" d="M575.091 147.853c.614.085 2.182 2.191 2.251 2.42.193-.752-2.27 3.272-2.26 3.253-1.331-1.59.435-1.246-2.451-3.296l.078-.172c1.293-.6 1.629-1.138 2.382-2.205"/><path fill="#fee5bb" d="M449.01 873.48c3.625 3.534 2.503 2.27.182 5.269-3.173-3.627-3.057-1.769-.182-5.269"/><path fill="#f1d3a0" d="M587.309 271.462c.428.81.72 1.73 1.44 2.336.175.148.55.408.566.698-.801 1.248-1.02.127-2.295 3.048-2.596-5.078-3.539-1.224.289-6.082"/><path fill="#fbdcaa" d="M670.093 828.456c1.003.081.621.745 1.193 1.047 1.969 1.038-.139 2.344-1.39 4.082l-.625-1.24c-.469-1.21-1.478-1.088-2.202-1.615-.684-.498 2.59-.874 2.516-1.553-.002-.017.481-.683.508-.721"/><path fill="#fbdcaa" d="M512.924 144.294c.5.673 2.787 2.721 2.677 2.361-.196.331-1.401.607-2.255 1.62l-.562.673c-.228.092-.208.132-.438.117-.213-.149-.377-1.435-1.087-1.637-.212-.06-1.18-.595-1.141-1.078-.044.066 1.627-.6 2.806-2.056"/><path fill="#fbdcaa" d="M212.569 565.146c2.775 3.247 2.623 2.304.585 4.499l-.626.684-.241.321c.187.086-1.766-2.938-1.736-2.84.054-.117 1.7-2.207 2.018-2.664"/><path fill="#fee5bb" d="M436.613 749.306c.461.132 2.416 2 2.422 2.341-1.916 1.315-1.281.692-2.509 2.776-2.739-4.812-3.527-1.592-.303-4.732z"/><path fill="#fee5bb" d="M514.348 192.274c1.252-.495 1.28-.393 2.04-1.421 1.626 2.216 3.454 4.16 5.281 6.695-3.816-2.362-3.747-2.421-7.321-5.274"/><path fill="#fee5bb" d="M587.541 748.789c.383.343 2.503 2.218 2.537 2.435-.271.61-1.918 1.277-2.556 1.653l-.269.356c-.093-.043-2.022-1.887-2.026-2.035.272-.497 1.806-1.872 2.314-2.409"/><path fill="#f1d3a0" d="M631.525 438.416c.645.131 1.172 1.322 2.007 1.748.869.442-1.316 1.808-2.102 2.989.326.119-2.33-2.741-2.168-2.223-.36-1.153 1.031-.589 1.795-1.78z"/><path fill="#f1d3a0" d="M436.413 272.088c.425.384 1.849 1.929 2.067 2.403.048.105-.164.362-.267.43-1.051.689-1.351 1.546-1.837 2.634-.523-1.509-.559-1.678-1.931-2.622-.088-.087-.266-.243-.216-.398.224-.693 1.164-1.229 1.577-1.719z"/><path fill="#fbdcaa" d="M353.419 828.197c.812 1.078.794 1.463 2.11 2.023 1.017.432-.991 1.104-1.639 2.124l-.487.778c-.807-.306-.419-1.207-1.191-1.603.089.046-1.243-.748-1.114-1.027.285-.616 1.111-.778 1.6-1.387z"/><path fill="#f1d3a0" d="M514.235 840.684c1.215-.603 1.279-.571 1.464-1.915 1.855 2.276 3.69 4.357 5.54 6.7-3.106-1.833-4.282-2.369-7.004-4.785"/><path fill="#fee5bb" d="M392.566 438.784c.401.208 1.922 1.489 2.095 1.895-.023.201-1.876 1.985-2.366 2.695-.824-1.901-2.297-2.08-2.382-2.563.332-.65 1.409-.91 1.97-1.41z"/><path fill="#fee5bb" d="M631.55 581.232c2.711 1.638 2.605 1.942.653 3.548l-.714.721c-3.582-2.993-2.391-2.067.061-4.269"/><path fill="#fee5bb" d="M811.3 453.499c1.084 1.777 1.54 1.764 2.243 2.771.171-.368-2.143 1.848-2.514 2.352-.342-.197-2.075-1.977-2.087-2.314.263-.458 1.604-1.574 2.358-2.809"/><path fill="#f1d3a0" d="M811.422 565.238c2.994 3.159 1.553 2.073-.151 5.181-.33-.573-.638-1.144-1.115-1.618.104.092-1.194-.974-.99-1.262.41-.58 1.729-1.715 2.256-2.301"/><path fill="#fee5bb" d="M512.548 83.828c.73.373.518 1.432 1.843 1.916.999.365-1.347 2.243-1.893 2.977.198.134-2.175-2.646-2.154-2.528.083-.237 1.67-1.627 2.204-2.365"/><path fill="#f1d3a0" d="M507.985 186.271c-1.789-2.442-2.853-4.123-4.418-6.689 2.254 1.634 4.098 3.189 6.182 4.729-.894.864-1.034 1.005-1.764 1.96"/><path fill="#fee5bb" d="M392.353 580.481c2.76 4.218 2.553 2.068-.11 5.347-.298-.402-1.839-2.064-1.921-2.335-.095-.311 1.218-1.191 1.348-1.693.013-.051.857-1.656.683-1.319"/><path fill="#fee5bb" d="M212.524 453.886c.719.338.444 1.276 1.723 1.921 1.484.747-.676 1.483-1.069 1.855l-.656.654-.199.308-.089.045c.323.195-1.827-2.516-1.767-2.33.416-.662 1.141-1.078 1.581-1.734z"/><path fill="#fbdcaa" d="M520.731 187.377c2.919.18 4.957.627 7.827 1.149-2.35.492-4.14.842-6.503 1.216-1.295-.969-2.14-.99-1.324-2.365"/><path fill="#fbdcaa" d="M558.333 771.014c.183-1.883.066-3.74.526-5.57.069-.273.527-1.001.739-.656.779 1.269.753 4.222.887 5.667-.735.183-1.422.354-2.152.559"/><path fill="#fee5bb" d="M670.453 193.126c3.25 2.819 1.294 2.005.065 4.358l-.447-.423c-.45-.434-1.987-1.474-2.118-1.821.133-.407 2.01-1.681 2.5-2.114"/><path fill="#f1d3a0" d="M855.353 574.725c1.905 1.769 2.134 1.624.601 3.639l-.457.764c-3.1-2.847-3.044-1.736-.144-4.403"/><path fill="#f1d3a0" d="M249.46 428.989c1.953 1.197 4.594 2.912 6.561 3.836-1.518.549-1.39.809-2.346 2.17-1.047-1.84-2.921-4.167-4.215-6.006"/><path fill="#f1d3a0" d="M254.063 591.57c.608 1.044.713 1.069 1.64 1.977-2.043 1.375-3.44 3.051-5.586 4.417l-.831.542c1.525-2.352 3.429-4.799 4.777-6.936"/><path fill="#f1d3a0" d="M855.066 446.078c2.86 2.145 2.053 2.076-.226 3.976-2.918-2.411-2.245-1.541-.487-3.264z"/><path fill="#f1d3a0" d="M757.771 428.213c1.314.924 6.436 5.016 6.862 5.247-.586.37-1.302.987-1.855 1.43-1.627-2.255-3.317-4.269-5.007-6.677"/><path fill="#fbdcaa" d="M463.551 770.856c.309-1.14.471-6.3 1.186-6.499.782.629.969 4.937 1.214 6.225-1.04.039-1.355.088-2.4.274"/><path fill="#fbdcaa" d="M769.133 432.986c2.207-1.607 3.858-3.155 6.269-4.868-1.126 1.881-3.353 5.134-4.206 6.84-.853-.975-1.025-1.261-2.063-1.972"/><path fill="#fee5bb" d="M512.584 936.626c3.402 2.679 2.237 1.503.55 2.992l-.68.613-.253.53c-.271-.512-1.923-2.871-1.785-2.265.063-.16 1.744-1.433 2.168-1.87"/><path fill="#fbdcaa" d="M168.683 575.019c3.356 1.332 1.631 2.464.191 3.837-.831-.042-2.301-1.896-2.197-2.024.406-.495 1.365-1.146 2.006-1.813"/><path fill="#f1d3a0" d="M260.222 433.157c1.698-.929 3.087-2.267 4.911-3.433l1.513-.985c-1.34 1.978-2.998 4.55-4.631 6.246-.357-1.521-.301-1.279-1.793-1.828"/><path fill="#f1d3a0" d="M911.569 533.268c3.17 2.523 2.232 1.687.276 4.097l-.247.086c-.337-.086-1.297-1.687-1.319-1.979-.039-.53.985-1.724 1.29-2.204"/><path fill="#ba9a69" d="M687.532 681.467c1.865 1.896 2.948 1.712 1.243 3.751l-.475.629c-2.096-1.105-2.606-1.766-1.212-3.641z"/><path fill="#f1d3a0" d="M560.72 770.978c2.25-2.067 3.039-2.561 5.64-4.244-1.414 2.261-2.536 3.735-3.961 5.865-.726-.856-.776-.889-1.679-1.621"/><path fill="#d6b382" d="M336.268 338.686c1.894 2.399 2.171 1.781.1 4.354-3.168-3.042-2.039-1.246-.1-4.354"/><path fill="#f1d3a0" d="M168.705 446.231c.275.342 1.885 1.882 1.895 1.964-.294.501-.97.671-1.419 1.015l-.777.603c-2.23-1.184-2.132-1.712-.434-2.911z"/><path fill="#f1d3a0" d="M502.712 826.606c2.816 2.227 3.783 3.191 6.366 5.726l-.527 1.797c-2.492-2.954-3.588-4.329-5.839-7.523"/><path fill="#d6b382" d="M335.594 681.706c2.795 1.436 2.415 1.928 1.088 4.34-2.669-1.616-2.356-1.992-1.088-4.34"/><path fill="#d6b382" d="M687.583 338.795c1.712 1.058 2.754 1.426 1.424 3.162l-.514.773c-2.932.018-1.736-2.553-.91-3.935"/><path fill="#a58e6a" d="M479.127 114.396a1.597 1.597 0 1 1 .318 3.177 1.597 1.597 0 0 1-.318-3.177"/><path fill="#ba9a69" d="M911.505 486.393c2.137 1.441 2.679 1.501 1.503 3.443l-.376.628c-2.636-.644-2.165-2.327-1.127-4.071"/><path fill="#d6b382" d="M564.169 592.331c2.212 1.229 1.743 1.609.426 3.535-2.717-1.677-3.283-1.067-.426-3.535"/><path fill="#f1d3a0" d="M112.181 533.875a1.552 1.552 0 1 1 .751 3.012 1.552 1.552 0 0 1-.751-3.012"/><path fill="#d6b382" d="M544.43 114.462a1.53 1.53 0 1 1 .203 3.053 1.53 1.53 0 0 1-.203-3.053"/><path fill="#d6b382" d="M325.73 221a1.48 1.48 0 1 1-.075 2.958 1.48 1.48 0 0 1 .075-2.958"/><path fill="#d6b382" d="M697.072 800.789a1.467 1.467 0 1 1 .66 2.86 1.467 1.467 0 0 1-.66-2.86"/><path fill="#d6b382" d="M239.202 478.951a1.465 1.465 0 1 1 .222 2.922 1.465 1.465 0 0 1-.222-2.922"/><path fill="#d6b382" d="M783.929 542.698a1.463 1.463 0 0 1 1.448 2.537 1.463 1.463 0 0 1-2.227-1.268 1.46 1.46 0 0 1 .779-1.269"/><path fill="#f1d3a0" d="M696.292 388.689c-.785-.156-2.778-.455-3.305-.988.146-.463.824-.601 1.239-.669q1.778-.291 3.562-.534z"/><path fill="#d6b382" d="M112.054 487.252a1.43 1.43 0 0 1 1.779 1.805 1.433 1.433 0 1 1-1.779-1.805"/><path fill="#d6b382" d="M239.196 541.818c2.038 1.932 1.209 1.852.034 4.288-1.468-1.867-2.165-2.002-.518-3.731z"/><path fill="#ba9a69" d="M563.672 429.183c3.309 1.307 2.834 1.191 1.054 3.471-1.221-1.178-2.43-1.498-1.397-2.921z"/><path fill="#fbdcaa" d="M562.026 776.004c1.166 1.126 1.753 2.21 2.558 3.594l1.259 2.124c-2.028-1.7-2.992-2.65-4.889-4.446z"/><path fill="#f1d3a0" d="M462.013 252.549c.111.618.358 1.372.541 1.992-1.463 1.859-2.95 2.956-4.758 4.444 1.43-2.335 2.911-4.307 4.217-6.436"/><path fill="#f1d3a0" d="M697.104 221.258a1.381 1.381 0 1 1 .959 2.59 1.381 1.381 0 0 1-.959-2.59"/><path fill="#f1d3a0" d="M466.488 254.16c.69-.139 1.35-.266 2.033-.433.77.736 2.471 2.226 2.35 3.444-.811.435-3.506-2.381-4.383-3.011"/><path fill="#fbdcaa" d="M555.973 249.517c-.478-.842-2.547-3.456-2.082-4.132.915-.261 2.454 1.568 3.109 2.169-.419.674-.68 1.252-1.027 1.963"/><path fill="#f1d3a0" d="M551.547 259.064c1.223-1.725 2.848-4.277 4.418-5.601.329.289 1.063.725 1.418.949-1.807 1.247-3.958 3.191-5.836 4.652"/><path fill="#d6b382" d="M543.939 908.652a1.34 1.34 0 0 1 1.34.227 1.337 1.337 0 0 1-.467 2.293 1.335 1.335 0 0 1-.873-2.52"/><path fill="#f1d3a0" d="M457.68 766.522c1.623 1.273 3.806 2.921 5.266 4.33-.444.265-1.113.92-1.518 1.285-1.206-1.992-2.458-3.696-3.748-5.615"/><path fill="#f1d3a0" d="M784.014 479.256a1.343 1.343 0 1 1 .828 2.554 1.343 1.343 0 0 1-.828-2.554"/><path fill="#ba9a69" d="M325.575 800.729a1.322 1.322 0 1 1 .533 2.59 1.322 1.322 0 0 1-.533-2.59"/><path fill="#fbdcaa" d="M458.329 243.189c1.512 1.543 3.113 3.302 4.635 4.78-.771.186-.851.41-1.49.985-1.487-2.179-2.015-3.421-3.145-5.765"/><path fill="#ba9a69" d="M458.748 592.305a1.305 1.305 0 1 1 .204 2.601 1.305 1.305 0 0 1-.204-2.601"/><path fill="#d6b382" d="M479.193 908.309a1.3 1.3 0 1 1 .407 2.57 1.3 1.3 0 0 1-.407-2.57"/><path fill="#fbdcaa" d="M470.907 250.57c5.099-.46 5.477 1.16.61 1.319z"/><path fill="#f1d3a0" d="M465.994 776.817a42 42 0 0 0 1.629-.361c1.876 2.445 2.227 3.025 3.801 5.551-1.816-1.714-3.606-3.519-5.43-5.19"/><path fill="#f1d3a0" d="M552.497 781.751c1.226-1.907 2.487-4.076 3.941-5.775l.629 1.249c-1.733 2.049-2.631 2.803-4.57 4.526"/><path fill="#f1d3a0" d="M555.837 771.117c-4.247-4.152-.756-3.682.812-.865-.297.2-.599.615-.812.865"/><path fill="#d6b382" d="M290.686 775.244a1.206 1.206 0 1 1 1.173 2.107 1.206 1.206 0 0 1-1.173-2.107"/><path fill="#d6b382" d="M458.801 429.617a1.211 1.211 0 1 1 1.219 2.094 1.211 1.211 0 0 1-1.219-2.094"/><path fill="#f1d3a0" d="M544.233 167.796a1.192 1.192 0 1 1 1.917 1.417 1.192 1.192 0 0 1-1.917-1.417"/><path fill="#f1d3a0" d="M466.957 247.7c.474-.477 2.322-2.545 3.052-2.569.656.342-1.408 3.096-1.683 3.503z"/><path fill="#f1d3a0" d="M290.926 247.265a1.176 1.176 0 0 1 .835 2.192 1.18 1.18 0 0 1-1.207-.145 1.177 1.177 0 0 1 .372-2.047"/><path fill="#f1d3a0" d="M731.997 247.227a1.173 1.173 0 1 1 1.052 2.098 1.173 1.173 0 0 1-1.052-2.098"/><path fill="#d6b382" d="M635.794 753.307c.4-.235.744-.614 1.189-.315.221.634-.279.912-.73 1.286-1.291.375-1.206-.155-.459-.971"/><path fill="#f1d3a0" d="M545.129 853.885c.989 1.002 1.601 1.414.096 1.968-1.452.034-1.332-.346-.495-1.427z"/><path fill="#d6b382" d="M661.724 653.23c1.398-.513 1.022-.12.611.622-.109.049-1.089.673-1.267.229.063-.389.36-.564.656-.851"/><path fill="#f1d3a0" d="M387.815 271.283c.329-.162.628-.519.979-.335 0 .331-.269.538-.481.789-.329.16-.741.521-1.094.326.024-.33.38-.57.596-.78"/><path fill="#d6b382" d="M649.124 298.857c3.033-2.226 3.601-1.628.934 1.203z"/><path fill="#f1d3a0" d="M732.251 775.748c.15-.069.646-.375.904-.29.052.018.09.054.104.108.068.246-.325.685-.401.794-.301.097-.893.364-1.103.115.02-.306.292-.504.496-.727"/><path fill="#d6b382" d="M635.924 271.645c1.16-.624 1.815-.285.638.695-1.18.661-1.753.269-.638-.695"/><path fill="#d6b382" d="M414.553 243.672c1.127-.74 1.555-.161.496.684-.253.138-.569.376-.889.387-.109.004-.252-.01-.322-.109a.23.23 0 0 1-.031-.158c.048-.362.521-.625.746-.804"/><path fill="#d6b382" d="M387.783 753.226c1.538-.674 1.224.206.301 1.026-1.386.832-1.17-.17-.301-1.026"/><path fill="#d6b382" d="M609.204 243.628c.295-.22.465-.435.81-.428.272.273-.079.562-.2.862-.064.067-.634.837-.932.688-.099-.215.016-.43.11-.629z"/><path fill="#d6b382" d="M367.19 245.199c.26-.126.947-.575 1.183-.276-.057.373-.373.571-.647.836-1.37.522-.959.113-.536-.56"/><path fill="#f1d3a0" d="M656.229 245.212c.338-.16.751-.517 1.085-.284-.04.35-.308.544-.549.812-1.447.596-1.017.168-.536-.528"/><path fill="#f1d3a0" d="m887.072 466.888.134.083c1.223.788 1.45.797.382 1.878-1.26.533-1.028-.411-.739-1.272z"/><path fill="#f1d3a0" d="M478.644 168.112c.687-.458 1.212-.613.724.425-.085.091-.658.883-.992.737-.11-.225-.013-.439.077-.656z"/><path fill="#d6b382" d="M625.765 145.762c1.547-.714.904-.105.434.506-.144.073-.732.518-.953.26.029-.324.304-.528.519-.766"/><path fill="#d6b382" d="M153.773 484.132c.166-.077.649-.371.921-.361l-.433.747-.154.046-.777.179z"/><path fill="#f1d3a0" d="M609.302 780.646c1.152-.201.846.123.53.748-.136.054-1.123.615-1.306.178.059-.416.473-.657.776-.926"/><path fill="#f1d3a0" d="M362.112 370.745c1.683-.552 1.071-.101.49.55-.267.143-.661.442-.892.211-.005-.321.2-.488.402-.761"/><path fill="#d6b382" d="M673.705 550.126c.127-.098.515-.49.781-.424.081.021.11.054.132.132.058.202-.182.555-.245.677-1.26 1.412-.881.557-.668-.385"/><path fill="#d6b382" d="M478.765 854.649c1.327-.248.77.511.228 1.091-1.502.331-.918-.347-.228-1.091"/><path fill="#9c8463" d="M627.729 535.731c.142-.062.796-.49 1-.208-.041.322-.365.557-.577.774-1.447.625-.833.019-.423-.566"/><path fill="#f1d3a0" d="M661.249 370.704c.375-.178.742-.525 1.061-.277-.053.362-.343.571-.596.841-.328.115-.52.249-.83.159-.142-.385.046-.321.365-.723"/><path fill="#f1d3a0" d="M414.687 781.083c.953-.619.907-.401.716.447-.067.062-.692.803-.984.662-.154-.291.176-.867.268-1.109"/><path fill="#d6b382" d="M367.392 779.635c1.275-.449.808.091.522.709-.285.087-.939.37-1.136.104.03-.332.407-.603.614-.813"/><path fill="#d6b382" d="M575.193 835.541c.161-.12.463-.429.71-.445.075.237-.102.632-.155.826-.171.125-.425.389-.662.4-.083-.226.06-.571.107-.781"/><path fill="#d6b382" d="M545.874 209.118c.149-.009.467-.06.622.034.082.049.116.091.137.178.04.165-.164.455-.219.555-.288.106-1.021.579-1.26.191.077-.41.429-.658.72-.958"/><path fill="#d6b382" d="M584.839 490.211c1.437-.664.863-.063.467.562-.359.112-.582.249-.92.152-.138-.381.109-.349.453-.714"/><path fill="#f1d3a0" d="M656.306 779.74c1.569-.722.763.02.347.564-1.501.629-.767-.042-.347-.564"/><path fill="#a58e6a" d="m564.244 484.716.656-.144c-.024.211-.345.484-.436.587l-.881.243z"/><path fill="#d6b382" d="M625.676 879.769c.35-.113.588-.262.921-.152.084.356-.318.467-.576.696-.304.148-.528.446-.81.24.024-.343.236-.501.465-.784"/><path fill="#ba9a69" d="M349.839 549.694c.327-.108.478-.219.775-.13.14.399-.044.318-.386.725-.13.06-.767.495-.964.218.044-.336.353-.572.575-.813"/><path fill="#a58e6a" d="M395.838 553.672c.337-.093.455-.177.75-.085.15.405-.004.293-.356.726-.254.11-.782.431-.988.18.027-.346.369-.587.594-.821"/><path fill="#b6a687" d="m628.079 816.01 1.21.76c-.915 4.182-1.288 1.299-1.21-.76"/><path fill="#f1d3a0" d="M136.463 467.61c.137-.055.468-.234.653-.16.087.034.118.068.139.155.055.224-.238.566-.319.69-.137.028-.906.311-1.086.025.033-.31.382-.51.613-.71"/><path fill="#a58e6a" d="M281.838 348.702c.308-.123.493-.263.793-.19.213.326-.287.557-.467.778-1.567.676-.724-.092-.326-.588"/><path fill="#ba9a69" d="M698.92 559.612c.312-.099.385-.166.669-.109.286.38-.019.343-.326.766-.142.065-.794.513-.998.224.045-.361.425-.642.655-.881"/><path fill="#d6b382" d="M673.863 474.204c1.516-.675.698.09.327.571-.304.119-.522.272-.823.189-.194-.321.327-.563.496-.76"/><path fill="#d6b382" d="M547.782 604.185c.355-.121.471-.214.799-.147.205.423-.003.315-.407.773-1.485.573-.803-.064-.392-.626"/><path fill="#f1d3a0" d="M136.362 556.154c.205-.082.455-.24.675-.2.043.208-.111.428-.194.624-.402.095-.671.13-1.016.192z"/><path fill="#d6b382" d="m546.04 815.167.644-.332c.014.242-.228.629-.298.78l-.597.532c-.042-.275.19-.791.251-.98"/><path fill="#d6b382" d="M397.653 145.758c.193-.061.51-.229.73-.16-.008.252-.269.548-.389.737-.214.036-.538.152-.752.057.019-.234.277-.463.411-.634"/><path fill="#d6b382" d="M438.615 489.755c.195-.062.507-.226.727-.159-.001.242-.248.525-.362.709-.204.047-.54.188-.76.107.011-.234.271-.488.395-.657"/><path fill="#a58e6a" d="M643.846 535.178c1.511-.604.772.074.355.607-.332.112-.506.235-.811.142-.127-.406.104-.359.456-.749"/><path fill="#ba9a69" d="M579.385 430.68c.281-.12.474-.267.756-.201.208.335-.319.596-.495.816-1.654.77-.568-.232-.261-.615"/><path fill="#a58e6a" d="M645.943 592.588c.563-.121.31-.204.739.016.015.28-.197.368-.446.655-.283.117-.698.517-.974.279.061-.383.436-.683.681-.95"/><path fill="#ba9a69" d="M281.89 675.674c1.473-.614.674.128.308.602-.311.113-.521.257-.82.164-.11-.414.185-.42.512-.766"/><path fill="#d6b382" d="M656.541 561.623c.321-.172.401-.262.574-.233-.022.288-.104.512-.201.804-.269.234-.446.45-.633.461.041-.36.146-.672.26-1.032"/><path fill="#ba9a69" d="m438.574 534.131.519-.27c.089.18.015.408-.007.618l-.532.198c-.034-.216-.025-.061.02-.546"/><path fill="#d6b382" d="M362.055 653.263c.125-.036.521-.208.725-.146-.031.216-.353.509-.441.614l-.74.177z"/><path fill="#d6b382" d="M448.508 835.274c.134-.034.529-.195.736-.128-.031.212-.349.49-.437.592l-.73.171c.026-.219.346-.528.431-.635"/><path fill="#d6b382" d="M869.853 540.171c.214-.058.635-.254.79.005-.056.31-.363.435-.63.629-.159.098-.517.423-.771.325l-.024-.063c.086-.404.34-.578.635-.896"/><path fill="#a58e6a" d="M415.774 577.701c.324-.091.469-.18.644-.112-.089.275-.223.473-.387.733-.204.024-.562.13-.771.021.051-.243.364-.484.514-.642"/><path fill="#d6b382" d="M547.669 419.539c.447-.122.612-.132.954-.199.027.251-.197.49-.323.702-.281.014-.607.093-.863-.023-.019-.198.1-.278.232-.48"/><path fill="#ba9a69" d="M869.734 483.962c.185-.125.444-.365.683-.388.065.166-.02.314-.104.625-.141.127-.466.502-.718.562-.07-.191.046-.441.139-.799"/><path fill="#ba9a69" d="m578.983 593.671.677-.255c-.019.329-.099.622-.183.954l-.579.174c-.008-.297.038-.568.085-.873"/><path fill="#a58e6a" d="M613.424 766.664c1.64-.853.445.354.176.713-.249.084-.556.257-.774.041.025-.372.275-.471.598-.754"/><path fill="#ba9a69" d="M614.337 335.046c.173-.072.624-.324.885-.3-.001.194-.183.371-.417.699l-.423.045c-.382.042-.247.063-.434.002.025-.183.296-.358.389-.446"/><path fill="#ba9a69" d="M367.725 561.723c.145-.043.475-.202.676-.136-.02.23-.291.513-.391.654-.142.034-.543.191-.754.114.037-.229.368-.516.469-.632"/><path fill="#9c8463" d="M627.721 553.506c.171-.121.451-.386.69-.413.071.2-.086.521-.13.668-.125.117-.38.438-.611.484-.095-.204.026-.58.051-.739"/><path fill="#ba9a69" d="M739.403 620.13c.191-.079.437-.242.648-.202.038.212-.128.457-.21.647l-.156.025-.782.08z"/><path fill="#d6b382" d="M434.062 550.248c.144-.032.496-.168.692-.093-.028.213-.314.466-.411.583-.326.103-.55.221-.73.169.032-.228.357-.543.449-.659"/><path fill="#ba9a69" d="M443.722 431.011c.181-.117.451-.359.688-.37.071.207-.085.514-.133.676-.155.128-.398.404-.627.431-.078-.185.005-.378.072-.737"/><path fill="#ba9a69" d="M724.78 750.213c.327-.1.532-.228.832-.12.096.388-.196.426-.484.73-.317.105-.461.212-.747.126-.137-.409.05-.325.399-.736"/><path fill="#a58e6a" d="M712.922 681.623c.255-.073.543-.241.761-.023 0 .277-.241.373-.503.643-.106.049-.737.475-.882.176.076-.333.394-.563.624-.796"/><path fill="#ba9a69" d="M218.954 375.626c.208-.066.396-.177.592-.125.042.19-.075.354-.152.553l-.65.602c-.051-.28.164-.854.21-1.03"/><path fill="#ba9a69" d="M584.898 534.132c.221-.072.407-.184.614-.136.052.187-.05.333-.121.542-.411.104-.706.149-1.067.221z"/><path fill="#9c8463" d="M766.876 399.661c.227-.058.612-.237.775.019-.032.302-.278.418-.531.638-.293.115-.474.249-.758.175-.201-.349.326-.601.514-.832"/><path fill="#d6b382" d="M656.294 462.657c.213-.053.397-.156.581-.076-.038.157-.21.524-.321.727-.206.036-.566.165-.784.061.05-.262.371-.535.524-.712"/><path fill="#a58e6a" d="m395.778 470.139.52.094-.258.682c-.272.011-.562.093-.781-.048.129-.29.297-.469.519-.728"/><path fill="#9c8463" d="M201.843 404.696c.179-.054.651-.291.813-.037-.041.327-.324.469-.59.698-.286.103-.435.207-.697.137-.198-.351.265-.543.474-.798"/><path fill="#f1d3a0" d="M600.497 481.66c.142-.079.43-.308.648-.287.038.231-.161.567-.227.733-.223.235-.35.43-.519.457-.011-.31.043-.582.098-.903"/><path fill="#ba9a69" d="m464.171 577.772.743-.173c-.093.255-.498.604-.632.745-.313.029-.408.073-.536-.008.051-.215.282-.402.425-.564"/><path fill="#9c8463" d="M344.862 533.684c.32-.098.468-.204.753-.106.109.404-.089.335-.443.719-.196.058-.654.287-.83.033.02-.301.275-.427.52-.646"/><path fill="#d6b382" d="M656.643 546.211c.14-.024.452-.136.626-.047-.058.226-.344.463-.481.615l-.679.132c.067-.244.402-.549.534-.7"/><path fill="#a58e6a" d="M564.245 539.658c.228-.03.38-.102.554-.007.003.233-.155.409-.28.635-.202.037-.563.17-.78.071.044-.255.36-.528.506-.699"/><path fill="#ba9a69" d="M512.004 805.602c.176-.055.393-.159.544-.116.04.191-.076.366-.151.563l-.626.592.091-.517z"/><path fill="#a58e6a" d="M739.851 545.598c.192.003.315-.027.444.068-.046.174-.12.418-.217.652-.207.041-.602.193-.832.086.159-.31.362-.528.605-.806"/><path fill="#d6b382" d="M367.705 462.665c.324-.027.414-.07.548.012-.038.206-.249.381-.383.541l-.768.182c.081-.259.482-.604.603-.735"/><path fill="#f1d3a0" d="M202.399 418.128c.352-.124.474-.206.657-.174.023.161-.078.267-.215.522l-.969.246z"/><path fill="#d6b382" d="M805.032 375.605c.304-.121.394-.194.55-.159.026.165-.053.26-.188.571l-.594.605c-.046-.275.183-.846.232-1.017"/><path fill="#a58e6a" d="M266.699 543.734c.132-.04.49-.21.691-.145-.032.233-.329.528-.43.662-.158.022-.486.126-.675.035.034-.21.305-.43.414-.552"/><path fill="#d6b382" d="M218.753 648.074c.097-.024.757-.145.815-.156.016.171-.078.244-.273.55-.095.024-.846.168-.9.178-.002-.211.266-.454.358-.572"/><path fill="#9c8463" d="M395.655 535.481c.21-.11.526-.308.732-.286.056.195.038.062.011.446-.103.096-.658.539-.722.59-.13-.203-.038-.521-.021-.75"/><path fill="#a58e6a" d="m359.689 682.11.868-.157v.066l-.439.443c-.158.06-.547.267-.786.241z"/><path fill="#a58e6a" d="m737.656 453.976.308-.149.378-.098c.068.197.041.063.043.447-.103.087-.699.522-.762.567-.116-.214.001-.545.033-.767"/><path fill="#a58e6a" d="M400.625 458.051c.304-.039.655-.165.948-.074 0 .175-.1.23-.331.513-.112.021-.731.128-.83.098-.034-.203.101-.33.213-.537"/><path fill="#ba9a69" d="M562.371 276.593c.365-.009.238-.031.426.029l.026.15-.248.55c-.223.027-.584.141-.802.018.158-.293.356-.488.598-.747"/><path fill="#9c8463" d="M248.688 469.72c.149-.044.47-.2.67-.134-.016.229-.277.507-.376.651-.337.049-.521.119-.695.04.028-.213.293-.432.401-.557"/><path fill="#a58e6a" d="M433.706 473.459c.108-.052.645-.265.71-.29.084.175-.002.325-.049.544l-.74.517c-.099-.218.039-.566.079-.771"/><path fill="#ba9a69" d="M512.047 218.616c.417-.216.426-.253.579-.232.042.218-.112.492-.182.69l-.486.495c-.012-.325.038-.618.089-.953"/><path fill="#ba9a69" d="M349.905 474.126c.251-.074.562-.235.766-.006-.034.371-.282.486-.59.775-.566.139-.328.231-.759.013.023-.382.256-.477.583-.782"/><path fill="#ba9a69" d="M678.165 533.709c.133-.037.47-.197.661-.119-.132.274-.302.479-.5.732-.305.058-.447.129-.601.051.059-.132.313-.499.44-.664"/><path fill="#9c8463" d="M627.888 470.137c.201-.046.488-.149.656-.103.017.148-.053.2-.21.468-.409.114-.732.24-.963.221l.001-.07z"/><path fill="#d6b382" d="M600.501 459.092c.234-.072.334-.155.523-.093.067.23-.029.41-.093.681-.117.101-.366.407-.59.416.004-.349.078-.646.16-1.004"/><path fill="#a58e6a" d="m682.681 655.103.449-.248c.066.156.017.264-.029.607l-.468.194-.036-.037c-.006-.209-.016-.061.084-.516"/><path fill="#d6b382" d="M804.815 648.101c.174-.052.533-.214.765-.173-.002.189-.257.427-.332.525-.174.054-.602.244-.856.209z"/><path fill="#a58e6a" d="m511.662 290.099.464-.245c.096.176.038.387.028.605l-.545.117c-.019-.19-.02-.054.053-.477"/><path fill="#ba9a69" d="m575.116 189.605.463-.218c.084.174.017.377-.004.585-.114.062-.324.206-.463.212l-.042-.039c-.022-.217-.021-.062.046-.54"/><path fill="#a58e6a" d="M656.253 477.657c.341-.068.416-.121.568-.05-.005.226-.187.429-.307.63-.161.03-.535.167-.744.074.042-.238.35-.5.483-.654"/><path fill="#ba9a69" d="m422.63 542.54.969-.232-.536.582c-.178.059-.427.178-.584.146-.033-.148.029-.208.151-.496"/><path fill="#7e6e55" d="m589.623 474.118.524-.303c.069.173.008.308-.053.683-.341.121-.211.095-.414.114l-.051-.048z"/><path fill="#ba9a69" d="M419.678 605.686c.208-.031.417-.115.595-.025-.012.22-.202.408-.328.596-.155.041-.494.195-.7.118.029-.242.308-.52.433-.689"/><path fill="#ba9a69" d="M774.588 469.538c.426-.121.774-.256 1.014-.241l-.572.599-.581.104c.02-.222-.01-.079.139-.462"/><path fill="#d6b382" d="M887.246 556.041c.28-.06.535-.115.803-.101.047.202-.066.318-.168.544-.307.037-.662.163-.957.068-.002-.175.091-.223.322-.511"/><path fill="#ba9a69" d="M450.44 449.647c.132-.042.47-.175.604-.162.036.15-.055.218-.221.495l-.948.244z"/><path fill="#9c8463" d="M400.816 565.181c.138-.037.428-.173.608-.102-.032.226-.283.48-.402.643-.144.019-.517.127-.707.032.058-.22.385-.46.501-.573"/><path fill="#ba9a69" d="m586.117 574.627.474-.264c.06.159.003.281-.058.624-.35.176-.217.133-.426.176l-.039-.038c-.016-.201-.018-.058.049-.498"/><path fill="#a58e6a" d="M341.186 654.676c.341-.028.424-.072.564.014-.035.221-.245.403-.388.582-.126.037-.494.21-.691.135.136-.275.312-.48.515-.731"/><path fill="#9c8463" d="M533.88 750.621c.206-.047.483-.149.654-.102.022.15-.042.198-.191.477l-.159.039-.796.151z"/><path fill="#d6b382" d="m154.077 540.107.446-.189c.077.175.007.368-.02.575-.336.212-.207.158-.411.216l-.042-.038c-.026-.228-.021-.066.027-.564"/><path fill="#a58e6a" d="m835.283 470.695.454-.069c.017.201-.12.388-.21.584-.141-.01-.433-.001-.565-.073l-.014-.05c.095-.179.014-.06.335-.392"/><path fill="#d6b382" d="M474.604 419.226c.327-.054.483-.125.65-.043-.033.231-.279.455-.415.629-.368.082-.461.141-.616.073.023-.236.252-.473.381-.659"/><path fill="#ba9a69" d="M448.498 189.783c.341-.084.563-.188.741-.115-.064.252-.415.558-.553.713-.17.017-.366.068-.492-.008.013-.22.176-.387.304-.59"/><path fill="#ba9a69" d="m238.755 621.484.475-.275.129.011c.065.184.039.059.045.42l-.117.108-.616.495c-.097-.207.055-.617.084-.759"/><path fill="#d6b382" d="m298.599 750.097.45-.196c.092.172.036.35.025.571-.115.065-.326.216-.467.225l-.044-.04c-.026-.224-.022-.064.036-.56"/><path fill="#a58e6a" d="M450.827 574.608c.173-.017.354-.067.482.009-.003.222-.151.384-.275.6-.348.096-.579.21-.764.14.061-.261.419-.588.557-.749"/><path fill="#ba9a69" d="m739.469 404.098.487-.109c.026.201.023.069-.024.431-.307.263-.185.19-.381.279l-.045-.031c-.051-.226-.028-.064-.037-.57"/><path fill="#a58e6a" d="m614.55 535.052.48-.161-.045.358-.409.386-.03-.019c-.041-.217-.027-.059.004-.564"/><path fill="#a58e6a" d="m586.113 449.718.498-.087c.026.152-.037.22-.159.51-.142.011-.431.067-.574.018l-.02-.043c.06-.174.002-.055.255-.398"/><path fill="#a58e6a" d="m455.989 398.06.497-.033c.011.226.02.081-.058.47-.408.104-.697.147-1.053.217z"/><path fill="#9c8463" d="M627.789 488.547c.119-.021.696-.076.766-.083.031.195-.097.318-.203.517-.294.028-.633.14-.917.043.011-.173.141-.247.354-.477"/><path fill="#ba9a69" d="M437.657 449.69c.351-.056.451-.112.603-.032-.032.236-.262.455-.403.644-.317.067-.466.145-.63.068.036-.244.291-.493.43-.68"/><path fill="#d6b382" d="M793.114 450.707c.154-.039.459-.183.652-.101-.117.276-.275.478-.463.732-.345.056-.425.108-.571.029.052-.142.258-.481.382-.66"/><path fill="#ba9a69" d="M638.673 546.187c.141-.038.442-.182.626-.101-.131.281-.299.491-.498.75-.341.041-.424.089-.564.005.061-.137.303-.484.436-.654"/><path fill="#a58e6a" d="m579.695 416.72.499-.09c.008.14-.088.253-.215.481l-.563.031-.015-.035c.077-.172.007-.055.294-.387"/><path fill="#9c8463" d="m408.65 334.742.705-.147c-.158.282-.354.497-.575.752-.322-.002-.387.032-.512-.062.041-.214.232-.364.382-.543"/><path fill="#a58e6a" d="M785.082 402.722c.484-.067.502-.1.642-.025-.041.237-.294.458-.438.635-.305.077-.441.156-.601.087.05-.138.278-.521.397-.697"/><path fill="#ba9a69" d="M408.294 595.666c.147-.037.418-.165.596-.086-.054.129-.308.522-.427.685-.154.023-.483.134-.669.036.058-.236.354-.476.5-.635"/><path fill="#a58e6a" d="M561.773 747.524c.102-.025.761-.142.822-.153.015.177-.083.254-.284.569l-.414.035c-.369.034-.213.071-.436-.011.006-.155.096-.197.312-.44"/><path fill="#a58e6a" d="M573.263 574.681c.349-.093.452-.162.614-.098-.011.238-.23.485-.351.68-.212.01-.5.079-.687-.034.037-.217.279-.392.424-.548"/><path fill="#9c8463" d="m595.004 403.083.364-.183.156-.007c-.004.21.014.071-.097.451-.297.256-.179.183-.368.274l-.038-.026c-.042-.2-.025-.056-.017-.509"/><path fill="#a58e6a" d="m393.071 661.089.484-.231c.044.15-.074.382-.109.493-.297.253-.181.181-.367.27l-.03-.024c-.027-.202-.021-.057.022-.508"/><path fill="#7e6e55" d="M603.745 605.686c.137-.037.44-.18.622-.102-.121.266-.28.463-.468.708-.352.028-.464.076-.61-.015.053-.227.305-.425.456-.591"/><path fill="#a58e6a" d="m638.636 477.705.384-.098.148.029c-.051.214-.002.077-.194.439-.139.022-.431.1-.576.063l-.019-.036c.06-.172.002-.054.257-.397"/><path fill="#a58e6a" d="M589.665 550.504c.297-.045.64-.168.925-.074.029.213-.113.333-.241.548-.3.015-.624.095-.876-.051.034-.207-.008-.074.192-.423"/><path fill="#a58e6a" d="m739.148 479.766.757-.166c-.192.291-.42.517-.671.778-.168-.027-.332-.023-.434-.125.041-.202.193-.308.348-.487"/><path fill="#9c8463" d="m396.077 488.599.453-.196c.049.135-.003.227-.067.508-.307.258-.187.187-.379.273l-.033-.027c-.025-.224-.021-.065.026-.558"/><path fill="#9c8463" d="M594.812 620.723c.322-.1.641-.241.847-.065-.055.312-.375.465-.63.662-.305.109-.34.167-.608.1-.17-.346.162-.43.391-.697"/><path fill="#ba9a69" d="m265.067 370.115.466-.211c.054.146.001.24-.063.552-.315.218-.193.16-.386.225l-.038-.033c-.027-.214-.021-.062.021-.533"/><path fill="#ba9a69" d="M741.613 675.536c.312-.019.653-.11.916.039-.047.254-.001.094-.214.449-.433.059-.488.091-.879.043-.043-.207.062-.294.177-.531"/><path fill="#a58e6a" d="M341.361 368.592c.169-.014.333-.058.456.019l-.121.323-.152.285c-.349.096-.583.212-.768.14.158-.29.357-.505.585-.767"/><path fill="#ba9a69" d="M559.191 446.673c.338-.06.437-.118.584-.04-.113.26-.26.445-.442.685-.351.058-.453.115-.6.034.118-.258.27-.442.458-.679"/><path fill="#9c8463" d="m257.064 400.089.501-.244c.047.158-.077.408-.113.526-.303.221-.185.16-.373.232l-.034-.028c-.026-.193-.02-.055.019-.486"/><path fill="#9c8463" d="m311.013 341.582.485-.155c.016.186.019.063-.047.403l-.388.33-.035-.024c-.045-.216-.027-.06-.015-.554"/><path fill="#a58e6a" d="M248.536 554.754c.135-.034.507-.195.707-.111-.147.28-.333.486-.548.739-.173.004-.354.041-.475-.045.018-.223.177-.373.316-.583"/><path fill="#ba9a69" d="M644.302 489.023c.132-.027.667-.088.745-.097.048.199-.061.318-.156.542-.296.02-.649.11-.926.003.011-.162.103-.201.337-.448"/><path fill="#ba9a69" d="M407.698 428.467c.096-.053.662-.317.72-.344.069.157.008.236-.079.586-.173.164-.323.386-.547.428-.132-.181-.085-.435-.094-.67"/><path fill="#a58e6a" d="m682.595 369.118.485-.261-.098.613c-.319.156-.197.119-.388.155l-.038-.038z"/><path fill="#9c8463" d="M444.625 464.025c.289-.035.627-.143.901-.044.015.204-.135.32-.265.511-.274.032-.561.131-.798.005.024-.26-.006-.097.162-.472"/><path fill="#a58e6a" d="m359.555 342.115.513-.272c.057.162-.007.291-.08.632-.294.133-.182.102-.359.129l-.049-.042z"/><path fill="#a58e6a" d="M614.596 689.552c.3-.028.651-.138.943-.045-.035.194-.344.382-.44.465-.241.054-.457.154-.674.088-.036-.186.079-.312.171-.508"/><path fill="#ba9a69" d="M607.588 577.732c.151-.028.475-.154.662-.061-.137.264-.309.452-.514.689-.323.023-.383.063-.513-.023.025-.192.23-.412.365-.605"/><path fill="#d6b382" d="M230.675 450.558c.094-.011.813-.053.867-.055-.016.193-.264.367-.366.474-.102.019-.694.082-.755.089-.013-.165.066-.218.254-.508"/><path fill="#ba9a69" d="m367.534 477.558.462-.088-.002.331-.42.39-.035-.022c-.045-.238-.029-.066-.005-.611"/><path fill="#9c8463" d="m283.93 404.055.569-.164c.008.209.019.071-.077.451-.309.211-.187.153-.382.222l-.051-.034c-.058-.185-.029-.051-.059-.475"/><path fill="#ba9a69" d="m764.28 639.981.609-.295c.055.187.036.06.019.428l-.11.105-.578.489c-.099-.196.036-.588.06-.727"/><path fill="#a58e6a" d="M257.445 576.409c.035-.188.218-2.35.833-2.147.283.51.169 1.26.164 1.808z"/><path fill="#a58e6a" d="m774.511 758.069.723.011c.001.203-.157.335-.286.517-.442-.146-.32-.068-.472-.205-.029-.168-.03-.065.035-.323"/><path fill="#9c8463" d="M461.87 747.642c.141-.033.547-.154.688-.133l-.358.456-.812.22z"/><path fill="#9c8463" d="M463.826 447.186c.382-.102.251-.102.442-.069 0 .15-.084.235-.233.494l-.555-.001-.011-.035c.106-.177.017-.058.357-.389"/><path fill="#9c8463" d="m266.8 481.067.327-.038.37.035c-.006.214.016.076-.115.446-.307.042-.663.176-.967.086.012-.212.275-.406.385-.529"/><path fill="#7e6e55" d="m663.769 341.687.501-.064c.003.169-.082.252-.252.552l-.524-.176c.075-.144.009-.048.275-.312"/><path fill="#9c8463" d="m248.634 758.109.459-.235c.091.179.027.394.01.609-.363.135-.225.105-.441.129l-.048-.046c-.027-.182-.021-.052.02-.457"/><path fill="#9c8463" d="m409.166 489.592.425-.213c.07.154.025.247-.011.587-.373.186-.232.141-.454.186l-.037-.038c-.007-.212-.016-.062.077-.522"/><path fill="#ba9a69" d="M231.128 572.701c.208-.017.426-.091.597.014-.037.23-.259.421-.408.606-.346.072-.449.134-.602.059.055-.138.288-.505.413-.679"/><path fill="#a58e6a" d="M461.667 277.04c.282-.021.606-.122.874-.018-.003.165-.086.203-.312.47-.12.013-.711.033-.782.035-.022-.191.104-.296.22-.487"/><path fill="#ba9a69" d="M298.592 274.534c.307-.012.665-.107.949.008-.013.166-.11.206-.354.457l-.61.07-.127-.07c.015-.225-.014-.08.142-.465"/><path fill="#a58e6a" d="M325.058 559.741c.146-.029.487-.162.676-.067-.149.271-.332.468-.549.713-.169.007-.353.047-.473-.036l.159-.326z"/><path fill="#9c8463" d="m607.694 446.203.478-.08c.014.143-.059.22-.19.477l-.553.016-.015-.037c.072-.167.006-.054.28-.376"/><path fill="#a58e6a" d="m455.57 626.078.679.004c-.002.168-.082.216-.286.5-.459-.125-.339-.051-.485-.181-.006-.169-.023-.066.092-.323"/><path fill="#a58e6a" d="M591.183 226.677c.343-.038.431-.086.57.001-.065.135-.322.489-.46.657-.339.046-.428.097-.569.014.12-.256.271-.437.459-.672"/><path fill="#ba9a69" d="m511.676 734.525.929-.22-.544.575-.573.062c.044-.205-.001-.075.188-.417"/><path fill="#ba9a69" d="m517.487 687.576.511-.159c.008.205.018.07-.068.441-.303.223-.184.161-.375.235l-.042-.031c-.045-.191-.026-.053-.026-.486"/><path fill="#ba9a69" d="m511.622 711.581.421-.173c.09.17.038.338.028.56-.376.181-.233.137-.457.18l-.043-.042c-.018-.212-.019-.061.051-.525"/><path fill="#a58e6a" d="M689.745 544.045c.101-.009.75-.029.81-.031 0 .162-.083.204-.296.47-.099.008-.758.024-.817.025.003-.161.087-.202.303-.464"/><path fill="#9c8463" d="m420.521 679.031.501-.146-.031.348-.421.348-.037-.023c-.046-.202-.028-.054-.012-.527"/><path fill="#7e6e55" d="m384.52 478.09.643-.004c.019.193-.102.31-.21.505-.49-.101-.36-.03-.52-.157-.013-.177-.026-.068.087-.344"/><path fill="#a58e6a" d="M595.802 123.156c.353-.085.23-.09.411-.048l-.178.537-.557-.044-.013-.045c.097-.182.014-.06.337-.4"/><path fill="#a58e6a" d="M737.213 570.473c.107-.055.603-.26.669-.287.091.166.02.3-.013.522-.18.164-.362.408-.599.453-.126-.19-.061-.455-.057-.688"/><path fill="#d6b382" d="M796.662 416.676c.223.009.378-.033.532.081-.022.211-.179.34-.322.531-.151.041-.467.193-.663.114.113-.273.268-.473.453-.726"/><path fill="#ba9a69" d="m387.632 632.545.15-.023.753-.076-.455.494c-.192.051-.426.15-.587.106-.036-.155.019-.202.139-.501"/><path fill="#ba9a69" d="m525.123 238.063.406-.147c.102.166.062.306.068.541l-.524.126c-.02-.209-.021-.06.05-.52"/><path fill="#ba9a69" d="m202.299 606.2.497-.077-.273.485c-.164-.005-.402.014-.512-.038l-.012-.037c.085-.153.012-.051.3-.333"/><path fill="#ba9a69" d="M581.596 664.076c.372-.209.246-.159.429-.212l.03.017c-.013.2.009.068-.108.428-.292.283-.177.2-.362.305l-.025-.019c-.021-.205-.019-.058.036-.519"/><path fill="#a58e6a" d="m533.61 274.116.594-.021c.009.161-.063.214-.235.5-.477-.076-.357-.014-.501-.125.011-.184-.018-.071.142-.354"/><path fill="#a58e6a" d="M505.653 336.568c.241-.019.661-.094.858-.024-.031.183-.309.352-.405.436-.213.059-.453.178-.662.122-.024-.165.05-.228.209-.534"/><path fill="#a58e6a" d="m548.749 642.2.485-.079c.001.137-.101.25-.234.467-.167.008-.411.044-.526-.001l-.013-.035c.078-.158.009-.052.288-.352"/><path fill="#a58e6a" d="m228.117 607.104.47-.259-.091.592c-.297.152-.183.115-.361.151l-.039-.036z"/><path fill="#ba9a69" d="M604.325 418.106c.169-.008.345-.049.466.034l-.147.328-.177.286c-.155.026-.498.149-.69.048.148-.268.33-.456.548-.696"/><path fill="#a58e6a" d="m259.472 640.1.469-.132c.097.168.051.292.046.529-.347.119-.215.094-.423.111l-.059-.051z"/><path fill="#ba9a69" d="M188.309 470.54c.197-.047.532-.179.754-.122-.005.192-.244.406-.331.516-.222.019-.595.091-.775.025.023-.174.258-.328.352-.419"/><path fill="#d6b382" d="m408.598 689.62.489-.245c.077.188-.011.433-.043.638-.309.101-.192.081-.376.091l-.052-.048z"/><path fill="#b6a687" d="m464.581 782.959.966.231c-.257 2.61-.882 1.938-.966-.231"/><path fill="#ba9a69" d="m821.491 606.068.461-.063.014.363c-.327.263-.198.189-.405.279l-.044-.031c-.049-.215-.028-.06-.026-.548"/><path fill="#9c8463" d="m536.674 797.685.445-.04c.027.148-.024.198-.133.479-.14.007-.429.053-.567 0l-.019-.044c.069-.174.005-.056.274-.395"/><path fill="#d6b382" d="M498.721 836.728c-.526-.116-1.195-.092-1.591-.509.135-.607 1.431-.59 1.911-.642z"/><path fill="#a58e6a" d="M415.691 848.669c.361-.055.436-.104.573-.023-.143.276-.315.476-.526.728-.322.012-.374.05-.497-.043.084-.139.309-.479.45-.662"/><path fill="#ba9a69" d="m579.05 607.11.607-.019c.02.183-.097.301-.196.487-.49-.047-.362.009-.519-.096-.007-.188-.025-.07.108-.372"/><path fill="#d6b382" d="m764.241 384.541.824-.175-.472.524-.581.112c-.028-.147.056-.201.229-.461"/><path fill="#9c8463" d="M451.777 713.624c.429-.051.283-.064.495-.014-.023.193-.339.562-.478.741l-.544-.059c.15-.245.331-.445.527-.668"/><path fill="#ba9a69" d="m614.53 489.575.51-.208c.052.138.001.216-.069.513-.278.171-.17.126-.343.175l-.048-.034z"/><path fill="#9c8463" d="m283.729 479.667.412-.006c.031.179-.057.299-.133.501-.14-.005-.427.016-.561-.05l-.017-.05c.08-.177.009-.058.299-.395"/><path fill="#9c8463" d="m419.53 418.579.437-.045c.057.211.033.073.053.451-.358.207-.22.154-.438.209l-.051-.043c-.038-.229-.025-.065-.001-.572"/><path fill="#9c8463" d="M347.012 407.048c.104-.027.29-.112.414-.062.072.113.036.022.052.357l-.41.302-.041-.029c-.046-.223-.028-.062-.015-.568"/><path fill="#ba9a69" d="m475.295 380.174.431-.06c.013.16-.057.232-.196.525-.131-.008-.405.004-.529-.061l-.012-.045c.086-.164.011-.054.306-.359"/><path fill="#a58e6a" d="M487.699 797.67c.341-.035.423-.082.559.006-.13.259-.288.441-.486.677-.333.016-.396.056-.525-.037.084-.177.275-.431.452-.646"/><path fill="#a58e6a" d="M327.557 299.732c.366-.025.479-.074.628.021-.055.238-.314.441-.474.617-.32.027-.373.067-.503-.017.02-.196.216-.418.349-.621"/><path fill="#ba9a69" d="m741.662 348.687.462-.02c-.028.207.004.075-.132.424-.141.016-.435.082-.579.037l-.019-.039c.065-.176.004-.056.268-.402"/><path fill="#ba9a69" d="M187.609 424.212c.356-.033.466-.084.611.008-.134.254-.297.428-.5.656-.32.031-.375.072-.504-.012l.182-.346z"/><path fill="#d6b382" d="m477.552 209.553.5-.188c-.012.207.011.071-.113.443-.296.231-.18.165-.365.245l-.033-.025c-.03-.188-.021-.053.011-.475"/><path fill="#9c8463" d="m238.529 403.05.369-.19.159-.01c-.003.213.015.073-.096.458-.261.208-.158.149-.325.22l-.044-.028z"/><path fill="#9c8463" d="m187.646 599.096.607-.009c-.001.16-.083.217-.272.49-.461-.106-.346-.037-.483-.156.017-.172-.014-.067.148-.325"/><path fill="#9c8463" d="m607.75 848.65.41.007c-.034.21 0 .077-.139.425l-.583.036-.015-.038c.09-.191.011-.061.327-.43"/><path fill="#ba9a69" d="m422.539 304.551.461-.118-.025.366-.401.306-.036-.025c-.039-.207-.025-.057.001-.529"/><path fill="#ba9a69" d="M423.068 565.035c.286-.089.175-.084.353-.06.109.157.051.032.117.496-.362.217-.223.163-.443.218l-.049-.044c-.03-.246-.023-.071.022-.61"/><path fill="#ba9a69" d="M525.197 786.167c.34-.028.419-.073.551.019-.147.267-.32.455-.537.697-.41.013-.272.038-.472-.028.023-.193.318-.515.458-.688"/><path fill="#7e6e55" d="m285.74 453.636.506-.034c.003.159-.075.227-.24.509-.482-.11-.37-.041-.498-.157.053-.174-.002-.069.232-.318"/><path fill="#a58e6a" d="M615.201 595.656c.301-.063.426-.135.576-.056-.133.285-.3.497-.503.762-.22-.007-.354.039-.495-.078l.198-.337z"/><path fill="#ba9a69" d="m378.284 164.449.279-.131c.137.08.053.008.245.309l-.369.105c-.15-.108-.078-.029-.155-.283"/><path fill="#a58e6a" d="M644.884 860.577c.192-.031.498-.117.656-.063 0 .149-.087.209-.269.454-.176.02-.653.101-.818.061l.003-.068z"/><path fill="#a58e6a" d="m423.06 481.585.459-.157c.01.221.018.077-.058.47-.31.192-.19.142-.38.198l-.038-.033c-.027-.191-.02-.055.017-.478"/><path fill="#9c8463" d="m603.029 345.078.638.022c-.048.222.001.081-.2.45-.471-.077-.344-.015-.503-.13-.021-.173-.029-.065.065-.342"/><path fill="#a58e6a" d="m567.943 398.09.448-.082.088.045c-.018.21.01.076-.125.431l-.894.118.004-.07z"/><path fill="#a58e6a" d="m428.138 403.115.553-.023c.011.155-.055.205-.211.481-.48-.067-.361-.007-.503-.114.019-.179-.015-.069.161-.344"/><path fill="#a58e6a" d="M227.711 417.443c.268-.134.17-.113.318-.121.156.082.06.009.287.308-.403.099-.269.101-.46.066z"/><path fill="#a58e6a" d="m444.184 416.6.53-.009c.011.194-.125.346-.227.534-.475-.174-.361-.085-.492-.23.038-.165-.006-.067.189-.295"/><path fill="#a58e6a" d="M284.574 546.078c.109-.036.266-.131.392-.076.079.153.041.03.029.49-.331.205-.204.154-.404.207l-.044-.041c-.024-.236-.02-.069.027-.58"/><path fill="#ba9a69" d="m393.166 362.172.447-.051c-.035.182 0 .065-.147.374l-.563.118-.015-.028c.069-.178.005-.055.278-.413"/><path fill="#a58e6a" d="m821.557 405.104.594.001c-.039.209.003.076-.175.427-.501-.009-.37.038-.532-.055-.006-.186-.024-.068.113-.373"/><path fill="#ba9a69" d="M423.035 459.454c.28-.105.181-.092.329-.089.129.079.051.011.225.277l-.302.042c-.181-.09-.088-.024-.252-.23"/><path fill="#9c8463" d="M699.016 464.52c.402-.021.379-.134.522.223l-.463.369-.042-.026c-.052-.217-.031-.058-.017-.566"/><path fill="#ba9a69" d="m645.067 164.542.468-.156c.004.184.015.063-.071.395-.31.256-.188.182-.384.274l-.031-.024c-.029-.192-.022-.053.018-.489"/><path fill="#9c8463" d="m792.575 573.059.452-.156c.008.18.016.062-.06.388-.311.274-.188.194-.384.295l-.03-.022c-.029-.198-.022-.055.022-.505"/><path fill="#9c8463" d="m712.551 261.061.437-.087-.016.371c-.319.258-.194.185-.394.274l-.036-.027c-.034-.21-.024-.059.009-.531"/><path fill="#9c8463" d="m409.616 766.602.575-.015c.011.156-.053.201-.213.477-.463-.068-.345-.009-.488-.116.005-.178-.019-.068.126-.346"/><path fill="#a58e6a" d="m432.709 797.653.418.002c-.022.192.005.07-.111.392l-.588.067-.017-.036c.076-.186.006-.058.298-.425"/><path fill="#9c8463" d="m622.578 458.136.53-.011c-.024.21.007.076-.133.431l-.182.007-.387-.059z"/><path fill="#9c8463" d="m345.05 490.541.439-.067.009.322-.418.312-.036-.026c-.038-.211-.026-.059.006-.541"/><path fill="#a58e6a" d="m600.408 565.162.289-.026c.098.13.047.027.106.395l-.298-.04c-.116-.159-.065-.057-.097-.329"/><path fill="#ba9a69" d="m498.206 786.665.435-.021c-.032.207.002.075-.138.421l-.554.023-.017-.039c.07-.169.006-.054.274-.384"/><path fill="#9c8463" d="m379.078 489.602.524-.262c.062.165.002.282-.068.638l-.286.057c-.14-.105-.12-.216-.17-.433"/><path fill="#7e6e55" d="M727.768 597.147c.346-.082.224-.085.404-.049.017.141-.041.201-.155.455l-.543.023-.014-.036c.085-.175.011-.056.308-.393"/><path fill="#ba9a69" d="m422.408 718.635.261-.017c.113.14.052.031.144.416-.305.014-.212.039-.338-.021-.071-.143-.037-.038-.067-.378"/><path fill="#a58e6a" d="m689.994 480.543.478-.083-.002.364c-.33.206-.202.149-.407.216l-.046-.034c-.044-.181-.025-.05-.023-.463"/><path fill="#a58e6a" d="m784.104 715.624.459-.227c.062.159.01.262-.046.606l-.338.101-.051-.045z"/><path fill="#ba9a69" d="M498.571 238.014c.341-.005.357-.096.49.21l-.468.389-.036-.023c-.041-.222-.028-.06.014-.576"/><path fill="#ba9a69" d="M585.796 725.124c.297.007.192-.021.347.052.03.146.027.036-.087.406l-.604.042-.015-.038c.101-.205.014-.066.359-.462"/><path fill="#9c8463" d="M645.795 431.137c.332-.062.215-.071.387-.026l-.15.446-.539.006-.013-.037c.088-.175.012-.057.315-.389"/><path fill="#a58e6a" d="m664.117 682.575.469-.234c.04.114.023.101-.078.517l-.302.177-.043-.03z"/><path fill="#7e6e55" d="m378.034 431.534.428-.073.04.327-.425.285-.04-.028c-.041-.199-.026-.055-.003-.511"/><path fill="#9c8463" d="M295.672 427.664c.226.021.361-.016.501.11-.066.146-.259.407-.404.581-.338.045-.409.093-.547.01.116-.266.263-.454.45-.701"/><path fill="#a58e6a" d="m635.602 632.603.551.002c-.041.216.001.079-.173.44-.471-.042-.35.011-.498-.087.001-.181-.021-.068.12-.355"/><path fill="#a58e6a" d="M487.6 226.029c.305-.077.189-.072.372-.053l.036.325-.413.327-.031-.024c-.026-.227-.022-.064.036-.575"/><path fill="#9c8463" d="m717.65 445.112.433-.225c.059.161.005.27-.055.615l-.346.096-.045-.044z"/><path fill="#9c8463" d="m379.351 535.155.276-.023c.099.137.048.03.105.412l-.265-.051c-.121-.164-.066-.058-.116-.338"/><path fill="#a58e6a" d="m378.415 592.596.228-.004c.122.152.055.036.172.435-.303.007-.211.034-.336-.03-.071-.152-.037-.04-.064-.401"/><path fill="#a58e6a" d="m615.419 428.115.249-.011c.117.142.053.032.16.415-.313-.017-.218.016-.346-.056-.068-.135-.036-.037-.063-.348"/><path fill="#9c8463" d="m286.18 570.618.517-.018c-.05.191-.003.07-.188.386l-.51-.005c.024-.181-.013-.066.181-.363"/><path fill="#a58e6a" d="m415.617 176.598.455-.218c.056.144.006.239-.052.552l-.313.125-.048-.038z"/><path fill="#a58e6a" d="m498.389 266.618.247-.011c.116.145.053.032.153.424-.295-.014-.204.017-.327-.051-.071-.139-.036-.038-.073-.362"/><path fill="#a58e6a" d="m678.08 490.598.531.005c-.019.193.008.069-.121.397-.497.01-.367.051-.527-.034-.005-.182-.024-.066.117-.368"/><path fill="#9c8463" d="m334.442 544.123.251-.013c.107.141.05.031.133.414-.301-.019-.21.014-.331-.057-.063-.134-.034-.037-.053-.344"/><path fill="#ba9a69" d="m766.615 624.701.445-.099.015.016c-.087.175-.018.064-.256.352l-.438.12c.052-.181 0-.061.234-.389"/><path fill="#ba9a69" d="m416.112 446.458.288-.081c.131.074.051.01.238.262l-.307.07c-.169-.095-.083-.024-.219-.251"/><path fill="#9c8463" d="m712.661 341.611.434-.24c.05.149-.007.268-.072.581l-.339.14-.039-.036z"/><path fill="#d6b382" d="M601.465 304.807c.226.057.361.058.438.17-.016.197-.119.267-.26.467l-.344-.197c-.04-.182.041-.227.166-.44"/><path fill="#a58e6a" d="m677.429 407.123.257-.013c.112.138.051.03.147.407-.313-.026-.219.009-.345-.066z"/><path fill="#7e6e55" d="m573.113 449.568.555.027c-.046.219 0 .08-.183.443-.475-.113-.354-.04-.499-.166.009-.161-.017-.063.127-.304"/><path fill="#b6a687" d="m567.918 250.596.786.005c.475-.013 1.09.003 1.258.481-.241.332-.808.269-1.137.299z"/><path fill="#a58e6a" d="m636.184 390.164.41.05-.113.309-.588.092-.015-.03c.079-.184.007-.058.306-.421"/><path fill="#a58e6a" d="M438.121 298.524c.296-.093.183-.083.359-.07l.018.349c-.323.281-.197.2-.398.3l-.028-.024c-.019-.221-.02-.063.049-.555"/><path fill="#9c8463" d="M248.622 267.535c.362-.011.252-.037.401.025.056.134.035.032-.013.38l-.375-.17c-.066-.129-.054-.053-.013-.235"/><path fill="#a58e6a" d="m346.687 616.165.431.003-.124.342c-.173.028-.422.097-.548.066l-.017-.033c.062-.164.004-.051.258-.378"/><path fill="#9c8463" d="M270.08 589.561c.26.02 1.545.024 1.644.431-.273.426-1.03.438-1.428.503z"/><path fill="#a58e6a" d="m284.1 620.452.307-.097c.119.08.048.011.201.285l-.286.035c-.154-.084-.077-.019-.222-.223"/><path fill="#ba9a69" d="m601.345 719.132.255-.015c.108.143.051.031.13.422l-.266-.054c-.124-.172-.067-.061-.119-.353"/><path fill="#7e6e55" d="m581.362 359.139.263-.017c.105.139.05.03.122.414l-.273-.055c-.12-.167-.066-.06-.112-.342"/><path fill="#a58e6a" d="m489.469 274.18.289-.032c.077.13.04.028.046.396l-.247-.073c-.093-.137-.055-.047-.088-.291"/><path fill="#9c8463" d="m441.438 664.142.265-.019c.096.136.047.03.101.404l-.284-.053c-.107-.163-.061-.059-.082-.332"/><path fill="#9c8463" d="m571.705 310.16.417.036-.103.323-.577.068-.016-.033c.069-.173.005-.055.279-.394"/><path fill="#a58e6a" d="M785.311 621.109c.28.019.18-.01.329.062l-.066.339-.617.086-.014-.03c.104-.202.015-.065.368-.457"/><path fill="#9c8463" d="m188.763 553.14.403.002-.126.352c-.17.022-.421.081-.542.046l-.014-.031c.072-.163.007-.052.279-.369"/><path fill="#a58e6a" d="m498.594 757.531.449-.149-.05.35c-.261.255-.156.179-.327.276l-.034-.02z"/><path fill="#9c8463" d="m305.666 444.453.282-.106c.111.081.045.011.181.291l-.272.045c-.139-.086-.07-.02-.191-.23"/><path fill="#a58e6a" d="m596.06 902.555.457-.131c.026.188.022.064-.019.407l-.294.177-.051-.031z"/><path fill="#a58e6a" d="m695.624 724.59.5.019c-.022.191.006.069-.122.391-.475-.017-.353.029-.502-.06.002-.176-.02-.065.124-.35"/><path fill="#b6a687" d="m511.626 312.457.282-.082c.12.076.048.01.208.266l-.281.048c-.148-.086-.074-.019-.209-.232"/><path fill="#7e6e55" d="m756.639 543.451.301-.118c.11.084.045.011.172.306l-.27.028c-.143-.083-.072-.02-.203-.216"/><path fill="#9c8463" d="M512.4 277.555c.048 0 .095-.007.143-.001.144.017.257.457.261.467-.302-.01-.209.022-.335-.049-.073-.16-.038-.043-.069-.417"/><path fill="#a58e6a" d="m428.569 621.457.298-.076c.116.077.047.012.2.264l-.266.023c-.155-.081-.076-.018-.232-.211"/><path fill="#a58e6a" d="m677.382 616.081.217.001c.124.156.055.037.178.439-.289-.042-.2-.004-.32-.083-.071-.14-.036-.038-.075-.357"/><path fill="#9c8463" d="m571.381 714.196.29-.035c.066.139.038.03.001.419-.203-.162-.178-.151-.291-.384"/><path fill="#a58e6a" d="m607.672 176.665.388.052-.111.309-.524.065-.016-.032c.066-.172.005-.054.263-.394"/><path fill="#9c8463" d="m490.015 750.457.311-.068c.108.078.045.012.179.262-.336 0-.257.037-.49-.194"/><path fill="#9c8463" d="M409.885 258.08c.244.039.158.004.284.083l-.069.341-.601.063-.01-.031c.118-.205.019-.067.396-.456"/><path fill="#a58e6a" d="m452.849 371.092.261.072c.045.146.041.048-.075.322l-.579.105-.009-.026c.122-.21.021-.067.402-.473"/><path fill="#6c553e" d="m811.276 479.152.262-.021c.089.147.046.033.068.433l-.194-.093c-.108-.153-.058-.054-.136-.319"/><path fill="#a58e6a" d="M549.07 380.467c.343-.062.225-.014.475.184l-.247.025c-.151-.079-.073-.018-.228-.209"/><path fill="#9c8463" d="m525.518 266.579.21.001c.108.153.05.037.14.43-.299-.033-.211.005-.326-.073-.053-.141-.031-.039-.024-.358"/><path fill="#a58e6a" d="M201.864 619.484c.212.039.089-.001.377.151-.312-.1-.195-.047-.377-.151"/><path fill="#a58e6a" d="m452.107 310.542.433-.138c.022.182.021.062-.025.393l-.269.191-.046-.027z"/><path fill="#9c8463" d="M578.469 560.477c.217.042.091 0 .388.155-.328-.098-.21-.042-.388-.155"/><path fill="#ba9a69" d="M784.052 309.465c.373.008.255-.019.417.043.072.117.039.029.054.317l-.423-.146c-.085-.114-.063-.045-.048-.214"/><path fill="#9c8463" d="M774.905 267.48c.216.04.09 0 .387.153-.323-.1-.204-.045-.387-.153"/><path fill="#a58e6a" d="m239.459 715.051.192.01c.122.163.054.041.184.446-.3-.045-.21-.004-.329-.087-.062-.146-.034-.041-.047-.369"/><path fill="#a58e6a" d="M512.049 746.461c.316-.044.252.012.518.185l-.276.023c-.162-.079-.079-.018-.242-.208"/><path fill="#9c8463" d="M600.455 542.482c.191.04.077 0 .353.151-.297-.088-.189-.031-.353-.151"/><path fill="#9c8463" d="m696.044 300.457.302-.071.172.263c-.258.001-.282-.057-.474-.192"/><path fill="#9c8463" d="m310.745 261.446.26-.092c.127.076.049.009.227.274l-.322.057c-.134-.09-.072-.021-.165-.239"/><path fill="#9c8463" d="m295.403 597.138.254-.017c.098.144.048.032.1.425-.295-.139-.235-.14-.354-.408"/><path fill="#a58e6a" d="M810.952 545.475c.221.042.091 0 .399.155-.336-.101-.214-.045-.399-.155"/><path fill="#b6a687" d="M257.532 425.948c.051-.367.004-1.289.549-1.261.246.332.115.715.078 1.128z"/><path fill="#7e6e55" d="M445.418 560.486c.195.039.081-.001.349.149-.291-.097-.183-.044-.349-.149"/><path fill="#7e6e55" d="M212.586 545.482c.19.039.077 0 .35.15-.301-.088-.196-.031-.35-.15"/></svg>