<svg width="100" height="60" viewBox="0 0 100 60" fill="none" xmlns="http://www.w3.org/2000/svg">
<g clip-path="url(#clip0_183_267)">
<mask id="path-1-inside-1_183_267" fill="white">
<path d="M0 0H60V60H0V0Z"/>
</mask>
<path d="M0 0V-2H-2V0H0ZM0 60H-2V62H0V60ZM0 2H60V-2H0V2ZM60 58H0V62H60V58ZM2 60V0H-2V60H2Z" fill="#FFCC66" mask="url(#path-1-inside-1_183_267)"/>
<path d="M26.1925 16.625V28H23.8566V16.625H26.1925ZM29.6925 16.625V18.4609H20.4113V16.625H29.6925ZM38.9344 21.2578V23.0859H32.9969V21.2578H38.9344ZM33.6922 16.625V28H31.3484V16.625H33.6922ZM40.6063 16.625V28H38.2703V16.625H40.6063ZM50.5981 26.1719V28H44.5434V26.1719H50.5981ZM45.3091 16.625V28H42.9653V16.625H45.3091ZM49.8091 21.2578V23.0391H44.5434V21.2578H49.8091ZM50.5903 16.625V18.4609H44.5434V16.625H50.5903ZM65.6053 22.0547V26.5625C65.4282 26.776 65.1548 27.0078 64.785 27.2578C64.4152 27.5026 63.9386 27.7135 63.3553 27.8906C62.772 28.0677 62.0662 28.1562 61.2381 28.1562C60.5037 28.1562 59.8345 28.0365 59.2303 27.7969C58.6261 27.5521 58.1053 27.1953 57.6678 26.7266C57.2355 26.2578 56.9022 25.6849 56.6678 25.0078C56.4334 24.3255 56.3162 23.5469 56.3162 22.6719V21.9609C56.3162 21.0859 56.4282 20.3073 56.6522 19.625C56.8814 18.9427 57.2069 18.3672 57.6287 17.8984C58.0506 17.4297 58.5532 17.0729 59.1366 16.8281C59.7199 16.5833 60.3683 16.4609 61.0819 16.4609C62.0715 16.4609 62.884 16.6224 63.5194 16.9453C64.1548 17.263 64.6392 17.7057 64.9725 18.2734C65.311 18.8359 65.5194 19.4818 65.5975 20.2109H63.3241C63.2668 19.8255 63.1574 19.4896 62.9959 19.2031C62.8345 18.9167 62.6027 18.6927 62.3006 18.5312C62.0037 18.3698 61.6183 18.2891 61.1444 18.2891C60.7537 18.2891 60.4048 18.3698 60.0975 18.5312C59.7954 18.6875 59.5402 18.9193 59.3319 19.2266C59.1235 19.5339 58.9647 19.9141 58.8553 20.3672C58.7459 20.8203 58.6912 21.3464 58.6912 21.9453V22.6719C58.6912 23.2656 58.7485 23.7917 58.8631 24.25C58.9777 24.7031 59.147 25.0859 59.3709 25.3984C59.6001 25.7057 59.8814 25.9375 60.2147 26.0938C60.548 26.25 60.936 26.3281 61.3787 26.3281C61.7485 26.3281 62.0558 26.2969 62.3006 26.2344C62.5506 26.1719 62.7511 26.0964 62.9022 26.0078C63.0584 25.9141 63.1782 25.8255 63.2616 25.7422V23.7266H61.1209V22.0547H65.6053ZM77.1597 22.0469V22.5859C77.1597 23.4505 77.0425 24.2266 76.8081 24.9141C76.5737 25.6016 76.243 26.1875 75.8159 26.6719C75.3889 27.151 74.8784 27.5182 74.2847 27.7734C73.6961 28.0286 73.0425 28.1562 72.3237 28.1562C71.6102 28.1562 70.9566 28.0286 70.3628 27.7734C69.7743 27.5182 69.2639 27.151 68.8316 26.6719C68.3993 26.1875 68.0633 25.6016 67.8237 24.9141C67.5894 24.2266 67.4722 23.4505 67.4722 22.5859V22.0469C67.4722 21.1771 67.5894 20.401 67.8237 19.7188C68.0581 19.0312 68.3889 18.4453 68.8159 17.9609C69.2482 17.4766 69.7586 17.1068 70.3472 16.8516C70.9409 16.5964 71.5946 16.4688 72.3081 16.4688C73.0269 16.4688 73.6805 16.5964 74.2691 16.8516C74.8628 17.1068 75.3732 17.4766 75.8003 17.9609C76.2326 18.4453 76.5659 19.0312 76.8003 19.7188C77.0399 20.401 77.1597 21.1771 77.1597 22.0469ZM74.7925 22.5859V22.0312C74.7925 21.4271 74.7378 20.8958 74.6284 20.4375C74.5191 19.9792 74.3576 19.5938 74.1441 19.2812C73.9305 18.9688 73.6701 18.7344 73.3628 18.5781C73.0555 18.4167 72.704 18.3359 72.3081 18.3359C71.9123 18.3359 71.5607 18.4167 71.2534 18.5781C70.9514 18.7344 70.6935 18.9688 70.48 19.2812C70.2717 19.5938 70.1128 19.9792 70.0034 20.4375C69.8941 20.8958 69.8394 21.4271 69.8394 22.0312V22.5859C69.8394 23.1849 69.8941 23.7161 70.0034 24.1797C70.1128 24.638 70.2743 25.026 70.4878 25.3438C70.7014 25.6562 70.9618 25.8932 71.2691 26.0547C71.5764 26.2161 71.9279 26.2969 72.3237 26.2969C72.7196 26.2969 73.0711 26.2161 73.3784 26.0547C73.6857 25.8932 73.9435 25.6562 74.1519 25.3438C74.3602 25.026 74.5191 24.638 74.6284 24.1797C74.7378 23.7161 74.7925 23.1849 74.7925 22.5859ZM88.5109 22.0469V22.5859C88.5109 23.4505 88.3937 24.2266 88.1594 24.9141C87.925 25.6016 87.5943 26.1875 87.1672 26.6719C86.7401 27.151 86.2297 27.5182 85.6359 27.7734C85.0474 28.0286 84.3937 28.1562 83.675 28.1562C82.9615 28.1562 82.3078 28.0286 81.7141 27.7734C81.1255 27.5182 80.6151 27.151 80.1828 26.6719C79.7505 26.1875 79.4146 25.6016 79.175 24.9141C78.9406 24.2266 78.8234 23.4505 78.8234 22.5859V22.0469C78.8234 21.1771 78.9406 20.401 79.175 19.7188C79.4094 19.0312 79.7401 18.4453 80.1672 17.9609C80.5995 17.4766 81.1099 17.1068 81.6984 16.8516C82.2922 16.5964 82.9458 16.4688 83.6594 16.4688C84.3781 16.4688 85.0318 16.5964 85.6203 16.8516C86.2141 17.1068 86.7245 17.4766 87.1516 17.9609C87.5839 18.4453 87.9172 19.0312 88.1516 19.7188C88.3911 20.401 88.5109 21.1771 88.5109 22.0469ZM86.1437 22.5859V22.0312C86.1437 21.4271 86.0891 20.8958 85.9797 20.4375C85.8703 19.9792 85.7089 19.5938 85.4953 19.2812C85.2818 18.9688 85.0214 18.7344 84.7141 18.5781C84.4068 18.4167 84.0552 18.3359 83.6594 18.3359C83.2635 18.3359 82.912 18.4167 82.6047 18.5781C82.3026 18.7344 82.0448 18.9688 81.8312 19.2812C81.6229 19.5938 81.4641 19.9792 81.3547 20.4375C81.2453 20.8958 81.1906 21.4271 81.1906 22.0312V22.5859C81.1906 23.1849 81.2453 23.7161 81.3547 24.1797C81.4641 24.638 81.6255 25.026 81.8391 25.3438C82.0526 25.6562 82.313 25.8932 82.6203 26.0547C82.9276 26.2161 83.2792 26.2969 83.675 26.2969C84.0708 26.2969 84.4224 26.2161 84.7297 26.0547C85.037 25.8932 85.2948 25.6562 85.5031 25.3438C85.7115 25.026 85.8703 24.638 85.9797 24.1797C86.0891 23.7161 86.1437 23.1849 86.1437 22.5859ZM94.0106 28H91.5341L91.5497 26.1719H94.0106C94.6252 26.1719 95.1434 26.0339 95.5653 25.7578C95.9872 25.4766 96.3049 25.0677 96.5184 24.5312C96.7372 23.9948 96.8466 23.3464 96.8466 22.5859V22.0312C96.8466 21.4479 96.7841 20.9349 96.6591 20.4922C96.5393 20.0495 96.3596 19.6771 96.12 19.375C95.8804 19.0729 95.5861 18.8464 95.2372 18.6953C94.8882 18.5391 94.4872 18.4609 94.0341 18.4609H91.4872V16.625H94.0341C94.7945 16.625 95.4898 16.7552 96.12 17.0156C96.7554 17.2708 97.3049 17.638 97.7684 18.1172C98.232 18.5964 98.5887 19.1693 98.8387 19.8359C99.094 20.4974 99.2216 21.2344 99.2216 22.0469V22.5859C99.2216 23.3932 99.094 24.1302 98.8387 24.7969C98.5887 25.4635 98.232 26.0365 97.7684 26.5156C97.3101 26.9896 96.7606 27.3568 96.12 27.6172C95.4846 27.8724 94.7815 28 94.0106 28ZM92.8622 16.625V28H90.5184V16.625H92.8622ZM35.6609 39.2266H37.9969C37.95 39.9922 37.7391 40.6719 37.3641 41.2656C36.9943 41.8594 36.476 42.3229 35.8094 42.6562C35.1479 42.9896 34.351 43.1562 33.4188 43.1562C32.6896 43.1562 32.0359 43.0312 31.4578 42.7812C30.8797 42.526 30.3849 42.1615 29.9734 41.6875C29.5672 41.2135 29.2573 40.6406 29.0438 39.9688C28.8302 39.2969 28.7234 38.5443 28.7234 37.7109V36.9219C28.7234 36.0885 28.8328 35.3359 29.0516 34.6641C29.2755 33.987 29.5932 33.4115 30.0047 32.9375C30.4214 32.4635 30.9188 32.099 31.4969 31.8438C32.075 31.5885 32.7208 31.4609 33.4344 31.4609C34.3823 31.4609 35.1818 31.6328 35.8328 31.9766C36.4891 32.3203 36.9969 32.7943 37.3563 33.3984C37.7208 34.0026 37.9396 34.6901 38.0125 35.4609H35.6688C35.6427 35.0026 35.5516 34.6146 35.3953 34.2969C35.2391 33.974 35.0021 33.7318 34.6844 33.5703C34.3719 33.4036 33.9552 33.3203 33.4344 33.3203C33.0438 33.3203 32.7026 33.3932 32.4109 33.5391C32.1193 33.6849 31.8745 33.9062 31.6766 34.2031C31.4786 34.5 31.3302 34.875 31.2313 35.3281C31.1375 35.776 31.0906 36.3021 31.0906 36.9062V37.7109C31.0906 38.2995 31.1349 38.8177 31.2234 39.2656C31.312 39.7083 31.4474 40.0833 31.6297 40.3906C31.8172 40.6927 32.0568 40.9219 32.3484 41.0781C32.6453 41.2292 33.0021 41.3047 33.4188 41.3047C33.9083 41.3047 34.312 41.2266 34.6297 41.0703C34.9474 40.9141 35.1896 40.6823 35.3563 40.375C35.5281 40.0677 35.6297 39.6849 35.6609 39.2266ZM49.1997 37.0469V37.5859C49.1997 38.4505 49.0825 39.2266 48.8481 39.9141C48.6138 40.6016 48.283 41.1875 47.8559 41.6719C47.4289 42.151 46.9184 42.5182 46.3247 42.7734C45.7361 43.0286 45.0825 43.1562 44.3638 43.1562C43.6502 43.1562 42.9966 43.0286 42.4028 42.7734C41.8143 42.5182 41.3039 42.151 40.8716 41.6719C40.4393 41.1875 40.1033 40.6016 39.8638 39.9141C39.6294 39.2266 39.5122 38.4505 39.5122 37.5859V37.0469C39.5122 36.1771 39.6294 35.401 39.8638 34.7188C40.0981 34.0312 40.4289 33.4453 40.8559 32.9609C41.2882 32.4766 41.7986 32.1068 42.3872 31.8516C42.9809 31.5964 43.6346 31.4688 44.3481 31.4688C45.0669 31.4688 45.7205 31.5964 46.3091 31.8516C46.9028 32.1068 47.4132 32.4766 47.8403 32.9609C48.2726 33.4453 48.6059 34.0312 48.8403 34.7188C49.0799 35.401 49.1997 36.1771 49.1997 37.0469ZM46.8325 37.5859V37.0312C46.8325 36.4271 46.7778 35.8958 46.6684 35.4375C46.5591 34.9792 46.3976 34.5938 46.1841 34.2812C45.9705 33.9688 45.7101 33.7344 45.4028 33.5781C45.0955 33.4167 44.744 33.3359 44.3481 33.3359C43.9523 33.3359 43.6007 33.4167 43.2934 33.5781C42.9914 33.7344 42.7335 33.9688 42.52 34.2812C42.3117 34.5938 42.1528 34.9792 42.0434 35.4375C41.9341 35.8958 41.8794 36.4271 41.8794 37.0312V37.5859C41.8794 38.1849 41.9341 38.7161 42.0434 39.1797C42.1528 39.638 42.3143 40.026 42.5278 40.3438C42.7414 40.6562 43.0018 40.8932 43.3091 41.0547C43.6164 41.2161 43.9679 41.2969 44.3638 41.2969C44.7596 41.2969 45.1111 41.2161 45.4184 41.0547C45.7257 40.8932 45.9835 40.6562 46.1919 40.3438C46.4002 40.026 46.5591 39.638 46.6684 39.1797C46.7778 38.7161 46.8325 38.1849 46.8325 37.5859ZM51.2072 31.625H55.4494C56.3192 31.625 57.0666 31.7552 57.6916 32.0156C58.3218 32.276 58.8061 32.6615 59.1447 33.1719C59.4832 33.6823 59.6525 34.3099 59.6525 35.0547C59.6525 35.6641 59.5483 36.1875 59.34 36.625C59.1369 37.0573 58.8478 37.4193 58.4728 37.7109C58.103 37.9974 57.6681 38.2266 57.1681 38.3984L56.4259 38.7891H52.7384L52.7228 36.9609H55.465C55.8765 36.9609 56.2176 36.888 56.4884 36.7422C56.7593 36.5964 56.9624 36.3932 57.0978 36.1328C57.2384 35.8724 57.3088 35.5703 57.3088 35.2266C57.3088 34.862 57.241 34.5469 57.1056 34.2812C56.9702 34.0156 56.7645 33.8125 56.4884 33.6719C56.2124 33.5312 55.866 33.4609 55.4494 33.4609H53.5509V43H51.2072V31.625ZM57.5666 43L54.9728 37.9297L57.4494 37.9141L60.0744 42.8906V43H57.5666ZM71.035 31.625V43H68.6912L64.1209 35.375V43H61.7772V31.625H64.1209L68.6991 39.2578V31.625H71.035ZM81.0269 41.1719V43H74.9722V41.1719H81.0269ZM75.7378 31.625V43H73.3941V31.625H75.7378ZM80.2378 36.2578V38.0391H74.9722V36.2578H80.2378ZM81.0191 31.625V33.4609H74.9722V31.625H81.0191ZM82.7141 31.625H86.9562C87.826 31.625 88.5734 31.7552 89.1984 32.0156C89.8286 32.276 90.313 32.6615 90.6516 33.1719C90.9901 33.6823 91.1594 34.3099 91.1594 35.0547C91.1594 35.6641 91.0552 36.1875 90.8469 36.625C90.6437 37.0573 90.3547 37.4193 89.9797 37.7109C89.6099 37.9974 89.175 38.2266 88.675 38.3984L87.9328 38.7891H84.2453L84.2297 36.9609H86.9719C87.3833 36.9609 87.7245 36.888 87.9953 36.7422C88.2661 36.5964 88.4693 36.3932 88.6047 36.1328C88.7453 35.8724 88.8156 35.5703 88.8156 35.2266C88.8156 34.862 88.7479 34.5469 88.6125 34.2812C88.4771 34.0156 88.2714 33.8125 87.9953 33.6719C87.7193 33.5312 87.3729 33.4609 86.9562 33.4609H85.0578V43H82.7141V31.625ZM89.0734 43L86.4797 37.9297L88.9562 37.9141L91.5812 42.8906V43H89.0734Z" fill="#FFCC66"/>
<line x1="61" y1="50" x2="61" y2="60" stroke="#FFCC66" stroke-width="2"/>
<line x1="61" x2="61" y2="10" stroke="#FFCC66" stroke-width="2"/>
</g>
<defs>
<clipPath id="clip0_183_267">
<rect width="100" height="60" fill="white"/>
</clipPath>
</defs>
</svg>
